solid OpenSCAD_Model
  facet normal 0.77051324 0.637424 0
    outer loop
      vertex 1.2135248 0.8816776 10
      vertex 1.0934525 1.0268202 0
      vertex 1.0934525 1.0268202 10
    endloop
  endfacet
  facet normal 0.77051324 0.637424 0
    outer loop
      vertex 1.0934525 1.0268202 0
      vertex 1.2135248 0.8816776 10
      vertex 1.2135248 0.8816776 0
    endloop
  endfacet
  facet normal 0.24869178 0.9685827 0
    outer loop
      vertex 0.46352482 1.4265842 0
      vertex 0.28107166 1.4734306 10
      vertex 0.46352482 1.4265842 10
    endloop
  endfacet
  facet normal 0.24869178 0.9685827 0
    outer loop
      vertex 0.28107166 1.4734306 10
      vertex 0.46352482 1.4265842 0
      vertex 0.28107166 1.4734306 0
    endloop
  endfacet
  facet normal 0.99802655 0.06279307 0
    outer loop
      vertex 1.5 0 10
      vertex 1.4881716 0.18799973 0
      vertex 1.4881716 0.18799973 10
    endloop
  endfacet
  facet normal 0.99802655 0.06279307 0
    outer loop
      vertex 1.4881716 0.18799973 0
      vertex 1.5 0 10
      vertex 1.5 0 0
    endloop
  endfacet
  facet normal 0.48175356 -0.8763068 0
    outer loop
      vertex 0.63866806 -1.3572397 0
      vertex 0.80373955 -1.2664909 10
      vertex 0.63866806 -1.3572397 10
    endloop
  endfacet
  facet normal 0.48175356 -0.8763068 0
    outer loop
      vertex 0.80373955 -1.2664909 10
      vertex 0.63866806 -1.3572397 0
      vertex 0.80373955 -1.2664909 0
    endloop
  endfacet
  facet normal 0 0 1
    outer loop
      vertex 0.5 0 10
      vertex 1.5 0 10
      vertex 1.4881716 0.18799973 10
    endloop
  endfacet
  facet normal 0 0 1
    outer loop
      vertex 0.49605656 0.06266594 10
      vertex 1.4881716 0.18799973 10
      vertex 1.4528742 0.37303448 10
    endloop
  endfacet
  facet normal 0 0 1
    outer loop
      vertex 1.5 0 10
      vertex 0.5 0 10
      vertex 1.4881716 -0.18799973 10
    endloop
  endfacet
  facet normal 0 0 1
    outer loop
      vertex 0.48429108 0.124344826 10
      vertex 1.4528742 0.37303448 10
      vertex 1.3946638 0.552186 10
    endloop
  endfacet
  facet normal 0 0 1
    outer loop
      vertex 0.49605656 -0.06266594 10
      vertex 1.4881716 -0.18799973 10
      vertex 0.5 0 10
    endloop
  endfacet
  facet normal 0 0 1
    outer loop
      vertex 0.46488762 0.184062 10
      vertex 1.3946638 0.552186 10
      vertex 1.3144598 0.7226305 10
    endloop
  endfacet
  facet normal 0 0 1
    outer loop
      vertex 1.4881716 -0.18799973 10
      vertex 0.49605656 -0.06266594 10
      vertex 1.4528742 -0.37303448 10
    endloop
  endfacet
  facet normal 0 0 1
    outer loop
      vertex 0.43815327 0.2408762 10
      vertex 1.3144598 0.7226305 10
      vertex 1.2135248 0.8816776 10
    endloop
  endfacet
  facet normal 0 0 1
    outer loop
      vertex 0.48429108 -0.124344826 10
      vertex 1.4528742 -0.37303448 10
      vertex 0.49605656 -0.06266594 10
    endloop
  endfacet
  facet normal 0 0 1
    outer loop
      vertex 0.40450764 0.2938919 10
      vertex 1.2135248 0.8816776 10
      vertex 1.0934525 1.0268202 10
    endloop
  endfacet
  facet normal 0 0 1
    outer loop
      vertex 1.4528742 -0.37303448 10
      vertex 0.48429108 -0.124344826 10
      vertex 1.3946638 -0.552186 10
    endloop
  endfacet
  facet normal 0 0 1
    outer loop
      vertex 0.36448383 0.34227276 10
      vertex 1.0934525 1.0268202 10
      vertex 0.95613575 1.1557693 10
    endloop
  endfacet
  facet normal 0 0 1
    outer loop
      vertex 0.46488762 -0.184062 10
      vertex 1.3946638 -0.552186 10
      vertex 0.48429108 -0.124344826 10
    endloop
  endfacet
  facet normal 0 0 1
    outer loop
      vertex 0.31871128 0.3852558 10
      vertex 0.95613575 1.1557693 10
      vertex 0.80373955 1.2664909 10
    endloop
  endfacet
  facet normal 0 0 1
    outer loop
      vertex 1.3946638 -0.552186 10
      vertex 0.46488762 -0.184062 10
      vertex 1.3144598 -0.7226305 10
    endloop
  endfacet
  facet normal 0 0 1
    outer loop
      vertex 0.26791286 0.422163 10
      vertex 0.80373955 1.2664909 10
      vertex 0.63866806 1.3572397 10
    endloop
  endfacet
  facet normal 0 0 1
    outer loop
      vertex 0.43815327 -0.2408762 10
      vertex 1.3144598 -0.7226305 10
      vertex 0.46488762 -0.184062 10
    endloop
  endfacet
  facet normal 0 0 1
    outer loop
      vertex 1.3144598 -0.7226305 10
      vertex 0.43815327 -0.2408762 10
      vertex 1.2135248 -0.8816776 10
    endloop
  endfacet
  facet normal 0 0 1
    outer loop
      vertex 1.4881716 0.18799973 10
      vertex 0.49605656 0.06266594 10
      vertex 0.5 0 10
    endloop
  endfacet
  facet normal 0 0 1
    outer loop
      vertex 1.4528742 0.37303448 10
      vertex 0.48429108 0.124344826 10
      vertex 0.49605656 0.06266594 10
    endloop
  endfacet
  facet normal 0 0 1
    outer loop
      vertex 1.3946638 0.552186 10
      vertex 0.46488762 0.184062 10
      vertex 0.48429108 0.124344826 10
    endloop
  endfacet
  facet normal 0 0 1
    outer loop
      vertex 0.21288872 0.4524126 10
      vertex 0.63866806 1.3572397 10
      vertex 0.46352482 1.4265842 10
    endloop
  endfacet
  facet normal 0 0 1
    outer loop
      vertex 1.3144598 0.7226305 10
      vertex 0.43815327 0.2408762 10
      vertex 0.46488762 0.184062 10
    endloop
  endfacet
  facet normal 0 0 1
    outer loop
      vertex 1.2135248 0.8816776 10
      vertex 0.40450764 0.2938919 10
      vertex 0.43815327 0.2408762 10
    endloop
  endfacet
  facet normal 0 0 1
    outer loop
      vertex 1.0934525 1.0268202 10
      vertex 0.36448383 0.34227276 10
      vertex 0.40450764 0.2938919 10
    endloop
  endfacet
  facet normal 0 0 1
    outer loop
      vertex 0.95613575 1.1557693 10
      vertex 0.31871128 0.3852558 10
      vertex 0.36448383 0.34227276 10
    endloop
  endfacet
  facet normal 0 0 1
    outer loop
      vertex 0.15450764 0.47552776 10
      vertex 0.46352482 1.4265842 10
      vertex 0.28107166 1.4734306 10
    endloop
  endfacet
  facet normal 0 0 1
    outer loop
      vertex 0.80373955 1.2664909 10
      vertex 0.26791286 0.422163 10
      vertex 0.31871128 0.3852558 10
    endloop
  endfacet
  facet normal 0 0 1
    outer loop
      vertex 0.63866806 1.3572397 10
      vertex 0.21288872 0.4524126 10
      vertex 0.26791286 0.422163 10
    endloop
  endfacet
  facet normal 0 0 1
    outer loop
      vertex 0.46352482 1.4265842 10
      vertex 0.15450764 0.47552776 10
      vertex 0.21288872 0.4524126 10
    endloop
  endfacet
  facet normal 0 0 1
    outer loop
      vertex 0.09368992 0.49114323 10
      vertex 0.28107166 1.4734306 10
      vertex 0.094184875 1.4970398 10
    endloop
  endfacet
  facet normal 0 0 1
    outer loop
      vertex 0.28107166 1.4734306 10
      vertex 0.09368992 0.49114323 10
      vertex 0.15450764 0.47552776 10
    endloop
  endfacet
  facet normal 0 0 1
    outer loop
      vertex 0.094184875 1.4970398 10
      vertex 0.03139496 0.49901295 10
      vertex 0.09368992 0.49114323 10
    endloop
  endfacet
  facet normal 0 0 1
    outer loop
      vertex 0.094184875 1.4970398 10
      vertex -0.03139496 0.49901295 10
      vertex 0.03139496 0.49901295 10
    endloop
  endfacet
  facet normal 0 0 1
    outer loop
      vertex -0.094184875 1.4970398 10
      vertex -0.03139496 0.49901295 10
      vertex 0.094184875 1.4970398 10
    endloop
  endfacet
  facet normal 0 0 1
    outer loop
      vertex -0.03139496 0.49901295 10
      vertex -0.094184875 1.4970398 10
      vertex -0.09368992 0.49114323 10
    endloop
  endfacet
  facet normal 0 0 1
    outer loop
      vertex -0.28107166 1.4734306 10
      vertex -0.09368992 0.49114323 10
      vertex -0.094184875 1.4970398 10
    endloop
  endfacet
  facet normal 0 0 1
    outer loop
      vertex -0.09368992 0.49114323 10
      vertex -0.28107166 1.4734306 10
      vertex -0.15450764 0.47552776 10
    endloop
  endfacet
  facet normal 0 0 1
    outer loop
      vertex -0.46352482 1.4265842 10
      vertex -0.15450764 0.47552776 10
      vertex -0.28107166 1.4734306 10
    endloop
  endfacet
  facet normal 0 0 1
    outer loop
      vertex -0.15450764 0.47552776 10
      vertex -0.46352482 1.4265842 10
      vertex -0.21288872 0.4524126 10
    endloop
  endfacet
  facet normal 0 0 1
    outer loop
      vertex -0.63866806 1.3572397 10
      vertex -0.21288872 0.4524126 10
      vertex -0.46352482 1.4265842 10
    endloop
  endfacet
  facet normal 0 0 1
    outer loop
      vertex -0.21288872 0.4524126 10
      vertex -0.63866806 1.3572397 10
      vertex -0.26791286 0.422163 10
    endloop
  endfacet
  facet normal 0 0 1
    outer loop
      vertex -0.80373955 1.2664909 10
      vertex -0.26791286 0.422163 10
      vertex -0.63866806 1.3572397 10
    endloop
  endfacet
  facet normal 0 0 1
    outer loop
      vertex -0.26791286 0.422163 10
      vertex -0.80373955 1.2664909 10
      vertex -0.31871128 0.3852558 10
    endloop
  endfacet
  facet normal 0 0 1
    outer loop
      vertex -0.95613575 1.1557693 10
      vertex -0.31871128 0.3852558 10
      vertex -0.80373955 1.2664909 10
    endloop
  endfacet
  facet normal 0 0 1
    outer loop
      vertex -0.31871128 0.3852558 10
      vertex -0.95613575 1.1557693 10
      vertex -0.36448383 0.34227276 10
    endloop
  endfacet
  facet normal 0 0 1
    outer loop
      vertex -1.0934525 1.0268202 10
      vertex -0.36448383 0.34227276 10
      vertex -0.95613575 1.1557693 10
    endloop
  endfacet
  facet normal 0 0 1
    outer loop
      vertex -0.36448383 0.34227276 10
      vertex -1.0934525 1.0268202 10
      vertex -0.40450764 0.2938919 10
    endloop
  endfacet
  facet normal 0 0 1
    outer loop
      vertex -1.2135248 0.8816776 10
      vertex -0.40450764 0.2938919 10
      vertex -1.0934525 1.0268202 10
    endloop
  endfacet
  facet normal 0 0 1
    outer loop
      vertex -0.40450764 0.2938919 10
      vertex -1.2135248 0.8816776 10
      vertex -0.43815327 0.2408762 10
    endloop
  endfacet
  facet normal 0 0 1
    outer loop
      vertex 0.40450764 -0.2938919 10
      vertex 1.2135248 -0.8816776 10
      vertex 0.43815327 -0.2408762 10
    endloop
  endfacet
  facet normal 0 0 1
    outer loop
      vertex 1.2135248 -0.8816776 10
      vertex 0.40450764 -0.2938919 10
      vertex 1.0934525 -1.0268202 10
    endloop
  endfacet
  facet normal 0 0 1
    outer loop
      vertex 0.36448383 -0.34227276 10
      vertex 1.0934525 -1.0268202 10
      vertex 0.40450764 -0.2938919 10
    endloop
  endfacet
  facet normal 0 0 1
    outer loop
      vertex 1.0934525 -1.0268202 10
      vertex 0.36448383 -0.34227276 10
      vertex 0.95613575 -1.1557693 10
    endloop
  endfacet
  facet normal 0 0 1
    outer loop
      vertex 0.31871128 -0.3852558 10
      vertex 0.95613575 -1.1557693 10
      vertex 0.36448383 -0.34227276 10
    endloop
  endfacet
  facet normal 0 0 1
    outer loop
      vertex 0.95613575 -1.1557693 10
      vertex 0.31871128 -0.3852558 10
      vertex 0.80373955 -1.2664909 10
    endloop
  endfacet
  facet normal 0 0 1
    outer loop
      vertex 0.26791286 -0.422163 10
      vertex 0.80373955 -1.2664909 10
      vertex 0.31871128 -0.3852558 10
    endloop
  endfacet
  facet normal 0 0 1
    outer loop
      vertex 0.80373955 -1.2664909 10
      vertex 0.26791286 -0.422163 10
      vertex 0.63866806 -1.3572397 10
    endloop
  endfacet
  facet normal 0 0 1
    outer loop
      vertex 0.21288872 -0.4524126 10
      vertex 0.63866806 -1.3572397 10
      vertex 0.26791286 -0.422163 10
    endloop
  endfacet
  facet normal 0 0 1
    outer loop
      vertex 0.63866806 -1.3572397 10
      vertex 0.21288872 -0.4524126 10
      vertex 0.46352482 -1.4265842 10
    endloop
  endfacet
  facet normal 0 0 1
    outer loop
      vertex 0.15450764 -0.47552776 10
      vertex 0.46352482 -1.4265842 10
      vertex 0.21288872 -0.4524126 10
    endloop
  endfacet
  facet normal 0 0 1
    outer loop
      vertex 0.46352482 -1.4265842 10
      vertex 0.15450764 -0.47552776 10
      vertex 0.28107166 -1.4734306 10
    endloop
  endfacet
  facet normal 0 0 1
    outer loop
      vertex 0.09368992 -0.49114323 10
      vertex 0.28107166 -1.4734306 10
      vertex 0.15450764 -0.47552776 10
    endloop
  endfacet
  facet normal 0 0 1
    outer loop
      vertex 0.28107166 -1.4734306 10
      vertex 0.09368992 -0.49114323 10
      vertex 0.094184875 -1.4970398 10
    endloop
  endfacet
  facet normal 0 0 1
    outer loop
      vertex 0.03139496 -0.49901295 10
      vertex 0.094184875 -1.4970398 10
      vertex 0.09368992 -0.49114323 10
    endloop
  endfacet
  facet normal 0 0 1
    outer loop
      vertex -0.03139496 -0.49901295 10
      vertex 0.094184875 -1.4970398 10
      vertex 0.03139496 -0.49901295 10
    endloop
  endfacet
  facet normal 0 0 1
    outer loop
      vertex -0.094184875 -1.4970398 10
      vertex -0.03139496 -0.49901295 10
      vertex -0.09368992 -0.49114323 10
    endloop
  endfacet
  facet normal 0 0 1
    outer loop
      vertex -0.03139496 -0.49901295 10
      vertex -0.094184875 -1.4970398 10
      vertex 0.094184875 -1.4970398 10
    endloop
  endfacet
  facet normal 0 0 1
    outer loop
      vertex -0.28107166 -1.4734306 10
      vertex -0.09368992 -0.49114323 10
      vertex -0.15450764 -0.47552776 10
    endloop
  endfacet
  facet normal 0 0 1
    outer loop
      vertex -0.46352482 -1.4265842 10
      vertex -0.15450764 -0.47552776 10
      vertex -0.21288872 -0.4524126 10
    endloop
  endfacet
  facet normal 0 0 1
    outer loop
      vertex -0.63866806 -1.3572397 10
      vertex -0.21288872 -0.4524126 10
      vertex -0.26791286 -0.422163 10
    endloop
  endfacet
  facet normal 0 0 1
    outer loop
      vertex -0.09368992 -0.49114323 10
      vertex -0.28107166 -1.4734306 10
      vertex -0.094184875 -1.4970398 10
    endloop
  endfacet
  facet normal 0 0 1
    outer loop
      vertex -0.80373955 -1.2664909 10
      vertex -0.26791286 -0.422163 10
      vertex -0.31871128 -0.3852558 10
    endloop
  endfacet
  facet normal 0 0 1
    outer loop
      vertex -0.95613575 -1.1557693 10
      vertex -0.31871128 -0.3852558 10
      vertex -0.36448383 -0.34227276 10
    endloop
  endfacet
  facet normal 0 0 1
    outer loop
      vertex -1.0934525 -1.0268202 10
      vertex -0.36448383 -0.34227276 10
      vertex -0.40450764 -0.2938919 10
    endloop
  endfacet
  facet normal 0 0 1
    outer loop
      vertex -1.2135248 -0.8816776 10
      vertex -0.40450764 -0.2938919 10
      vertex -0.43815327 -0.2408762 10
    endloop
  endfacet
  facet normal 0 0 1
    outer loop
      vertex -0.15450764 -0.47552776 10
      vertex -0.46352482 -1.4265842 10
      vertex -0.28107166 -1.4734306 10
    endloop
  endfacet
  facet normal 0 0 1
    outer loop
      vertex -1.3144598 -0.7226305 10
      vertex -0.43815327 -0.2408762 10
      vertex -0.46488762 -0.184062 10
    endloop
  endfacet
  facet normal 0 0 1
    outer loop
      vertex -1.3946638 -0.552186 10
      vertex -0.46488762 -0.184062 10
      vertex -0.48429108 -0.124344826 10
    endloop
  endfacet
  facet normal 0 0 1
    outer loop
      vertex -1.4528742 -0.37303448 10
      vertex -0.48429108 -0.124344826 10
      vertex -0.49605656 -0.06266594 10
    endloop
  endfacet
  facet normal 0 0 1
    outer loop
      vertex -1.4881716 -0.18799973 10
      vertex -0.49605656 -0.06266594 10
      vertex -0.5 0 10
    endloop
  endfacet
  facet normal 0 0 1
    outer loop
      vertex -1.3144598 0.7226305 10
      vertex -0.43815327 0.2408762 10
      vertex -1.2135248 0.8816776 10
    endloop
  endfacet
  facet normal 0 0 1
    outer loop
      vertex -0.21288872 -0.4524126 10
      vertex -0.63866806 -1.3572397 10
      vertex -0.46352482 -1.4265842 10
    endloop
  endfacet
  facet normal 0 0 1
    outer loop
      vertex -0.43815327 0.2408762 10
      vertex -1.3144598 0.7226305 10
      vertex -0.46488762 0.184062 10
    endloop
  endfacet
  facet normal 0 0 1
    outer loop
      vertex -0.26791286 -0.422163 10
      vertex -0.80373955 -1.2664909 10
      vertex -0.63866806 -1.3572397 10
    endloop
  endfacet
  facet normal 0 0 1
    outer loop
      vertex -1.3946638 0.552186 10
      vertex -0.46488762 0.184062 10
      vertex -1.3144598 0.7226305 10
    endloop
  endfacet
  facet normal 0 0 1
    outer loop
      vertex -0.31871128 -0.3852558 10
      vertex -0.95613575 -1.1557693 10
      vertex -0.80373955 -1.2664909 10
    endloop
  endfacet
  facet normal 0 0 1
    outer loop
      vertex -0.46488762 0.184062 10
      vertex -1.3946638 0.552186 10
      vertex -0.48429108 0.124344826 10
    endloop
  endfacet
  facet normal 0 0 1
    outer loop
      vertex -0.36448383 -0.34227276 10
      vertex -1.0934525 -1.0268202 10
      vertex -0.95613575 -1.1557693 10
    endloop
  endfacet
  facet normal 0 0 1
    outer loop
      vertex -1.4528742 0.37303448 10
      vertex -0.48429108 0.124344826 10
      vertex -1.3946638 0.552186 10
    endloop
  endfacet
  facet normal 0 0 1
    outer loop
      vertex -0.40450764 -0.2938919 10
      vertex -1.2135248 -0.8816776 10
      vertex -1.0934525 -1.0268202 10
    endloop
  endfacet
  facet normal 0 0 1
    outer loop
      vertex -0.48429108 0.124344826 10
      vertex -1.4528742 0.37303448 10
      vertex -0.49605656 0.06266594 10
    endloop
  endfacet
  facet normal 0 0 1
    outer loop
      vertex -0.43815327 -0.2408762 10
      vertex -1.3144598 -0.7226305 10
      vertex -1.2135248 -0.8816776 10
    endloop
  endfacet
  facet normal 0 0 1
    outer loop
      vertex -1.4881716 0.18799973 10
      vertex -0.49605656 0.06266594 10
      vertex -1.4528742 0.37303448 10
    endloop
  endfacet
  facet normal 0 0 1
    outer loop
      vertex -0.46488762 -0.184062 10
      vertex -1.3946638 -0.552186 10
      vertex -1.3144598 -0.7226305 10
    endloop
  endfacet
  facet normal 0 0 1
    outer loop
      vertex -0.49605656 0.06266594 10
      vertex -1.4881716 0.18799973 10
      vertex -0.5 0 10
    endloop
  endfacet
  facet normal 0 0 1
    outer loop
      vertex -0.48429108 -0.124344826 10
      vertex -1.4528742 -0.37303448 10
      vertex -1.3946638 -0.552186 10
    endloop
  endfacet
  facet normal 0 0 1
    outer loop
      vertex -1.5 0 10
      vertex -0.5 0 10
      vertex -1.4881716 0.18799973 10
    endloop
  endfacet
  facet normal 0 0 1
    outer loop
      vertex -0.49605656 -0.06266594 10
      vertex -1.4881716 -0.18799973 10
      vertex -1.4528742 -0.37303448 10
    endloop
  endfacet
  facet normal 0 0 1
    outer loop
      vertex -0.5 0 10
      vertex -1.5 0 10
      vertex -1.4881716 -0.18799973 10
    endloop
  endfacet
  facet normal 0.36812642 -0.9297758 0
    outer loop
      vertex 0.46352482 -1.4265842 0
      vertex 0.63866806 -1.3572397 10
      vertex 0.46352482 -1.4265842 10
    endloop
  endfacet
  facet normal 0.36812642 -0.9297758 0
    outer loop
      vertex 0.63866806 -1.3572397 10
      vertex 0.46352482 -1.4265842 0
      vertex 0.63866806 -1.3572397 0
    endloop
  endfacet
  facet normal -0.68454766 -0.7289681 0
    outer loop
      vertex -1.0934525 -1.0268202 0
      vertex -0.95613575 -1.1557693 10
      vertex -1.0934525 -1.0268202 10
    endloop
  endfacet
  facet normal -0.68454766 -0.7289681 0
    outer loop
      vertex -0.95613575 -1.1557693 10
      vertex -1.0934525 -1.0268202 0
      vertex -0.95613575 -1.1557693 0
    endloop
  endfacet
  facet normal 0 1 0
    outer loop
      vertex 0.094184875 1.4970398 0
      vertex -0.094184875 1.4970398 10
      vertex 0.094184875 1.4970398 10
    endloop
  endfacet
  facet normal 0 1 0
    outer loop
      vertex -0.094184875 1.4970398 10
      vertex 0.094184875 1.4970398 0
      vertex -0.094184875 1.4970398 0
    endloop
  endfacet
  facet normal -0.48175356 -0.8763068 0
    outer loop
      vertex -0.80373955 -1.2664909 0
      vertex -0.63866806 -1.3572397 10
      vertex -0.80373955 -1.2664909 10
    endloop
  endfacet
  facet normal -0.48175356 -0.8763068 0
    outer loop
      vertex -0.63866806 -1.3572397 10
      vertex -0.80373955 -1.2664909 0
      vertex -0.63866806 -1.3572397 0
    endloop
  endfacet
  facet normal 0.12533255 -0.9921148 0
    outer loop
      vertex 0.094184875 -1.4970398 0
      vertex 0.28107166 -1.4734306 10
      vertex 0.094184875 -1.4970398 10
    endloop
  endfacet
  facet normal 0.12533255 -0.9921148 0
    outer loop
      vertex 0.28107166 -1.4734306 10
      vertex 0.094184875 -1.4970398 0
      vertex 0.28107166 -1.4734306 0
    endloop
  endfacet
  facet normal -0.8443265 -0.53582907 0
    outer loop
      vertex -1.2135248 -0.8816776 0
      vertex -1.3144598 -0.7226305 10
      vertex -1.3144598 -0.7226305 0
    endloop
  endfacet
  facet normal -0.8443265 -0.53582907 0
    outer loop
      vertex -1.3144598 -0.7226305 10
      vertex -1.2135248 -0.8816776 0
      vertex -1.2135248 -0.8816776 10
    endloop
  endfacet
  facet normal 0.90482926 -0.4257746 0
    outer loop
      vertex 1.3144598 -0.7226305 10
      vertex 1.3946638 -0.552186 0
      vertex 1.3946638 -0.552186 10
    endloop
  endfacet
  facet normal 0.90482926 -0.4257746 0
    outer loop
      vertex 1.3946638 -0.552186 0
      vertex 1.3144598 -0.7226305 10
      vertex 1.3144598 -0.7226305 0
    endloop
  endfacet
  facet normal 0.99802655 -0.06279307 0
    outer loop
      vertex 1.4881716 -0.18799973 10
      vertex 1.5 0 0
      vertex 1.5 0 10
    endloop
  endfacet
  facet normal 0.99802655 -0.06279307 0
    outer loop
      vertex 1.5 0 0
      vertex 1.4881716 -0.18799973 10
      vertex 1.4881716 -0.18799973 0
    endloop
  endfacet
  facet normal 0 -1 0
    outer loop
      vertex -0.094184875 -1.4970398 0
      vertex 0.094184875 -1.4970398 10
      vertex -0.094184875 -1.4970398 10
    endloop
  endfacet
  facet normal 0 -1 0
    outer loop
      vertex 0.094184875 -1.4970398 10
      vertex -0.094184875 -1.4970398 0
      vertex 0.094184875 -1.4970398 0
    endloop
  endfacet
  facet normal -0.12533255 0.9921148 0
    outer loop
      vertex -0.094184875 1.4970398 0
      vertex -0.28107166 1.4734306 10
      vertex -0.094184875 1.4970398 10
    endloop
  endfacet
  facet normal -0.12533255 0.9921148 0
    outer loop
      vertex -0.28107166 1.4734306 10
      vertex -0.094184875 1.4970398 0
      vertex -0.28107166 1.4734306 0
    endloop
  endfacet
  facet normal 0.48175356 0.8763068 0
    outer loop
      vertex 0.80373955 1.2664909 0
      vertex 0.63866806 1.3572397 10
      vertex 0.80373955 1.2664909 10
    endloop
  endfacet
  facet normal 0.48175356 0.8763068 0
    outer loop
      vertex 0.63866806 1.3572397 10
      vertex 0.80373955 1.2664909 0
      vertex 0.63866806 1.3572397 0
    endloop
  endfacet
  facet normal -0.12533255 -0.9921148 0
    outer loop
      vertex -0.28107166 -1.4734306 0
      vertex -0.094184875 -1.4970398 10
      vertex -0.28107166 -1.4734306 10
    endloop
  endfacet
  facet normal -0.12533255 -0.9921148 0
    outer loop
      vertex -0.094184875 -1.4970398 10
      vertex -0.28107166 -1.4734306 0
      vertex -0.094184875 -1.4970398 0
    endloop
  endfacet
  facet normal 0.68454766 -0.7289681 0
    outer loop
      vertex 0.95613575 -1.1557693 0
      vertex 1.0934525 -1.0268202 10
      vertex 0.95613575 -1.1557693 10
    endloop
  endfacet
  facet normal 0.68454766 -0.7289681 0
    outer loop
      vertex 1.0934525 -1.0268202 10
      vertex 0.95613575 -1.1557693 0
      vertex 1.0934525 -1.0268202 0
    endloop
  endfacet
  facet normal -0.68454766 0.7289681 0
    outer loop
      vertex -0.95613575 1.1557693 0
      vertex -1.0934525 1.0268202 10
      vertex -0.95613575 1.1557693 10
    endloop
  endfacet
  facet normal -0.68454766 0.7289681 0
    outer loop
      vertex -1.0934525 1.0268202 10
      vertex -0.95613575 1.1557693 0
      vertex -1.0934525 1.0268202 0
    endloop
  endfacet
  facet normal 0.9822871 -0.18738197 0
    outer loop
      vertex 1.4528742 -0.37303448 10
      vertex 1.4881716 -0.18799973 0
      vertex 1.4881716 -0.18799973 10
    endloop
  endfacet
  facet normal 0.9822871 -0.18738197 0
    outer loop
      vertex 1.4881716 -0.18799973 0
      vertex 1.4528742 -0.37303448 10
      vertex 1.4528742 -0.37303448 0
    endloop
  endfacet
  facet normal 0.9822871 0.18738197 0
    outer loop
      vertex 1.4881716 0.18799973 10
      vertex 1.4528742 0.37303448 0
      vertex 1.4528742 0.37303448 10
    endloop
  endfacet
  facet normal 0.9822871 0.18738197 0
    outer loop
      vertex 1.4528742 0.37303448 0
      vertex 1.4881716 0.18799973 10
      vertex 1.4881716 0.18799973 0
    endloop
  endfacet
  facet normal 0.90482926 0.4257746 0
    outer loop
      vertex 1.3946638 0.552186 10
      vertex 1.3144598 0.7226305 0
      vertex 1.3144598 0.7226305 10
    endloop
  endfacet
  facet normal 0.90482926 0.4257746 0
    outer loop
      vertex 1.3144598 0.7226305 0
      vertex 1.3946638 0.552186 10
      vertex 1.3946638 0.552186 0
    endloop
  endfacet
  facet normal -0.8443265 0.53582907 0
    outer loop
      vertex -1.3144598 0.7226305 0
      vertex -1.2135248 0.8816776 10
      vertex -1.2135248 0.8816776 0
    endloop
  endfacet
  facet normal -0.8443265 0.53582907 0
    outer loop
      vertex -1.2135248 0.8816776 10
      vertex -1.3144598 0.7226305 0
      vertex -1.3144598 0.7226305 10
    endloop
  endfacet
  facet normal -0.90482926 -0.4257746 0
    outer loop
      vertex -1.3144598 -0.7226305 0
      vertex -1.3946638 -0.552186 10
      vertex -1.3946638 -0.552186 0
    endloop
  endfacet
  facet normal -0.90482926 -0.4257746 0
    outer loop
      vertex -1.3946638 -0.552186 10
      vertex -1.3144598 -0.7226305 0
      vertex -1.3144598 -0.7226305 10
    endloop
  endfacet
  facet normal -0.77051324 0.637424 0
    outer loop
      vertex -1.2135248 0.8816776 0
      vertex -1.0934525 1.0268202 10
      vertex -1.0934525 1.0268202 0
    endloop
  endfacet
  facet normal -0.77051324 0.637424 0
    outer loop
      vertex -1.0934525 1.0268202 10
      vertex -1.2135248 0.8816776 0
      vertex -1.2135248 0.8816776 10
    endloop
  endfacet
  facet normal -0.90482926 0.4257746 0
    outer loop
      vertex -1.3946638 0.552186 0
      vertex -1.3144598 0.7226305 10
      vertex -1.3144598 0.7226305 0
    endloop
  endfacet
  facet normal -0.90482926 0.4257746 0
    outer loop
      vertex -1.3144598 0.7226305 10
      vertex -1.3946638 0.552186 0
      vertex -1.3946638 0.552186 10
    endloop
  endfacet
  facet normal 0.8443265 -0.53582907 0
    outer loop
      vertex 1.2135248 -0.8816776 10
      vertex 1.3144598 -0.7226305 0
      vertex 1.3144598 -0.7226305 10
    endloop
  endfacet
  facet normal 0.8443265 -0.53582907 0
    outer loop
      vertex 1.3144598 -0.7226305 0
      vertex 1.2135248 -0.8816776 10
      vertex 1.2135248 -0.8816776 0
    endloop
  endfacet
  facet normal -0.99802655 0.06279307 0
    outer loop
      vertex -1.5 0 0
      vertex -1.4881716 0.18799973 10
      vertex -1.4881716 0.18799973 0
    endloop
  endfacet
  facet normal -0.99802655 0.06279307 0
    outer loop
      vertex -1.4881716 0.18799973 10
      vertex -1.5 0 0
      vertex -1.5 0 10
    endloop
  endfacet
  facet normal -0.99802655 -0.06279307 0
    outer loop
      vertex -1.4881716 -0.18799973 0
      vertex -1.5 0 10
      vertex -1.5 0 0
    endloop
  endfacet
  facet normal -0.99802655 -0.06279307 0
    outer loop
      vertex -1.5 0 10
      vertex -1.4881716 -0.18799973 0
      vertex -1.4881716 -0.18799973 10
    endloop
  endfacet
  facet normal 0.68454766 0.7289681 0
    outer loop
      vertex 1.0934525 1.0268202 0
      vertex 0.95613575 1.1557693 10
      vertex 1.0934525 1.0268202 10
    endloop
  endfacet
  facet normal 0.68454766 0.7289681 0
    outer loop
      vertex 0.95613575 1.1557693 10
      vertex 1.0934525 1.0268202 0
      vertex 0.95613575 1.1557693 0
    endloop
  endfacet
  facet normal 0.8443265 0.53582907 0
    outer loop
      vertex 1.3144598 0.7226305 10
      vertex 1.2135248 0.8816776 0
      vertex 1.2135248 0.8816776 10
    endloop
  endfacet
  facet normal 0.8443265 0.53582907 0
    outer loop
      vertex 1.2135248 0.8816776 0
      vertex 1.3144598 0.7226305 10
      vertex 1.3144598 0.7226305 0
    endloop
  endfacet
  facet normal 0.12533255 0.9921148 0
    outer loop
      vertex 0.28107166 1.4734306 0
      vertex 0.094184875 1.4970398 10
      vertex 0.28107166 1.4734306 10
    endloop
  endfacet
  facet normal 0.12533255 0.9921148 0
    outer loop
      vertex 0.094184875 1.4970398 10
      vertex 0.28107166 1.4734306 0
      vertex 0.094184875 1.4970398 0
    endloop
  endfacet
  facet normal 0.9510557 0.30901945 0
    outer loop
      vertex 1.4528742 0.37303448 10
      vertex 1.3946638 0.552186 0
      vertex 1.3946638 0.552186 10
    endloop
  endfacet
  facet normal 0.9510557 0.30901945 0
    outer loop
      vertex 1.3946638 0.552186 0
      vertex 1.4528742 0.37303448 10
      vertex 1.4528742 0.37303448 0
    endloop
  endfacet
  facet normal -0.9510557 -0.30901945 0
    outer loop
      vertex -1.3946638 -0.552186 0
      vertex -1.4528742 -0.37303448 10
      vertex -1.4528742 -0.37303448 0
    endloop
  endfacet
  facet normal -0.9510557 -0.30901945 0
    outer loop
      vertex -1.4528742 -0.37303448 10
      vertex -1.3946638 -0.552186 0
      vertex -1.3946638 -0.552186 10
    endloop
  endfacet
  facet normal -0.24869178 -0.9685827 0
    outer loop
      vertex -0.46352482 -1.4265842 0
      vertex -0.28107166 -1.4734306 10
      vertex -0.46352482 -1.4265842 10
    endloop
  endfacet
  facet normal -0.24869178 -0.9685827 0
    outer loop
      vertex -0.28107166 -1.4734306 10
      vertex -0.46352482 -1.4265842 0
      vertex -0.28107166 -1.4734306 0
    endloop
  endfacet
  facet normal 0.36812642 0.9297758 0
    outer loop
      vertex 0.63866806 1.3572397 0
      vertex 0.46352482 1.4265842 10
      vertex 0.63866806 1.3572397 10
    endloop
  endfacet
  facet normal 0.36812642 0.9297758 0
    outer loop
      vertex 0.46352482 1.4265842 10
      vertex 0.63866806 1.3572397 0
      vertex 0.46352482 1.4265842 0
    endloop
  endfacet
  facet normal 0.24869178 -0.9685827 0
    outer loop
      vertex 0.28107166 -1.4734306 0
      vertex 0.46352482 -1.4265842 10
      vertex 0.28107166 -1.4734306 10
    endloop
  endfacet
  facet normal 0.24869178 -0.9685827 0
    outer loop
      vertex 0.46352482 -1.4265842 10
      vertex 0.28107166 -1.4734306 0
      vertex 0.46352482 -1.4265842 0
    endloop
  endfacet
  facet normal 0.5877827 0.80901885 0
    outer loop
      vertex 0.95613575 1.1557693 0
      vertex 0.80373955 1.2664909 10
      vertex 0.95613575 1.1557693 10
    endloop
  endfacet
  facet normal 0.5877827 0.80901885 0
    outer loop
      vertex 0.80373955 1.2664909 10
      vertex 0.95613575 1.1557693 0
      vertex 0.80373955 1.2664909 0
    endloop
  endfacet
  facet normal 0.9510557 -0.30901945 0
    outer loop
      vertex 1.3946638 -0.552186 10
      vertex 1.4528742 -0.37303448 0
      vertex 1.4528742 -0.37303448 10
    endloop
  endfacet
  facet normal 0.9510557 -0.30901945 0
    outer loop
      vertex 1.4528742 -0.37303448 0
      vertex 1.3946638 -0.552186 10
      vertex 1.3946638 -0.552186 0
    endloop
  endfacet
  facet normal -0.77051324 -0.637424 0
    outer loop
      vertex -1.0934525 -1.0268202 0
      vertex -1.2135248 -0.8816776 10
      vertex -1.2135248 -0.8816776 0
    endloop
  endfacet
  facet normal -0.77051324 -0.637424 0
    outer loop
      vertex -1.2135248 -0.8816776 10
      vertex -1.0934525 -1.0268202 0
      vertex -1.0934525 -1.0268202 10
    endloop
  endfacet
  facet normal -0.9822871 -0.18738197 0
    outer loop
      vertex -1.4528742 -0.37303448 0
      vertex -1.4881716 -0.18799973 10
      vertex -1.4881716 -0.18799973 0
    endloop
  endfacet
  facet normal -0.9822871 -0.18738197 0
    outer loop
      vertex -1.4881716 -0.18799973 10
      vertex -1.4528742 -0.37303448 0
      vertex -1.4528742 -0.37303448 10
    endloop
  endfacet
  facet normal -0.9822871 0.18738197 0
    outer loop
      vertex -1.4881716 0.18799973 0
      vertex -1.4528742 0.37303448 10
      vertex -1.4528742 0.37303448 0
    endloop
  endfacet
  facet normal -0.9822871 0.18738197 0
    outer loop
      vertex -1.4528742 0.37303448 10
      vertex -1.4881716 0.18799973 0
      vertex -1.4881716 0.18799973 10
    endloop
  endfacet
  facet normal 0.77051324 -0.637424 0
    outer loop
      vertex 1.0934525 -1.0268202 10
      vertex 1.2135248 -0.8816776 0
      vertex 1.2135248 -0.8816776 10
    endloop
  endfacet
  facet normal 0.77051324 -0.637424 0
    outer loop
      vertex 1.2135248 -0.8816776 0
      vertex 1.0934525 -1.0268202 10
      vertex 1.0934525 -1.0268202 0
    endloop
  endfacet
  facet normal -0.36812642 -0.9297758 0
    outer loop
      vertex -0.63866806 -1.3572397 0
      vertex -0.46352482 -1.4265842 10
      vertex -0.63866806 -1.3572397 10
    endloop
  endfacet
  facet normal -0.36812642 -0.9297758 0
    outer loop
      vertex -0.46352482 -1.4265842 10
      vertex -0.63866806 -1.3572397 0
      vertex -0.46352482 -1.4265842 0
    endloop
  endfacet
  facet normal -0.24869178 0.9685827 0
    outer loop
      vertex -0.28107166 1.4734306 0
      vertex -0.46352482 1.4265842 10
      vertex -0.28107166 1.4734306 10
    endloop
  endfacet
  facet normal -0.24869178 0.9685827 0
    outer loop
      vertex -0.46352482 1.4265842 10
      vertex -0.28107166 1.4734306 0
      vertex -0.46352482 1.4265842 0
    endloop
  endfacet
  facet normal -0.48175356 0.8763068 0
    outer loop
      vertex -0.63866806 1.3572397 0
      vertex -0.80373955 1.2664909 10
      vertex -0.63866806 1.3572397 10
    endloop
  endfacet
  facet normal -0.48175356 0.8763068 0
    outer loop
      vertex -0.80373955 1.2664909 10
      vertex -0.63866806 1.3572397 0
      vertex -0.80373955 1.2664909 0
    endloop
  endfacet
  facet normal 0.5877827 -0.80901885 0
    outer loop
      vertex 0.80373955 -1.2664909 0
      vertex 0.95613575 -1.1557693 10
      vertex 0.80373955 -1.2664909 10
    endloop
  endfacet
  facet normal 0.5877827 -0.80901885 0
    outer loop
      vertex 0.95613575 -1.1557693 10
      vertex 0.80373955 -1.2664909 0
      vertex 0.95613575 -1.1557693 0
    endloop
  endfacet
  facet normal -0.9510557 0.30901945 0
    outer loop
      vertex -1.4528742 0.37303448 0
      vertex -1.3946638 0.552186 10
      vertex -1.3946638 0.552186 0
    endloop
  endfacet
  facet normal -0.9510557 0.30901945 0
    outer loop
      vertex -1.3946638 0.552186 10
      vertex -1.4528742 0.37303448 0
      vertex -1.4528742 0.37303448 10
    endloop
  endfacet
  facet normal -0.5877827 0.80901885 0
    outer loop
      vertex -0.80373955 1.2664909 0
      vertex -0.95613575 1.1557693 10
      vertex -0.80373955 1.2664909 10
    endloop
  endfacet
  facet normal -0.5877827 0.80901885 0
    outer loop
      vertex -0.95613575 1.1557693 10
      vertex -0.80373955 1.2664909 0
      vertex -0.95613575 1.1557693 0
    endloop
  endfacet
  facet normal -0.36812642 0.9297758 0
    outer loop
      vertex -0.46352482 1.4265842 0
      vertex -0.63866806 1.3572397 10
      vertex -0.46352482 1.4265842 10
    endloop
  endfacet
  facet normal -0.36812642 0.9297758 0
    outer loop
      vertex -0.63866806 1.3572397 10
      vertex -0.46352482 1.4265842 0
      vertex -0.63866806 1.3572397 0
    endloop
  endfacet
  facet normal -0.5877827 -0.80901885 0
    outer loop
      vertex -0.95613575 -1.1557693 0
      vertex -0.80373955 -1.2664909 10
      vertex -0.95613575 -1.1557693 10
    endloop
  endfacet
  facet normal -0.5877827 -0.80901885 0
    outer loop
      vertex -0.80373955 -1.2664909 10
      vertex -0.95613575 -1.1557693 0
      vertex -0.80373955 -1.2664909 0
    endloop
  endfacet
  facet normal 0 0 -1
    outer loop
      vertex 0.5 0 0
      vertex 1.5 0 0
      vertex 1.4881716 -0.18799973 0
    endloop
  endfacet
  facet normal 0 0 -1
    outer loop
      vertex 0.49605656 -0.06266594 0
      vertex 1.4881716 -0.18799973 0
      vertex 1.4528742 -0.37303448 0
    endloop
  endfacet
  facet normal 0 0 -1
    outer loop
      vertex 1.5 0 0
      vertex 0.5 0 0
      vertex 1.4881716 0.18799973 0
    endloop
  endfacet
  facet normal 0 0 -1
    outer loop
      vertex 0.48429108 -0.124344826 0
      vertex 1.4528742 -0.37303448 0
      vertex 1.3946638 -0.552186 0
    endloop
  endfacet
  facet normal 0 0 -1
    outer loop
      vertex 0.49605656 0.06266594 0
      vertex 1.4881716 0.18799973 0
      vertex 0.5 0 0
    endloop
  endfacet
  facet normal 0 0 -1
    outer loop
      vertex 0.46488762 -0.184062 0
      vertex 1.3946638 -0.552186 0
      vertex 1.3144598 -0.7226305 0
    endloop
  endfacet
  facet normal 0 0 -1
    outer loop
      vertex 1.4881716 0.18799973 0
      vertex 0.49605656 0.06266594 0
      vertex 1.4528742 0.37303448 0
    endloop
  endfacet
  facet normal 0 0 -1
    outer loop
      vertex 0.43815327 -0.2408762 0
      vertex 1.3144598 -0.7226305 0
      vertex 1.2135248 -0.8816776 0
    endloop
  endfacet
  facet normal 0 0 -1
    outer loop
      vertex 0.48429108 0.124344826 0
      vertex 1.4528742 0.37303448 0
      vertex 0.49605656 0.06266594 0
    endloop
  endfacet
  facet normal 0 0 -1
    outer loop
      vertex 0.40450764 -0.2938919 0
      vertex 1.2135248 -0.8816776 0
      vertex 1.0934525 -1.0268202 0
    endloop
  endfacet
  facet normal 0 0 -1
    outer loop
      vertex 1.4528742 0.37303448 0
      vertex 0.48429108 0.124344826 0
      vertex 1.3946638 0.552186 0
    endloop
  endfacet
  facet normal 0 0 -1
    outer loop
      vertex 0.36448383 -0.34227276 0
      vertex 1.0934525 -1.0268202 0
      vertex 0.95613575 -1.1557693 0
    endloop
  endfacet
  facet normal 0 0 -1
    outer loop
      vertex 0.46488762 0.184062 0
      vertex 1.3946638 0.552186 0
      vertex 0.48429108 0.124344826 0
    endloop
  endfacet
  facet normal 0 0 -1
    outer loop
      vertex 0.31871128 -0.3852558 0
      vertex 0.95613575 -1.1557693 0
      vertex 0.80373955 -1.2664909 0
    endloop
  endfacet
  facet normal 0 0 -1
    outer loop
      vertex 1.3946638 0.552186 0
      vertex 0.46488762 0.184062 0
      vertex 1.3144598 0.7226305 0
    endloop
  endfacet
  facet normal 0 0 -1
    outer loop
      vertex 0.26791286 -0.422163 0
      vertex 0.80373955 -1.2664909 0
      vertex 0.63866806 -1.3572397 0
    endloop
  endfacet
  facet normal 0 0 -1
    outer loop
      vertex 0.43815327 0.2408762 0
      vertex 1.3144598 0.7226305 0
      vertex 0.46488762 0.184062 0
    endloop
  endfacet
  facet normal 0 0 -1
    outer loop
      vertex 1.3144598 0.7226305 0
      vertex 0.43815327 0.2408762 0
      vertex 1.2135248 0.8816776 0
    endloop
  endfacet
  facet normal 0 0 -1
    outer loop
      vertex 1.4881716 -0.18799973 0
      vertex 0.49605656 -0.06266594 0
      vertex 0.5 0 0
    endloop
  endfacet
  facet normal 0 0 -1
    outer loop
      vertex 1.4528742 -0.37303448 0
      vertex 0.48429108 -0.124344826 0
      vertex 0.49605656 -0.06266594 0
    endloop
  endfacet
  facet normal 0 0 -1
    outer loop
      vertex 1.3946638 -0.552186 0
      vertex 0.46488762 -0.184062 0
      vertex 0.48429108 -0.124344826 0
    endloop
  endfacet
  facet normal 0 0 -1
    outer loop
      vertex 0.21288872 -0.4524126 0
      vertex 0.63866806 -1.3572397 0
      vertex 0.46352482 -1.4265842 0
    endloop
  endfacet
  facet normal 0 0 -1
    outer loop
      vertex 1.3144598 -0.7226305 0
      vertex 0.43815327 -0.2408762 0
      vertex 0.46488762 -0.184062 0
    endloop
  endfacet
  facet normal 0 0 -1
    outer loop
      vertex 1.2135248 -0.8816776 0
      vertex 0.40450764 -0.2938919 0
      vertex 0.43815327 -0.2408762 0
    endloop
  endfacet
  facet normal 0 0 -1
    outer loop
      vertex 1.0934525 -1.0268202 0
      vertex 0.36448383 -0.34227276 0
      vertex 0.40450764 -0.2938919 0
    endloop
  endfacet
  facet normal 0 0 -1
    outer loop
      vertex 0.95613575 -1.1557693 0
      vertex 0.31871128 -0.3852558 0
      vertex 0.36448383 -0.34227276 0
    endloop
  endfacet
  facet normal 0 0 -1
    outer loop
      vertex 0.15450764 -0.47552776 0
      vertex 0.46352482 -1.4265842 0
      vertex 0.28107166 -1.4734306 0
    endloop
  endfacet
  facet normal 0 0 -1
    outer loop
      vertex 0.80373955 -1.2664909 0
      vertex 0.26791286 -0.422163 0
      vertex 0.31871128 -0.3852558 0
    endloop
  endfacet
  facet normal 0 0 -1
    outer loop
      vertex 0.63866806 -1.3572397 0
      vertex 0.21288872 -0.4524126 0
      vertex 0.26791286 -0.422163 0
    endloop
  endfacet
  facet normal 0 0 -1
    outer loop
      vertex 0.46352482 -1.4265842 0
      vertex 0.15450764 -0.47552776 0
      vertex 0.21288872 -0.4524126 0
    endloop
  endfacet
  facet normal 0 0 -1
    outer loop
      vertex 0.09368992 -0.49114323 0
      vertex 0.28107166 -1.4734306 0
      vertex 0.094184875 -1.4970398 0
    endloop
  endfacet
  facet normal 0 0 -1
    outer loop
      vertex 0.28107166 -1.4734306 0
      vertex 0.09368992 -0.49114323 0
      vertex 0.15450764 -0.47552776 0
    endloop
  endfacet
  facet normal 0 0 -1
    outer loop
      vertex 0.094184875 -1.4970398 0
      vertex 0.03139496 -0.49901295 0
      vertex 0.09368992 -0.49114323 0
    endloop
  endfacet
  facet normal 0 0 -1
    outer loop
      vertex 0.094184875 -1.4970398 0
      vertex -0.03139496 -0.49901295 0
      vertex 0.03139496 -0.49901295 0
    endloop
  endfacet
  facet normal 0 0 -1
    outer loop
      vertex -0.094184875 -1.4970398 0
      vertex -0.03139496 -0.49901295 0
      vertex 0.094184875 -1.4970398 0
    endloop
  endfacet
  facet normal 0 0 -1
    outer loop
      vertex -0.03139496 -0.49901295 0
      vertex -0.094184875 -1.4970398 0
      vertex -0.09368992 -0.49114323 0
    endloop
  endfacet
  facet normal 0 0 -1
    outer loop
      vertex -0.28107166 -1.4734306 0
      vertex -0.09368992 -0.49114323 0
      vertex -0.094184875 -1.4970398 0
    endloop
  endfacet
  facet normal 0 0 -1
    outer loop
      vertex -0.09368992 -0.49114323 0
      vertex -0.28107166 -1.4734306 0
      vertex -0.15450764 -0.47552776 0
    endloop
  endfacet
  facet normal 0 0 -1
    outer loop
      vertex -0.46352482 -1.4265842 0
      vertex -0.15450764 -0.47552776 0
      vertex -0.28107166 -1.4734306 0
    endloop
  endfacet
  facet normal 0 0 -1
    outer loop
      vertex -0.15450764 -0.47552776 0
      vertex -0.46352482 -1.4265842 0
      vertex -0.21288872 -0.4524126 0
    endloop
  endfacet
  facet normal 0 0 -1
    outer loop
      vertex -0.63866806 -1.3572397 0
      vertex -0.21288872 -0.4524126 0
      vertex -0.46352482 -1.4265842 0
    endloop
  endfacet
  facet normal 0 0 -1
    outer loop
      vertex -0.21288872 -0.4524126 0
      vertex -0.63866806 -1.3572397 0
      vertex -0.26791286 -0.422163 0
    endloop
  endfacet
  facet normal 0 0 -1
    outer loop
      vertex -0.80373955 -1.2664909 0
      vertex -0.26791286 -0.422163 0
      vertex -0.63866806 -1.3572397 0
    endloop
  endfacet
  facet normal 0 0 -1
    outer loop
      vertex -0.26791286 -0.422163 0
      vertex -0.80373955 -1.2664909 0
      vertex -0.31871128 -0.3852558 0
    endloop
  endfacet
  facet normal 0 0 -1
    outer loop
      vertex -0.95613575 -1.1557693 0
      vertex -0.31871128 -0.3852558 0
      vertex -0.80373955 -1.2664909 0
    endloop
  endfacet
  facet normal 0 0 -1
    outer loop
      vertex -0.31871128 -0.3852558 0
      vertex -0.95613575 -1.1557693 0
      vertex -0.36448383 -0.34227276 0
    endloop
  endfacet
  facet normal 0 0 -1
    outer loop
      vertex -1.0934525 -1.0268202 0
      vertex -0.36448383 -0.34227276 0
      vertex -0.95613575 -1.1557693 0
    endloop
  endfacet
  facet normal 0 0 -1
    outer loop
      vertex -0.36448383 -0.34227276 0
      vertex -1.0934525 -1.0268202 0
      vertex -0.40450764 -0.2938919 0
    endloop
  endfacet
  facet normal 0 0 -1
    outer loop
      vertex -1.2135248 -0.8816776 0
      vertex -0.40450764 -0.2938919 0
      vertex -1.0934525 -1.0268202 0
    endloop
  endfacet
  facet normal 0 0 -1
    outer loop
      vertex -0.40450764 -0.2938919 0
      vertex -1.2135248 -0.8816776 0
      vertex -0.43815327 -0.2408762 0
    endloop
  endfacet
  facet normal 0 0 -1
    outer loop
      vertex 0.40450764 0.2938919 0
      vertex 1.2135248 0.8816776 0
      vertex 0.43815327 0.2408762 0
    endloop
  endfacet
  facet normal 0 0 -1
    outer loop
      vertex 1.2135248 0.8816776 0
      vertex 0.40450764 0.2938919 0
      vertex 1.0934525 1.0268202 0
    endloop
  endfacet
  facet normal 0 0 -1
    outer loop
      vertex 0.36448383 0.34227276 0
      vertex 1.0934525 1.0268202 0
      vertex 0.40450764 0.2938919 0
    endloop
  endfacet
  facet normal 0 0 -1
    outer loop
      vertex 1.0934525 1.0268202 0
      vertex 0.36448383 0.34227276 0
      vertex 0.95613575 1.1557693 0
    endloop
  endfacet
  facet normal 0 0 -1
    outer loop
      vertex 0.31871128 0.3852558 0
      vertex 0.95613575 1.1557693 0
      vertex 0.36448383 0.34227276 0
    endloop
  endfacet
  facet normal 0 0 -1
    outer loop
      vertex 0.95613575 1.1557693 0
      vertex 0.31871128 0.3852558 0
      vertex 0.80373955 1.2664909 0
    endloop
  endfacet
  facet normal 0 0 -1
    outer loop
      vertex 0.26791286 0.422163 0
      vertex 0.80373955 1.2664909 0
      vertex 0.31871128 0.3852558 0
    endloop
  endfacet
  facet normal 0 0 -1
    outer loop
      vertex 0.80373955 1.2664909 0
      vertex 0.26791286 0.422163 0
      vertex 0.63866806 1.3572397 0
    endloop
  endfacet
  facet normal 0 0 -1
    outer loop
      vertex 0.21288872 0.4524126 0
      vertex 0.63866806 1.3572397 0
      vertex 0.26791286 0.422163 0
    endloop
  endfacet
  facet normal 0 0 -1
    outer loop
      vertex 0.63866806 1.3572397 0
      vertex 0.21288872 0.4524126 0
      vertex 0.46352482 1.4265842 0
    endloop
  endfacet
  facet normal 0 0 -1
    outer loop
      vertex 0.15450764 0.47552776 0
      vertex 0.46352482 1.4265842 0
      vertex 0.21288872 0.4524126 0
    endloop
  endfacet
  facet normal 0 0 -1
    outer loop
      vertex 0.46352482 1.4265842 0
      vertex 0.15450764 0.47552776 0
      vertex 0.28107166 1.4734306 0
    endloop
  endfacet
  facet normal 0 0 -1
    outer loop
      vertex 0.09368992 0.49114323 0
      vertex 0.28107166 1.4734306 0
      vertex 0.15450764 0.47552776 0
    endloop
  endfacet
  facet normal 0 0 -1
    outer loop
      vertex 0.28107166 1.4734306 0
      vertex 0.09368992 0.49114323 0
      vertex 0.094184875 1.4970398 0
    endloop
  endfacet
  facet normal 0 0 -1
    outer loop
      vertex 0.03139496 0.49901295 0
      vertex 0.094184875 1.4970398 0
      vertex 0.09368992 0.49114323 0
    endloop
  endfacet
  facet normal 0 0 -1
    outer loop
      vertex -0.03139496 0.49901295 0
      vertex 0.094184875 1.4970398 0
      vertex 0.03139496 0.49901295 0
    endloop
  endfacet
  facet normal 0 0 -1
    outer loop
      vertex -0.094184875 1.4970398 0
      vertex -0.03139496 0.49901295 0
      vertex -0.09368992 0.49114323 0
    endloop
  endfacet
  facet normal 0 0 -1
    outer loop
      vertex -0.03139496 0.49901295 0
      vertex -0.094184875 1.4970398 0
      vertex 0.094184875 1.4970398 0
    endloop
  endfacet
  facet normal 0 0 -1
    outer loop
      vertex -0.28107166 1.4734306 0
      vertex -0.09368992 0.49114323 0
      vertex -0.15450764 0.47552776 0
    endloop
  endfacet
  facet normal 0 0 -1
    outer loop
      vertex -0.46352482 1.4265842 0
      vertex -0.15450764 0.47552776 0
      vertex -0.21288872 0.4524126 0
    endloop
  endfacet
  facet normal 0 0 -1
    outer loop
      vertex -0.63866806 1.3572397 0
      vertex -0.21288872 0.4524126 0
      vertex -0.26791286 0.422163 0
    endloop
  endfacet
  facet normal 0 0 -1
    outer loop
      vertex -0.09368992 0.49114323 0
      vertex -0.28107166 1.4734306 0
      vertex -0.094184875 1.4970398 0
    endloop
  endfacet
  facet normal 0 0 -1
    outer loop
      vertex -0.80373955 1.2664909 0
      vertex -0.26791286 0.422163 0
      vertex -0.31871128 0.3852558 0
    endloop
  endfacet
  facet normal 0 0 -1
    outer loop
      vertex -0.95613575 1.1557693 0
      vertex -0.31871128 0.3852558 0
      vertex -0.36448383 0.34227276 0
    endloop
  endfacet
  facet normal 0 0 -1
    outer loop
      vertex -1.0934525 1.0268202 0
      vertex -0.36448383 0.34227276 0
      vertex -0.40450764 0.2938919 0
    endloop
  endfacet
  facet normal 0 0 -1
    outer loop
      vertex -1.2135248 0.8816776 0
      vertex -0.40450764 0.2938919 0
      vertex -0.43815327 0.2408762 0
    endloop
  endfacet
  facet normal 0 0 -1
    outer loop
      vertex -0.15450764 0.47552776 0
      vertex -0.46352482 1.4265842 0
      vertex -0.28107166 1.4734306 0
    endloop
  endfacet
  facet normal 0 0 -1
    outer loop
      vertex -1.3144598 0.7226305 0
      vertex -0.43815327 0.2408762 0
      vertex -0.46488762 0.184062 0
    endloop
  endfacet
  facet normal 0 0 -1
    outer loop
      vertex -1.3946638 0.552186 0
      vertex -0.46488762 0.184062 0
      vertex -0.48429108 0.124344826 0
    endloop
  endfacet
  facet normal 0 0 -1
    outer loop
      vertex -1.4528742 0.37303448 0
      vertex -0.48429108 0.124344826 0
      vertex -0.49605656 0.06266594 0
    endloop
  endfacet
  facet normal 0 0 -1
    outer loop
      vertex -1.4881716 0.18799973 0
      vertex -0.49605656 0.06266594 0
      vertex -0.5 0 0
    endloop
  endfacet
  facet normal 0 0 -1
    outer loop
      vertex -1.3144598 -0.7226305 0
      vertex -0.43815327 -0.2408762 0
      vertex -1.2135248 -0.8816776 0
    endloop
  endfacet
  facet normal 0 0 -1
    outer loop
      vertex -0.21288872 0.4524126 0
      vertex -0.63866806 1.3572397 0
      vertex -0.46352482 1.4265842 0
    endloop
  endfacet
  facet normal 0 0 -1
    outer loop
      vertex -0.43815327 -0.2408762 0
      vertex -1.3144598 -0.7226305 0
      vertex -0.46488762 -0.184062 0
    endloop
  endfacet
  facet normal 0 0 -1
    outer loop
      vertex -0.26791286 0.422163 0
      vertex -0.80373955 1.2664909 0
      vertex -0.63866806 1.3572397 0
    endloop
  endfacet
  facet normal 0 0 -1
    outer loop
      vertex -1.3946638 -0.552186 0
      vertex -0.46488762 -0.184062 0
      vertex -1.3144598 -0.7226305 0
    endloop
  endfacet
  facet normal 0 0 -1
    outer loop
      vertex -0.31871128 0.3852558 0
      vertex -0.95613575 1.1557693 0
      vertex -0.80373955 1.2664909 0
    endloop
  endfacet
  facet normal 0 0 -1
    outer loop
      vertex -0.46488762 -0.184062 0
      vertex -1.3946638 -0.552186 0
      vertex -0.48429108 -0.124344826 0
    endloop
  endfacet
  facet normal 0 0 -1
    outer loop
      vertex -0.36448383 0.34227276 0
      vertex -1.0934525 1.0268202 0
      vertex -0.95613575 1.1557693 0
    endloop
  endfacet
  facet normal 0 0 -1
    outer loop
      vertex -1.4528742 -0.37303448 0
      vertex -0.48429108 -0.124344826 0
      vertex -1.3946638 -0.552186 0
    endloop
  endfacet
  facet normal 0 0 -1
    outer loop
      vertex -0.40450764 0.2938919 0
      vertex -1.2135248 0.8816776 0
      vertex -1.0934525 1.0268202 0
    endloop
  endfacet
  facet normal 0 0 -1
    outer loop
      vertex -0.48429108 -0.124344826 0
      vertex -1.4528742 -0.37303448 0
      vertex -0.49605656 -0.06266594 0
    endloop
  endfacet
  facet normal 0 0 -1
    outer loop
      vertex -0.43815327 0.2408762 0
      vertex -1.3144598 0.7226305 0
      vertex -1.2135248 0.8816776 0
    endloop
  endfacet
  facet normal 0 0 -1
    outer loop
      vertex -1.4881716 -0.18799973 0
      vertex -0.49605656 -0.06266594 0
      vertex -1.4528742 -0.37303448 0
    endloop
  endfacet
  facet normal 0 0 -1
    outer loop
      vertex -0.46488762 0.184062 0
      vertex -1.3946638 0.552186 0
      vertex -1.3144598 0.7226305 0
    endloop
  endfacet
  facet normal 0 0 -1
    outer loop
      vertex -0.49605656 -0.06266594 0
      vertex -1.4881716 -0.18799973 0
      vertex -0.5 0 0
    endloop
  endfacet
  facet normal 0 0 -1
    outer loop
      vertex -0.48429108 0.124344826 0
      vertex -1.4528742 0.37303448 0
      vertex -1.3946638 0.552186 0
    endloop
  endfacet
  facet normal 0 0 -1
    outer loop
      vertex -1.5 0 0
      vertex -0.5 0 0
      vertex -1.4881716 -0.18799973 0
    endloop
  endfacet
  facet normal 0 0 -1
    outer loop
      vertex -0.49605656 0.06266594 0
      vertex -1.4881716 0.18799973 0
      vertex -1.4528742 0.37303448 0
    endloop
  endfacet
  facet normal 0 0 -1
    outer loop
      vertex -0.5 0 0
      vertex -1.5 0 0
      vertex -1.4881716 0.18799973 0
    endloop
  endfacet
  facet normal 0.5877851 -0.8090171 0
    outer loop
      vertex -0.31871128 0.3852558 0
      vertex -0.26791286 0.422163 10
      vertex -0.31871128 0.3852558 10
    endloop
  endfacet
  facet normal 0.5877851 -0.8090171 0
    outer loop
      vertex -0.26791286 0.422163 10
      vertex -0.31871128 0.3852558 0
      vertex -0.26791286 0.422163 0
    endloop
  endfacet
  facet normal -0.9980259 -0.06280379 0
    outer loop
      vertex 0.5 0 0
      vertex 0.49605656 0.06266594 10
      vertex 0.49605656 0.06266594 0
    endloop
  endfacet
  facet normal -0.9980259 -0.06280379 0
    outer loop
      vertex 0.49605656 0.06266594 10
      vertex 0.5 0 0
      vertex 0.5 0 10
    endloop
  endfacet
  facet normal -0.8443219 -0.5358363 0
    outer loop
      vertex 0.43815327 0.2408762 0
      vertex 0.40450764 0.2938919 10
      vertex 0.40450764 0.2938919 0
    endloop
  endfacet
  facet normal -0.8443219 -0.5358363 0
    outer loop
      vertex 0.40450764 0.2938919 10
      vertex 0.43815327 0.2408762 0
      vertex 0.43815327 0.2408762 10
    endloop
  endfacet
  facet normal -0.3681308 -0.929774 0
    outer loop
      vertex 0.15450764 0.47552776 0
      vertex 0.21288872 0.4524126 10
      vertex 0.15450764 0.47552776 10
    endloop
  endfacet
  facet normal -0.3681308 -0.929774 0
    outer loop
      vertex 0.21288872 0.4524126 10
      vertex 0.15450764 0.47552776 0
      vertex 0.21288872 0.4524126 0
    endloop
  endfacet
  facet normal -0.12533382 0.9921146 0
    outer loop
      vertex 0.09368992 -0.49114323 0
      vertex 0.03139496 -0.49901295 10
      vertex 0.09368992 -0.49114323 10
    endloop
  endfacet
  facet normal -0.12533382 0.9921146 0
    outer loop
      vertex 0.03139496 -0.49901295 10
      vertex 0.09368992 -0.49114323 0
      vertex 0.03139496 -0.49901295 0
    endloop
  endfacet
  facet normal 0.9048294 -0.42577437 0
    outer loop
      vertex -0.46488762 0.184062 10
      vertex -0.43815327 0.2408762 0
      vertex -0.43815327 0.2408762 10
    endloop
  endfacet
  facet normal 0.9048294 -0.42577437 0
    outer loop
      vertex -0.43815327 0.2408762 0
      vertex -0.46488762 0.184062 10
      vertex -0.46488762 0.184062 0
    endloop
  endfacet
  facet normal 0.4817514 0.8763079 0
    outer loop
      vertex -0.21288872 -0.4524126 0
      vertex -0.26791286 -0.422163 10
      vertex -0.21288872 -0.4524126 10
    endloop
  endfacet
  facet normal 0.4817514 0.8763079 0
    outer loop
      vertex -0.26791286 -0.422163 10
      vertex -0.21288872 -0.4524126 0
      vertex -0.26791286 -0.422163 0
    endloop
  endfacet
  facet normal -0.9510557 0.30901945 0
    outer loop
      vertex 0.46488762 -0.184062 0
      vertex 0.48429108 -0.124344826 10
      vertex 0.48429108 -0.124344826 0
    endloop
  endfacet
  facet normal -0.9510557 0.30901945 0
    outer loop
      vertex 0.48429108 -0.124344826 10
      vertex 0.46488762 -0.184062 0
      vertex 0.46488762 -0.184062 10
    endloop
  endfacet
  facet normal -0.24869178 -0.9685827 0
    outer loop
      vertex 0.09368992 0.49114323 0
      vertex 0.15450764 0.47552776 10
      vertex 0.09368992 0.49114323 10
    endloop
  endfacet
  facet normal -0.24869178 -0.9685827 0
    outer loop
      vertex 0.15450764 0.47552776 10
      vertex 0.09368992 0.49114323 0
      vertex 0.15450764 0.47552776 0
    endloop
  endfacet
  facet normal 0.9822884 0.18737522 0
    outer loop
      vertex -0.48429108 -0.124344826 10
      vertex -0.49605656 -0.06266594 0
      vertex -0.49605656 -0.06266594 10
    endloop
  endfacet
  facet normal 0.9822884 0.18737522 0
    outer loop
      vertex -0.49605656 -0.06266594 0
      vertex -0.48429108 -0.124344826 10
      vertex -0.48429108 -0.124344826 0
    endloop
  endfacet
  facet normal 0.77051574 0.637421 0
    outer loop
      vertex -0.36448383 -0.34227276 10
      vertex -0.40450764 -0.2938919 0
      vertex -0.40450764 -0.2938919 10
    endloop
  endfacet
  facet normal 0.77051574 0.637421 0
    outer loop
      vertex -0.40450764 -0.2938919 0
      vertex -0.36448383 -0.34227276 10
      vertex -0.36448383 -0.34227276 0
    endloop
  endfacet
  facet normal -0.9822884 0.18737522 0
    outer loop
      vertex 0.48429108 -0.124344826 0
      vertex 0.49605656 -0.06266594 10
      vertex 0.49605656 -0.06266594 0
    endloop
  endfacet
  facet normal -0.9822884 0.18737522 0
    outer loop
      vertex 0.49605656 -0.06266594 10
      vertex 0.48429108 -0.124344826 0
      vertex 0.48429108 -0.124344826 10
    endloop
  endfacet
  facet normal 0.9510557 0.30901945 0
    outer loop
      vertex -0.46488762 -0.184062 10
      vertex -0.48429108 -0.124344826 0
      vertex -0.48429108 -0.124344826 10
    endloop
  endfacet
  facet normal 0.9510557 0.30901945 0
    outer loop
      vertex -0.48429108 -0.124344826 0
      vertex -0.46488762 -0.184062 10
      vertex -0.46488762 -0.184062 0
    endloop
  endfacet
  facet normal -0.68454516 0.72897047 0
    outer loop
      vertex 0.36448383 -0.34227276 0
      vertex 0.31871128 -0.3852558 10
      vertex 0.36448383 -0.34227276 10
    endloop
  endfacet
  facet normal -0.68454516 0.72897047 0
    outer loop
      vertex 0.31871128 -0.3852558 10
      vertex 0.36448383 -0.34227276 0
      vertex 0.31871128 -0.3852558 0
    endloop
  endfacet
  facet normal 0.4817514 -0.8763079 0
    outer loop
      vertex -0.26791286 0.422163 0
      vertex -0.21288872 0.4524126 10
      vertex -0.26791286 0.422163 10
    endloop
  endfacet
  facet normal 0.4817514 -0.8763079 0
    outer loop
      vertex -0.21288872 0.4524126 10
      vertex -0.26791286 0.422163 0
      vertex -0.21288872 0.4524126 0
    endloop
  endfacet
  facet normal 0.24869178 -0.9685827 0
    outer loop
      vertex -0.15450764 0.47552776 0
      vertex -0.09368992 0.49114323 10
      vertex -0.15450764 0.47552776 10
    endloop
  endfacet
  facet normal 0.24869178 -0.9685827 0
    outer loop
      vertex -0.09368992 0.49114323 10
      vertex -0.15450764 0.47552776 0
      vertex -0.09368992 0.49114323 0
    endloop
  endfacet
  facet normal -0.9980259 0.06280379 0
    outer loop
      vertex 0.49605656 -0.06266594 0
      vertex 0.5 0 10
      vertex 0.5 0 0
    endloop
  endfacet
  facet normal -0.9980259 0.06280379 0
    outer loop
      vertex 0.5 0 10
      vertex 0.49605656 -0.06266594 0
      vertex 0.49605656 -0.06266594 10
    endloop
  endfacet
  facet normal 0.9822884 -0.18737522 0
    outer loop
      vertex -0.49605656 0.06266594 10
      vertex -0.48429108 0.124344826 0
      vertex -0.48429108 0.124344826 10
    endloop
  endfacet
  facet normal 0.9822884 -0.18737522 0
    outer loop
      vertex -0.48429108 0.124344826 0
      vertex -0.49605656 0.06266594 10
      vertex -0.49605656 0.06266594 0
    endloop
  endfacet
  facet normal -0.77051574 0.637421 0
    outer loop
      vertex 0.36448383 -0.34227276 0
      vertex 0.40450764 -0.2938919 10
      vertex 0.40450764 -0.2938919 0
    endloop
  endfacet
  facet normal -0.77051574 0.637421 0
    outer loop
      vertex 0.40450764 -0.2938919 10
      vertex 0.36448383 -0.34227276 0
      vertex 0.36448383 -0.34227276 10
    endloop
  endfacet
  facet normal -0.4817514 -0.8763079 0
    outer loop
      vertex 0.21288872 0.4524126 0
      vertex 0.26791286 0.422163 10
      vertex 0.21288872 0.4524126 10
    endloop
  endfacet
  facet normal -0.4817514 -0.8763079 0
    outer loop
      vertex 0.26791286 0.422163 10
      vertex 0.21288872 0.4524126 0
      vertex 0.26791286 0.422163 0
    endloop
  endfacet
  facet normal 0.3681308 -0.929774 0
    outer loop
      vertex -0.21288872 0.4524126 0
      vertex -0.15450764 0.47552776 10
      vertex -0.21288872 0.4524126 10
    endloop
  endfacet
  facet normal 0.3681308 -0.929774 0
    outer loop
      vertex -0.15450764 0.47552776 10
      vertex -0.21288872 0.4524126 0
      vertex -0.15450764 0.47552776 0
    endloop
  endfacet
  facet normal -0.77051574 -0.637421 0
    outer loop
      vertex 0.40450764 0.2938919 0
      vertex 0.36448383 0.34227276 10
      vertex 0.36448383 0.34227276 0
    endloop
  endfacet
  facet normal -0.77051574 -0.637421 0
    outer loop
      vertex 0.36448383 0.34227276 10
      vertex 0.40450764 0.2938919 0
      vertex 0.40450764 0.2938919 10
    endloop
  endfacet
  facet normal 0.68454516 -0.72897047 0
    outer loop
      vertex -0.36448383 0.34227276 0
      vertex -0.31871128 0.3852558 10
      vertex -0.36448383 0.34227276 10
    endloop
  endfacet
  facet normal 0.68454516 -0.72897047 0
    outer loop
      vertex -0.31871128 0.3852558 10
      vertex -0.36448383 0.34227276 0
      vertex -0.31871128 0.3852558 0
    endloop
  endfacet
  facet normal -0.12533382 -0.9921146 0
    outer loop
      vertex 0.03139496 0.49901295 0
      vertex 0.09368992 0.49114323 10
      vertex 0.03139496 0.49901295 10
    endloop
  endfacet
  facet normal -0.12533382 -0.9921146 0
    outer loop
      vertex 0.09368992 0.49114323 10
      vertex 0.03139496 0.49901295 0
      vertex 0.09368992 0.49114323 0
    endloop
  endfacet
  facet normal -0.8443219 0.5358363 0
    outer loop
      vertex 0.40450764 -0.2938919 0
      vertex 0.43815327 -0.2408762 10
      vertex 0.43815327 -0.2408762 0
    endloop
  endfacet
  facet normal -0.8443219 0.5358363 0
    outer loop
      vertex 0.43815327 -0.2408762 10
      vertex 0.40450764 -0.2938919 0
      vertex 0.40450764 -0.2938919 10
    endloop
  endfacet
  facet normal -0.9822884 -0.18737522 0
    outer loop
      vertex 0.49605656 0.06266594 0
      vertex 0.48429108 0.124344826 10
      vertex 0.48429108 0.124344826 0
    endloop
  endfacet
  facet normal -0.9822884 -0.18737522 0
    outer loop
      vertex 0.48429108 0.124344826 10
      vertex 0.49605656 0.06266594 0
      vertex 0.49605656 0.06266594 10
    endloop
  endfacet
  facet normal -0.9048294 0.42577437 0
    outer loop
      vertex 0.43815327 -0.2408762 0
      vertex 0.46488762 -0.184062 10
      vertex 0.46488762 -0.184062 0
    endloop
  endfacet
  facet normal -0.9048294 0.42577437 0
    outer loop
      vertex 0.46488762 -0.184062 10
      vertex 0.43815327 -0.2408762 0
      vertex 0.43815327 -0.2408762 10
    endloop
  endfacet
  facet normal 0.9980259 -0.06280379 0
    outer loop
      vertex -0.5 0 10
      vertex -0.49605656 0.06266594 0
      vertex -0.49605656 0.06266594 10
    endloop
  endfacet
  facet normal 0.9980259 -0.06280379 0
    outer loop
      vertex -0.49605656 0.06266594 0
      vertex -0.5 0 10
      vertex -0.5 0 0
    endloop
  endfacet
  facet normal -0.9048294 -0.42577437 0
    outer loop
      vertex 0.46488762 0.184062 0
      vertex 0.43815327 0.2408762 10
      vertex 0.43815327 0.2408762 0
    endloop
  endfacet
  facet normal -0.9048294 -0.42577437 0
    outer loop
      vertex 0.43815327 0.2408762 10
      vertex 0.46488762 0.184062 0
      vertex 0.46488762 0.184062 10
    endloop
  endfacet
  facet normal -0.9510557 -0.30901945 0
    outer loop
      vertex 0.48429108 0.124344826 0
      vertex 0.46488762 0.184062 10
      vertex 0.46488762 0.184062 0
    endloop
  endfacet
  facet normal -0.9510557 -0.30901945 0
    outer loop
      vertex 0.46488762 0.184062 10
      vertex 0.48429108 0.124344826 0
      vertex 0.48429108 0.124344826 10
    endloop
  endfacet
  facet normal 0.12533382 -0.9921146 0
    outer loop
      vertex -0.09368992 0.49114323 0
      vertex -0.03139496 0.49901295 10
      vertex -0.09368992 0.49114323 10
    endloop
  endfacet
  facet normal 0.12533382 -0.9921146 0
    outer loop
      vertex -0.03139496 0.49901295 10
      vertex -0.09368992 0.49114323 0
      vertex -0.03139496 0.49901295 0
    endloop
  endfacet
  facet normal 0.68454516 0.72897047 0
    outer loop
      vertex -0.31871128 -0.3852558 0
      vertex -0.36448383 -0.34227276 10
      vertex -0.31871128 -0.3852558 10
    endloop
  endfacet
  facet normal 0.68454516 0.72897047 0
    outer loop
      vertex -0.36448383 -0.34227276 10
      vertex -0.31871128 -0.3852558 0
      vertex -0.36448383 -0.34227276 0
    endloop
  endfacet
  facet normal 0.9980259 0.06280379 0
    outer loop
      vertex -0.49605656 -0.06266594 10
      vertex -0.5 0 0
      vertex -0.5 0 10
    endloop
  endfacet
  facet normal 0.9980259 0.06280379 0
    outer loop
      vertex -0.5 0 0
      vertex -0.49605656 -0.06266594 10
      vertex -0.49605656 -0.06266594 0
    endloop
  endfacet
  facet normal -0.68454516 -0.72897047 0
    outer loop
      vertex 0.31871128 0.3852558 0
      vertex 0.36448383 0.34227276 10
      vertex 0.31871128 0.3852558 10
    endloop
  endfacet
  facet normal -0.68454516 -0.72897047 0
    outer loop
      vertex 0.36448383 0.34227276 10
      vertex 0.31871128 0.3852558 0
      vertex 0.36448383 0.34227276 0
    endloop
  endfacet
  facet normal 0 -1 0
    outer loop
      vertex -0.03139496 0.49901295 0
      vertex 0.03139496 0.49901295 10
      vertex -0.03139496 0.49901295 10
    endloop
  endfacet
  facet normal 0 -1 0
    outer loop
      vertex 0.03139496 0.49901295 10
      vertex -0.03139496 0.49901295 0
      vertex 0.03139496 0.49901295 0
    endloop
  endfacet
  facet normal 0.8443219 0.5358363 0
    outer loop
      vertex -0.40450764 -0.2938919 10
      vertex -0.43815327 -0.2408762 0
      vertex -0.43815327 -0.2408762 10
    endloop
  endfacet
  facet normal 0.8443219 0.5358363 0
    outer loop
      vertex -0.43815327 -0.2408762 0
      vertex -0.40450764 -0.2938919 10
      vertex -0.40450764 -0.2938919 0
    endloop
  endfacet
  facet normal -0.5877851 -0.8090171 0
    outer loop
      vertex 0.26791286 0.422163 0
      vertex 0.31871128 0.3852558 10
      vertex 0.26791286 0.422163 10
    endloop
  endfacet
  facet normal -0.5877851 -0.8090171 0
    outer loop
      vertex 0.31871128 0.3852558 10
      vertex 0.26791286 0.422163 0
      vertex 0.31871128 0.3852558 0
    endloop
  endfacet
  facet normal 0.9510557 -0.30901945 0
    outer loop
      vertex -0.48429108 0.124344826 10
      vertex -0.46488762 0.184062 0
      vertex -0.46488762 0.184062 10
    endloop
  endfacet
  facet normal 0.9510557 -0.30901945 0
    outer loop
      vertex -0.46488762 0.184062 0
      vertex -0.48429108 0.124344826 10
      vertex -0.48429108 0.124344826 0
    endloop
  endfacet
  facet normal 0 1 0
    outer loop
      vertex 0.03139496 -0.49901295 0
      vertex -0.03139496 -0.49901295 10
      vertex 0.03139496 -0.49901295 10
    endloop
  endfacet
  facet normal 0 1 0
    outer loop
      vertex -0.03139496 -0.49901295 10
      vertex 0.03139496 -0.49901295 0
      vertex -0.03139496 -0.49901295 0
    endloop
  endfacet
  facet normal 0.12533382 0.9921146 0
    outer loop
      vertex -0.03139496 -0.49901295 0
      vertex -0.09368992 -0.49114323 10
      vertex -0.03139496 -0.49901295 10
    endloop
  endfacet
  facet normal 0.12533382 0.9921146 0
    outer loop
      vertex -0.09368992 -0.49114323 10
      vertex -0.03139496 -0.49901295 0
      vertex -0.09368992 -0.49114323 0
    endloop
  endfacet
  facet normal 0.9048294 0.42577437 0
    outer loop
      vertex -0.43815327 -0.2408762 10
      vertex -0.46488762 -0.184062 0
      vertex -0.46488762 -0.184062 10
    endloop
  endfacet
  facet normal 0.9048294 0.42577437 0
    outer loop
      vertex -0.46488762 -0.184062 0
      vertex -0.43815327 -0.2408762 10
      vertex -0.43815327 -0.2408762 0
    endloop
  endfacet
  facet normal 0.8443219 -0.5358363 0
    outer loop
      vertex -0.43815327 0.2408762 10
      vertex -0.40450764 0.2938919 0
      vertex -0.40450764 0.2938919 10
    endloop
  endfacet
  facet normal 0.8443219 -0.5358363 0
    outer loop
      vertex -0.40450764 0.2938919 0
      vertex -0.43815327 0.2408762 10
      vertex -0.43815327 0.2408762 0
    endloop
  endfacet
  facet normal -0.3681308 0.929774 0
    outer loop
      vertex 0.21288872 -0.4524126 0
      vertex 0.15450764 -0.47552776 10
      vertex 0.21288872 -0.4524126 10
    endloop
  endfacet
  facet normal -0.3681308 0.929774 0
    outer loop
      vertex 0.15450764 -0.47552776 10
      vertex 0.21288872 -0.4524126 0
      vertex 0.15450764 -0.47552776 0
    endloop
  endfacet
  facet normal 0.5877851 0.8090171 0
    outer loop
      vertex -0.26791286 -0.422163 0
      vertex -0.31871128 -0.3852558 10
      vertex -0.26791286 -0.422163 10
    endloop
  endfacet
  facet normal 0.5877851 0.8090171 0
    outer loop
      vertex -0.31871128 -0.3852558 10
      vertex -0.26791286 -0.422163 0
      vertex -0.31871128 -0.3852558 0
    endloop
  endfacet
  facet normal -0.4817514 0.8763079 0
    outer loop
      vertex 0.26791286 -0.422163 0
      vertex 0.21288872 -0.4524126 10
      vertex 0.26791286 -0.422163 10
    endloop
  endfacet
  facet normal -0.4817514 0.8763079 0
    outer loop
      vertex 0.21288872 -0.4524126 10
      vertex 0.26791286 -0.422163 0
      vertex 0.21288872 -0.4524126 0
    endloop
  endfacet
  facet normal 0.24869178 0.9685827 0
    outer loop
      vertex -0.09368992 -0.49114323 0
      vertex -0.15450764 -0.47552776 10
      vertex -0.09368992 -0.49114323 10
    endloop
  endfacet
  facet normal 0.24869178 0.9685827 0
    outer loop
      vertex -0.15450764 -0.47552776 10
      vertex -0.09368992 -0.49114323 0
      vertex -0.15450764 -0.47552776 0
    endloop
  endfacet
  facet normal -0.5877851 0.8090171 0
    outer loop
      vertex 0.31871128 -0.3852558 0
      vertex 0.26791286 -0.422163 10
      vertex 0.31871128 -0.3852558 10
    endloop
  endfacet
  facet normal -0.5877851 0.8090171 0
    outer loop
      vertex 0.26791286 -0.422163 10
      vertex 0.31871128 -0.3852558 0
      vertex 0.26791286 -0.422163 0
    endloop
  endfacet
  facet normal -0.24869178 0.9685827 0
    outer loop
      vertex 0.15450764 -0.47552776 0
      vertex 0.09368992 -0.49114323 10
      vertex 0.15450764 -0.47552776 10
    endloop
  endfacet
  facet normal -0.24869178 0.9685827 0
    outer loop
      vertex 0.09368992 -0.49114323 10
      vertex 0.15450764 -0.47552776 0
      vertex 0.09368992 -0.49114323 0
    endloop
  endfacet
  facet normal 0.77051574 -0.637421 0
    outer loop
      vertex -0.40450764 0.2938919 10
      vertex -0.36448383 0.34227276 0
      vertex -0.36448383 0.34227276 10
    endloop
  endfacet
  facet normal 0.77051574 -0.637421 0
    outer loop
      vertex -0.36448383 0.34227276 0
      vertex -0.40450764 0.2938919 10
      vertex -0.40450764 0.2938919 0
    endloop
  endfacet
  facet normal 0.3681308 0.929774 0
    outer loop
      vertex -0.15450764 -0.47552776 0
      vertex -0.21288872 -0.4524126 10
      vertex -0.15450764 -0.47552776 10
    endloop
  endfacet
  facet normal 0.3681308 0.929774 0
    outer loop
      vertex -0.21288872 -0.4524126 10
      vertex -0.15450764 -0.47552776 0
      vertex -0.21288872 -0.4524126 0
    endloop
  endfacet
endsolid OpenSCAD_Model
