solid OpenSCAD_Model
  facet normal 0.982284 0.187396 0
    outer loop
      vertex 1.48817 0.188 10
      vertex 1.45287 0.373034 0
      vertex 1.45287 0.373034 10
    endloop
  endfacet
  facet normal 0.982284 0.187396 0
    outer loop
      vertex 1.45287 0.373034 0
      vertex 1.48817 0.188 10
      vertex 1.48817 0.188 0
    endloop
  endfacet
  facet normal 0.998026 0.0628013 0
    outer loop
      vertex 1.5 0 10
      vertex 1.48817 0.188 0
      vertex 1.48817 0.188 10
    endloop
  endfacet
  facet normal 0.998026 0.0628013 0
    outer loop
      vertex 1.48817 0.188 0
      vertex 1.5 0 10
      vertex 1.5 0 0
    endloop
  endfacet
  facet normal 0.904838 0.425756 0
    outer loop
      vertex 1.39466 0.552186 10
      vertex 1.31446 0.722631 0
      vertex 1.31446 0.722631 10
    endloop
  endfacet
  facet normal 0.904838 0.425756 0
    outer loop
      vertex 1.31446 0.722631 0
      vertex 1.39466 0.552186 10
      vertex 1.39466 0.552186 0
    endloop
  endfacet
  facet normal 0.684557 0.728959 -0
    outer loop
      vertex 1.09345 1.02682 0
      vertex 0.956136 1.15577 10
      vertex 1.09345 1.02682 10
    endloop
  endfacet
  facet normal 0.684557 0.728959 0
    outer loop
      vertex 0.956136 1.15577 10
      vertex 1.09345 1.02682 0
      vertex 0.956136 1.15577 0
    endloop
  endfacet
  facet normal 0.24871 0.968578 -0
    outer loop
      vertex 0.463525 1.42658 0
      vertex 0.281072 1.47343 10
      vertex 0.463525 1.42658 10
    endloop
  endfacet
  facet normal 0.24871 0.968578 0
    outer loop
      vertex 0.281072 1.47343 10
      vertex 0.463525 1.42658 0
      vertex 0.281072 1.47343 0
    endloop
  endfacet
  facet normal 0.998026 -0.0628013 0
    outer loop
      vertex 1.48817 -0.188 10
      vertex 1.5 0 0
      vertex 1.5 0 10
    endloop
  endfacet
  facet normal 0.998026 -0.0628013 0
    outer loop
      vertex 1.5 0 0
      vertex 1.48817 -0.188 10
      vertex 1.48817 -0.188 0
    endloop
  endfacet
  facet normal 0.904838 -0.425756 0
    outer loop
      vertex 1.31446 -0.722631 10
      vertex 1.39466 -0.552186 0
      vertex 1.39466 -0.552186 10
    endloop
  endfacet
  facet normal 0.904838 -0.425756 0
    outer loop
      vertex 1.39466 -0.552186 0
      vertex 1.31446 -0.722631 10
      vertex 1.31446 -0.722631 0
    endloop
  endfacet
  facet normal -0.587778 -0.809022 0
    outer loop
      vertex -0.956136 -1.15577 0
      vertex -0.80374 -1.26649 10
      vertex -0.956136 -1.15577 10
    endloop
  endfacet
  facet normal -0.587778 -0.809022 -0
    outer loop
      vertex -0.80374 -1.26649 10
      vertex -0.956136 -1.15577 0
      vertex -0.80374 -1.26649 0
    endloop
  endfacet
  facet normal 0.368106 -0.929784 0
    outer loop
      vertex 0.463525 -1.42658 0
      vertex 0.638668 -1.35724 10
      vertex 0.463525 -1.42658 10
    endloop
  endfacet
  facet normal 0.368106 -0.929784 0
    outer loop
      vertex 0.638668 -1.35724 10
      vertex 0.463525 -1.42658 0
      vertex 0.638668 -1.35724 0
    endloop
  endfacet
  facet normal -0.844314 -0.535848 0
    outer loop
      vertex -1.21352 -0.881678 0
      vertex -1.31446 -0.722631 10
      vertex -1.31446 -0.722631 0
    endloop
  endfacet
  facet normal -0.844314 -0.535848 0
    outer loop
      vertex -1.31446 -0.722631 10
      vertex -1.21352 -0.881678 0
      vertex -1.21352 -0.881678 10
    endloop
  endfacet
  facet normal 0.368106 0.929784 -0
    outer loop
      vertex 0.638668 1.35724 0
      vertex 0.463525 1.42658 10
      vertex 0.638668 1.35724 10
    endloop
  endfacet
  facet normal 0.368106 0.929784 0
    outer loop
      vertex 0.463525 1.42658 10
      vertex 0.638668 1.35724 0
      vertex 0.463525 1.42658 0
    endloop
  endfacet
  facet normal -0.481757 0.876305 0
    outer loop
      vertex -0.638668 1.35724 0
      vertex -0.80374 1.26649 10
      vertex -0.638668 1.35724 10
    endloop
  endfacet
  facet normal -0.481757 0.876305 0
    outer loop
      vertex -0.80374 1.26649 10
      vertex -0.638668 1.35724 0
      vertex -0.80374 1.26649 0
    endloop
  endfacet
  facet normal 0.951057 0.309017 0
    outer loop
      vertex 1.45287 0.373034 10
      vertex 1.39466 0.552186 0
      vertex 1.39466 0.552186 10
    endloop
  endfacet
  facet normal 0.951057 0.309017 0
    outer loop
      vertex 1.39466 0.552186 0
      vertex 1.45287 0.373034 10
      vertex 1.45287 0.373034 0
    endloop
  endfacet
  facet normal 0.982284 -0.187396 0
    outer loop
      vertex 1.45287 -0.373034 10
      vertex 1.48817 -0.188 0
      vertex 1.48817 -0.188 10
    endloop
  endfacet
  facet normal 0.982284 -0.187396 0
    outer loop
      vertex 1.48817 -0.188 0
      vertex 1.45287 -0.373034 10
      vertex 1.45287 -0.373034 0
    endloop
  endfacet
  facet normal 0.481757 0.876305 -0
    outer loop
      vertex 0.80374 1.26649 0
      vertex 0.638668 1.35724 10
      vertex 0.80374 1.26649 10
    endloop
  endfacet
  facet normal 0.481757 0.876305 0
    outer loop
      vertex 0.638668 1.35724 10
      vertex 0.80374 1.26649 0
      vertex 0.638668 1.35724 0
    endloop
  endfacet
  facet normal 0.125337 -0.992114 0
    outer loop
      vertex 0.0941849 -1.49704 0
      vertex 0.281072 -1.47343 10
      vertex 0.0941849 -1.49704 10
    endloop
  endfacet
  facet normal 0.125337 -0.992114 0
    outer loop
      vertex 0.281072 -1.47343 10
      vertex 0.0941849 -1.49704 0
      vertex 0.281072 -1.47343 0
    endloop
  endfacet
  facet normal -0.951057 0.309017 0
    outer loop
      vertex -1.45287 0.373034 0
      vertex -1.39466 0.552186 10
      vertex -1.39466 0.552186 0
    endloop
  endfacet
  facet normal -0.951057 0.309017 0
    outer loop
      vertex -1.39466 0.552186 10
      vertex -1.45287 0.373034 0
      vertex -1.45287 0.373034 10
    endloop
  endfacet
  facet normal 0.844314 0.535848 0
    outer loop
      vertex 1.31446 0.722631 10
      vertex 1.21352 0.881678 0
      vertex 1.21352 0.881678 10
    endloop
  endfacet
  facet normal 0.844314 0.535848 0
    outer loop
      vertex 1.21352 0.881678 0
      vertex 1.31446 0.722631 10
      vertex 1.31446 0.722631 0
    endloop
  endfacet
  facet normal 0.951057 -0.309017 0
    outer loop
      vertex 1.39466 -0.552186 10
      vertex 1.45287 -0.373034 0
      vertex 1.45287 -0.373034 10
    endloop
  endfacet
  facet normal 0.951057 -0.309017 0
    outer loop
      vertex 1.45287 -0.373034 0
      vertex 1.39466 -0.552186 10
      vertex 1.39466 -0.552186 0
    endloop
  endfacet
  facet normal -0.684557 0.728959 0
    outer loop
      vertex -0.956136 1.15577 0
      vertex -1.09345 1.02682 10
      vertex -0.956136 1.15577 10
    endloop
  endfacet
  facet normal -0.684557 0.728959 0
    outer loop
      vertex -1.09345 1.02682 10
      vertex -0.956136 1.15577 0
      vertex -1.09345 1.02682 0
    endloop
  endfacet
  facet normal 0.24871 -0.968578 0
    outer loop
      vertex 0.281072 -1.47343 0
      vertex 0.463525 -1.42658 10
      vertex 0.281072 -1.47343 10
    endloop
  endfacet
  facet normal 0.24871 -0.968578 0
    outer loop
      vertex 0.463525 -1.42658 10
      vertex 0.281072 -1.47343 0
      vertex 0.463525 -1.42658 0
    endloop
  endfacet
  facet normal -0.368106 0.929784 0
    outer loop
      vertex -0.463525 1.42658 0
      vertex -0.638668 1.35724 10
      vertex -0.463525 1.42658 10
    endloop
  endfacet
  facet normal -0.368106 0.929784 0
    outer loop
      vertex -0.638668 1.35724 10
      vertex -0.463525 1.42658 0
      vertex -0.638668 1.35724 0
    endloop
  endfacet
  facet normal 0.125337 0.992114 -0
    outer loop
      vertex 0.281072 1.47343 0
      vertex 0.0941849 1.49704 10
      vertex 0.281072 1.47343 10
    endloop
  endfacet
  facet normal 0.125337 0.992114 0
    outer loop
      vertex 0.0941849 1.49704 10
      vertex 0.281072 1.47343 0
      vertex 0.0941849 1.49704 0
    endloop
  endfacet
  facet normal -0.24871 0.968578 0
    outer loop
      vertex -0.281072 1.47343 0
      vertex -0.463525 1.42658 10
      vertex -0.281072 1.47343 10
    endloop
  endfacet
  facet normal -0.24871 0.968578 0
    outer loop
      vertex -0.463525 1.42658 10
      vertex -0.281072 1.47343 0
      vertex -0.463525 1.42658 0
    endloop
  endfacet
  facet normal -0.982284 -0.187396 0
    outer loop
      vertex -1.45287 -0.373034 0
      vertex -1.48817 -0.188 10
      vertex -1.48817 -0.188 0
    endloop
  endfacet
  facet normal -0.982284 -0.187396 0
    outer loop
      vertex -1.48817 -0.188 10
      vertex -1.45287 -0.373034 0
      vertex -1.45287 -0.373034 10
    endloop
  endfacet
  facet normal 0.587778 0.809022 -0
    outer loop
      vertex 0.956136 1.15577 0
      vertex 0.80374 1.26649 10
      vertex 0.956136 1.15577 10
    endloop
  endfacet
  facet normal 0.587778 0.809022 0
    outer loop
      vertex 0.80374 1.26649 10
      vertex 0.956136 1.15577 0
      vertex 0.80374 1.26649 0
    endloop
  endfacet
  facet normal -0.998026 -0.0628013 0
    outer loop
      vertex -1.48817 -0.188 0
      vertex -1.5 0 10
      vertex -1.5 0 0
    endloop
  endfacet
  facet normal -0.998026 -0.0628013 0
    outer loop
      vertex -1.5 0 10
      vertex -1.48817 -0.188 0
      vertex -1.48817 -0.188 10
    endloop
  endfacet
  facet normal 0 0 1
    outer loop
      vertex 0.5 0 10
      vertex 1.5 0 10
      vertex 1.48817 0.188 10
    endloop
  endfacet
  facet normal 0 0 1
    outer loop
      vertex 0.496057 0.0626659 10
      vertex 1.48817 0.188 10
      vertex 1.45287 0.373034 10
    endloop
  endfacet
  facet normal 0 0 1
    outer loop
      vertex 1.5 0 10
      vertex 0.5 0 10
      vertex 1.48817 -0.188 10
    endloop
  endfacet
  facet normal 0 0 1
    outer loop
      vertex 0.484291 0.124345 10
      vertex 1.45287 0.373034 10
      vertex 1.39466 0.552186 10
    endloop
  endfacet
  facet normal -0 0 1
    outer loop
      vertex 0.496057 -0.0626659 10
      vertex 1.48817 -0.188 10
      vertex 0.5 0 10
    endloop
  endfacet
  facet normal 0 0 1
    outer loop
      vertex 0.464888 0.184062 10
      vertex 1.39466 0.552186 10
      vertex 1.31446 0.722631 10
    endloop
  endfacet
  facet normal 0 0 1
    outer loop
      vertex 1.48817 -0.188 10
      vertex 0.496057 -0.0626659 10
      vertex 1.45287 -0.373034 10
    endloop
  endfacet
  facet normal 0 0 1
    outer loop
      vertex 0.438153 0.240876 10
      vertex 1.31446 0.722631 10
      vertex 1.21352 0.881678 10
    endloop
  endfacet
  facet normal -0 0 1
    outer loop
      vertex 0.484291 -0.124345 10
      vertex 1.45287 -0.373034 10
      vertex 0.496057 -0.0626659 10
    endloop
  endfacet
  facet normal 0 0 1
    outer loop
      vertex 0.404508 0.293892 10
      vertex 1.21352 0.881678 10
      vertex 1.09345 1.02682 10
    endloop
  endfacet
  facet normal 0 0 1
    outer loop
      vertex 1.45287 -0.373034 10
      vertex 0.484291 -0.124345 10
      vertex 1.39466 -0.552186 10
    endloop
  endfacet
  facet normal 0 0 1
    outer loop
      vertex 0.364484 0.342273 10
      vertex 1.09345 1.02682 10
      vertex 0.956136 1.15577 10
    endloop
  endfacet
  facet normal -0 0 1
    outer loop
      vertex 0.464888 -0.184062 10
      vertex 1.39466 -0.552186 10
      vertex 0.484291 -0.124345 10
    endloop
  endfacet
  facet normal 0 0 1
    outer loop
      vertex 0.318711 0.385256 10
      vertex 0.956136 1.15577 10
      vertex 0.80374 1.26649 10
    endloop
  endfacet
  facet normal 0 0 1
    outer loop
      vertex 1.39466 -0.552186 10
      vertex 0.464888 -0.184062 10
      vertex 1.31446 -0.722631 10
    endloop
  endfacet
  facet normal 0 0 1
    outer loop
      vertex 0.267913 0.422163 10
      vertex 0.80374 1.26649 10
      vertex 0.638668 1.35724 10
    endloop
  endfacet
  facet normal -0 0 1
    outer loop
      vertex 0.438153 -0.240876 10
      vertex 1.31446 -0.722631 10
      vertex 0.464888 -0.184062 10
    endloop
  endfacet
  facet normal 0 0 1
    outer loop
      vertex 1.31446 -0.722631 10
      vertex 0.438153 -0.240876 10
      vertex 1.21352 -0.881678 10
    endloop
  endfacet
  facet normal 0 0 1
    outer loop
      vertex 1.48817 0.188 10
      vertex 0.496057 0.0626659 10
      vertex 0.5 0 10
    endloop
  endfacet
  facet normal 0 0 1
    outer loop
      vertex 1.45287 0.373034 10
      vertex 0.484291 0.124345 10
      vertex 0.496057 0.0626659 10
    endloop
  endfacet
  facet normal 0 0 1
    outer loop
      vertex 1.39466 0.552186 10
      vertex 0.464888 0.184062 10
      vertex 0.484291 0.124345 10
    endloop
  endfacet
  facet normal 0 0 1
    outer loop
      vertex 0.212889 0.452413 10
      vertex 0.638668 1.35724 10
      vertex 0.463525 1.42658 10
    endloop
  endfacet
  facet normal 0 0 1
    outer loop
      vertex 1.31446 0.722631 10
      vertex 0.438153 0.240876 10
      vertex 0.464888 0.184062 10
    endloop
  endfacet
  facet normal 0 0 1
    outer loop
      vertex 1.21352 0.881678 10
      vertex 0.404508 0.293892 10
      vertex 0.438153 0.240876 10
    endloop
  endfacet
  facet normal 0 0 1
    outer loop
      vertex 1.09345 1.02682 10
      vertex 0.364484 0.342273 10
      vertex 0.404508 0.293892 10
    endloop
  endfacet
  facet normal 0 0 1
    outer loop
      vertex 0.956136 1.15577 10
      vertex 0.318711 0.385256 10
      vertex 0.364484 0.342273 10
    endloop
  endfacet
  facet normal 0 0 1
    outer loop
      vertex 0.154508 0.475528 10
      vertex 0.463525 1.42658 10
      vertex 0.281072 1.47343 10
    endloop
  endfacet
  facet normal 0 0 1
    outer loop
      vertex 0.80374 1.26649 10
      vertex 0.267913 0.422163 10
      vertex 0.318711 0.385256 10
    endloop
  endfacet
  facet normal 0 0 1
    outer loop
      vertex 0.638668 1.35724 10
      vertex 0.212889 0.452413 10
      vertex 0.267913 0.422163 10
    endloop
  endfacet
  facet normal 0 0 1
    outer loop
      vertex 0.463525 1.42658 10
      vertex 0.154508 0.475528 10
      vertex 0.212889 0.452413 10
    endloop
  endfacet
  facet normal 0 0 1
    outer loop
      vertex 0.0936899 0.491143 10
      vertex 0.281072 1.47343 10
      vertex 0.0941849 1.49704 10
    endloop
  endfacet
  facet normal 0 0 1
    outer loop
      vertex 0.281072 1.47343 10
      vertex 0.0936899 0.491143 10
      vertex 0.154508 0.475528 10
    endloop
  endfacet
  facet normal 0 0 1
    outer loop
      vertex 0.0941849 1.49704 10
      vertex 0.031395 0.499013 10
      vertex 0.0936899 0.491143 10
    endloop
  endfacet
  facet normal 0 0 1
    outer loop
      vertex 0.0941849 1.49704 10
      vertex -0.031395 0.499013 10
      vertex 0.031395 0.499013 10
    endloop
  endfacet
  facet normal -0 0 1
    outer loop
      vertex -0.0941849 1.49704 10
      vertex -0.031395 0.499013 10
      vertex 0.0941849 1.49704 10
    endloop
  endfacet
  facet normal 0 0 1
    outer loop
      vertex -0.031395 0.499013 10
      vertex -0.0941849 1.49704 10
      vertex -0.0936899 0.491143 10
    endloop
  endfacet
  facet normal -0 0 1
    outer loop
      vertex -0.281072 1.47343 10
      vertex -0.0936899 0.491143 10
      vertex -0.0941849 1.49704 10
    endloop
  endfacet
  facet normal 0 0 1
    outer loop
      vertex -0.0936899 0.491143 10
      vertex -0.281072 1.47343 10
      vertex -0.154508 0.475528 10
    endloop
  endfacet
  facet normal -0 0 1
    outer loop
      vertex -0.463525 1.42658 10
      vertex -0.154508 0.475528 10
      vertex -0.281072 1.47343 10
    endloop
  endfacet
  facet normal 0 0 1
    outer loop
      vertex -0.154508 0.475528 10
      vertex -0.463525 1.42658 10
      vertex -0.212889 0.452413 10
    endloop
  endfacet
  facet normal -0 0 1
    outer loop
      vertex -0.638668 1.35724 10
      vertex -0.212889 0.452413 10
      vertex -0.463525 1.42658 10
    endloop
  endfacet
  facet normal 0 0 1
    outer loop
      vertex -0.212889 0.452413 10
      vertex -0.638668 1.35724 10
      vertex -0.267913 0.422163 10
    endloop
  endfacet
  facet normal -0 0 1
    outer loop
      vertex -0.80374 1.26649 10
      vertex -0.267913 0.422163 10
      vertex -0.638668 1.35724 10
    endloop
  endfacet
  facet normal 0 0 1
    outer loop
      vertex -0.267913 0.422163 10
      vertex -0.80374 1.26649 10
      vertex -0.318711 0.385256 10
    endloop
  endfacet
  facet normal -0 0 1
    outer loop
      vertex -0.956136 1.15577 10
      vertex -0.318711 0.385256 10
      vertex -0.80374 1.26649 10
    endloop
  endfacet
  facet normal 0 0 1
    outer loop
      vertex -0.318711 0.385256 10
      vertex -0.956136 1.15577 10
      vertex -0.364484 0.342273 10
    endloop
  endfacet
  facet normal -0 0 1
    outer loop
      vertex -1.09345 1.02682 10
      vertex -0.364484 0.342273 10
      vertex -0.956136 1.15577 10
    endloop
  endfacet
  facet normal 0 0 1
    outer loop
      vertex -0.364484 0.342273 10
      vertex -1.09345 1.02682 10
      vertex -0.404508 0.293892 10
    endloop
  endfacet
  facet normal -0 0 1
    outer loop
      vertex -1.21352 0.881678 10
      vertex -0.404508 0.293892 10
      vertex -1.09345 1.02682 10
    endloop
  endfacet
  facet normal 0 0 1
    outer loop
      vertex -0.404508 0.293892 10
      vertex -1.21352 0.881678 10
      vertex -0.438153 0.240876 10
    endloop
  endfacet
  facet normal -0 0 1
    outer loop
      vertex 0.404508 -0.293892 10
      vertex 1.21352 -0.881678 10
      vertex 0.438153 -0.240876 10
    endloop
  endfacet
  facet normal 0 0 1
    outer loop
      vertex 1.21352 -0.881678 10
      vertex 0.404508 -0.293892 10
      vertex 1.09345 -1.02682 10
    endloop
  endfacet
  facet normal -0 0 1
    outer loop
      vertex 0.364484 -0.342273 10
      vertex 1.09345 -1.02682 10
      vertex 0.404508 -0.293892 10
    endloop
  endfacet
  facet normal 0 0 1
    outer loop
      vertex 1.09345 -1.02682 10
      vertex 0.364484 -0.342273 10
      vertex 0.956136 -1.15577 10
    endloop
  endfacet
  facet normal -0 0 1
    outer loop
      vertex 0.318711 -0.385256 10
      vertex 0.956136 -1.15577 10
      vertex 0.364484 -0.342273 10
    endloop
  endfacet
  facet normal 0 0 1
    outer loop
      vertex 0.956136 -1.15577 10
      vertex 0.318711 -0.385256 10
      vertex 0.80374 -1.26649 10
    endloop
  endfacet
  facet normal -0 0 1
    outer loop
      vertex 0.267913 -0.422163 10
      vertex 0.80374 -1.26649 10
      vertex 0.318711 -0.385256 10
    endloop
  endfacet
  facet normal 0 0 1
    outer loop
      vertex 0.80374 -1.26649 10
      vertex 0.267913 -0.422163 10
      vertex 0.638668 -1.35724 10
    endloop
  endfacet
  facet normal -0 0 1
    outer loop
      vertex 0.212889 -0.452413 10
      vertex 0.638668 -1.35724 10
      vertex 0.267913 -0.422163 10
    endloop
  endfacet
  facet normal 0 0 1
    outer loop
      vertex 0.638668 -1.35724 10
      vertex 0.212889 -0.452413 10
      vertex 0.463525 -1.42658 10
    endloop
  endfacet
  facet normal -0 0 1
    outer loop
      vertex 0.154508 -0.475528 10
      vertex 0.463525 -1.42658 10
      vertex 0.212889 -0.452413 10
    endloop
  endfacet
  facet normal 0 0 1
    outer loop
      vertex 0.463525 -1.42658 10
      vertex 0.154508 -0.475528 10
      vertex 0.281072 -1.47343 10
    endloop
  endfacet
  facet normal -0 0 1
    outer loop
      vertex 0.0936899 -0.491143 10
      vertex 0.281072 -1.47343 10
      vertex 0.154508 -0.475528 10
    endloop
  endfacet
  facet normal 0 0 1
    outer loop
      vertex 0.281072 -1.47343 10
      vertex 0.0936899 -0.491143 10
      vertex 0.0941849 -1.49704 10
    endloop
  endfacet
  facet normal -0 0 1
    outer loop
      vertex 0.031395 -0.499013 10
      vertex 0.0941849 -1.49704 10
      vertex 0.0936899 -0.491143 10
    endloop
  endfacet
  facet normal -0 0 1
    outer loop
      vertex -0.031395 -0.499013 10
      vertex 0.0941849 -1.49704 10
      vertex 0.031395 -0.499013 10
    endloop
  endfacet
  facet normal 0 0 1
    outer loop
      vertex -0.0941849 -1.49704 10
      vertex -0.031395 -0.499013 10
      vertex -0.0936899 -0.491143 10
    endloop
  endfacet
  facet normal 0 0 1
    outer loop
      vertex -0.031395 -0.499013 10
      vertex -0.0941849 -1.49704 10
      vertex 0.0941849 -1.49704 10
    endloop
  endfacet
  facet normal 0 0 1
    outer loop
      vertex -0.281072 -1.47343 10
      vertex -0.0936899 -0.491143 10
      vertex -0.154508 -0.475528 10
    endloop
  endfacet
  facet normal 0 0 1
    outer loop
      vertex -0.463525 -1.42658 10
      vertex -0.154508 -0.475528 10
      vertex -0.212889 -0.452413 10
    endloop
  endfacet
  facet normal 0 0 1
    outer loop
      vertex -0.638668 -1.35724 10
      vertex -0.212889 -0.452413 10
      vertex -0.267913 -0.422163 10
    endloop
  endfacet
  facet normal 0 0 1
    outer loop
      vertex -0.0936899 -0.491143 10
      vertex -0.281072 -1.47343 10
      vertex -0.0941849 -1.49704 10
    endloop
  endfacet
  facet normal 0 0 1
    outer loop
      vertex -0.80374 -1.26649 10
      vertex -0.267913 -0.422163 10
      vertex -0.318711 -0.385256 10
    endloop
  endfacet
  facet normal 0 0 1
    outer loop
      vertex -0.956136 -1.15577 10
      vertex -0.318711 -0.385256 10
      vertex -0.364484 -0.342273 10
    endloop
  endfacet
  facet normal 0 0 1
    outer loop
      vertex -1.09345 -1.02682 10
      vertex -0.364484 -0.342273 10
      vertex -0.404508 -0.293892 10
    endloop
  endfacet
  facet normal 0 0 1
    outer loop
      vertex -1.21352 -0.881678 10
      vertex -0.404508 -0.293892 10
      vertex -0.438153 -0.240876 10
    endloop
  endfacet
  facet normal 0 0 1
    outer loop
      vertex -0.154508 -0.475528 10
      vertex -0.463525 -1.42658 10
      vertex -0.281072 -1.47343 10
    endloop
  endfacet
  facet normal 0 0 1
    outer loop
      vertex -1.31446 -0.722631 10
      vertex -0.438153 -0.240876 10
      vertex -0.464888 -0.184062 10
    endloop
  endfacet
  facet normal 0 0 1
    outer loop
      vertex -1.39466 -0.552186 10
      vertex -0.464888 -0.184062 10
      vertex -0.484291 -0.124345 10
    endloop
  endfacet
  facet normal 0 0 1
    outer loop
      vertex -1.45287 -0.373034 10
      vertex -0.484291 -0.124345 10
      vertex -0.496057 -0.0626659 10
    endloop
  endfacet
  facet normal 0 0 1
    outer loop
      vertex -1.48817 -0.188 10
      vertex -0.496057 -0.0626659 10
      vertex -0.5 0 10
    endloop
  endfacet
  facet normal -0 0 1
    outer loop
      vertex -1.31446 0.722631 10
      vertex -0.438153 0.240876 10
      vertex -1.21352 0.881678 10
    endloop
  endfacet
  facet normal 0 0 1
    outer loop
      vertex -0.212889 -0.452413 10
      vertex -0.638668 -1.35724 10
      vertex -0.463525 -1.42658 10
    endloop
  endfacet
  facet normal 0 0 1
    outer loop
      vertex -0.438153 0.240876 10
      vertex -1.31446 0.722631 10
      vertex -0.464888 0.184062 10
    endloop
  endfacet
  facet normal 0 0 1
    outer loop
      vertex -0.267913 -0.422163 10
      vertex -0.80374 -1.26649 10
      vertex -0.638668 -1.35724 10
    endloop
  endfacet
  facet normal -0 0 1
    outer loop
      vertex -1.39466 0.552186 10
      vertex -0.464888 0.184062 10
      vertex -1.31446 0.722631 10
    endloop
  endfacet
  facet normal 0 0 1
    outer loop
      vertex -0.318711 -0.385256 10
      vertex -0.956136 -1.15577 10
      vertex -0.80374 -1.26649 10
    endloop
  endfacet
  facet normal 0 0 1
    outer loop
      vertex -0.464888 0.184062 10
      vertex -1.39466 0.552186 10
      vertex -0.484291 0.124345 10
    endloop
  endfacet
  facet normal 0 0 1
    outer loop
      vertex -0.364484 -0.342273 10
      vertex -1.09345 -1.02682 10
      vertex -0.956136 -1.15577 10
    endloop
  endfacet
  facet normal -0 0 1
    outer loop
      vertex -1.45287 0.373034 10
      vertex -0.484291 0.124345 10
      vertex -1.39466 0.552186 10
    endloop
  endfacet
  facet normal 0 0 1
    outer loop
      vertex -0.404508 -0.293892 10
      vertex -1.21352 -0.881678 10
      vertex -1.09345 -1.02682 10
    endloop
  endfacet
  facet normal 0 0 1
    outer loop
      vertex -0.484291 0.124345 10
      vertex -1.45287 0.373034 10
      vertex -0.496057 0.0626659 10
    endloop
  endfacet
  facet normal 0 0 1
    outer loop
      vertex -0.438153 -0.240876 10
      vertex -1.31446 -0.722631 10
      vertex -1.21352 -0.881678 10
    endloop
  endfacet
  facet normal -0 0 1
    outer loop
      vertex -1.48817 0.188 10
      vertex -0.496057 0.0626659 10
      vertex -1.45287 0.373034 10
    endloop
  endfacet
  facet normal 0 0 1
    outer loop
      vertex -0.464888 -0.184062 10
      vertex -1.39466 -0.552186 10
      vertex -1.31446 -0.722631 10
    endloop
  endfacet
  facet normal 0 0 1
    outer loop
      vertex -0.496057 0.0626659 10
      vertex -1.48817 0.188 10
      vertex -0.5 0 10
    endloop
  endfacet
  facet normal 0 0 1
    outer loop
      vertex -0.484291 -0.124345 10
      vertex -1.45287 -0.373034 10
      vertex -1.39466 -0.552186 10
    endloop
  endfacet
  facet normal 0 0 1
    outer loop
      vertex -1.5 0 10
      vertex -0.5 0 10
      vertex -1.48817 0.188 10
    endloop
  endfacet
  facet normal 0 0 1
    outer loop
      vertex -0.496057 -0.0626659 10
      vertex -1.48817 -0.188 10
      vertex -1.45287 -0.373034 10
    endloop
  endfacet
  facet normal 0 0 1
    outer loop
      vertex -0.5 0 10
      vertex -1.5 0 10
      vertex -1.48817 -0.188 10
    endloop
  endfacet
  facet normal 0.481757 -0.876305 0
    outer loop
      vertex 0.638668 -1.35724 0
      vertex 0.80374 -1.26649 10
      vertex 0.638668 -1.35724 10
    endloop
  endfacet
  facet normal 0.481757 -0.876305 0
    outer loop
      vertex 0.80374 -1.26649 10
      vertex 0.638668 -1.35724 0
      vertex 0.80374 -1.26649 0
    endloop
  endfacet
  facet normal 0 0 -1
    outer loop
      vertex 0.5 0 0
      vertex 1.5 0 0
      vertex 1.48817 -0.188 0
    endloop
  endfacet
  facet normal 0 0 -1
    outer loop
      vertex 0.496057 -0.0626659 0
      vertex 1.48817 -0.188 0
      vertex 1.45287 -0.373034 0
    endloop
  endfacet
  facet normal 0 0 -1
    outer loop
      vertex 1.5 0 0
      vertex 0.5 0 0
      vertex 1.48817 0.188 0
    endloop
  endfacet
  facet normal 0 0 -1
    outer loop
      vertex 0.484291 -0.124345 0
      vertex 1.45287 -0.373034 0
      vertex 1.39466 -0.552186 0
    endloop
  endfacet
  facet normal 0 0 -1
    outer loop
      vertex 0.496057 0.0626659 0
      vertex 1.48817 0.188 0
      vertex 0.5 0 0
    endloop
  endfacet
  facet normal 0 0 -1
    outer loop
      vertex 0.464888 -0.184062 0
      vertex 1.39466 -0.552186 0
      vertex 1.31446 -0.722631 0
    endloop
  endfacet
  facet normal -0 0 -1
    outer loop
      vertex 1.48817 0.188 0
      vertex 0.496057 0.0626659 0
      vertex 1.45287 0.373034 0
    endloop
  endfacet
  facet normal 0 0 -1
    outer loop
      vertex 0.438153 -0.240876 0
      vertex 1.31446 -0.722631 0
      vertex 1.21352 -0.881678 0
    endloop
  endfacet
  facet normal 0 0 -1
    outer loop
      vertex 0.484291 0.124345 0
      vertex 1.45287 0.373034 0
      vertex 0.496057 0.0626659 0
    endloop
  endfacet
  facet normal 0 0 -1
    outer loop
      vertex 0.404508 -0.293892 0
      vertex 1.21352 -0.881678 0
      vertex 1.09345 -1.02682 0
    endloop
  endfacet
  facet normal -0 0 -1
    outer loop
      vertex 1.45287 0.373034 0
      vertex 0.484291 0.124345 0
      vertex 1.39466 0.552186 0
    endloop
  endfacet
  facet normal 0 0 -1
    outer loop
      vertex 0.364484 -0.342273 0
      vertex 1.09345 -1.02682 0
      vertex 0.956136 -1.15577 0
    endloop
  endfacet
  facet normal 0 0 -1
    outer loop
      vertex 0.464888 0.184062 0
      vertex 1.39466 0.552186 0
      vertex 0.484291 0.124345 0
    endloop
  endfacet
  facet normal 0 0 -1
    outer loop
      vertex 0.318711 -0.385256 0
      vertex 0.956136 -1.15577 0
      vertex 0.80374 -1.26649 0
    endloop
  endfacet
  facet normal -0 0 -1
    outer loop
      vertex 1.39466 0.552186 0
      vertex 0.464888 0.184062 0
      vertex 1.31446 0.722631 0
    endloop
  endfacet
  facet normal 0 0 -1
    outer loop
      vertex 0.267913 -0.422163 0
      vertex 0.80374 -1.26649 0
      vertex 0.638668 -1.35724 0
    endloop
  endfacet
  facet normal 0 0 -1
    outer loop
      vertex 0.438153 0.240876 0
      vertex 1.31446 0.722631 0
      vertex 0.464888 0.184062 0
    endloop
  endfacet
  facet normal -0 0 -1
    outer loop
      vertex 1.31446 0.722631 0
      vertex 0.438153 0.240876 0
      vertex 1.21352 0.881678 0
    endloop
  endfacet
  facet normal 0 0 -1
    outer loop
      vertex 1.48817 -0.188 0
      vertex 0.496057 -0.0626659 0
      vertex 0.5 0 0
    endloop
  endfacet
  facet normal 0 0 -1
    outer loop
      vertex 1.45287 -0.373034 0
      vertex 0.484291 -0.124345 0
      vertex 0.496057 -0.0626659 0
    endloop
  endfacet
  facet normal 0 0 -1
    outer loop
      vertex 1.39466 -0.552186 0
      vertex 0.464888 -0.184062 0
      vertex 0.484291 -0.124345 0
    endloop
  endfacet
  facet normal 0 0 -1
    outer loop
      vertex 0.212889 -0.452413 0
      vertex 0.638668 -1.35724 0
      vertex 0.463525 -1.42658 0
    endloop
  endfacet
  facet normal 0 0 -1
    outer loop
      vertex 1.31446 -0.722631 0
      vertex 0.438153 -0.240876 0
      vertex 0.464888 -0.184062 0
    endloop
  endfacet
  facet normal 0 0 -1
    outer loop
      vertex 1.21352 -0.881678 0
      vertex 0.404508 -0.293892 0
      vertex 0.438153 -0.240876 0
    endloop
  endfacet
  facet normal 0 0 -1
    outer loop
      vertex 1.09345 -1.02682 0
      vertex 0.364484 -0.342273 0
      vertex 0.404508 -0.293892 0
    endloop
  endfacet
  facet normal 0 0 -1
    outer loop
      vertex 0.956136 -1.15577 0
      vertex 0.318711 -0.385256 0
      vertex 0.364484 -0.342273 0
    endloop
  endfacet
  facet normal 0 0 -1
    outer loop
      vertex 0.154508 -0.475528 0
      vertex 0.463525 -1.42658 0
      vertex 0.281072 -1.47343 0
    endloop
  endfacet
  facet normal 0 0 -1
    outer loop
      vertex 0.80374 -1.26649 0
      vertex 0.267913 -0.422163 0
      vertex 0.318711 -0.385256 0
    endloop
  endfacet
  facet normal 0 0 -1
    outer loop
      vertex 0.638668 -1.35724 0
      vertex 0.212889 -0.452413 0
      vertex 0.267913 -0.422163 0
    endloop
  endfacet
  facet normal 0 0 -1
    outer loop
      vertex 0.463525 -1.42658 0
      vertex 0.154508 -0.475528 0
      vertex 0.212889 -0.452413 0
    endloop
  endfacet
  facet normal 0 0 -1
    outer loop
      vertex 0.0936899 -0.491143 0
      vertex 0.281072 -1.47343 0
      vertex 0.0941849 -1.49704 0
    endloop
  endfacet
  facet normal 0 0 -1
    outer loop
      vertex 0.281072 -1.47343 0
      vertex 0.0936899 -0.491143 0
      vertex 0.154508 -0.475528 0
    endloop
  endfacet
  facet normal 0 0 -1
    outer loop
      vertex 0.0941849 -1.49704 0
      vertex 0.031395 -0.499013 0
      vertex 0.0936899 -0.491143 0
    endloop
  endfacet
  facet normal 0 0 -1
    outer loop
      vertex 0.0941849 -1.49704 0
      vertex -0.031395 -0.499013 0
      vertex 0.031395 -0.499013 0
    endloop
  endfacet
  facet normal 0 0 -1
    outer loop
      vertex -0.0941849 -1.49704 0
      vertex -0.031395 -0.499013 0
      vertex 0.0941849 -1.49704 0
    endloop
  endfacet
  facet normal -0 0 -1
    outer loop
      vertex -0.031395 -0.499013 0
      vertex -0.0941849 -1.49704 0
      vertex -0.0936899 -0.491143 0
    endloop
  endfacet
  facet normal 0 0 -1
    outer loop
      vertex -0.281072 -1.47343 0
      vertex -0.0936899 -0.491143 0
      vertex -0.0941849 -1.49704 0
    endloop
  endfacet
  facet normal -0 0 -1
    outer loop
      vertex -0.0936899 -0.491143 0
      vertex -0.281072 -1.47343 0
      vertex -0.154508 -0.475528 0
    endloop
  endfacet
  facet normal 0 0 -1
    outer loop
      vertex -0.463525 -1.42658 0
      vertex -0.154508 -0.475528 0
      vertex -0.281072 -1.47343 0
    endloop
  endfacet
  facet normal -0 0 -1
    outer loop
      vertex -0.154508 -0.475528 0
      vertex -0.463525 -1.42658 0
      vertex -0.212889 -0.452413 0
    endloop
  endfacet
  facet normal 0 0 -1
    outer loop
      vertex -0.638668 -1.35724 0
      vertex -0.212889 -0.452413 0
      vertex -0.463525 -1.42658 0
    endloop
  endfacet
  facet normal -0 0 -1
    outer loop
      vertex -0.212889 -0.452413 0
      vertex -0.638668 -1.35724 0
      vertex -0.267913 -0.422163 0
    endloop
  endfacet
  facet normal 0 0 -1
    outer loop
      vertex -0.80374 -1.26649 0
      vertex -0.267913 -0.422163 0
      vertex -0.638668 -1.35724 0
    endloop
  endfacet
  facet normal -0 0 -1
    outer loop
      vertex -0.267913 -0.422163 0
      vertex -0.80374 -1.26649 0
      vertex -0.318711 -0.385256 0
    endloop
  endfacet
  facet normal 0 0 -1
    outer loop
      vertex -0.956136 -1.15577 0
      vertex -0.318711 -0.385256 0
      vertex -0.80374 -1.26649 0
    endloop
  endfacet
  facet normal -0 0 -1
    outer loop
      vertex -0.318711 -0.385256 0
      vertex -0.956136 -1.15577 0
      vertex -0.364484 -0.342273 0
    endloop
  endfacet
  facet normal 0 0 -1
    outer loop
      vertex -1.09345 -1.02682 0
      vertex -0.364484 -0.342273 0
      vertex -0.956136 -1.15577 0
    endloop
  endfacet
  facet normal -0 0 -1
    outer loop
      vertex -0.364484 -0.342273 0
      vertex -1.09345 -1.02682 0
      vertex -0.404508 -0.293892 0
    endloop
  endfacet
  facet normal 0 0 -1
    outer loop
      vertex -1.21352 -0.881678 0
      vertex -0.404508 -0.293892 0
      vertex -1.09345 -1.02682 0
    endloop
  endfacet
  facet normal -0 0 -1
    outer loop
      vertex -0.404508 -0.293892 0
      vertex -1.21352 -0.881678 0
      vertex -0.438153 -0.240876 0
    endloop
  endfacet
  facet normal 0 0 -1
    outer loop
      vertex 0.404508 0.293892 0
      vertex 1.21352 0.881678 0
      vertex 0.438153 0.240876 0
    endloop
  endfacet
  facet normal -0 0 -1
    outer loop
      vertex 1.21352 0.881678 0
      vertex 0.404508 0.293892 0
      vertex 1.09345 1.02682 0
    endloop
  endfacet
  facet normal 0 0 -1
    outer loop
      vertex 0.364484 0.342273 0
      vertex 1.09345 1.02682 0
      vertex 0.404508 0.293892 0
    endloop
  endfacet
  facet normal -0 0 -1
    outer loop
      vertex 1.09345 1.02682 0
      vertex 0.364484 0.342273 0
      vertex 0.956136 1.15577 0
    endloop
  endfacet
  facet normal 0 0 -1
    outer loop
      vertex 0.318711 0.385256 0
      vertex 0.956136 1.15577 0
      vertex 0.364484 0.342273 0
    endloop
  endfacet
  facet normal -0 0 -1
    outer loop
      vertex 0.956136 1.15577 0
      vertex 0.318711 0.385256 0
      vertex 0.80374 1.26649 0
    endloop
  endfacet
  facet normal 0 0 -1
    outer loop
      vertex 0.267913 0.422163 0
      vertex 0.80374 1.26649 0
      vertex 0.318711 0.385256 0
    endloop
  endfacet
  facet normal -0 0 -1
    outer loop
      vertex 0.80374 1.26649 0
      vertex 0.267913 0.422163 0
      vertex 0.638668 1.35724 0
    endloop
  endfacet
  facet normal 0 0 -1
    outer loop
      vertex 0.212889 0.452413 0
      vertex 0.638668 1.35724 0
      vertex 0.267913 0.422163 0
    endloop
  endfacet
  facet normal -0 0 -1
    outer loop
      vertex 0.638668 1.35724 0
      vertex 0.212889 0.452413 0
      vertex 0.463525 1.42658 0
    endloop
  endfacet
  facet normal 0 0 -1
    outer loop
      vertex 0.154508 0.475528 0
      vertex 0.463525 1.42658 0
      vertex 0.212889 0.452413 0
    endloop
  endfacet
  facet normal -0 0 -1
    outer loop
      vertex 0.463525 1.42658 0
      vertex 0.154508 0.475528 0
      vertex 0.281072 1.47343 0
    endloop
  endfacet
  facet normal 0 0 -1
    outer loop
      vertex 0.0936899 0.491143 0
      vertex 0.281072 1.47343 0
      vertex 0.154508 0.475528 0
    endloop
  endfacet
  facet normal -0 0 -1
    outer loop
      vertex 0.281072 1.47343 0
      vertex 0.0936899 0.491143 0
      vertex 0.0941849 1.49704 0
    endloop
  endfacet
  facet normal 0 0 -1
    outer loop
      vertex 0.031395 0.499013 0
      vertex 0.0941849 1.49704 0
      vertex 0.0936899 0.491143 0
    endloop
  endfacet
  facet normal 0 0 -1
    outer loop
      vertex -0.031395 0.499013 0
      vertex 0.0941849 1.49704 0
      vertex 0.031395 0.499013 0
    endloop
  endfacet
  facet normal 0 0 -1
    outer loop
      vertex -0.0941849 1.49704 0
      vertex -0.031395 0.499013 0
      vertex -0.0936899 0.491143 0
    endloop
  endfacet
  facet normal 0 0 -1
    outer loop
      vertex -0.031395 0.499013 0
      vertex -0.0941849 1.49704 0
      vertex 0.0941849 1.49704 0
    endloop
  endfacet
  facet normal 0 0 -1
    outer loop
      vertex -0.281072 1.47343 0
      vertex -0.0936899 0.491143 0
      vertex -0.154508 0.475528 0
    endloop
  endfacet
  facet normal 0 0 -1
    outer loop
      vertex -0.463525 1.42658 0
      vertex -0.154508 0.475528 0
      vertex -0.212889 0.452413 0
    endloop
  endfacet
  facet normal 0 0 -1
    outer loop
      vertex -0.638668 1.35724 0
      vertex -0.212889 0.452413 0
      vertex -0.267913 0.422163 0
    endloop
  endfacet
  facet normal 0 0 -1
    outer loop
      vertex -0.0936899 0.491143 0
      vertex -0.281072 1.47343 0
      vertex -0.0941849 1.49704 0
    endloop
  endfacet
  facet normal 0 0 -1
    outer loop
      vertex -0.80374 1.26649 0
      vertex -0.267913 0.422163 0
      vertex -0.318711 0.385256 0
    endloop
  endfacet
  facet normal 0 0 -1
    outer loop
      vertex -0.956136 1.15577 0
      vertex -0.318711 0.385256 0
      vertex -0.364484 0.342273 0
    endloop
  endfacet
  facet normal 0 0 -1
    outer loop
      vertex -1.09345 1.02682 0
      vertex -0.364484 0.342273 0
      vertex -0.404508 0.293892 0
    endloop
  endfacet
  facet normal 0 0 -1
    outer loop
      vertex -1.21352 0.881678 0
      vertex -0.404508 0.293892 0
      vertex -0.438153 0.240876 0
    endloop
  endfacet
  facet normal 0 0 -1
    outer loop
      vertex -0.154508 0.475528 0
      vertex -0.463525 1.42658 0
      vertex -0.281072 1.47343 0
    endloop
  endfacet
  facet normal 0 0 -1
    outer loop
      vertex -1.31446 0.722631 0
      vertex -0.438153 0.240876 0
      vertex -0.464888 0.184062 0
    endloop
  endfacet
  facet normal 0 0 -1
    outer loop
      vertex -1.39466 0.552186 0
      vertex -0.464888 0.184062 0
      vertex -0.484291 0.124345 0
    endloop
  endfacet
  facet normal 0 0 -1
    outer loop
      vertex -1.45287 0.373034 0
      vertex -0.484291 0.124345 0
      vertex -0.496057 0.0626659 0
    endloop
  endfacet
  facet normal 0 0 -1
    outer loop
      vertex -1.48817 0.188 0
      vertex -0.496057 0.0626659 0
      vertex -0.5 0 0
    endloop
  endfacet
  facet normal 0 0 -1
    outer loop
      vertex -1.31446 -0.722631 0
      vertex -0.438153 -0.240876 0
      vertex -1.21352 -0.881678 0
    endloop
  endfacet
  facet normal 0 0 -1
    outer loop
      vertex -0.212889 0.452413 0
      vertex -0.638668 1.35724 0
      vertex -0.463525 1.42658 0
    endloop
  endfacet
  facet normal -0 0 -1
    outer loop
      vertex -0.438153 -0.240876 0
      vertex -1.31446 -0.722631 0
      vertex -0.464888 -0.184062 0
    endloop
  endfacet
  facet normal 0 0 -1
    outer loop
      vertex -0.267913 0.422163 0
      vertex -0.80374 1.26649 0
      vertex -0.638668 1.35724 0
    endloop
  endfacet
  facet normal 0 0 -1
    outer loop
      vertex -1.39466 -0.552186 0
      vertex -0.464888 -0.184062 0
      vertex -1.31446 -0.722631 0
    endloop
  endfacet
  facet normal 0 0 -1
    outer loop
      vertex -0.318711 0.385256 0
      vertex -0.956136 1.15577 0
      vertex -0.80374 1.26649 0
    endloop
  endfacet
  facet normal -0 0 -1
    outer loop
      vertex -0.464888 -0.184062 0
      vertex -1.39466 -0.552186 0
      vertex -0.484291 -0.124345 0
    endloop
  endfacet
  facet normal 0 0 -1
    outer loop
      vertex -0.364484 0.342273 0
      vertex -1.09345 1.02682 0
      vertex -0.956136 1.15577 0
    endloop
  endfacet
  facet normal 0 0 -1
    outer loop
      vertex -1.45287 -0.373034 0
      vertex -0.484291 -0.124345 0
      vertex -1.39466 -0.552186 0
    endloop
  endfacet
  facet normal 0 0 -1
    outer loop
      vertex -0.404508 0.293892 0
      vertex -1.21352 0.881678 0
      vertex -1.09345 1.02682 0
    endloop
  endfacet
  facet normal -0 0 -1
    outer loop
      vertex -0.484291 -0.124345 0
      vertex -1.45287 -0.373034 0
      vertex -0.496057 -0.0626659 0
    endloop
  endfacet
  facet normal 0 0 -1
    outer loop
      vertex -0.438153 0.240876 0
      vertex -1.31446 0.722631 0
      vertex -1.21352 0.881678 0
    endloop
  endfacet
  facet normal 0 0 -1
    outer loop
      vertex -1.48817 -0.188 0
      vertex -0.496057 -0.0626659 0
      vertex -1.45287 -0.373034 0
    endloop
  endfacet
  facet normal 0 0 -1
    outer loop
      vertex -0.464888 0.184062 0
      vertex -1.39466 0.552186 0
      vertex -1.31446 0.722631 0
    endloop
  endfacet
  facet normal -0 0 -1
    outer loop
      vertex -0.496057 -0.0626659 0
      vertex -1.48817 -0.188 0
      vertex -0.5 0 0
    endloop
  endfacet
  facet normal 0 0 -1
    outer loop
      vertex -0.484291 0.124345 0
      vertex -1.45287 0.373034 0
      vertex -1.39466 0.552186 0
    endloop
  endfacet
  facet normal 0 0 -1
    outer loop
      vertex -1.5 0 0
      vertex -0.5 0 0
      vertex -1.48817 -0.188 0
    endloop
  endfacet
  facet normal 0 0 -1
    outer loop
      vertex -0.496057 0.0626659 0
      vertex -1.48817 0.188 0
      vertex -1.45287 0.373034 0
    endloop
  endfacet
  facet normal 0 0 -1
    outer loop
      vertex -0.5 0 0
      vertex -1.5 0 0
      vertex -1.48817 0.188 0
    endloop
  endfacet
  facet normal -0.125337 -0.992114 0
    outer loop
      vertex -0.281072 -1.47343 0
      vertex -0.0941849 -1.49704 10
      vertex -0.281072 -1.47343 10
    endloop
  endfacet
  facet normal -0.125337 -0.992114 -0
    outer loop
      vertex -0.0941849 -1.49704 10
      vertex -0.281072 -1.47343 0
      vertex -0.0941849 -1.49704 0
    endloop
  endfacet
  facet normal -0.904838 0.425756 0
    outer loop
      vertex -1.39466 0.552186 0
      vertex -1.31446 0.722631 10
      vertex -1.31446 0.722631 0
    endloop
  endfacet
  facet normal -0.904838 0.425756 0
    outer loop
      vertex -1.31446 0.722631 10
      vertex -1.39466 0.552186 0
      vertex -1.39466 0.552186 10
    endloop
  endfacet
  facet normal -0.770518 -0.637418 0
    outer loop
      vertex -1.09345 -1.02682 0
      vertex -1.21352 -0.881678 10
      vertex -1.21352 -0.881678 0
    endloop
  endfacet
  facet normal -0.770518 -0.637418 0
    outer loop
      vertex -1.21352 -0.881678 10
      vertex -1.09345 -1.02682 0
      vertex -1.09345 -1.02682 10
    endloop
  endfacet
  facet normal -0.125337 0.992114 0
    outer loop
      vertex -0.0941849 1.49704 0
      vertex -0.281072 1.47343 10
      vertex -0.0941849 1.49704 10
    endloop
  endfacet
  facet normal -0.125337 0.992114 0
    outer loop
      vertex -0.281072 1.47343 10
      vertex -0.0941849 1.49704 0
      vertex -0.281072 1.47343 0
    endloop
  endfacet
  facet normal 0.684557 -0.728959 0
    outer loop
      vertex 0.956136 -1.15577 0
      vertex 1.09345 -1.02682 10
      vertex 0.956136 -1.15577 10
    endloop
  endfacet
  facet normal 0.684557 -0.728959 0
    outer loop
      vertex 1.09345 -1.02682 10
      vertex 0.956136 -1.15577 0
      vertex 1.09345 -1.02682 0
    endloop
  endfacet
  facet normal -0.904838 -0.425756 0
    outer loop
      vertex -1.31446 -0.722631 0
      vertex -1.39466 -0.552186 10
      vertex -1.39466 -0.552186 0
    endloop
  endfacet
  facet normal -0.904838 -0.425756 0
    outer loop
      vertex -1.39466 -0.552186 10
      vertex -1.31446 -0.722631 0
      vertex -1.31446 -0.722631 10
    endloop
  endfacet
  facet normal -0.368106 -0.929784 0
    outer loop
      vertex -0.638668 -1.35724 0
      vertex -0.463525 -1.42658 10
      vertex -0.638668 -1.35724 10
    endloop
  endfacet
  facet normal -0.368106 -0.929784 -0
    outer loop
      vertex -0.463525 -1.42658 10
      vertex -0.638668 -1.35724 0
      vertex -0.463525 -1.42658 0
    endloop
  endfacet
  facet normal -0.587778 0.809022 0
    outer loop
      vertex -0.80374 1.26649 0
      vertex -0.956136 1.15577 10
      vertex -0.80374 1.26649 10
    endloop
  endfacet
  facet normal -0.587778 0.809022 0
    outer loop
      vertex -0.956136 1.15577 10
      vertex -0.80374 1.26649 0
      vertex -0.956136 1.15577 0
    endloop
  endfacet
  facet normal -0.844314 0.535848 0
    outer loop
      vertex -1.31446 0.722631 0
      vertex -1.21352 0.881678 10
      vertex -1.21352 0.881678 0
    endloop
  endfacet
  facet normal -0.844314 0.535848 0
    outer loop
      vertex -1.21352 0.881678 10
      vertex -1.31446 0.722631 0
      vertex -1.31446 0.722631 10
    endloop
  endfacet
  facet normal 0.844314 -0.535848 0
    outer loop
      vertex 1.21352 -0.881678 10
      vertex 1.31446 -0.722631 0
      vertex 1.31446 -0.722631 10
    endloop
  endfacet
  facet normal 0.844314 -0.535848 0
    outer loop
      vertex 1.31446 -0.722631 0
      vertex 1.21352 -0.881678 10
      vertex 1.21352 -0.881678 0
    endloop
  endfacet
  facet normal 0 1 -0
    outer loop
      vertex 0.0941849 1.49704 0
      vertex -0.0941849 1.49704 10
      vertex 0.0941849 1.49704 10
    endloop
  endfacet
  facet normal 0 1 0
    outer loop
      vertex -0.0941849 1.49704 10
      vertex 0.0941849 1.49704 0
      vertex -0.0941849 1.49704 0
    endloop
  endfacet
  facet normal 0.770518 0.637418 0
    outer loop
      vertex 1.21352 0.881678 10
      vertex 1.09345 1.02682 0
      vertex 1.09345 1.02682 10
    endloop
  endfacet
  facet normal 0.770518 0.637418 0
    outer loop
      vertex 1.09345 1.02682 0
      vertex 1.21352 0.881678 10
      vertex 1.21352 0.881678 0
    endloop
  endfacet
  facet normal 0.587778 -0.809022 0
    outer loop
      vertex 0.80374 -1.26649 0
      vertex 0.956136 -1.15577 10
      vertex 0.80374 -1.26649 10
    endloop
  endfacet
  facet normal 0.587778 -0.809022 0
    outer loop
      vertex 0.956136 -1.15577 10
      vertex 0.80374 -1.26649 0
      vertex 0.956136 -1.15577 0
    endloop
  endfacet
  facet normal -0.24871 -0.968578 0
    outer loop
      vertex -0.463525 -1.42658 0
      vertex -0.281072 -1.47343 10
      vertex -0.463525 -1.42658 10
    endloop
  endfacet
  facet normal -0.24871 -0.968578 -0
    outer loop
      vertex -0.281072 -1.47343 10
      vertex -0.463525 -1.42658 0
      vertex -0.281072 -1.47343 0
    endloop
  endfacet
  facet normal 0 -1 0
    outer loop
      vertex -0.0941849 -1.49704 0
      vertex 0.0941849 -1.49704 10
      vertex -0.0941849 -1.49704 10
    endloop
  endfacet
  facet normal 0 -1 -0
    outer loop
      vertex 0.0941849 -1.49704 10
      vertex -0.0941849 -1.49704 0
      vertex 0.0941849 -1.49704 0
    endloop
  endfacet
  facet normal -0.770518 0.637418 0
    outer loop
      vertex -1.21352 0.881678 0
      vertex -1.09345 1.02682 10
      vertex -1.09345 1.02682 0
    endloop
  endfacet
  facet normal -0.770518 0.637418 0
    outer loop
      vertex -1.09345 1.02682 10
      vertex -1.21352 0.881678 0
      vertex -1.21352 0.881678 10
    endloop
  endfacet
  facet normal -0.481757 -0.876305 0
    outer loop
      vertex -0.80374 -1.26649 0
      vertex -0.638668 -1.35724 10
      vertex -0.80374 -1.26649 10
    endloop
  endfacet
  facet normal -0.481757 -0.876305 -0
    outer loop
      vertex -0.638668 -1.35724 10
      vertex -0.80374 -1.26649 0
      vertex -0.638668 -1.35724 0
    endloop
  endfacet
  facet normal -0.684557 -0.728959 0
    outer loop
      vertex -1.09345 -1.02682 0
      vertex -0.956136 -1.15577 10
      vertex -1.09345 -1.02682 10
    endloop
  endfacet
  facet normal -0.684557 -0.728959 -0
    outer loop
      vertex -0.956136 -1.15577 10
      vertex -1.09345 -1.02682 0
      vertex -0.956136 -1.15577 0
    endloop
  endfacet
  facet normal -0.951057 -0.309017 0
    outer loop
      vertex -1.39466 -0.552186 0
      vertex -1.45287 -0.373034 10
      vertex -1.45287 -0.373034 0
    endloop
  endfacet
  facet normal -0.951057 -0.309017 0
    outer loop
      vertex -1.45287 -0.373034 10
      vertex -1.39466 -0.552186 0
      vertex -1.39466 -0.552186 10
    endloop
  endfacet
  facet normal 0.770518 -0.637418 0
    outer loop
      vertex 1.09345 -1.02682 10
      vertex 1.21352 -0.881678 0
      vertex 1.21352 -0.881678 10
    endloop
  endfacet
  facet normal 0.770518 -0.637418 0
    outer loop
      vertex 1.21352 -0.881678 0
      vertex 1.09345 -1.02682 10
      vertex 1.09345 -1.02682 0
    endloop
  endfacet
  facet normal -0.998026 0.0628013 0
    outer loop
      vertex -1.5 0 0
      vertex -1.48817 0.188 10
      vertex -1.48817 0.188 0
    endloop
  endfacet
  facet normal -0.998026 0.0628013 0
    outer loop
      vertex -1.48817 0.188 10
      vertex -1.5 0 0
      vertex -1.5 0 10
    endloop
  endfacet
  facet normal -0.982284 0.187396 0
    outer loop
      vertex -1.48817 0.188 0
      vertex -1.45287 0.373034 10
      vertex -1.45287 0.373034 0
    endloop
  endfacet
  facet normal -0.982284 0.187396 0
    outer loop
      vertex -1.45287 0.373034 10
      vertex -1.48817 0.188 0
      vertex -1.48817 0.188 10
    endloop
  endfacet
  facet normal -0.951058 -0.309014 0
    outer loop
      vertex 0.484291 0.124345 0
      vertex 0.464888 0.184062 10
      vertex 0.464888 0.184062 0
    endloop
  endfacet
  facet normal -0.951058 -0.309014 0
    outer loop
      vertex 0.464888 0.184062 10
      vertex 0.484291 0.124345 0
      vertex 0.484291 0.124345 10
    endloop
  endfacet
  facet normal -0.982287 -0.187383 0
    outer loop
      vertex 0.496057 0.0626659 0
      vertex 0.484291 0.124345 10
      vertex 0.484291 0.124345 0
    endloop
  endfacet
  facet normal -0.982287 -0.187383 0
    outer loop
      vertex 0.484291 0.124345 10
      vertex 0.496057 0.0626659 0
      vertex 0.496057 0.0626659 10
    endloop
  endfacet
  facet normal -0.998026 -0.0627968 0
    outer loop
      vertex 0.5 0 0
      vertex 0.496057 0.0626659 10
      vertex 0.496057 0.0626659 0
    endloop
  endfacet
  facet normal -0.998026 -0.0627968 0
    outer loop
      vertex 0.496057 0.0626659 10
      vertex 0.5 0 0
      vertex 0.5 0 10
    endloop
  endfacet
  facet normal -0.844328 -0.535827 0
    outer loop
      vertex 0.438153 0.240876 0
      vertex 0.404508 0.293892 10
      vertex 0.404508 0.293892 0
    endloop
  endfacet
  facet normal -0.844328 -0.535827 0
    outer loop
      vertex 0.404508 0.293892 10
      vertex 0.438153 0.240876 0
      vertex 0.438153 0.240876 10
    endloop
  endfacet
  facet normal 0.770515 0.637422 0
    outer loop
      vertex -0.364484 -0.342273 10
      vertex -0.404508 -0.293892 0
      vertex -0.404508 -0.293892 10
    endloop
  endfacet
  facet normal 0.770515 0.637422 0
    outer loop
      vertex -0.404508 -0.293892 0
      vertex -0.364484 -0.342273 10
      vertex -0.364484 -0.342273 0
    endloop
  endfacet
  facet normal 0.125338 -0.992114 0
    outer loop
      vertex -0.0936899 0.491143 0
      vertex -0.031395 0.499013 10
      vertex -0.0936899 0.491143 10
    endloop
  endfacet
  facet normal 0.125338 -0.992114 0
    outer loop
      vertex -0.031395 0.499013 10
      vertex -0.0936899 0.491143 0
      vertex -0.031395 0.499013 0
    endloop
  endfacet
  facet normal -0.684541 -0.728974 0
    outer loop
      vertex 0.318711 0.385256 0
      vertex 0.364484 0.342273 10
      vertex 0.318711 0.385256 10
    endloop
  endfacet
  facet normal -0.684541 -0.728974 -0
    outer loop
      vertex 0.364484 0.342273 10
      vertex 0.318711 0.385256 0
      vertex 0.364484 0.342273 0
    endloop
  endfacet
  facet normal 0.587786 -0.809016 0
    outer loop
      vertex -0.318711 0.385256 0
      vertex -0.267913 0.422163 10
      vertex -0.318711 0.385256 10
    endloop
  endfacet
  facet normal 0.587786 -0.809016 0
    outer loop
      vertex -0.267913 0.422163 10
      vertex -0.318711 0.385256 0
      vertex -0.267913 0.422163 0
    endloop
  endfacet
  facet normal 0.982287 -0.187383 0
    outer loop
      vertex -0.496057 0.0626659 10
      vertex -0.484291 0.124345 0
      vertex -0.484291 0.124345 10
    endloop
  endfacet
  facet normal 0.982287 -0.187383 0
    outer loop
      vertex -0.484291 0.124345 0
      vertex -0.496057 0.0626659 10
      vertex -0.496057 0.0626659 0
    endloop
  endfacet
  facet normal -0.684541 0.728974 0
    outer loop
      vertex 0.364484 -0.342273 0
      vertex 0.318711 -0.385256 10
      vertex 0.364484 -0.342273 10
    endloop
  endfacet
  facet normal -0.684541 0.728974 0
    outer loop
      vertex 0.318711 -0.385256 10
      vertex 0.364484 -0.342273 0
      vertex 0.318711 -0.385256 0
    endloop
  endfacet
  facet normal -0.481757 -0.876305 0
    outer loop
      vertex 0.212889 0.452413 0
      vertex 0.267913 0.422163 10
      vertex 0.212889 0.452413 10
    endloop
  endfacet
  facet normal -0.481757 -0.876305 -0
    outer loop
      vertex 0.267913 0.422163 10
      vertex 0.212889 0.452413 0
      vertex 0.267913 0.422163 0
    endloop
  endfacet
  facet normal -0.248683 0.968585 0
    outer loop
      vertex 0.154508 -0.475528 0
      vertex 0.0936899 -0.491143 10
      vertex 0.154508 -0.475528 10
    endloop
  endfacet
  facet normal -0.248683 0.968585 0
    outer loop
      vertex 0.0936899 -0.491143 10
      vertex 0.154508 -0.475528 0
      vertex 0.0936899 -0.491143 0
    endloop
  endfacet
  facet normal 0.951058 -0.309014 0
    outer loop
      vertex -0.484291 0.124345 10
      vertex -0.464888 0.184062 0
      vertex -0.464888 0.184062 10
    endloop
  endfacet
  facet normal 0.951058 -0.309014 0
    outer loop
      vertex -0.464888 0.184062 0
      vertex -0.484291 0.124345 10
      vertex -0.484291 0.124345 0
    endloop
  endfacet
  facet normal -0.904825 0.425784 0
    outer loop
      vertex 0.438153 -0.240876 0
      vertex 0.464888 -0.184062 10
      vertex 0.464888 -0.184062 0
    endloop
  endfacet
  facet normal -0.904825 0.425784 0
    outer loop
      vertex 0.464888 -0.184062 10
      vertex 0.438153 -0.240876 0
      vertex 0.438153 -0.240876 10
    endloop
  endfacet
  facet normal 0.481757 -0.876305 0
    outer loop
      vertex -0.267913 0.422163 0
      vertex -0.212889 0.452413 10
      vertex -0.267913 0.422163 10
    endloop
  endfacet
  facet normal 0.481757 -0.876305 0
    outer loop
      vertex -0.212889 0.452413 10
      vertex -0.267913 0.422163 0
      vertex -0.212889 0.452413 0
    endloop
  endfacet
  facet normal 0.998026 0.0627968 0
    outer loop
      vertex -0.496057 -0.0626659 10
      vertex -0.5 0 0
      vertex -0.5 0 10
    endloop
  endfacet
  facet normal 0.998026 0.0627968 0
    outer loop
      vertex -0.5 0 0
      vertex -0.496057 -0.0626659 10
      vertex -0.496057 -0.0626659 0
    endloop
  endfacet
  facet normal 0.951058 0.309014 0
    outer loop
      vertex -0.464888 -0.184062 10
      vertex -0.484291 -0.124345 0
      vertex -0.484291 -0.124345 10
    endloop
  endfacet
  facet normal 0.951058 0.309014 0
    outer loop
      vertex -0.484291 -0.124345 0
      vertex -0.464888 -0.184062 10
      vertex -0.464888 -0.184062 0
    endloop
  endfacet
  facet normal -0.844328 0.535827 0
    outer loop
      vertex 0.404508 -0.293892 0
      vertex 0.438153 -0.240876 10
      vertex 0.438153 -0.240876 0
    endloop
  endfacet
  facet normal -0.844328 0.535827 0
    outer loop
      vertex 0.438153 -0.240876 10
      vertex 0.404508 -0.293892 0
      vertex 0.404508 -0.293892 10
    endloop
  endfacet
  facet normal 0.982287 0.187383 0
    outer loop
      vertex -0.484291 -0.124345 10
      vertex -0.496057 -0.0626659 0
      vertex -0.496057 -0.0626659 10
    endloop
  endfacet
  facet normal 0.982287 0.187383 0
    outer loop
      vertex -0.496057 -0.0626659 0
      vertex -0.484291 -0.124345 10
      vertex -0.484291 -0.124345 0
    endloop
  endfacet
  facet normal 0.904825 0.425784 0
    outer loop
      vertex -0.438153 -0.240876 10
      vertex -0.464888 -0.184062 0
      vertex -0.464888 -0.184062 10
    endloop
  endfacet
  facet normal 0.904825 0.425784 0
    outer loop
      vertex -0.464888 -0.184062 0
      vertex -0.438153 -0.240876 10
      vertex -0.438153 -0.240876 0
    endloop
  endfacet
  facet normal 0 1 -0
    outer loop
      vertex 0.031395 -0.499013 0
      vertex -0.031395 -0.499013 10
      vertex 0.031395 -0.499013 10
    endloop
  endfacet
  facet normal 0 1 0
    outer loop
      vertex -0.031395 -0.499013 10
      vertex 0.031395 -0.499013 0
      vertex -0.031395 -0.499013 0
    endloop
  endfacet
  facet normal -0.125338 0.992114 0
    outer loop
      vertex 0.0936899 -0.491143 0
      vertex 0.031395 -0.499013 10
      vertex 0.0936899 -0.491143 10
    endloop
  endfacet
  facet normal -0.125338 0.992114 0
    outer loop
      vertex 0.031395 -0.499013 10
      vertex 0.0936899 -0.491143 0
      vertex 0.031395 -0.499013 0
    endloop
  endfacet
  facet normal 0.998026 -0.0627968 0
    outer loop
      vertex -0.5 0 10
      vertex -0.496057 0.0626659 0
      vertex -0.496057 0.0626659 10
    endloop
  endfacet
  facet normal 0.998026 -0.0627968 0
    outer loop
      vertex -0.496057 0.0626659 0
      vertex -0.5 0 10
      vertex -0.5 0 0
    endloop
  endfacet
  facet normal -0.904825 -0.425784 0
    outer loop
      vertex 0.464888 0.184062 0
      vertex 0.438153 0.240876 10
      vertex 0.438153 0.240876 0
    endloop
  endfacet
  facet normal -0.904825 -0.425784 0
    outer loop
      vertex 0.438153 0.240876 10
      vertex 0.464888 0.184062 0
      vertex 0.464888 0.184062 10
    endloop
  endfacet
  facet normal 0.587786 0.809016 -0
    outer loop
      vertex -0.267913 -0.422163 0
      vertex -0.318711 -0.385256 10
      vertex -0.267913 -0.422163 10
    endloop
  endfacet
  facet normal 0.587786 0.809016 0
    outer loop
      vertex -0.318711 -0.385256 10
      vertex -0.267913 -0.422163 0
      vertex -0.318711 -0.385256 0
    endloop
  endfacet
  facet normal -0.587786 -0.809016 0
    outer loop
      vertex 0.267913 0.422163 0
      vertex 0.318711 0.385256 10
      vertex 0.267913 0.422163 10
    endloop
  endfacet
  facet normal -0.587786 -0.809016 -0
    outer loop
      vertex 0.318711 0.385256 10
      vertex 0.267913 0.422163 0
      vertex 0.318711 0.385256 0
    endloop
  endfacet
  facet normal -0.481757 0.876305 0
    outer loop
      vertex 0.267913 -0.422163 0
      vertex 0.212889 -0.452413 10
      vertex 0.267913 -0.422163 10
    endloop
  endfacet
  facet normal -0.481757 0.876305 0
    outer loop
      vertex 0.212889 -0.452413 10
      vertex 0.267913 -0.422163 0
      vertex 0.212889 -0.452413 0
    endloop
  endfacet
  facet normal 0.368129 -0.929775 0
    outer loop
      vertex -0.212889 0.452413 0
      vertex -0.154508 0.475528 10
      vertex -0.212889 0.452413 10
    endloop
  endfacet
  facet normal 0.368129 -0.929775 0
    outer loop
      vertex -0.154508 0.475528 10
      vertex -0.212889 0.452413 0
      vertex -0.154508 0.475528 0
    endloop
  endfacet
  facet normal 0.684541 -0.728974 0
    outer loop
      vertex -0.364484 0.342273 0
      vertex -0.318711 0.385256 10
      vertex -0.364484 0.342273 10
    endloop
  endfacet
  facet normal 0.684541 -0.728974 0
    outer loop
      vertex -0.318711 0.385256 10
      vertex -0.364484 0.342273 0
      vertex -0.318711 0.385256 0
    endloop
  endfacet
  facet normal -0.368129 -0.929775 0
    outer loop
      vertex 0.154508 0.475528 0
      vertex 0.212889 0.452413 10
      vertex 0.154508 0.475528 10
    endloop
  endfacet
  facet normal -0.368129 -0.929775 -0
    outer loop
      vertex 0.212889 0.452413 10
      vertex 0.154508 0.475528 0
      vertex 0.212889 0.452413 0
    endloop
  endfacet
  facet normal -0.125338 -0.992114 0
    outer loop
      vertex 0.031395 0.499013 0
      vertex 0.0936899 0.491143 10
      vertex 0.031395 0.499013 10
    endloop
  endfacet
  facet normal -0.125338 -0.992114 -0
    outer loop
      vertex 0.0936899 0.491143 10
      vertex 0.031395 0.499013 0
      vertex 0.0936899 0.491143 0
    endloop
  endfacet
  facet normal 0 -1 0
    outer loop
      vertex -0.031395 0.499013 0
      vertex 0.031395 0.499013 10
      vertex -0.031395 0.499013 10
    endloop
  endfacet
  facet normal 0 -1 -0
    outer loop
      vertex 0.031395 0.499013 10
      vertex -0.031395 0.499013 0
      vertex 0.031395 0.499013 0
    endloop
  endfacet
  facet normal -0.951058 0.309014 0
    outer loop
      vertex 0.464888 -0.184062 0
      vertex 0.484291 -0.124345 10
      vertex 0.484291 -0.124345 0
    endloop
  endfacet
  facet normal -0.951058 0.309014 0
    outer loop
      vertex 0.484291 -0.124345 10
      vertex 0.464888 -0.184062 0
      vertex 0.464888 -0.184062 10
    endloop
  endfacet
  facet normal -0.982287 0.187383 0
    outer loop
      vertex 0.484291 -0.124345 0
      vertex 0.496057 -0.0626659 10
      vertex 0.496057 -0.0626659 0
    endloop
  endfacet
  facet normal -0.982287 0.187383 0
    outer loop
      vertex 0.496057 -0.0626659 10
      vertex 0.484291 -0.124345 0
      vertex 0.484291 -0.124345 10
    endloop
  endfacet
  facet normal -0.998026 0.0627968 0
    outer loop
      vertex 0.496057 -0.0626659 0
      vertex 0.5 0 10
      vertex 0.5 0 0
    endloop
  endfacet
  facet normal -0.998026 0.0627968 0
    outer loop
      vertex 0.5 0 10
      vertex 0.496057 -0.0626659 0
      vertex 0.496057 -0.0626659 10
    endloop
  endfacet
  facet normal 0.125338 0.992114 -0
    outer loop
      vertex -0.031395 -0.499013 0
      vertex -0.0936899 -0.491143 10
      vertex -0.031395 -0.499013 10
    endloop
  endfacet
  facet normal 0.125338 0.992114 0
    outer loop
      vertex -0.0936899 -0.491143 10
      vertex -0.031395 -0.499013 0
      vertex -0.0936899 -0.491143 0
    endloop
  endfacet
  facet normal -0.368129 0.929775 0
    outer loop
      vertex 0.212889 -0.452413 0
      vertex 0.154508 -0.475528 10
      vertex 0.212889 -0.452413 10
    endloop
  endfacet
  facet normal -0.368129 0.929775 0
    outer loop
      vertex 0.154508 -0.475528 10
      vertex 0.212889 -0.452413 0
      vertex 0.154508 -0.475528 0
    endloop
  endfacet
  facet normal -0.248683 -0.968585 0
    outer loop
      vertex 0.0936899 0.491143 0
      vertex 0.154508 0.475528 10
      vertex 0.0936899 0.491143 10
    endloop
  endfacet
  facet normal -0.248683 -0.968585 -0
    outer loop
      vertex 0.154508 0.475528 10
      vertex 0.0936899 0.491143 0
      vertex 0.154508 0.475528 0
    endloop
  endfacet
  facet normal 0.904825 -0.425784 0
    outer loop
      vertex -0.464888 0.184062 10
      vertex -0.438153 0.240876 0
      vertex -0.438153 0.240876 10
    endloop
  endfacet
  facet normal 0.904825 -0.425784 0
    outer loop
      vertex -0.438153 0.240876 0
      vertex -0.464888 0.184062 10
      vertex -0.464888 0.184062 0
    endloop
  endfacet
  facet normal -0.770515 -0.637422 0
    outer loop
      vertex 0.404508 0.293892 0
      vertex 0.364484 0.342273 10
      vertex 0.364484 0.342273 0
    endloop
  endfacet
  facet normal -0.770515 -0.637422 0
    outer loop
      vertex 0.364484 0.342273 10
      vertex 0.404508 0.293892 0
      vertex 0.404508 0.293892 10
    endloop
  endfacet
  facet normal 0.248683 -0.968585 0
    outer loop
      vertex -0.154508 0.475528 0
      vertex -0.0936899 0.491143 10
      vertex -0.154508 0.475528 10
    endloop
  endfacet
  facet normal 0.248683 -0.968585 0
    outer loop
      vertex -0.0936899 0.491143 10
      vertex -0.154508 0.475528 0
      vertex -0.0936899 0.491143 0
    endloop
  endfacet
  facet normal 0.844328 0.535827 0
    outer loop
      vertex -0.404508 -0.293892 10
      vertex -0.438153 -0.240876 0
      vertex -0.438153 -0.240876 10
    endloop
  endfacet
  facet normal 0.844328 0.535827 0
    outer loop
      vertex -0.438153 -0.240876 0
      vertex -0.404508 -0.293892 10
      vertex -0.404508 -0.293892 0
    endloop
  endfacet
  facet normal -0.770515 0.637422 0
    outer loop
      vertex 0.364484 -0.342273 0
      vertex 0.404508 -0.293892 10
      vertex 0.404508 -0.293892 0
    endloop
  endfacet
  facet normal -0.770515 0.637422 0
    outer loop
      vertex 0.404508 -0.293892 10
      vertex 0.364484 -0.342273 0
      vertex 0.364484 -0.342273 10
    endloop
  endfacet
  facet normal 0.684541 0.728974 -0
    outer loop
      vertex -0.318711 -0.385256 0
      vertex -0.364484 -0.342273 10
      vertex -0.318711 -0.385256 10
    endloop
  endfacet
  facet normal 0.684541 0.728974 0
    outer loop
      vertex -0.364484 -0.342273 10
      vertex -0.318711 -0.385256 0
      vertex -0.364484 -0.342273 0
    endloop
  endfacet
  facet normal 0.844328 -0.535827 0
    outer loop
      vertex -0.438153 0.240876 10
      vertex -0.404508 0.293892 0
      vertex -0.404508 0.293892 10
    endloop
  endfacet
  facet normal 0.844328 -0.535827 0
    outer loop
      vertex -0.404508 0.293892 0
      vertex -0.438153 0.240876 10
      vertex -0.438153 0.240876 0
    endloop
  endfacet
  facet normal 0.248683 0.968585 -0
    outer loop
      vertex -0.0936899 -0.491143 0
      vertex -0.154508 -0.475528 10
      vertex -0.0936899 -0.491143 10
    endloop
  endfacet
  facet normal 0.248683 0.968585 0
    outer loop
      vertex -0.154508 -0.475528 10
      vertex -0.0936899 -0.491143 0
      vertex -0.154508 -0.475528 0
    endloop
  endfacet
  facet normal 0.481757 0.876305 -0
    outer loop
      vertex -0.212889 -0.452413 0
      vertex -0.267913 -0.422163 10
      vertex -0.212889 -0.452413 10
    endloop
  endfacet
  facet normal 0.481757 0.876305 0
    outer loop
      vertex -0.267913 -0.422163 10
      vertex -0.212889 -0.452413 0
      vertex -0.267913 -0.422163 0
    endloop
  endfacet
  facet normal 0.368129 0.929775 -0
    outer loop
      vertex -0.154508 -0.475528 0
      vertex -0.212889 -0.452413 10
      vertex -0.154508 -0.475528 10
    endloop
  endfacet
  facet normal 0.368129 0.929775 0
    outer loop
      vertex -0.212889 -0.452413 10
      vertex -0.154508 -0.475528 0
      vertex -0.212889 -0.452413 0
    endloop
  endfacet
  facet normal -0.587786 0.809016 0
    outer loop
      vertex 0.318711 -0.385256 0
      vertex 0.267913 -0.422163 10
      vertex 0.318711 -0.385256 10
    endloop
  endfacet
  facet normal -0.587786 0.809016 0
    outer loop
      vertex 0.267913 -0.422163 10
      vertex 0.318711 -0.385256 0
      vertex 0.267913 -0.422163 0
    endloop
  endfacet
  facet normal 0.770515 -0.637422 0
    outer loop
      vertex -0.404508 0.293892 10
      vertex -0.364484 0.342273 0
      vertex -0.364484 0.342273 10
    endloop
  endfacet
  facet normal 0.770515 -0.637422 0
    outer loop
      vertex -0.364484 0.342273 0
      vertex -0.404508 0.293892 10
      vertex -0.404508 0.293892 0
    endloop
  endfacet
endsolid OpenSCAD_Model
