solid OpenSCAD_Model
  facet normal 0.982284 0.187396 0
    outer loop
      vertex 1.48817 0.188 10
      vertex 1.45287 0.373034 0
      vertex 1.45287 0.373034 10
    endloop
  endfacet
  facet normal 0.982284 0.187396 0
    outer loop
      vertex 1.45287 0.373034 0
      vertex 1.48817 0.188 10
      vertex 1.48817 0.188 0
    endloop
  endfacet
  facet normal 0.998026 0.0628013 0
    outer loop
      vertex 1.5 0 10
      vertex 1.48817 0.188 0
      vertex 1.48817 0.188 10
    endloop
  endfacet
  facet normal 0.998026 0.0628013 0
    outer loop
      vertex 1.48817 0.188 0
      vertex 1.5 0 10
      vertex 1.5 0 0
    endloop
  endfacet
  facet normal 0.904838 0.425756 0
    outer loop
      vertex 1.39466 0.552186 10
      vertex 1.31446 0.722631 0
      vertex 1.31446 0.722631 10
    endloop
  endfacet
  facet normal 0.904838 0.425756 0
    outer loop
      vertex 1.31446 0.722631 0
      vertex 1.39466 0.552186 10
      vertex 1.39466 0.552186 0
    endloop
  endfacet
  facet normal 0.684557 0.728959 -0
    outer loop
      vertex 1.09345 1.02682 0
      vertex 0.956136 1.15577 10
      vertex 1.09345 1.02682 10
    endloop
  endfacet
  facet normal 0.684557 0.728959 0
    outer loop
      vertex 0.956136 1.15577 10
      vertex 1.09345 1.02682 0
      vertex 0.956136 1.15577 0
    endloop
  endfacet
  facet normal 0.24871 0.968578 -0
    outer loop
      vertex 0.463525 1.42658 0
      vertex 0.281072 1.47343 10
      vertex 0.463525 1.42658 10
    endloop
  endfacet
  facet normal 0.24871 0.968578 0
    outer loop
      vertex 0.281072 1.47343 10
      vertex 0.463525 1.42658 0
      vertex 0.281072 1.47343 0
    endloop
  endfacet
  facet normal 0.998026 -0.0628013 0
    outer loop
      vertex 1.48817 -0.188 10
      vertex 1.5 0 0
      vertex 1.5 0 10
    endloop
  endfacet
  facet normal 0.998026 -0.0628013 0
    outer loop
      vertex 1.5 0 0
      vertex 1.48817 -0.188 10
      vertex 1.48817 -0.188 0
    endloop
  endfacet
  facet normal 0.904838 -0.425756 0
    outer loop
      vertex 1.31446 -0.722631 10
      vertex 1.39466 -0.552186 0
      vertex 1.39466 -0.552186 10
    endloop
  endfacet
  facet normal 0.904838 -0.425756 0
    outer loop
      vertex 1.39466 -0.552186 0
      vertex 1.31446 -0.722631 10
      vertex 1.31446 -0.722631 0
    endloop
  endfacet
  facet normal -0.587778 -0.809022 0
    outer loop
      vertex -0.956136 -1.15577 0
      vertex -0.80374 -1.26649 10
      vertex -0.956136 -1.15577 10
    endloop
  endfacet
  facet normal -0.587778 -0.809022 -0
    outer loop
      vertex -0.80374 -1.26649 10
      vertex -0.956136 -1.15577 0
      vertex -0.80374 -1.26649 0
    endloop
  endfacet
  facet normal 0.368106 -0.929784 0
    outer loop
      vertex 0.463525 -1.42658 0
      vertex 0.638668 -1.35724 10
      vertex 0.463525 -1.42658 10
    endloop
  endfacet
  facet normal 0.368106 -0.929784 0
    outer loop
      vertex 0.638668 -1.35724 10
      vertex 0.463525 -1.42658 0
      vertex 0.638668 -1.35724 0
    endloop
  endfacet
  facet normal -0.844314 -0.535848 0
    outer loop
      vertex -1.21352 -0.881678 0
      vertex -1.31446 -0.722631 10
      vertex -1.31446 -0.722631 0
    endloop
  endfacet
  facet normal -0.844314 -0.535848 0
    outer loop
      vertex -1.31446 -0.722631 10
      vertex -1.21352 -0.881678 0
      vertex -1.21352 -0.881678 10
    endloop
  endfacet
  facet normal 0.368106 0.929784 -0
    outer loop
      vertex 0.638668 1.35724 0
      vertex 0.463525 1.42658 10
      vertex 0.638668 1.35724 10
    endloop
  endfacet
  facet normal 0.368106 0.929784 0
    outer loop
      vertex 0.463525 1.42658 10
      vertex 0.638668 1.35724 0
      vertex 0.463525 1.42658 0
    endloop
  endfacet
  facet normal -0.481757 0.876305 0
    outer loop
      vertex -0.638668 1.35724 0
      vertex -0.80374 1.26649 10
      vertex -0.638668 1.35724 10
    endloop
  endfacet
  facet normal -0.481757 0.876305 0
    outer loop
      vertex -0.80374 1.26649 10
      vertex -0.638668 1.35724 0
      vertex -0.80374 1.26649 0
    endloop
  endfacet
  facet normal 0.951057 0.309017 0
    outer loop
      vertex 1.45287 0.373034 10
      vertex 1.39466 0.552186 0
      vertex 1.39466 0.552186 10
    endloop
  endfacet
  facet normal 0.951057 0.309017 0
    outer loop
      vertex 1.39466 0.552186 0
      vertex 1.45287 0.373034 10
      vertex 1.45287 0.373034 0
    endloop
  endfacet
  facet normal 0.982284 -0.187396 0
    outer loop
      vertex 1.45287 -0.373034 10
      vertex 1.48817 -0.188 0
      vertex 1.48817 -0.188 10
    endloop
  endfacet
  facet normal 0.982284 -0.187396 0
    outer loop
      vertex 1.48817 -0.188 0
      vertex 1.45287 -0.373034 10
      vertex 1.45287 -0.373034 0
    endloop
  endfacet
  facet normal 0.481757 0.876305 -0
    outer loop
      vertex 0.80374 1.26649 0
      vertex 0.638668 1.35724 10
      vertex 0.80374 1.26649 10
    endloop
  endfacet
  facet normal 0.481757 0.876305 0
    outer loop
      vertex 0.638668 1.35724 10
      vertex 0.80374 1.26649 0
      vertex 0.638668 1.35724 0
    endloop
  endfacet
  facet normal 0.125337 -0.992114 0
    outer loop
      vertex 0.0941849 -1.49704 0
      vertex 0.281072 -1.47343 10
      vertex 0.0941849 -1.49704 10
    endloop
  endfacet
  facet normal 0.125337 -0.992114 0
    outer loop
      vertex 0.281072 -1.47343 10
      vertex 0.0941849 -1.49704 0
      vertex 0.281072 -1.47343 0
    endloop
  endfacet
  facet normal -0.951057 0.309017 0
    outer loop
      vertex -1.45287 0.373034 0
      vertex -1.39466 0.552186 10
      vertex -1.39466 0.552186 0
    endloop
  endfacet
  facet normal -0.951057 0.309017 0
    outer loop
      vertex -1.39466 0.552186 10
      vertex -1.45287 0.373034 0
      vertex -1.45287 0.373034 10
    endloop
  endfacet
  facet normal 0.844314 0.535848 0
    outer loop
      vertex 1.31446 0.722631 10
      vertex 1.21352 0.881678 0
      vertex 1.21352 0.881678 10
    endloop
  endfacet
  facet normal 0.844314 0.535848 0
    outer loop
      vertex 1.21352 0.881678 0
      vertex 1.31446 0.722631 10
      vertex 1.31446 0.722631 0
    endloop
  endfacet
  facet normal 0.951057 -0.309017 0
    outer loop
      vertex 1.39466 -0.552186 10
      vertex 1.45287 -0.373034 0
      vertex 1.45287 -0.373034 10
    endloop
  endfacet
  facet normal 0.951057 -0.309017 0
    outer loop
      vertex 1.45287 -0.373034 0
      vertex 1.39466 -0.552186 10
      vertex 1.39466 -0.552186 0
    endloop
  endfacet
  facet normal -0.684557 0.728959 0
    outer loop
      vertex -0.956136 1.15577 0
      vertex -1.09345 1.02682 10
      vertex -0.956136 1.15577 10
    endloop
  endfacet
  facet normal -0.684557 0.728959 0
    outer loop
      vertex -1.09345 1.02682 10
      vertex -0.956136 1.15577 0
      vertex -1.09345 1.02682 0
    endloop
  endfacet
  facet normal 0.24871 -0.968578 0
    outer loop
      vertex 0.281072 -1.47343 0
      vertex 0.463525 -1.42658 10
      vertex 0.281072 -1.47343 10
    endloop
  endfacet
  facet normal 0.24871 -0.968578 0
    outer loop
      vertex 0.463525 -1.42658 10
      vertex 0.281072 -1.47343 0
      vertex 0.463525 -1.42658 0
    endloop
  endfacet
  facet normal -0.368106 0.929784 0
    outer loop
      vertex -0.463525 1.42658 0
      vertex -0.638668 1.35724 10
      vertex -0.463525 1.42658 10
    endloop
  endfacet
  facet normal -0.368106 0.929784 0
    outer loop
      vertex -0.638668 1.35724 10
      vertex -0.463525 1.42658 0
      vertex -0.638668 1.35724 0
    endloop
  endfacet
  facet normal 0.125337 0.992114 -0
    outer loop
      vertex 0.281072 1.47343 0
      vertex 0.0941849 1.49704 10
      vertex 0.281072 1.47343 10
    endloop
  endfacet
  facet normal 0.125337 0.992114 0
    outer loop
      vertex 0.0941849 1.49704 10
      vertex 0.281072 1.47343 0
      vertex 0.0941849 1.49704 0
    endloop
  endfacet
  facet normal -0.24871 0.968578 0
    outer loop
      vertex -0.281072 1.47343 0
      vertex -0.463525 1.42658 10
      vertex -0.281072 1.47343 10
    endloop
  endfacet
  facet normal -0.24871 0.968578 0
    outer loop
      vertex -0.463525 1.42658 10
      vertex -0.281072 1.47343 0
      vertex -0.463525 1.42658 0
    endloop
  endfacet
  facet normal -0.982284 -0.187396 0
    outer loop
      vertex -1.45287 -0.373034 0
      vertex -1.48817 -0.188 10
      vertex -1.48817 -0.188 0
    endloop
  endfacet
  facet normal -0.982284 -0.187396 0
    outer loop
      vertex -1.48817 -0.188 10
      vertex -1.45287 -0.373034 0
      vertex -1.45287 -0.373034 10
    endloop
  endfacet
  facet normal 0.587778 0.809022 -0
    outer loop
      vertex 0.956136 1.15577 0
      vertex 0.80374 1.26649 10
      vertex 0.956136 1.15577 10
    endloop
  endfacet
  facet normal 0.587778 0.809022 0
    outer loop
      vertex 0.80374 1.26649 10
      vertex 0.956136 1.15577 0
      vertex 0.80374 1.26649 0
    endloop
  endfacet
  facet normal -0.998026 -0.0628013 0
    outer loop
      vertex -1.48817 -0.188 0
      vertex -1.5 0 10
      vertex -1.5 0 0
    endloop
  endfacet
  facet normal -0.998026 -0.0628013 0
    outer loop
      vertex -1.5 0 10
      vertex -1.48817 -0.188 0
      vertex -1.48817 -0.188 10
    endloop
  endfacet
  facet normal 0 0 1
    outer loop
      vertex 1.3 0 10
      vertex 1.5 0 10
      vertex 1.48817 0.188 10
    endloop
  endfacet
  facet normal 0 0 1
    outer loop
      vertex 1.28975 0.162932 10
      vertex 1.48817 0.188 10
      vertex 1.45287 0.373034 10
    endloop
  endfacet
  facet normal 0 0 1
    outer loop
      vertex 1.5 0 10
      vertex 1.3 0 10
      vertex 1.48817 -0.188 10
    endloop
  endfacet
  facet normal 0 0 1
    outer loop
      vertex 1.25916 0.323297 10
      vertex 1.45287 0.373034 10
      vertex 1.39466 0.552186 10
    endloop
  endfacet
  facet normal -0 0 1
    outer loop
      vertex 1.28975 -0.162932 10
      vertex 1.48817 -0.188 10
      vertex 1.3 0 10
    endloop
  endfacet
  facet normal 0 0 1
    outer loop
      vertex 1.20871 0.478561 10
      vertex 1.39466 0.552186 10
      vertex 1.31446 0.722631 10
    endloop
  endfacet
  facet normal 0 0 1
    outer loop
      vertex 1.48817 -0.188 10
      vertex 1.28975 -0.162932 10
      vertex 1.45287 -0.373034 10
    endloop
  endfacet
  facet normal -0 0 1
    outer loop
      vertex 1.25916 -0.323297 10
      vertex 1.45287 -0.373034 10
      vertex 1.28975 -0.162932 10
    endloop
  endfacet
  facet normal 0 0 1
    outer loop
      vertex 1.48817 0.188 10
      vertex 1.28975 0.162932 10
      vertex 1.3 0 10
    endloop
  endfacet
  facet normal 0 0 1
    outer loop
      vertex 1.45287 0.373034 10
      vertex 1.25916 0.323297 10
      vertex 1.28975 0.162932 10
    endloop
  endfacet
  facet normal 0 0 1
    outer loop
      vertex 1.1392 0.626279 10
      vertex 1.31446 0.722631 10
      vertex 1.21352 0.881678 10
    endloop
  endfacet
  facet normal 0 0 1
    outer loop
      vertex 1.39466 0.552186 10
      vertex 1.20871 0.478561 10
      vertex 1.25916 0.323297 10
    endloop
  endfacet
  facet normal 0 0 1
    outer loop
      vertex 1.31446 0.722631 10
      vertex 1.1392 0.626279 10
      vertex 1.20871 0.478561 10
    endloop
  endfacet
  facet normal 0 0 1
    outer loop
      vertex 1.05172 0.76412 10
      vertex 1.21352 0.881678 10
      vertex 1.09345 1.02682 10
    endloop
  endfacet
  facet normal 0 0 1
    outer loop
      vertex 1.21352 0.881678 10
      vertex 1.05172 0.76412 10
      vertex 1.1392 0.626279 10
    endloop
  endfacet
  facet normal 0 0 1
    outer loop
      vertex 0.947659 0.889911 10
      vertex 1.09345 1.02682 10
      vertex 0.956136 1.15577 10
    endloop
  endfacet
  facet normal 0 0 1
    outer loop
      vertex 1.09345 1.02682 10
      vertex 0.947659 0.889911 10
      vertex 1.05172 0.76412 10
    endloop
  endfacet
  facet normal 0 0 1
    outer loop
      vertex 0.956136 1.15577 10
      vertex 0.82865 1.00167 10
      vertex 0.947659 0.889911 10
    endloop
  endfacet
  facet normal 0 0 1
    outer loop
      vertex 0.80374 1.26649 10
      vertex 0.82865 1.00167 10
      vertex 0.956136 1.15577 10
    endloop
  endfacet
  facet normal 0 0 1
    outer loop
      vertex 0.80374 1.26649 10
      vertex 0.696574 1.09763 10
      vertex 0.82865 1.00167 10
    endloop
  endfacet
  facet normal 0 0 1
    outer loop
      vertex 0.638668 1.35724 10
      vertex 0.696574 1.09763 10
      vertex 0.80374 1.26649 10
    endloop
  endfacet
  facet normal 0 0 1
    outer loop
      vertex 0.638668 1.35724 10
      vertex 0.553513 1.17627 10
      vertex 0.696574 1.09763 10
    endloop
  endfacet
  facet normal 0 0 1
    outer loop
      vertex 0.463525 1.42658 10
      vertex 0.553513 1.17627 10
      vertex 0.638668 1.35724 10
    endloop
  endfacet
  facet normal 0 0 1
    outer loop
      vertex 0.463525 1.42658 10
      vertex 0.401722 1.23637 10
      vertex 0.553513 1.17627 10
    endloop
  endfacet
  facet normal 0 0 1
    outer loop
      vertex 0.281072 1.47343 10
      vertex 0.401722 1.23637 10
      vertex 0.463525 1.42658 10
    endloop
  endfacet
  facet normal 0 0 1
    outer loop
      vertex 0.281072 1.47343 10
      vertex 0.243595 1.27697 10
      vertex 0.401722 1.23637 10
    endloop
  endfacet
  facet normal 0 0 1
    outer loop
      vertex 0.0941849 1.49704 10
      vertex 0.243595 1.27697 10
      vertex 0.281072 1.47343 10
    endloop
  endfacet
  facet normal 0 0 1
    outer loop
      vertex 0.0941849 1.49704 10
      vertex 0.0816269 1.29743 10
      vertex 0.243595 1.27697 10
    endloop
  endfacet
  facet normal 0 0 1
    outer loop
      vertex 0.0941849 1.49704 10
      vertex -0.0816269 1.29743 10
      vertex 0.0816269 1.29743 10
    endloop
  endfacet
  facet normal -0 0 1
    outer loop
      vertex -0.0941849 1.49704 10
      vertex -0.0816269 1.29743 10
      vertex 0.0941849 1.49704 10
    endloop
  endfacet
  facet normal 0 0 1
    outer loop
      vertex -0.0941849 1.49704 10
      vertex -0.243595 1.27697 10
      vertex -0.0816269 1.29743 10
    endloop
  endfacet
  facet normal -0 0 1
    outer loop
      vertex -0.281072 1.47343 10
      vertex -0.243595 1.27697 10
      vertex -0.0941849 1.49704 10
    endloop
  endfacet
  facet normal 0 0 1
    outer loop
      vertex -0.281072 1.47343 10
      vertex -0.401722 1.23637 10
      vertex -0.243595 1.27697 10
    endloop
  endfacet
  facet normal -0 0 1
    outer loop
      vertex -0.463525 1.42658 10
      vertex -0.401722 1.23637 10
      vertex -0.281072 1.47343 10
    endloop
  endfacet
  facet normal 0 0 1
    outer loop
      vertex -0.463525 1.42658 10
      vertex -0.553513 1.17627 10
      vertex -0.401722 1.23637 10
    endloop
  endfacet
  facet normal -0 0 1
    outer loop
      vertex -0.638668 1.35724 10
      vertex -0.553513 1.17627 10
      vertex -0.463525 1.42658 10
    endloop
  endfacet
  facet normal 0 0 1
    outer loop
      vertex -0.638668 1.35724 10
      vertex -0.696574 1.09763 10
      vertex -0.553513 1.17627 10
    endloop
  endfacet
  facet normal -0 0 1
    outer loop
      vertex -0.80374 1.26649 10
      vertex -0.696574 1.09763 10
      vertex -0.638668 1.35724 10
    endloop
  endfacet
  facet normal 0 0 1
    outer loop
      vertex -0.80374 1.26649 10
      vertex -0.82865 1.00167 10
      vertex -0.696574 1.09763 10
    endloop
  endfacet
  facet normal -0 0 1
    outer loop
      vertex -0.956136 1.15577 10
      vertex -0.82865 1.00167 10
      vertex -0.80374 1.26649 10
    endloop
  endfacet
  facet normal 0 0 1
    outer loop
      vertex -0.82865 1.00167 10
      vertex -0.956136 1.15577 10
      vertex -0.947659 0.889911 10
    endloop
  endfacet
  facet normal -0 0 1
    outer loop
      vertex -1.09345 1.02682 10
      vertex -0.947659 0.889911 10
      vertex -0.956136 1.15577 10
    endloop
  endfacet
  facet normal 0 0 1
    outer loop
      vertex -0.947659 0.889911 10
      vertex -1.09345 1.02682 10
      vertex -1.05172 0.76412 10
    endloop
  endfacet
  facet normal -0 0 1
    outer loop
      vertex -1.21352 0.881678 10
      vertex -1.05172 0.76412 10
      vertex -1.09345 1.02682 10
    endloop
  endfacet
  facet normal 0 0 1
    outer loop
      vertex -1.05172 0.76412 10
      vertex -1.21352 0.881678 10
      vertex -1.1392 0.626279 10
    endloop
  endfacet
  facet normal -0 0 1
    outer loop
      vertex -1.31446 0.722631 10
      vertex -1.1392 0.626279 10
      vertex -1.21352 0.881678 10
    endloop
  endfacet
  facet normal 0 0 1
    outer loop
      vertex -1.1392 0.626279 10
      vertex -1.31446 0.722631 10
      vertex -1.20871 0.478561 10
    endloop
  endfacet
  facet normal -0 0 1
    outer loop
      vertex -1.39466 0.552186 10
      vertex -1.20871 0.478561 10
      vertex -1.31446 0.722631 10
    endloop
  endfacet
  facet normal -0 0 1
    outer loop
      vertex -1.45287 0.373034 10
      vertex -1.25916 0.323297 10
      vertex -1.39466 0.552186 10
    endloop
  endfacet
  facet normal 0 0 1
    outer loop
      vertex -1.20871 0.478561 10
      vertex -1.39466 0.552186 10
      vertex -1.25916 0.323297 10
    endloop
  endfacet
  facet normal 0 0 1
    outer loop
      vertex 1.45287 -0.373034 10
      vertex 1.25916 -0.323297 10
      vertex 1.39466 -0.552186 10
    endloop
  endfacet
  facet normal -0 0 1
    outer loop
      vertex 1.20871 -0.478561 10
      vertex 1.39466 -0.552186 10
      vertex 1.25916 -0.323297 10
    endloop
  endfacet
  facet normal 0 0 1
    outer loop
      vertex 1.39466 -0.552186 10
      vertex 1.20871 -0.478561 10
      vertex 1.31446 -0.722631 10
    endloop
  endfacet
  facet normal -0 0 1
    outer loop
      vertex 1.1392 -0.626279 10
      vertex 1.31446 -0.722631 10
      vertex 1.20871 -0.478561 10
    endloop
  endfacet
  facet normal 0 0 1
    outer loop
      vertex 1.31446 -0.722631 10
      vertex 1.1392 -0.626279 10
      vertex 1.21352 -0.881678 10
    endloop
  endfacet
  facet normal -0 0 1
    outer loop
      vertex 1.05172 -0.76412 10
      vertex 1.21352 -0.881678 10
      vertex 1.1392 -0.626279 10
    endloop
  endfacet
  facet normal 0 0 1
    outer loop
      vertex 1.21352 -0.881678 10
      vertex 1.05172 -0.76412 10
      vertex 1.09345 -1.02682 10
    endloop
  endfacet
  facet normal -0 0 1
    outer loop
      vertex 0.947659 -0.889911 10
      vertex 1.09345 -1.02682 10
      vertex 1.05172 -0.76412 10
    endloop
  endfacet
  facet normal 0 0 1
    outer loop
      vertex 1.09345 -1.02682 10
      vertex 0.947659 -0.889911 10
      vertex 0.956136 -1.15577 10
    endloop
  endfacet
  facet normal -0 0 1
    outer loop
      vertex 0.82865 -1.00167 10
      vertex 0.956136 -1.15577 10
      vertex 0.947659 -0.889911 10
    endloop
  endfacet
  facet normal 0 0 1
    outer loop
      vertex 0.82865 -1.00167 10
      vertex 0.80374 -1.26649 10
      vertex 0.956136 -1.15577 10
    endloop
  endfacet
  facet normal -0 0 1
    outer loop
      vertex 0.696574 -1.09763 10
      vertex 0.80374 -1.26649 10
      vertex 0.82865 -1.00167 10
    endloop
  endfacet
  facet normal 0 0 1
    outer loop
      vertex 0.696574 -1.09763 10
      vertex 0.638668 -1.35724 10
      vertex 0.80374 -1.26649 10
    endloop
  endfacet
  facet normal -0 0 1
    outer loop
      vertex 0.553513 -1.17627 10
      vertex 0.638668 -1.35724 10
      vertex 0.696574 -1.09763 10
    endloop
  endfacet
  facet normal 0 0 1
    outer loop
      vertex 0.553513 -1.17627 10
      vertex 0.463525 -1.42658 10
      vertex 0.638668 -1.35724 10
    endloop
  endfacet
  facet normal -0 0 1
    outer loop
      vertex 0.401722 -1.23637 10
      vertex 0.463525 -1.42658 10
      vertex 0.553513 -1.17627 10
    endloop
  endfacet
  facet normal 0 0 1
    outer loop
      vertex 0.401722 -1.23637 10
      vertex 0.281072 -1.47343 10
      vertex 0.463525 -1.42658 10
    endloop
  endfacet
  facet normal -0 0 1
    outer loop
      vertex 0.243595 -1.27697 10
      vertex 0.281072 -1.47343 10
      vertex 0.401722 -1.23637 10
    endloop
  endfacet
  facet normal 0 0 1
    outer loop
      vertex 0.243595 -1.27697 10
      vertex 0.0941849 -1.49704 10
      vertex 0.281072 -1.47343 10
    endloop
  endfacet
  facet normal -0 0 1
    outer loop
      vertex 0.0816269 -1.29743 10
      vertex 0.0941849 -1.49704 10
      vertex 0.243595 -1.27697 10
    endloop
  endfacet
  facet normal -0 0 1
    outer loop
      vertex -0.0816269 -1.29743 10
      vertex 0.0941849 -1.49704 10
      vertex 0.0816269 -1.29743 10
    endloop
  endfacet
  facet normal 0 0 1
    outer loop
      vertex -0.0816269 -1.29743 10
      vertex -0.0941849 -1.49704 10
      vertex 0.0941849 -1.49704 10
    endloop
  endfacet
  facet normal 0 0 1
    outer loop
      vertex -0.243595 -1.27697 10
      vertex -0.0941849 -1.49704 10
      vertex -0.0816269 -1.29743 10
    endloop
  endfacet
  facet normal 0 0 1
    outer loop
      vertex -0.243595 -1.27697 10
      vertex -0.281072 -1.47343 10
      vertex -0.0941849 -1.49704 10
    endloop
  endfacet
  facet normal 0 0 1
    outer loop
      vertex -0.401722 -1.23637 10
      vertex -0.281072 -1.47343 10
      vertex -0.243595 -1.27697 10
    endloop
  endfacet
  facet normal 0 0 1
    outer loop
      vertex -0.401722 -1.23637 10
      vertex -0.463525 -1.42658 10
      vertex -0.281072 -1.47343 10
    endloop
  endfacet
  facet normal 0 0 1
    outer loop
      vertex -0.553513 -1.17627 10
      vertex -0.463525 -1.42658 10
      vertex -0.401722 -1.23637 10
    endloop
  endfacet
  facet normal 0 0 1
    outer loop
      vertex -0.553513 -1.17627 10
      vertex -0.638668 -1.35724 10
      vertex -0.463525 -1.42658 10
    endloop
  endfacet
  facet normal 0 0 1
    outer loop
      vertex -0.696574 -1.09763 10
      vertex -0.638668 -1.35724 10
      vertex -0.553513 -1.17627 10
    endloop
  endfacet
  facet normal 0 0 1
    outer loop
      vertex -0.696574 -1.09763 10
      vertex -0.80374 -1.26649 10
      vertex -0.638668 -1.35724 10
    endloop
  endfacet
  facet normal 0 0 1
    outer loop
      vertex -0.82865 -1.00167 10
      vertex -0.80374 -1.26649 10
      vertex -0.696574 -1.09763 10
    endloop
  endfacet
  facet normal 0 0 1
    outer loop
      vertex -0.956136 -1.15577 10
      vertex -0.82865 -1.00167 10
      vertex -0.947659 -0.889911 10
    endloop
  endfacet
  facet normal 0 0 1
    outer loop
      vertex -0.82865 -1.00167 10
      vertex -0.956136 -1.15577 10
      vertex -0.80374 -1.26649 10
    endloop
  endfacet
  facet normal 0 0 1
    outer loop
      vertex -1.09345 -1.02682 10
      vertex -0.947659 -0.889911 10
      vertex -1.05172 -0.76412 10
    endloop
  endfacet
  facet normal 0 0 1
    outer loop
      vertex -0.947659 -0.889911 10
      vertex -1.09345 -1.02682 10
      vertex -0.956136 -1.15577 10
    endloop
  endfacet
  facet normal 0 0 1
    outer loop
      vertex -1.21352 -0.881678 10
      vertex -1.05172 -0.76412 10
      vertex -1.1392 -0.626279 10
    endloop
  endfacet
  facet normal 0 0 1
    outer loop
      vertex -1.31446 -0.722631 10
      vertex -1.1392 -0.626279 10
      vertex -1.20871 -0.478561 10
    endloop
  endfacet
  facet normal 0 0 1
    outer loop
      vertex -1.05172 -0.76412 10
      vertex -1.21352 -0.881678 10
      vertex -1.09345 -1.02682 10
    endloop
  endfacet
  facet normal 0 0 1
    outer loop
      vertex -1.39466 -0.552186 10
      vertex -1.20871 -0.478561 10
      vertex -1.25916 -0.323297 10
    endloop
  endfacet
  facet normal 0 0 1
    outer loop
      vertex -1.45287 -0.373034 10
      vertex -1.25916 -0.323297 10
      vertex -1.28975 -0.162932 10
    endloop
  endfacet
  facet normal 0 0 1
    outer loop
      vertex -1.1392 -0.626279 10
      vertex -1.31446 -0.722631 10
      vertex -1.21352 -0.881678 10
    endloop
  endfacet
  facet normal 0 0 1
    outer loop
      vertex -1.48817 -0.188 10
      vertex -1.28975 -0.162932 10
      vertex -1.3 0 10
    endloop
  endfacet
  facet normal 0 0 1
    outer loop
      vertex -1.25916 0.323297 10
      vertex -1.45287 0.373034 10
      vertex -1.28975 0.162932 10
    endloop
  endfacet
  facet normal -0 0 1
    outer loop
      vertex -1.48817 0.188 10
      vertex -1.28975 0.162932 10
      vertex -1.45287 0.373034 10
    endloop
  endfacet
  facet normal 0 0 1
    outer loop
      vertex -1.20871 -0.478561 10
      vertex -1.39466 -0.552186 10
      vertex -1.31446 -0.722631 10
    endloop
  endfacet
  facet normal 0 0 1
    outer loop
      vertex -1.28975 0.162932 10
      vertex -1.48817 0.188 10
      vertex -1.3 0 10
    endloop
  endfacet
  facet normal 0 0 1
    outer loop
      vertex -1.25916 -0.323297 10
      vertex -1.45287 -0.373034 10
      vertex -1.39466 -0.552186 10
    endloop
  endfacet
  facet normal 0 0 1
    outer loop
      vertex -1.5 0 10
      vertex -1.3 0 10
      vertex -1.48817 0.188 10
    endloop
  endfacet
  facet normal 0 0 1
    outer loop
      vertex -1.28975 -0.162932 10
      vertex -1.48817 -0.188 10
      vertex -1.45287 -0.373034 10
    endloop
  endfacet
  facet normal 0 0 1
    outer loop
      vertex -1.3 0 10
      vertex -1.5 0 10
      vertex -1.48817 -0.188 10
    endloop
  endfacet
  facet normal 0.481757 -0.876305 0
    outer loop
      vertex 0.638668 -1.35724 0
      vertex 0.80374 -1.26649 10
      vertex 0.638668 -1.35724 10
    endloop
  endfacet
  facet normal 0.481757 -0.876305 0
    outer loop
      vertex 0.80374 -1.26649 10
      vertex 0.638668 -1.35724 0
      vertex 0.80374 -1.26649 0
    endloop
  endfacet
  facet normal 0 0 -1
    outer loop
      vertex 1.3 0 0
      vertex 1.5 0 0
      vertex 1.48817 -0.188 0
    endloop
  endfacet
  facet normal 0 0 -1
    outer loop
      vertex 1.28975 -0.162932 0
      vertex 1.48817 -0.188 0
      vertex 1.45287 -0.373034 0
    endloop
  endfacet
  facet normal 0 0 -1
    outer loop
      vertex 1.5 0 0
      vertex 1.3 0 0
      vertex 1.48817 0.188 0
    endloop
  endfacet
  facet normal 0 0 -1
    outer loop
      vertex 1.25916 -0.323297 0
      vertex 1.45287 -0.373034 0
      vertex 1.39466 -0.552186 0
    endloop
  endfacet
  facet normal 0 0 -1
    outer loop
      vertex 1.28975 0.162932 0
      vertex 1.48817 0.188 0
      vertex 1.3 0 0
    endloop
  endfacet
  facet normal 0 0 -1
    outer loop
      vertex 1.20871 -0.478561 0
      vertex 1.39466 -0.552186 0
      vertex 1.31446 -0.722631 0
    endloop
  endfacet
  facet normal -0 0 -1
    outer loop
      vertex 1.48817 0.188 0
      vertex 1.28975 0.162932 0
      vertex 1.45287 0.373034 0
    endloop
  endfacet
  facet normal 0 0 -1
    outer loop
      vertex 1.25916 0.323297 0
      vertex 1.45287 0.373034 0
      vertex 1.28975 0.162932 0
    endloop
  endfacet
  facet normal 0 0 -1
    outer loop
      vertex 1.48817 -0.188 0
      vertex 1.28975 -0.162932 0
      vertex 1.3 0 0
    endloop
  endfacet
  facet normal 0 0 -1
    outer loop
      vertex 1.45287 -0.373034 0
      vertex 1.25916 -0.323297 0
      vertex 1.28975 -0.162932 0
    endloop
  endfacet
  facet normal 0 0 -1
    outer loop
      vertex 1.1392 -0.626279 0
      vertex 1.31446 -0.722631 0
      vertex 1.21352 -0.881678 0
    endloop
  endfacet
  facet normal 0 0 -1
    outer loop
      vertex 1.39466 -0.552186 0
      vertex 1.20871 -0.478561 0
      vertex 1.25916 -0.323297 0
    endloop
  endfacet
  facet normal 0 0 -1
    outer loop
      vertex 1.31446 -0.722631 0
      vertex 1.1392 -0.626279 0
      vertex 1.20871 -0.478561 0
    endloop
  endfacet
  facet normal 0 0 -1
    outer loop
      vertex 1.05172 -0.76412 0
      vertex 1.21352 -0.881678 0
      vertex 1.09345 -1.02682 0
    endloop
  endfacet
  facet normal 0 0 -1
    outer loop
      vertex 1.21352 -0.881678 0
      vertex 1.05172 -0.76412 0
      vertex 1.1392 -0.626279 0
    endloop
  endfacet
  facet normal 0 0 -1
    outer loop
      vertex 0.947659 -0.889911 0
      vertex 1.09345 -1.02682 0
      vertex 0.956136 -1.15577 0
    endloop
  endfacet
  facet normal 0 0 -1
    outer loop
      vertex 1.09345 -1.02682 0
      vertex 0.947659 -0.889911 0
      vertex 1.05172 -0.76412 0
    endloop
  endfacet
  facet normal 0 0 -1
    outer loop
      vertex 0.956136 -1.15577 0
      vertex 0.82865 -1.00167 0
      vertex 0.947659 -0.889911 0
    endloop
  endfacet
  facet normal 0 0 -1
    outer loop
      vertex 0.80374 -1.26649 0
      vertex 0.82865 -1.00167 0
      vertex 0.956136 -1.15577 0
    endloop
  endfacet
  facet normal 0 0 -1
    outer loop
      vertex 0.80374 -1.26649 0
      vertex 0.696574 -1.09763 0
      vertex 0.82865 -1.00167 0
    endloop
  endfacet
  facet normal 0 0 -1
    outer loop
      vertex 0.638668 -1.35724 0
      vertex 0.696574 -1.09763 0
      vertex 0.80374 -1.26649 0
    endloop
  endfacet
  facet normal 0 0 -1
    outer loop
      vertex 0.638668 -1.35724 0
      vertex 0.553513 -1.17627 0
      vertex 0.696574 -1.09763 0
    endloop
  endfacet
  facet normal 0 0 -1
    outer loop
      vertex 0.463525 -1.42658 0
      vertex 0.553513 -1.17627 0
      vertex 0.638668 -1.35724 0
    endloop
  endfacet
  facet normal 0 0 -1
    outer loop
      vertex 0.463525 -1.42658 0
      vertex 0.401722 -1.23637 0
      vertex 0.553513 -1.17627 0
    endloop
  endfacet
  facet normal 0 0 -1
    outer loop
      vertex 0.281072 -1.47343 0
      vertex 0.401722 -1.23637 0
      vertex 0.463525 -1.42658 0
    endloop
  endfacet
  facet normal 0 0 -1
    outer loop
      vertex 0.281072 -1.47343 0
      vertex 0.243595 -1.27697 0
      vertex 0.401722 -1.23637 0
    endloop
  endfacet
  facet normal 0 0 -1
    outer loop
      vertex 0.0941849 -1.49704 0
      vertex 0.243595 -1.27697 0
      vertex 0.281072 -1.47343 0
    endloop
  endfacet
  facet normal 0 0 -1
    outer loop
      vertex 0.0941849 -1.49704 0
      vertex 0.0816269 -1.29743 0
      vertex 0.243595 -1.27697 0
    endloop
  endfacet
  facet normal 0 0 -1
    outer loop
      vertex 0.0941849 -1.49704 0
      vertex -0.0816269 -1.29743 0
      vertex 0.0816269 -1.29743 0
    endloop
  endfacet
  facet normal 0 0 -1
    outer loop
      vertex -0.0941849 -1.49704 0
      vertex -0.0816269 -1.29743 0
      vertex 0.0941849 -1.49704 0
    endloop
  endfacet
  facet normal 0 0 -1
    outer loop
      vertex -0.0941849 -1.49704 0
      vertex -0.243595 -1.27697 0
      vertex -0.0816269 -1.29743 0
    endloop
  endfacet
  facet normal 0 0 -1
    outer loop
      vertex -0.281072 -1.47343 0
      vertex -0.243595 -1.27697 0
      vertex -0.0941849 -1.49704 0
    endloop
  endfacet
  facet normal 0 0 -1
    outer loop
      vertex -0.281072 -1.47343 0
      vertex -0.401722 -1.23637 0
      vertex -0.243595 -1.27697 0
    endloop
  endfacet
  facet normal 0 0 -1
    outer loop
      vertex -0.463525 -1.42658 0
      vertex -0.401722 -1.23637 0
      vertex -0.281072 -1.47343 0
    endloop
  endfacet
  facet normal 0 0 -1
    outer loop
      vertex -0.463525 -1.42658 0
      vertex -0.553513 -1.17627 0
      vertex -0.401722 -1.23637 0
    endloop
  endfacet
  facet normal 0 0 -1
    outer loop
      vertex -0.638668 -1.35724 0
      vertex -0.553513 -1.17627 0
      vertex -0.463525 -1.42658 0
    endloop
  endfacet
  facet normal 0 0 -1
    outer loop
      vertex -0.638668 -1.35724 0
      vertex -0.696574 -1.09763 0
      vertex -0.553513 -1.17627 0
    endloop
  endfacet
  facet normal 0 0 -1
    outer loop
      vertex -0.80374 -1.26649 0
      vertex -0.696574 -1.09763 0
      vertex -0.638668 -1.35724 0
    endloop
  endfacet
  facet normal 0 0 -1
    outer loop
      vertex -0.80374 -1.26649 0
      vertex -0.82865 -1.00167 0
      vertex -0.696574 -1.09763 0
    endloop
  endfacet
  facet normal 0 0 -1
    outer loop
      vertex -0.956136 -1.15577 0
      vertex -0.82865 -1.00167 0
      vertex -0.80374 -1.26649 0
    endloop
  endfacet
  facet normal -0 0 -1
    outer loop
      vertex -0.82865 -1.00167 0
      vertex -0.956136 -1.15577 0
      vertex -0.947659 -0.889911 0
    endloop
  endfacet
  facet normal 0 0 -1
    outer loop
      vertex -1.09345 -1.02682 0
      vertex -0.947659 -0.889911 0
      vertex -0.956136 -1.15577 0
    endloop
  endfacet
  facet normal -0 0 -1
    outer loop
      vertex -0.947659 -0.889911 0
      vertex -1.09345 -1.02682 0
      vertex -1.05172 -0.76412 0
    endloop
  endfacet
  facet normal 0 0 -1
    outer loop
      vertex -1.21352 -0.881678 0
      vertex -1.05172 -0.76412 0
      vertex -1.09345 -1.02682 0
    endloop
  endfacet
  facet normal -0 0 -1
    outer loop
      vertex -1.05172 -0.76412 0
      vertex -1.21352 -0.881678 0
      vertex -1.1392 -0.626279 0
    endloop
  endfacet
  facet normal 0 0 -1
    outer loop
      vertex -1.31446 -0.722631 0
      vertex -1.1392 -0.626279 0
      vertex -1.21352 -0.881678 0
    endloop
  endfacet
  facet normal -0 0 -1
    outer loop
      vertex -1.1392 -0.626279 0
      vertex -1.31446 -0.722631 0
      vertex -1.20871 -0.478561 0
    endloop
  endfacet
  facet normal 0 0 -1
    outer loop
      vertex -1.39466 -0.552186 0
      vertex -1.20871 -0.478561 0
      vertex -1.31446 -0.722631 0
    endloop
  endfacet
  facet normal 0 0 -1
    outer loop
      vertex -1.45287 -0.373034 0
      vertex -1.25916 -0.323297 0
      vertex -1.39466 -0.552186 0
    endloop
  endfacet
  facet normal -0 0 -1
    outer loop
      vertex -1.20871 -0.478561 0
      vertex -1.39466 -0.552186 0
      vertex -1.25916 -0.323297 0
    endloop
  endfacet
  facet normal -0 0 -1
    outer loop
      vertex 1.45287 0.373034 0
      vertex 1.25916 0.323297 0
      vertex 1.39466 0.552186 0
    endloop
  endfacet
  facet normal 0 0 -1
    outer loop
      vertex 1.20871 0.478561 0
      vertex 1.39466 0.552186 0
      vertex 1.25916 0.323297 0
    endloop
  endfacet
  facet normal -0 0 -1
    outer loop
      vertex 1.39466 0.552186 0
      vertex 1.20871 0.478561 0
      vertex 1.31446 0.722631 0
    endloop
  endfacet
  facet normal 0 0 -1
    outer loop
      vertex 1.1392 0.626279 0
      vertex 1.31446 0.722631 0
      vertex 1.20871 0.478561 0
    endloop
  endfacet
  facet normal -0 0 -1
    outer loop
      vertex 1.31446 0.722631 0
      vertex 1.1392 0.626279 0
      vertex 1.21352 0.881678 0
    endloop
  endfacet
  facet normal 0 0 -1
    outer loop
      vertex 1.05172 0.76412 0
      vertex 1.21352 0.881678 0
      vertex 1.1392 0.626279 0
    endloop
  endfacet
  facet normal -0 0 -1
    outer loop
      vertex 1.21352 0.881678 0
      vertex 1.05172 0.76412 0
      vertex 1.09345 1.02682 0
    endloop
  endfacet
  facet normal 0 0 -1
    outer loop
      vertex 0.947659 0.889911 0
      vertex 1.09345 1.02682 0
      vertex 1.05172 0.76412 0
    endloop
  endfacet
  facet normal -0 0 -1
    outer loop
      vertex 1.09345 1.02682 0
      vertex 0.947659 0.889911 0
      vertex 0.956136 1.15577 0
    endloop
  endfacet
  facet normal 0 0 -1
    outer loop
      vertex 0.82865 1.00167 0
      vertex 0.956136 1.15577 0
      vertex 0.947659 0.889911 0
    endloop
  endfacet
  facet normal 0 0 -1
    outer loop
      vertex 0.82865 1.00167 0
      vertex 0.80374 1.26649 0
      vertex 0.956136 1.15577 0
    endloop
  endfacet
  facet normal 0 0 -1
    outer loop
      vertex 0.696574 1.09763 0
      vertex 0.80374 1.26649 0
      vertex 0.82865 1.00167 0
    endloop
  endfacet
  facet normal 0 0 -1
    outer loop
      vertex 0.696574 1.09763 0
      vertex 0.638668 1.35724 0
      vertex 0.80374 1.26649 0
    endloop
  endfacet
  facet normal 0 0 -1
    outer loop
      vertex 0.553513 1.17627 0
      vertex 0.638668 1.35724 0
      vertex 0.696574 1.09763 0
    endloop
  endfacet
  facet normal 0 0 -1
    outer loop
      vertex 0.553513 1.17627 0
      vertex 0.463525 1.42658 0
      vertex 0.638668 1.35724 0
    endloop
  endfacet
  facet normal 0 0 -1
    outer loop
      vertex 0.401722 1.23637 0
      vertex 0.463525 1.42658 0
      vertex 0.553513 1.17627 0
    endloop
  endfacet
  facet normal 0 0 -1
    outer loop
      vertex 0.401722 1.23637 0
      vertex 0.281072 1.47343 0
      vertex 0.463525 1.42658 0
    endloop
  endfacet
  facet normal 0 0 -1
    outer loop
      vertex 0.243595 1.27697 0
      vertex 0.281072 1.47343 0
      vertex 0.401722 1.23637 0
    endloop
  endfacet
  facet normal 0 0 -1
    outer loop
      vertex 0.243595 1.27697 0
      vertex 0.0941849 1.49704 0
      vertex 0.281072 1.47343 0
    endloop
  endfacet
  facet normal 0 0 -1
    outer loop
      vertex 0.0816269 1.29743 0
      vertex 0.0941849 1.49704 0
      vertex 0.243595 1.27697 0
    endloop
  endfacet
  facet normal 0 0 -1
    outer loop
      vertex -0.0816269 1.29743 0
      vertex 0.0941849 1.49704 0
      vertex 0.0816269 1.29743 0
    endloop
  endfacet
  facet normal 0 0 -1
    outer loop
      vertex -0.0816269 1.29743 0
      vertex -0.0941849 1.49704 0
      vertex 0.0941849 1.49704 0
    endloop
  endfacet
  facet normal 0 0 -1
    outer loop
      vertex -0.243595 1.27697 0
      vertex -0.0941849 1.49704 0
      vertex -0.0816269 1.29743 0
    endloop
  endfacet
  facet normal 0 0 -1
    outer loop
      vertex -0.243595 1.27697 0
      vertex -0.281072 1.47343 0
      vertex -0.0941849 1.49704 0
    endloop
  endfacet
  facet normal 0 0 -1
    outer loop
      vertex -0.401722 1.23637 0
      vertex -0.281072 1.47343 0
      vertex -0.243595 1.27697 0
    endloop
  endfacet
  facet normal 0 0 -1
    outer loop
      vertex -0.401722 1.23637 0
      vertex -0.463525 1.42658 0
      vertex -0.281072 1.47343 0
    endloop
  endfacet
  facet normal 0 0 -1
    outer loop
      vertex -0.553513 1.17627 0
      vertex -0.463525 1.42658 0
      vertex -0.401722 1.23637 0
    endloop
  endfacet
  facet normal 0 0 -1
    outer loop
      vertex -0.553513 1.17627 0
      vertex -0.638668 1.35724 0
      vertex -0.463525 1.42658 0
    endloop
  endfacet
  facet normal 0 0 -1
    outer loop
      vertex -0.696574 1.09763 0
      vertex -0.638668 1.35724 0
      vertex -0.553513 1.17627 0
    endloop
  endfacet
  facet normal 0 0 -1
    outer loop
      vertex -0.696574 1.09763 0
      vertex -0.80374 1.26649 0
      vertex -0.638668 1.35724 0
    endloop
  endfacet
  facet normal 0 0 -1
    outer loop
      vertex -0.82865 1.00167 0
      vertex -0.80374 1.26649 0
      vertex -0.696574 1.09763 0
    endloop
  endfacet
  facet normal 0 0 -1
    outer loop
      vertex -0.956136 1.15577 0
      vertex -0.82865 1.00167 0
      vertex -0.947659 0.889911 0
    endloop
  endfacet
  facet normal 0 0 -1
    outer loop
      vertex -0.82865 1.00167 0
      vertex -0.956136 1.15577 0
      vertex -0.80374 1.26649 0
    endloop
  endfacet
  facet normal 0 0 -1
    outer loop
      vertex -1.09345 1.02682 0
      vertex -0.947659 0.889911 0
      vertex -1.05172 0.76412 0
    endloop
  endfacet
  facet normal 0 0 -1
    outer loop
      vertex -0.947659 0.889911 0
      vertex -1.09345 1.02682 0
      vertex -0.956136 1.15577 0
    endloop
  endfacet
  facet normal 0 0 -1
    outer loop
      vertex -1.21352 0.881678 0
      vertex -1.05172 0.76412 0
      vertex -1.1392 0.626279 0
    endloop
  endfacet
  facet normal 0 0 -1
    outer loop
      vertex -1.31446 0.722631 0
      vertex -1.1392 0.626279 0
      vertex -1.20871 0.478561 0
    endloop
  endfacet
  facet normal 0 0 -1
    outer loop
      vertex -1.05172 0.76412 0
      vertex -1.21352 0.881678 0
      vertex -1.09345 1.02682 0
    endloop
  endfacet
  facet normal 0 0 -1
    outer loop
      vertex -1.39466 0.552186 0
      vertex -1.20871 0.478561 0
      vertex -1.25916 0.323297 0
    endloop
  endfacet
  facet normal 0 0 -1
    outer loop
      vertex -1.45287 0.373034 0
      vertex -1.25916 0.323297 0
      vertex -1.28975 0.162932 0
    endloop
  endfacet
  facet normal 0 0 -1
    outer loop
      vertex -1.1392 0.626279 0
      vertex -1.31446 0.722631 0
      vertex -1.21352 0.881678 0
    endloop
  endfacet
  facet normal 0 0 -1
    outer loop
      vertex -1.48817 0.188 0
      vertex -1.28975 0.162932 0
      vertex -1.3 0 0
    endloop
  endfacet
  facet normal -0 0 -1
    outer loop
      vertex -1.25916 -0.323297 0
      vertex -1.45287 -0.373034 0
      vertex -1.28975 -0.162932 0
    endloop
  endfacet
  facet normal 0 0 -1
    outer loop
      vertex -1.48817 -0.188 0
      vertex -1.28975 -0.162932 0
      vertex -1.45287 -0.373034 0
    endloop
  endfacet
  facet normal 0 0 -1
    outer loop
      vertex -1.20871 0.478561 0
      vertex -1.39466 0.552186 0
      vertex -1.31446 0.722631 0
    endloop
  endfacet
  facet normal -0 0 -1
    outer loop
      vertex -1.28975 -0.162932 0
      vertex -1.48817 -0.188 0
      vertex -1.3 0 0
    endloop
  endfacet
  facet normal 0 0 -1
    outer loop
      vertex -1.25916 0.323297 0
      vertex -1.45287 0.373034 0
      vertex -1.39466 0.552186 0
    endloop
  endfacet
  facet normal 0 0 -1
    outer loop
      vertex -1.5 0 0
      vertex -1.3 0 0
      vertex -1.48817 -0.188 0
    endloop
  endfacet
  facet normal 0 0 -1
    outer loop
      vertex -1.28975 0.162932 0
      vertex -1.48817 0.188 0
      vertex -1.45287 0.373034 0
    endloop
  endfacet
  facet normal 0 0 -1
    outer loop
      vertex -1.3 0 0
      vertex -1.5 0 0
      vertex -1.48817 0.188 0
    endloop
  endfacet
  facet normal -0.125337 -0.992114 0
    outer loop
      vertex -0.281072 -1.47343 0
      vertex -0.0941849 -1.49704 10
      vertex -0.281072 -1.47343 10
    endloop
  endfacet
  facet normal -0.125337 -0.992114 -0
    outer loop
      vertex -0.0941849 -1.49704 10
      vertex -0.281072 -1.47343 0
      vertex -0.0941849 -1.49704 0
    endloop
  endfacet
  facet normal -0.904838 0.425756 0
    outer loop
      vertex -1.39466 0.552186 0
      vertex -1.31446 0.722631 10
      vertex -1.31446 0.722631 0
    endloop
  endfacet
  facet normal -0.904838 0.425756 0
    outer loop
      vertex -1.31446 0.722631 10
      vertex -1.39466 0.552186 0
      vertex -1.39466 0.552186 10
    endloop
  endfacet
  facet normal -0.770518 -0.637418 0
    outer loop
      vertex -1.09345 -1.02682 0
      vertex -1.21352 -0.881678 10
      vertex -1.21352 -0.881678 0
    endloop
  endfacet
  facet normal -0.770518 -0.637418 0
    outer loop
      vertex -1.21352 -0.881678 10
      vertex -1.09345 -1.02682 0
      vertex -1.09345 -1.02682 10
    endloop
  endfacet
  facet normal -0.125337 0.992114 0
    outer loop
      vertex -0.0941849 1.49704 0
      vertex -0.281072 1.47343 10
      vertex -0.0941849 1.49704 10
    endloop
  endfacet
  facet normal -0.125337 0.992114 0
    outer loop
      vertex -0.281072 1.47343 10
      vertex -0.0941849 1.49704 0
      vertex -0.281072 1.47343 0
    endloop
  endfacet
  facet normal 0.684557 -0.728959 0
    outer loop
      vertex 0.956136 -1.15577 0
      vertex 1.09345 -1.02682 10
      vertex 0.956136 -1.15577 10
    endloop
  endfacet
  facet normal 0.684557 -0.728959 0
    outer loop
      vertex 1.09345 -1.02682 10
      vertex 0.956136 -1.15577 0
      vertex 1.09345 -1.02682 0
    endloop
  endfacet
  facet normal -0.904838 -0.425756 0
    outer loop
      vertex -1.31446 -0.722631 0
      vertex -1.39466 -0.552186 10
      vertex -1.39466 -0.552186 0
    endloop
  endfacet
  facet normal -0.904838 -0.425756 0
    outer loop
      vertex -1.39466 -0.552186 10
      vertex -1.31446 -0.722631 0
      vertex -1.31446 -0.722631 10
    endloop
  endfacet
  facet normal -0.368106 -0.929784 0
    outer loop
      vertex -0.638668 -1.35724 0
      vertex -0.463525 -1.42658 10
      vertex -0.638668 -1.35724 10
    endloop
  endfacet
  facet normal -0.368106 -0.929784 -0
    outer loop
      vertex -0.463525 -1.42658 10
      vertex -0.638668 -1.35724 0
      vertex -0.463525 -1.42658 0
    endloop
  endfacet
  facet normal -0.587778 0.809022 0
    outer loop
      vertex -0.80374 1.26649 0
      vertex -0.956136 1.15577 10
      vertex -0.80374 1.26649 10
    endloop
  endfacet
  facet normal -0.587778 0.809022 0
    outer loop
      vertex -0.956136 1.15577 10
      vertex -0.80374 1.26649 0
      vertex -0.956136 1.15577 0
    endloop
  endfacet
  facet normal -0.844314 0.535848 0
    outer loop
      vertex -1.31446 0.722631 0
      vertex -1.21352 0.881678 10
      vertex -1.21352 0.881678 0
    endloop
  endfacet
  facet normal -0.844314 0.535848 0
    outer loop
      vertex -1.21352 0.881678 10
      vertex -1.31446 0.722631 0
      vertex -1.31446 0.722631 10
    endloop
  endfacet
  facet normal 0.844314 -0.535848 0
    outer loop
      vertex 1.21352 -0.881678 10
      vertex 1.31446 -0.722631 0
      vertex 1.31446 -0.722631 10
    endloop
  endfacet
  facet normal 0.844314 -0.535848 0
    outer loop
      vertex 1.31446 -0.722631 0
      vertex 1.21352 -0.881678 10
      vertex 1.21352 -0.881678 0
    endloop
  endfacet
  facet normal 0 1 -0
    outer loop
      vertex 0.0941849 1.49704 0
      vertex -0.0941849 1.49704 10
      vertex 0.0941849 1.49704 10
    endloop
  endfacet
  facet normal 0 1 0
    outer loop
      vertex -0.0941849 1.49704 10
      vertex 0.0941849 1.49704 0
      vertex -0.0941849 1.49704 0
    endloop
  endfacet
  facet normal 0.770518 0.637418 0
    outer loop
      vertex 1.21352 0.881678 10
      vertex 1.09345 1.02682 0
      vertex 1.09345 1.02682 10
    endloop
  endfacet
  facet normal 0.770518 0.637418 0
    outer loop
      vertex 1.09345 1.02682 0
      vertex 1.21352 0.881678 10
      vertex 1.21352 0.881678 0
    endloop
  endfacet
  facet normal 0.587778 -0.809022 0
    outer loop
      vertex 0.80374 -1.26649 0
      vertex 0.956136 -1.15577 10
      vertex 0.80374 -1.26649 10
    endloop
  endfacet
  facet normal 0.587778 -0.809022 0
    outer loop
      vertex 0.956136 -1.15577 10
      vertex 0.80374 -1.26649 0
      vertex 0.956136 -1.15577 0
    endloop
  endfacet
  facet normal -0.24871 -0.968578 0
    outer loop
      vertex -0.463525 -1.42658 0
      vertex -0.281072 -1.47343 10
      vertex -0.463525 -1.42658 10
    endloop
  endfacet
  facet normal -0.24871 -0.968578 -0
    outer loop
      vertex -0.281072 -1.47343 10
      vertex -0.463525 -1.42658 0
      vertex -0.281072 -1.47343 0
    endloop
  endfacet
  facet normal 0 -1 0
    outer loop
      vertex -0.0941849 -1.49704 0
      vertex 0.0941849 -1.49704 10
      vertex -0.0941849 -1.49704 10
    endloop
  endfacet
  facet normal 0 -1 -0
    outer loop
      vertex 0.0941849 -1.49704 10
      vertex -0.0941849 -1.49704 0
      vertex 0.0941849 -1.49704 0
    endloop
  endfacet
  facet normal -0.770518 0.637418 0
    outer loop
      vertex -1.21352 0.881678 0
      vertex -1.09345 1.02682 10
      vertex -1.09345 1.02682 0
    endloop
  endfacet
  facet normal -0.770518 0.637418 0
    outer loop
      vertex -1.09345 1.02682 10
      vertex -1.21352 0.881678 0
      vertex -1.21352 0.881678 10
    endloop
  endfacet
  facet normal -0.481757 -0.876305 0
    outer loop
      vertex -0.80374 -1.26649 0
      vertex -0.638668 -1.35724 10
      vertex -0.80374 -1.26649 10
    endloop
  endfacet
  facet normal -0.481757 -0.876305 -0
    outer loop
      vertex -0.638668 -1.35724 10
      vertex -0.80374 -1.26649 0
      vertex -0.638668 -1.35724 0
    endloop
  endfacet
  facet normal -0.684557 -0.728959 0
    outer loop
      vertex -1.09345 -1.02682 0
      vertex -0.956136 -1.15577 10
      vertex -1.09345 -1.02682 10
    endloop
  endfacet
  facet normal -0.684557 -0.728959 -0
    outer loop
      vertex -0.956136 -1.15577 10
      vertex -1.09345 -1.02682 0
      vertex -0.956136 -1.15577 0
    endloop
  endfacet
  facet normal -0.951057 -0.309017 0
    outer loop
      vertex -1.39466 -0.552186 0
      vertex -1.45287 -0.373034 10
      vertex -1.45287 -0.373034 0
    endloop
  endfacet
  facet normal -0.951057 -0.309017 0
    outer loop
      vertex -1.45287 -0.373034 10
      vertex -1.39466 -0.552186 0
      vertex -1.39466 -0.552186 10
    endloop
  endfacet
  facet normal 0.770518 -0.637418 0
    outer loop
      vertex 1.09345 -1.02682 10
      vertex 1.21352 -0.881678 0
      vertex 1.21352 -0.881678 10
    endloop
  endfacet
  facet normal 0.770518 -0.637418 0
    outer loop
      vertex 1.21352 -0.881678 0
      vertex 1.09345 -1.02682 10
      vertex 1.09345 -1.02682 0
    endloop
  endfacet
  facet normal -0.998026 0.0628013 0
    outer loop
      vertex -1.5 0 0
      vertex -1.48817 0.188 10
      vertex -1.48817 0.188 0
    endloop
  endfacet
  facet normal -0.998026 0.0628013 0
    outer loop
      vertex -1.48817 0.188 10
      vertex -1.5 0 0
      vertex -1.5 0 10
    endloop
  endfacet
  facet normal -0.982284 0.187396 0
    outer loop
      vertex -1.48817 0.188 0
      vertex -1.45287 0.373034 10
      vertex -1.45287 0.373034 0
    endloop
  endfacet
  facet normal -0.982284 0.187396 0
    outer loop
      vertex -1.45287 0.373034 10
      vertex -1.48817 0.188 0
      vertex -1.48817 0.188 10
    endloop
  endfacet
  facet normal 0.844318 0.535842 0
    outer loop
      vertex -1.05172 -0.76412 10
      vertex -1.1392 -0.626279 0
      vertex -1.1392 -0.626279 10
    endloop
  endfacet
  facet normal 0.844318 0.535842 0
    outer loop
      vertex -1.1392 -0.626279 0
      vertex -1.05172 -0.76412 10
      vertex -1.05172 -0.76412 0
    endloop
  endfacet
  facet normal -0.58779 0.809014 0
    outer loop
      vertex 0.82865 -1.00167 0
      vertex 0.696574 -1.09763 10
      vertex 0.82865 -1.00167 10
    endloop
  endfacet
  facet normal -0.58779 0.809014 0
    outer loop
      vertex 0.696574 -1.09763 10
      vertex 0.82865 -1.00167 0
      vertex 0.696574 -1.09763 0
    endloop
  endfacet
  facet normal -0.982289 -0.187374 0
    outer loop
      vertex 1.28975 0.162932 0
      vertex 1.25916 0.323297 10
      vertex 1.25916 0.323297 0
    endloop
  endfacet
  facet normal -0.982289 -0.187374 0
    outer loop
      vertex 1.25916 0.323297 10
      vertex 1.28975 0.162932 0
      vertex 1.28975 0.162932 10
    endloop
  endfacet
  facet normal -0.998027 -0.0627856 0
    outer loop
      vertex 1.3 0 0
      vertex 1.28975 0.162932 10
      vertex 1.28975 0.162932 0
    endloop
  endfacet
  facet normal -0.998027 -0.0627856 0
    outer loop
      vertex 1.28975 0.162932 10
      vertex 1.3 0 0
      vertex 1.3 0 10
    endloop
  endfacet
  facet normal -0.951054 -0.309026 0
    outer loop
      vertex 1.25916 0.323297 0
      vertex 1.20871 0.478561 10
      vertex 1.20871 0.478561 0
    endloop
  endfacet
  facet normal -0.951054 -0.309026 0
    outer loop
      vertex 1.20871 0.478561 10
      vertex 1.25916 0.323297 0
      vertex 1.25916 0.323297 10
    endloop
  endfacet
  facet normal 0.481714 -0.876329 0
    outer loop
      vertex -0.696574 1.09763 0
      vertex -0.553513 1.17627 10
      vertex -0.696574 1.09763 10
    endloop
  endfacet
  facet normal 0.481714 -0.876329 0
    outer loop
      vertex -0.553513 1.17627 10
      vertex -0.696574 1.09763 0
      vertex -0.553513 1.17627 0
    endloop
  endfacet
  facet normal -0.844318 -0.535842 0
    outer loop
      vertex 1.1392 0.626279 0
      vertex 1.05172 0.76412 10
      vertex 1.05172 0.76412 0
    endloop
  endfacet
  facet normal -0.844318 -0.535842 0
    outer loop
      vertex 1.05172 0.76412 10
      vertex 1.1392 0.626279 0
      vertex 1.1392 0.626279 10
    endloop
  endfacet
  facet normal 0 1 -0
    outer loop
      vertex 0.0816269 -1.29743 0
      vertex -0.0816269 -1.29743 10
      vertex 0.0816269 -1.29743 10
    endloop
  endfacet
  facet normal 0 1 0
    outer loop
      vertex -0.0816269 -1.29743 10
      vertex 0.0816269 -1.29743 0
      vertex -0.0816269 -1.29743 0
    endloop
  endfacet
  facet normal -0.998027 0.0627856 0
    outer loop
      vertex 1.28975 -0.162932 0
      vertex 1.3 0 10
      vertex 1.3 0 0
    endloop
  endfacet
  facet normal -0.998027 0.0627856 0
    outer loop
      vertex 1.3 0 10
      vertex 1.28975 -0.162932 0
      vertex 1.28975 -0.162932 10
    endloop
  endfacet
  facet normal -0.248689 0.968583 0
    outer loop
      vertex 0.401722 -1.23637 0
      vertex 0.243595 -1.27697 10
      vertex 0.401722 -1.23637 10
    endloop
  endfacet
  facet normal -0.248689 0.968583 0
    outer loop
      vertex 0.243595 -1.27697 10
      vertex 0.401722 -1.23637 0
      vertex 0.243595 -1.27697 0
    endloop
  endfacet
  facet normal -0.904829 -0.425775 0
    outer loop
      vertex 1.20871 0.478561 0
      vertex 1.1392 0.626279 10
      vertex 1.1392 0.626279 0
    endloop
  endfacet
  facet normal -0.904829 -0.425775 0
    outer loop
      vertex 1.1392 0.626279 10
      vertex 1.20871 0.478561 0
      vertex 1.20871 0.478561 10
    endloop
  endfacet
  facet normal 0.951054 -0.309026 0
    outer loop
      vertex -1.25916 0.323297 10
      vertex -1.20871 0.478561 0
      vertex -1.20871 0.478561 10
    endloop
  endfacet
  facet normal 0.951054 -0.309026 0
    outer loop
      vertex -1.20871 0.478561 0
      vertex -1.25916 0.323297 10
      vertex -1.25916 0.323297 0
    endloop
  endfacet
  facet normal 0.248689 -0.968583 0
    outer loop
      vertex -0.401722 1.23637 0
      vertex -0.243595 1.27697 10
      vertex -0.401722 1.23637 10
    endloop
  endfacet
  facet normal 0.248689 -0.968583 0
    outer loop
      vertex -0.243595 1.27697 10
      vertex -0.401722 1.23637 0
      vertex -0.243595 1.27697 0
    endloop
  endfacet
  facet normal 0.998027 -0.0627856 0
    outer loop
      vertex -1.3 0 10
      vertex -1.28975 0.162932 0
      vertex -1.28975 0.162932 10
    endloop
  endfacet
  facet normal 0.998027 -0.0627856 0
    outer loop
      vertex -1.28975 0.162932 0
      vertex -1.3 0 10
      vertex -1.3 0 0
    endloop
  endfacet
  facet normal -0.77052 -0.637415 0
    outer loop
      vertex 1.05172 0.76412 0
      vertex 0.947659 0.889911 10
      vertex 0.947659 0.889911 0
    endloop
  endfacet
  facet normal -0.77052 -0.637415 0
    outer loop
      vertex 0.947659 0.889911 10
      vertex 1.05172 0.76412 0
      vertex 1.05172 0.76412 10
    endloop
  endfacet
  facet normal 0.481714 0.876329 -0
    outer loop
      vertex -0.553513 -1.17627 0
      vertex -0.696574 -1.09763 10
      vertex -0.553513 -1.17627 10
    endloop
  endfacet
  facet normal 0.481714 0.876329 0
    outer loop
      vertex -0.696574 -1.09763 10
      vertex -0.553513 -1.17627 0
      vertex -0.696574 -1.09763 0
    endloop
  endfacet
  facet normal 0.58779 0.809014 -0
    outer loop
      vertex -0.696574 -1.09763 0
      vertex -0.82865 -1.00167 10
      vertex -0.696574 -1.09763 10
    endloop
  endfacet
  facet normal 0.58779 0.809014 0
    outer loop
      vertex -0.82865 -1.00167 10
      vertex -0.696574 -1.09763 0
      vertex -0.82865 -1.00167 0
    endloop
  endfacet
  facet normal 0.684554 -0.728962 0
    outer loop
      vertex -0.947659 0.889911 0
      vertex -0.82865 1.00167 10
      vertex -0.947659 0.889911 10
    endloop
  endfacet
  facet normal 0.684554 -0.728962 0
    outer loop
      vertex -0.82865 1.00167 10
      vertex -0.947659 0.889911 0
      vertex -0.82865 1.00167 0
    endloop
  endfacet
  facet normal -0.481714 -0.876329 0
    outer loop
      vertex 0.553513 1.17627 0
      vertex 0.696574 1.09763 10
      vertex 0.553513 1.17627 10
    endloop
  endfacet
  facet normal -0.481714 -0.876329 -0
    outer loop
      vertex 0.696574 1.09763 10
      vertex 0.553513 1.17627 0
      vertex 0.696574 1.09763 0
    endloop
  endfacet
  facet normal -0.77052 0.637415 0
    outer loop
      vertex 0.947659 -0.889911 0
      vertex 1.05172 -0.76412 10
      vertex 1.05172 -0.76412 0
    endloop
  endfacet
  facet normal -0.77052 0.637415 0
    outer loop
      vertex 1.05172 -0.76412 10
      vertex 0.947659 -0.889911 0
      vertex 0.947659 -0.889911 10
    endloop
  endfacet
  facet normal -0.125325 0.992116 0
    outer loop
      vertex 0.243595 -1.27697 0
      vertex 0.0816269 -1.29743 10
      vertex 0.243595 -1.27697 10
    endloop
  endfacet
  facet normal -0.125325 0.992116 0
    outer loop
      vertex 0.0816269 -1.29743 10
      vertex 0.243595 -1.27697 0
      vertex 0.0816269 -1.29743 0
    endloop
  endfacet
  facet normal -0.58779 -0.809014 0
    outer loop
      vertex 0.696574 1.09763 0
      vertex 0.82865 1.00167 10
      vertex 0.696574 1.09763 10
    endloop
  endfacet
  facet normal -0.58779 -0.809014 -0
    outer loop
      vertex 0.82865 1.00167 10
      vertex 0.696574 1.09763 0
      vertex 0.82865 1.00167 0
    endloop
  endfacet
  facet normal 0.77052 0.637415 0
    outer loop
      vertex -0.947659 -0.889911 10
      vertex -1.05172 -0.76412 0
      vertex -1.05172 -0.76412 10
    endloop
  endfacet
  facet normal 0.77052 0.637415 0
    outer loop
      vertex -1.05172 -0.76412 0
      vertex -0.947659 -0.889911 10
      vertex -0.947659 -0.889911 0
    endloop
  endfacet
  facet normal 0.951054 0.309026 0
    outer loop
      vertex -1.20871 -0.478561 10
      vertex -1.25916 -0.323297 0
      vertex -1.25916 -0.323297 10
    endloop
  endfacet
  facet normal 0.951054 0.309026 0
    outer loop
      vertex -1.25916 -0.323297 0
      vertex -1.20871 -0.478561 10
      vertex -1.20871 -0.478561 0
    endloop
  endfacet
  facet normal -0.982289 0.187374 0
    outer loop
      vertex 1.25916 -0.323297 0
      vertex 1.28975 -0.162932 10
      vertex 1.28975 -0.162932 0
    endloop
  endfacet
  facet normal -0.982289 0.187374 0
    outer loop
      vertex 1.28975 -0.162932 10
      vertex 1.25916 -0.323297 0
      vertex 1.25916 -0.323297 10
    endloop
  endfacet
  facet normal 0.368134 -0.929773 0
    outer loop
      vertex -0.553513 1.17627 0
      vertex -0.401722 1.23637 10
      vertex -0.553513 1.17627 10
    endloop
  endfacet
  facet normal 0.368134 -0.929773 0
    outer loop
      vertex -0.401722 1.23637 10
      vertex -0.553513 1.17627 0
      vertex -0.401722 1.23637 0
    endloop
  endfacet
  facet normal -0.844318 0.535842 0
    outer loop
      vertex 1.05172 -0.76412 0
      vertex 1.1392 -0.626279 10
      vertex 1.1392 -0.626279 0
    endloop
  endfacet
  facet normal -0.844318 0.535842 0
    outer loop
      vertex 1.1392 -0.626279 10
      vertex 1.05172 -0.76412 0
      vertex 1.05172 -0.76412 10
    endloop
  endfacet
  facet normal -0.481714 0.876329 0
    outer loop
      vertex 0.696574 -1.09763 0
      vertex 0.553513 -1.17627 10
      vertex 0.696574 -1.09763 10
    endloop
  endfacet
  facet normal -0.481714 0.876329 0
    outer loop
      vertex 0.553513 -1.17627 10
      vertex 0.696574 -1.09763 0
      vertex 0.553513 -1.17627 0
    endloop
  endfacet
  facet normal -0.904829 0.425775 0
    outer loop
      vertex 1.1392 -0.626279 0
      vertex 1.20871 -0.478561 10
      vertex 1.20871 -0.478561 0
    endloop
  endfacet
  facet normal -0.904829 0.425775 0
    outer loop
      vertex 1.20871 -0.478561 10
      vertex 1.1392 -0.626279 0
      vertex 1.1392 -0.626279 10
    endloop
  endfacet
  facet normal -0.248689 -0.968583 0
    outer loop
      vertex 0.243595 1.27697 0
      vertex 0.401722 1.23637 10
      vertex 0.243595 1.27697 10
    endloop
  endfacet
  facet normal -0.248689 -0.968583 -0
    outer loop
      vertex 0.401722 1.23637 10
      vertex 0.243595 1.27697 0
      vertex 0.401722 1.23637 0
    endloop
  endfacet
  facet normal 0.684554 0.728962 -0
    outer loop
      vertex -0.82865 -1.00167 0
      vertex -0.947659 -0.889911 10
      vertex -0.82865 -1.00167 10
    endloop
  endfacet
  facet normal 0.684554 0.728962 0
    outer loop
      vertex -0.947659 -0.889911 10
      vertex -0.82865 -1.00167 0
      vertex -0.947659 -0.889911 0
    endloop
  endfacet
  facet normal 0.904829 0.425775 0
    outer loop
      vertex -1.1392 -0.626279 10
      vertex -1.20871 -0.478561 0
      vertex -1.20871 -0.478561 10
    endloop
  endfacet
  facet normal 0.904829 0.425775 0
    outer loop
      vertex -1.20871 -0.478561 0
      vertex -1.1392 -0.626279 10
      vertex -1.1392 -0.626279 0
    endloop
  endfacet
  facet normal 0 -1 0
    outer loop
      vertex -0.0816269 1.29743 0
      vertex 0.0816269 1.29743 10
      vertex -0.0816269 1.29743 10
    endloop
  endfacet
  facet normal 0 -1 -0
    outer loop
      vertex 0.0816269 1.29743 10
      vertex -0.0816269 1.29743 0
      vertex 0.0816269 1.29743 0
    endloop
  endfacet
  facet normal -0.951054 0.309026 0
    outer loop
      vertex 1.20871 -0.478561 0
      vertex 1.25916 -0.323297 10
      vertex 1.25916 -0.323297 0
    endloop
  endfacet
  facet normal -0.951054 0.309026 0
    outer loop
      vertex 1.25916 -0.323297 10
      vertex 1.20871 -0.478561 0
      vertex 1.20871 -0.478561 10
    endloop
  endfacet
  facet normal -0.368134 0.929773 0
    outer loop
      vertex 0.553513 -1.17627 0
      vertex 0.401722 -1.23637 10
      vertex 0.553513 -1.17627 10
    endloop
  endfacet
  facet normal -0.368134 0.929773 0
    outer loop
      vertex 0.401722 -1.23637 10
      vertex 0.553513 -1.17627 0
      vertex 0.401722 -1.23637 0
    endloop
  endfacet
  facet normal -0.125325 -0.992116 0
    outer loop
      vertex 0.0816269 1.29743 0
      vertex 0.243595 1.27697 10
      vertex 0.0816269 1.29743 10
    endloop
  endfacet
  facet normal -0.125325 -0.992116 -0
    outer loop
      vertex 0.243595 1.27697 10
      vertex 0.0816269 1.29743 0
      vertex 0.243595 1.27697 0
    endloop
  endfacet
  facet normal -0.368134 -0.929773 0
    outer loop
      vertex 0.401722 1.23637 0
      vertex 0.553513 1.17627 10
      vertex 0.401722 1.23637 10
    endloop
  endfacet
  facet normal -0.368134 -0.929773 -0
    outer loop
      vertex 0.553513 1.17627 10
      vertex 0.401722 1.23637 0
      vertex 0.553513 1.17627 0
    endloop
  endfacet
  facet normal 0.248689 0.968583 -0
    outer loop
      vertex -0.243595 -1.27697 0
      vertex -0.401722 -1.23637 10
      vertex -0.243595 -1.27697 10
    endloop
  endfacet
  facet normal 0.248689 0.968583 0
    outer loop
      vertex -0.401722 -1.23637 10
      vertex -0.243595 -1.27697 0
      vertex -0.401722 -1.23637 0
    endloop
  endfacet
  facet normal -0.684554 0.728962 0
    outer loop
      vertex 0.947659 -0.889911 0
      vertex 0.82865 -1.00167 10
      vertex 0.947659 -0.889911 10
    endloop
  endfacet
  facet normal -0.684554 0.728962 0
    outer loop
      vertex 0.82865 -1.00167 10
      vertex 0.947659 -0.889911 0
      vertex 0.82865 -1.00167 0
    endloop
  endfacet
  facet normal -0.684554 -0.728962 0
    outer loop
      vertex 0.82865 1.00167 0
      vertex 0.947659 0.889911 10
      vertex 0.82865 1.00167 10
    endloop
  endfacet
  facet normal -0.684554 -0.728962 -0
    outer loop
      vertex 0.947659 0.889911 10
      vertex 0.82865 1.00167 0
      vertex 0.947659 0.889911 0
    endloop
  endfacet
  facet normal 0.368134 0.929773 -0
    outer loop
      vertex -0.401722 -1.23637 0
      vertex -0.553513 -1.17627 10
      vertex -0.401722 -1.23637 10
    endloop
  endfacet
  facet normal 0.368134 0.929773 0
    outer loop
      vertex -0.553513 -1.17627 10
      vertex -0.401722 -1.23637 0
      vertex -0.553513 -1.17627 0
    endloop
  endfacet
  facet normal 0.125325 0.992116 -0
    outer loop
      vertex -0.0816269 -1.29743 0
      vertex -0.243595 -1.27697 10
      vertex -0.0816269 -1.29743 10
    endloop
  endfacet
  facet normal 0.125325 0.992116 0
    outer loop
      vertex -0.243595 -1.27697 10
      vertex -0.0816269 -1.29743 0
      vertex -0.243595 -1.27697 0
    endloop
  endfacet
  facet normal 0.998027 0.0627856 0
    outer loop
      vertex -1.28975 -0.162932 10
      vertex -1.3 0 0
      vertex -1.3 0 10
    endloop
  endfacet
  facet normal 0.998027 0.0627856 0
    outer loop
      vertex -1.3 0 0
      vertex -1.28975 -0.162932 10
      vertex -1.28975 -0.162932 0
    endloop
  endfacet
  facet normal 0.125325 -0.992116 0
    outer loop
      vertex -0.243595 1.27697 0
      vertex -0.0816269 1.29743 10
      vertex -0.243595 1.27697 10
    endloop
  endfacet
  facet normal 0.125325 -0.992116 0
    outer loop
      vertex -0.0816269 1.29743 10
      vertex -0.243595 1.27697 0
      vertex -0.0816269 1.29743 0
    endloop
  endfacet
  facet normal 0.844318 -0.535842 0
    outer loop
      vertex -1.1392 0.626279 10
      vertex -1.05172 0.76412 0
      vertex -1.05172 0.76412 10
    endloop
  endfacet
  facet normal 0.844318 -0.535842 0
    outer loop
      vertex -1.05172 0.76412 0
      vertex -1.1392 0.626279 10
      vertex -1.1392 0.626279 0
    endloop
  endfacet
  facet normal 0.982289 0.187374 0
    outer loop
      vertex -1.25916 -0.323297 10
      vertex -1.28975 -0.162932 0
      vertex -1.28975 -0.162932 10
    endloop
  endfacet
  facet normal 0.982289 0.187374 0
    outer loop
      vertex -1.28975 -0.162932 0
      vertex -1.25916 -0.323297 10
      vertex -1.25916 -0.323297 0
    endloop
  endfacet
  facet normal 0.58779 -0.809014 0
    outer loop
      vertex -0.82865 1.00167 0
      vertex -0.696574 1.09763 10
      vertex -0.82865 1.00167 10
    endloop
  endfacet
  facet normal 0.58779 -0.809014 0
    outer loop
      vertex -0.696574 1.09763 10
      vertex -0.82865 1.00167 0
      vertex -0.696574 1.09763 0
    endloop
  endfacet
  facet normal 0.904829 -0.425775 0
    outer loop
      vertex -1.20871 0.478561 10
      vertex -1.1392 0.626279 0
      vertex -1.1392 0.626279 10
    endloop
  endfacet
  facet normal 0.904829 -0.425775 0
    outer loop
      vertex -1.1392 0.626279 0
      vertex -1.20871 0.478561 10
      vertex -1.20871 0.478561 0
    endloop
  endfacet
  facet normal 0.982289 -0.187374 0
    outer loop
      vertex -1.28975 0.162932 10
      vertex -1.25916 0.323297 0
      vertex -1.25916 0.323297 10
    endloop
  endfacet
  facet normal 0.982289 -0.187374 0
    outer loop
      vertex -1.25916 0.323297 0
      vertex -1.28975 0.162932 10
      vertex -1.28975 0.162932 0
    endloop
  endfacet
  facet normal 0.77052 -0.637415 0
    outer loop
      vertex -1.05172 0.76412 10
      vertex -0.947659 0.889911 0
      vertex -0.947659 0.889911 10
    endloop
  endfacet
  facet normal 0.77052 -0.637415 0
    outer loop
      vertex -0.947659 0.889911 0
      vertex -1.05172 0.76412 10
      vertex -1.05172 0.76412 0
    endloop
  endfacet
endsolid OpenSCAD_Model
