solid OpenSCAD_Model
  facet normal 0.77051324 0.637424 0
    outer loop
      vertex 1.2135248 0.8816776 10
      vertex 1.0934525 1.0268202 0
      vertex 1.0934525 1.0268202 10
    endloop
  endfacet
  facet normal 0.77051324 0.637424 0
    outer loop
      vertex 1.0934525 1.0268202 0
      vertex 1.2135248 0.8816776 10
      vertex 1.2135248 0.8816776 0
    endloop
  endfacet
  facet normal 0.24869178 0.9685827 0
    outer loop
      vertex 0.46352482 1.4265842 0
      vertex 0.28107166 1.4734306 10
      vertex 0.46352482 1.4265842 10
    endloop
  endfacet
  facet normal 0.24869178 0.9685827 0
    outer loop
      vertex 0.28107166 1.4734306 10
      vertex 0.46352482 1.4265842 0
      vertex 0.28107166 1.4734306 0
    endloop
  endfacet
  facet normal 0.99802655 0.06279307 0
    outer loop
      vertex 1.5 0 10
      vertex 1.4881716 0.18799973 0
      vertex 1.4881716 0.18799973 10
    endloop
  endfacet
  facet normal 0.99802655 0.06279307 0
    outer loop
      vertex 1.4881716 0.18799973 0
      vertex 1.5 0 10
      vertex 1.5 0 0
    endloop
  endfacet
  facet normal 0.48175356 -0.8763068 0
    outer loop
      vertex 0.63866806 -1.3572397 0
      vertex 0.80373955 -1.2664909 10
      vertex 0.63866806 -1.3572397 10
    endloop
  endfacet
  facet normal 0.48175356 -0.8763068 0
    outer loop
      vertex 0.80373955 -1.2664909 10
      vertex 0.63866806 -1.3572397 0
      vertex 0.80373955 -1.2664909 0
    endloop
  endfacet
  facet normal 0 0 1
    outer loop
      vertex 1.2999992 0 10
      vertex 1.5 0 10
      vertex 1.4881716 0.18799973 10
    endloop
  endfacet
  facet normal 0 0 1
    outer loop
      vertex 1.2897482 0.1629324 10
      vertex 1.4881716 0.18799973 10
      vertex 1.4528742 0.37303448 10
    endloop
  endfacet
  facet normal 0 0 1
    outer loop
      vertex 1.5 0 10
      vertex 1.2999992 0 10
      vertex 1.4881716 -0.18799973 10
    endloop
  endfacet
  facet normal 0 0 1
    outer loop
      vertex 1.2591572 0.32329655 10
      vertex 1.4528742 0.37303448 10
      vertex 1.3946638 0.552186 10
    endloop
  endfacet
  facet normal 0 0 1
    outer loop
      vertex 1.2897482 -0.1629324 10
      vertex 1.4881716 -0.18799973 10
      vertex 1.2999992 0 10
    endloop
  endfacet
  facet normal 0 0 1
    outer loop
      vertex 1.2087088 0.4785614 10
      vertex 1.3946638 0.552186 10
      vertex 1.3144598 0.7226305 10
    endloop
  endfacet
  facet normal 0 0 1
    outer loop
      vertex 1.4881716 -0.18799973 10
      vertex 1.2897482 -0.1629324 10
      vertex 1.4528742 -0.37303448 10
    endloop
  endfacet
  facet normal 0 0 1
    outer loop
      vertex 1.2591572 -0.32329655 10
      vertex 1.4528742 -0.37303448 10
      vertex 1.2897482 -0.1629324 10
    endloop
  endfacet
  facet normal 0 0 1
    outer loop
      vertex 1.4881716 0.18799973 10
      vertex 1.2897482 0.1629324 10
      vertex 1.2999992 0 10
    endloop
  endfacet
  facet normal 0 0 1
    outer loop
      vertex 1.4528742 0.37303448 10
      vertex 1.2591572 0.32329655 10
      vertex 1.2897482 0.1629324 10
    endloop
  endfacet
  facet normal 0 0 1
    outer loop
      vertex 1.1391983 0.6262789 10
      vertex 1.3144598 0.7226305 10
      vertex 1.2135248 0.8816776 10
    endloop
  endfacet
  facet normal 0 0 1
    outer loop
      vertex 1.3946638 0.552186 10
      vertex 1.2087088 0.4785614 10
      vertex 1.2591572 0.32329655 10
    endloop
  endfacet
  facet normal 0 0 1
    outer loop
      vertex 1.3144598 0.7226305 10
      vertex 1.1391983 0.6262789 10
      vertex 1.2087088 0.4785614 10
    endloop
  endfacet
  facet normal 0 0 1
    outer loop
      vertex 1.0517216 0.7641201 10
      vertex 1.2135248 0.8816776 10
      vertex 1.0934525 1.0268202 10
    endloop
  endfacet
  facet normal 0 0 1
    outer loop
      vertex 1.2135248 0.8816776 10
      vertex 1.0517216 0.7641201 10
      vertex 1.1391983 0.6262789 10
    endloop
  endfacet
  facet normal 0 0 1
    outer loop
      vertex 0.94765854 0.8899107 10
      vertex 1.0934525 1.0268202 10
      vertex 0.95613575 1.1557693 10
    endloop
  endfacet
  facet normal 0 0 1
    outer loop
      vertex 1.0934525 1.0268202 10
      vertex 0.94765854 0.8899107 10
      vertex 1.0517216 0.7641201 10
    endloop
  endfacet
  facet normal 0 0 1
    outer loop
      vertex 0.95613575 1.1557693 10
      vertex 0.8286505 1.001667 10
      vertex 0.94765854 0.8899107 10
    endloop
  endfacet
  facet normal 0 0 1
    outer loop
      vertex 0.80373955 1.2664909 10
      vertex 0.8286505 1.001667 10
      vertex 0.95613575 1.1557693 10
    endloop
  endfacet
  facet normal 0 0 1
    outer loop
      vertex 0.80373955 1.2664909 10
      vertex 0.6965742 1.0976257 10
      vertex 0.8286505 1.001667 10
    endloop
  endfacet
  facet normal 0 0 1
    outer loop
      vertex 0.63866806 1.3572397 10
      vertex 0.6965742 1.0976257 10
      vertex 0.80373955 1.2664909 10
    endloop
  endfacet
  facet normal 0 0 1
    outer loop
      vertex 0.63866806 1.3572397 10
      vertex 0.5535126 1.1762743 10
      vertex 0.6965742 1.0976257 10
    endloop
  endfacet
  facet normal 0 0 1
    outer loop
      vertex 0.46352482 1.4265842 10
      vertex 0.5535126 1.1762743 10
      vertex 0.63866806 1.3572397 10
    endloop
  endfacet
  facet normal 0 0 1
    outer loop
      vertex 0.46352482 1.4265842 10
      vertex 0.40172195 1.236373 10
      vertex 0.5535126 1.1762743 10
    endloop
  endfacet
  facet normal 0 0 1
    outer loop
      vertex 0.28107166 1.4734306 10
      vertex 0.40172195 1.236373 10
      vertex 0.46352482 1.4265842 10
    endloop
  endfacet
  facet normal 0 0 1
    outer loop
      vertex 0.28107166 1.4734306 10
      vertex 0.24359512 1.2769728 10
      vertex 0.40172195 1.236373 10
    endloop
  endfacet
  facet normal 0 0 1
    outer loop
      vertex 0.094184875 1.4970398 10
      vertex 0.24359512 1.2769728 10
      vertex 0.28107166 1.4734306 10
    endloop
  endfacet
  facet normal 0 0 1
    outer loop
      vertex 0.094184875 1.4970398 10
      vertex 0.08162689 1.2974339 10
      vertex 0.24359512 1.2769728 10
    endloop
  endfacet
  facet normal 0 0 1
    outer loop
      vertex 0.094184875 1.4970398 10
      vertex -0.08162689 1.2974339 10
      vertex 0.08162689 1.2974339 10
    endloop
  endfacet
  facet normal 0 0 1
    outer loop
      vertex -0.094184875 1.4970398 10
      vertex -0.08162689 1.2974339 10
      vertex 0.094184875 1.4970398 10
    endloop
  endfacet
  facet normal 0 0 1
    outer loop
      vertex -0.094184875 1.4970398 10
      vertex -0.24359512 1.2769728 10
      vertex -0.08162689 1.2974339 10
    endloop
  endfacet
  facet normal 0 0 1
    outer loop
      vertex -0.28107166 1.4734306 10
      vertex -0.24359512 1.2769728 10
      vertex -0.094184875 1.4970398 10
    endloop
  endfacet
  facet normal 0 0 1
    outer loop
      vertex -0.28107166 1.4734306 10
      vertex -0.40172195 1.236373 10
      vertex -0.24359512 1.2769728 10
    endloop
  endfacet
  facet normal 0 0 1
    outer loop
      vertex -0.46352482 1.4265842 10
      vertex -0.40172195 1.236373 10
      vertex -0.28107166 1.4734306 10
    endloop
  endfacet
  facet normal 0 0 1
    outer loop
      vertex -0.46352482 1.4265842 10
      vertex -0.5535126 1.1762743 10
      vertex -0.40172195 1.236373 10
    endloop
  endfacet
  facet normal 0 0 1
    outer loop
      vertex -0.63866806 1.3572397 10
      vertex -0.5535126 1.1762743 10
      vertex -0.46352482 1.4265842 10
    endloop
  endfacet
  facet normal 0 0 1
    outer loop
      vertex -0.63866806 1.3572397 10
      vertex -0.6965742 1.0976257 10
      vertex -0.5535126 1.1762743 10
    endloop
  endfacet
  facet normal 0 0 1
    outer loop
      vertex -0.80373955 1.2664909 10
      vertex -0.6965742 1.0976257 10
      vertex -0.63866806 1.3572397 10
    endloop
  endfacet
  facet normal 0 0 1
    outer loop
      vertex -0.80373955 1.2664909 10
      vertex -0.8286505 1.001667 10
      vertex -0.6965742 1.0976257 10
    endloop
  endfacet
  facet normal 0 0 1
    outer loop
      vertex -0.95613575 1.1557693 10
      vertex -0.8286505 1.001667 10
      vertex -0.80373955 1.2664909 10
    endloop
  endfacet
  facet normal 0 0 1
    outer loop
      vertex -0.8286505 1.001667 10
      vertex -0.95613575 1.1557693 10
      vertex -0.94765854 0.8899107 10
    endloop
  endfacet
  facet normal 0 0 1
    outer loop
      vertex -1.0934525 1.0268202 10
      vertex -0.94765854 0.8899107 10
      vertex -0.95613575 1.1557693 10
    endloop
  endfacet
  facet normal 0 0 1
    outer loop
      vertex -0.94765854 0.8899107 10
      vertex -1.0934525 1.0268202 10
      vertex -1.0517216 0.7641201 10
    endloop
  endfacet
  facet normal 0 0 1
    outer loop
      vertex -1.2135248 0.8816776 10
      vertex -1.0517216 0.7641201 10
      vertex -1.0934525 1.0268202 10
    endloop
  endfacet
  facet normal 0 0 1
    outer loop
      vertex -1.0517216 0.7641201 10
      vertex -1.2135248 0.8816776 10
      vertex -1.1391983 0.6262789 10
    endloop
  endfacet
  facet normal 0 0 1
    outer loop
      vertex -1.3144598 0.7226305 10
      vertex -1.1391983 0.6262789 10
      vertex -1.2135248 0.8816776 10
    endloop
  endfacet
  facet normal 0 0 1
    outer loop
      vertex -1.1391983 0.6262789 10
      vertex -1.3144598 0.7226305 10
      vertex -1.2087088 0.4785614 10
    endloop
  endfacet
  facet normal 0 0 1
    outer loop
      vertex -1.3946638 0.552186 10
      vertex -1.2087088 0.4785614 10
      vertex -1.3144598 0.7226305 10
    endloop
  endfacet
  facet normal 0 0 1
    outer loop
      vertex -1.4528742 0.37303448 10
      vertex -1.2591572 0.32329655 10
      vertex -1.3946638 0.552186 10
    endloop
  endfacet
  facet normal 0 0 1
    outer loop
      vertex -1.2087088 0.4785614 10
      vertex -1.3946638 0.552186 10
      vertex -1.2591572 0.32329655 10
    endloop
  endfacet
  facet normal 0 0 1
    outer loop
      vertex 1.4528742 -0.37303448 10
      vertex 1.2591572 -0.32329655 10
      vertex 1.3946638 -0.552186 10
    endloop
  endfacet
  facet normal 0 0 1
    outer loop
      vertex 1.2087088 -0.4785614 10
      vertex 1.3946638 -0.552186 10
      vertex 1.2591572 -0.32329655 10
    endloop
  endfacet
  facet normal 0 0 1
    outer loop
      vertex 1.3946638 -0.552186 10
      vertex 1.2087088 -0.4785614 10
      vertex 1.3144598 -0.7226305 10
    endloop
  endfacet
  facet normal 0 0 1
    outer loop
      vertex 1.1391983 -0.6262789 10
      vertex 1.3144598 -0.7226305 10
      vertex 1.2087088 -0.4785614 10
    endloop
  endfacet
  facet normal 0 0 1
    outer loop
      vertex 1.3144598 -0.7226305 10
      vertex 1.1391983 -0.6262789 10
      vertex 1.2135248 -0.8816776 10
    endloop
  endfacet
  facet normal 0 0 1
    outer loop
      vertex 1.0517216 -0.7641201 10
      vertex 1.2135248 -0.8816776 10
      vertex 1.1391983 -0.6262789 10
    endloop
  endfacet
  facet normal 0 0 1
    outer loop
      vertex 1.2135248 -0.8816776 10
      vertex 1.0517216 -0.7641201 10
      vertex 1.0934525 -1.0268202 10
    endloop
  endfacet
  facet normal 0 0 1
    outer loop
      vertex 0.94765854 -0.8899107 10
      vertex 1.0934525 -1.0268202 10
      vertex 1.0517216 -0.7641201 10
    endloop
  endfacet
  facet normal 0 0 1
    outer loop
      vertex 1.0934525 -1.0268202 10
      vertex 0.94765854 -0.8899107 10
      vertex 0.95613575 -1.1557693 10
    endloop
  endfacet
  facet normal 0 0 1
    outer loop
      vertex 0.8286505 -1.001667 10
      vertex 0.95613575 -1.1557693 10
      vertex 0.94765854 -0.8899107 10
    endloop
  endfacet
  facet normal 0 0 1
    outer loop
      vertex 0.8286505 -1.001667 10
      vertex 0.80373955 -1.2664909 10
      vertex 0.95613575 -1.1557693 10
    endloop
  endfacet
  facet normal 0 0 1
    outer loop
      vertex 0.6965742 -1.0976257 10
      vertex 0.80373955 -1.2664909 10
      vertex 0.8286505 -1.001667 10
    endloop
  endfacet
  facet normal 0 0 1
    outer loop
      vertex 0.6965742 -1.0976257 10
      vertex 0.63866806 -1.3572397 10
      vertex 0.80373955 -1.2664909 10
    endloop
  endfacet
  facet normal 0 0 1
    outer loop
      vertex 0.5535126 -1.1762743 10
      vertex 0.63866806 -1.3572397 10
      vertex 0.6965742 -1.0976257 10
    endloop
  endfacet
  facet normal 0 0 1
    outer loop
      vertex 0.5535126 -1.1762743 10
      vertex 0.46352482 -1.4265842 10
      vertex 0.63866806 -1.3572397 10
    endloop
  endfacet
  facet normal 0 0 1
    outer loop
      vertex 0.40172195 -1.236373 10
      vertex 0.46352482 -1.4265842 10
      vertex 0.5535126 -1.1762743 10
    endloop
  endfacet
  facet normal 0 0 1
    outer loop
      vertex 0.40172195 -1.236373 10
      vertex 0.28107166 -1.4734306 10
      vertex 0.46352482 -1.4265842 10
    endloop
  endfacet
  facet normal 0 0 1
    outer loop
      vertex 0.24359512 -1.2769728 10
      vertex 0.28107166 -1.4734306 10
      vertex 0.40172195 -1.236373 10
    endloop
  endfacet
  facet normal 0 0 1
    outer loop
      vertex 0.24359512 -1.2769728 10
      vertex 0.094184875 -1.4970398 10
      vertex 0.28107166 -1.4734306 10
    endloop
  endfacet
  facet normal 0 0 1
    outer loop
      vertex 0.08162689 -1.2974339 10
      vertex 0.094184875 -1.4970398 10
      vertex 0.24359512 -1.2769728 10
    endloop
  endfacet
  facet normal 0 0 1
    outer loop
      vertex -0.08162689 -1.2974339 10
      vertex 0.094184875 -1.4970398 10
      vertex 0.08162689 -1.2974339 10
    endloop
  endfacet
  facet normal 0 0 1
    outer loop
      vertex -0.08162689 -1.2974339 10
      vertex -0.094184875 -1.4970398 10
      vertex 0.094184875 -1.4970398 10
    endloop
  endfacet
  facet normal 0 0 1
    outer loop
      vertex -0.24359512 -1.2769728 10
      vertex -0.094184875 -1.4970398 10
      vertex -0.08162689 -1.2974339 10
    endloop
  endfacet
  facet normal 0 0 1
    outer loop
      vertex -0.24359512 -1.2769728 10
      vertex -0.28107166 -1.4734306 10
      vertex -0.094184875 -1.4970398 10
    endloop
  endfacet
  facet normal 0 0 1
    outer loop
      vertex -0.40172195 -1.236373 10
      vertex -0.28107166 -1.4734306 10
      vertex -0.24359512 -1.2769728 10
    endloop
  endfacet
  facet normal 0 0 1
    outer loop
      vertex -0.40172195 -1.236373 10
      vertex -0.46352482 -1.4265842 10
      vertex -0.28107166 -1.4734306 10
    endloop
  endfacet
  facet normal 0 0 1
    outer loop
      vertex -0.5535126 -1.1762743 10
      vertex -0.46352482 -1.4265842 10
      vertex -0.40172195 -1.236373 10
    endloop
  endfacet
  facet normal 0 0 1
    outer loop
      vertex -0.5535126 -1.1762743 10
      vertex -0.63866806 -1.3572397 10
      vertex -0.46352482 -1.4265842 10
    endloop
  endfacet
  facet normal 0 0 1
    outer loop
      vertex -0.6965742 -1.0976257 10
      vertex -0.63866806 -1.3572397 10
      vertex -0.5535126 -1.1762743 10
    endloop
  endfacet
  facet normal 0 0 1
    outer loop
      vertex -0.6965742 -1.0976257 10
      vertex -0.80373955 -1.2664909 10
      vertex -0.63866806 -1.3572397 10
    endloop
  endfacet
  facet normal 0 0 1
    outer loop
      vertex -0.8286505 -1.001667 10
      vertex -0.80373955 -1.2664909 10
      vertex -0.6965742 -1.0976257 10
    endloop
  endfacet
  facet normal 0 0 1
    outer loop
      vertex -0.95613575 -1.1557693 10
      vertex -0.8286505 -1.001667 10
      vertex -0.94765854 -0.8899107 10
    endloop
  endfacet
  facet normal 0 0 1
    outer loop
      vertex -0.8286505 -1.001667 10
      vertex -0.95613575 -1.1557693 10
      vertex -0.80373955 -1.2664909 10
    endloop
  endfacet
  facet normal 0 0 1
    outer loop
      vertex -1.0934525 -1.0268202 10
      vertex -0.94765854 -0.8899107 10
      vertex -1.0517216 -0.7641201 10
    endloop
  endfacet
  facet normal 0 0 1
    outer loop
      vertex -0.94765854 -0.8899107 10
      vertex -1.0934525 -1.0268202 10
      vertex -0.95613575 -1.1557693 10
    endloop
  endfacet
  facet normal 0 0 1
    outer loop
      vertex -1.2135248 -0.8816776 10
      vertex -1.0517216 -0.7641201 10
      vertex -1.1391983 -0.6262789 10
    endloop
  endfacet
  facet normal 0 0 1
    outer loop
      vertex -1.3144598 -0.7226305 10
      vertex -1.1391983 -0.6262789 10
      vertex -1.2087088 -0.4785614 10
    endloop
  endfacet
  facet normal 0 0 1
    outer loop
      vertex -1.0517216 -0.7641201 10
      vertex -1.2135248 -0.8816776 10
      vertex -1.0934525 -1.0268202 10
    endloop
  endfacet
  facet normal 0 0 1
    outer loop
      vertex -1.3946638 -0.552186 10
      vertex -1.2087088 -0.4785614 10
      vertex -1.2591572 -0.32329655 10
    endloop
  endfacet
  facet normal 0 0 1
    outer loop
      vertex -1.4528742 -0.37303448 10
      vertex -1.2591572 -0.32329655 10
      vertex -1.2897482 -0.1629324 10
    endloop
  endfacet
  facet normal 0 0 1
    outer loop
      vertex -1.1391983 -0.6262789 10
      vertex -1.3144598 -0.7226305 10
      vertex -1.2135248 -0.8816776 10
    endloop
  endfacet
  facet normal 0 0 1
    outer loop
      vertex -1.4881716 -0.18799973 10
      vertex -1.2897482 -0.1629324 10
      vertex -1.2999992 0 10
    endloop
  endfacet
  facet normal 0 0 1
    outer loop
      vertex -1.2591572 0.32329655 10
      vertex -1.4528742 0.37303448 10
      vertex -1.2897482 0.1629324 10
    endloop
  endfacet
  facet normal 0 0 1
    outer loop
      vertex -1.4881716 0.18799973 10
      vertex -1.2897482 0.1629324 10
      vertex -1.4528742 0.37303448 10
    endloop
  endfacet
  facet normal 0 0 1
    outer loop
      vertex -1.2087088 -0.4785614 10
      vertex -1.3946638 -0.552186 10
      vertex -1.3144598 -0.7226305 10
    endloop
  endfacet
  facet normal 0 0 1
    outer loop
      vertex -1.2897482 0.1629324 10
      vertex -1.4881716 0.18799973 10
      vertex -1.2999992 0 10
    endloop
  endfacet
  facet normal 0 0 1
    outer loop
      vertex -1.2591572 -0.32329655 10
      vertex -1.4528742 -0.37303448 10
      vertex -1.3946638 -0.552186 10
    endloop
  endfacet
  facet normal 0 0 1
    outer loop
      vertex -1.5 0 10
      vertex -1.2999992 0 10
      vertex -1.4881716 0.18799973 10
    endloop
  endfacet
  facet normal 0 0 1
    outer loop
      vertex -1.2897482 -0.1629324 10
      vertex -1.4881716 -0.18799973 10
      vertex -1.4528742 -0.37303448 10
    endloop
  endfacet
  facet normal 0 0 1
    outer loop
      vertex -1.2999992 0 10
      vertex -1.5 0 10
      vertex -1.4881716 -0.18799973 10
    endloop
  endfacet
  facet normal 0.36812642 -0.9297758 0
    outer loop
      vertex 0.46352482 -1.4265842 0
      vertex 0.63866806 -1.3572397 10
      vertex 0.46352482 -1.4265842 10
    endloop
  endfacet
  facet normal 0.36812642 -0.9297758 0
    outer loop
      vertex 0.63866806 -1.3572397 10
      vertex 0.46352482 -1.4265842 0
      vertex 0.63866806 -1.3572397 0
    endloop
  endfacet
  facet normal -0.68454766 -0.7289681 0
    outer loop
      vertex -1.0934525 -1.0268202 0
      vertex -0.95613575 -1.1557693 10
      vertex -1.0934525 -1.0268202 10
    endloop
  endfacet
  facet normal -0.68454766 -0.7289681 0
    outer loop
      vertex -0.95613575 -1.1557693 10
      vertex -1.0934525 -1.0268202 0
      vertex -0.95613575 -1.1557693 0
    endloop
  endfacet
  facet normal 0 1 0
    outer loop
      vertex 0.094184875 1.4970398 0
      vertex -0.094184875 1.4970398 10
      vertex 0.094184875 1.4970398 10
    endloop
  endfacet
  facet normal 0 1 0
    outer loop
      vertex -0.094184875 1.4970398 10
      vertex 0.094184875 1.4970398 0
      vertex -0.094184875 1.4970398 0
    endloop
  endfacet
  facet normal -0.48175356 -0.8763068 0
    outer loop
      vertex -0.80373955 -1.2664909 0
      vertex -0.63866806 -1.3572397 10
      vertex -0.80373955 -1.2664909 10
    endloop
  endfacet
  facet normal -0.48175356 -0.8763068 0
    outer loop
      vertex -0.63866806 -1.3572397 10
      vertex -0.80373955 -1.2664909 0
      vertex -0.63866806 -1.3572397 0
    endloop
  endfacet
  facet normal 0.12533255 -0.9921148 0
    outer loop
      vertex 0.094184875 -1.4970398 0
      vertex 0.28107166 -1.4734306 10
      vertex 0.094184875 -1.4970398 10
    endloop
  endfacet
  facet normal 0.12533255 -0.9921148 0
    outer loop
      vertex 0.28107166 -1.4734306 10
      vertex 0.094184875 -1.4970398 0
      vertex 0.28107166 -1.4734306 0
    endloop
  endfacet
  facet normal -0.8443265 -0.53582907 0
    outer loop
      vertex -1.2135248 -0.8816776 0
      vertex -1.3144598 -0.7226305 10
      vertex -1.3144598 -0.7226305 0
    endloop
  endfacet
  facet normal -0.8443265 -0.53582907 0
    outer loop
      vertex -1.3144598 -0.7226305 10
      vertex -1.2135248 -0.8816776 0
      vertex -1.2135248 -0.8816776 10
    endloop
  endfacet
  facet normal 0.90482926 -0.4257746 0
    outer loop
      vertex 1.3144598 -0.7226305 10
      vertex 1.3946638 -0.552186 0
      vertex 1.3946638 -0.552186 10
    endloop
  endfacet
  facet normal 0.90482926 -0.4257746 0
    outer loop
      vertex 1.3946638 -0.552186 0
      vertex 1.3144598 -0.7226305 10
      vertex 1.3144598 -0.7226305 0
    endloop
  endfacet
  facet normal 0.99802655 -0.06279307 0
    outer loop
      vertex 1.4881716 -0.18799973 10
      vertex 1.5 0 0
      vertex 1.5 0 10
    endloop
  endfacet
  facet normal 0.99802655 -0.06279307 0
    outer loop
      vertex 1.5 0 0
      vertex 1.4881716 -0.18799973 10
      vertex 1.4881716 -0.18799973 0
    endloop
  endfacet
  facet normal 0 -1 0
    outer loop
      vertex -0.094184875 -1.4970398 0
      vertex 0.094184875 -1.4970398 10
      vertex -0.094184875 -1.4970398 10
    endloop
  endfacet
  facet normal 0 -1 0
    outer loop
      vertex 0.094184875 -1.4970398 10
      vertex -0.094184875 -1.4970398 0
      vertex 0.094184875 -1.4970398 0
    endloop
  endfacet
  facet normal -0.12533255 0.9921148 0
    outer loop
      vertex -0.094184875 1.4970398 0
      vertex -0.28107166 1.4734306 10
      vertex -0.094184875 1.4970398 10
    endloop
  endfacet
  facet normal -0.12533255 0.9921148 0
    outer loop
      vertex -0.28107166 1.4734306 10
      vertex -0.094184875 1.4970398 0
      vertex -0.28107166 1.4734306 0
    endloop
  endfacet
  facet normal 0.48175356 0.8763068 0
    outer loop
      vertex 0.80373955 1.2664909 0
      vertex 0.63866806 1.3572397 10
      vertex 0.80373955 1.2664909 10
    endloop
  endfacet
  facet normal 0.48175356 0.8763068 0
    outer loop
      vertex 0.63866806 1.3572397 10
      vertex 0.80373955 1.2664909 0
      vertex 0.63866806 1.3572397 0
    endloop
  endfacet
  facet normal -0.12533255 -0.9921148 0
    outer loop
      vertex -0.28107166 -1.4734306 0
      vertex -0.094184875 -1.4970398 10
      vertex -0.28107166 -1.4734306 10
    endloop
  endfacet
  facet normal -0.12533255 -0.9921148 0
    outer loop
      vertex -0.094184875 -1.4970398 10
      vertex -0.28107166 -1.4734306 0
      vertex -0.094184875 -1.4970398 0
    endloop
  endfacet
  facet normal 0.68454766 -0.7289681 0
    outer loop
      vertex 0.95613575 -1.1557693 0
      vertex 1.0934525 -1.0268202 10
      vertex 0.95613575 -1.1557693 10
    endloop
  endfacet
  facet normal 0.68454766 -0.7289681 0
    outer loop
      vertex 1.0934525 -1.0268202 10
      vertex 0.95613575 -1.1557693 0
      vertex 1.0934525 -1.0268202 0
    endloop
  endfacet
  facet normal -0.68454766 0.7289681 0
    outer loop
      vertex -0.95613575 1.1557693 0
      vertex -1.0934525 1.0268202 10
      vertex -0.95613575 1.1557693 10
    endloop
  endfacet
  facet normal -0.68454766 0.7289681 0
    outer loop
      vertex -1.0934525 1.0268202 10
      vertex -0.95613575 1.1557693 0
      vertex -1.0934525 1.0268202 0
    endloop
  endfacet
  facet normal 0.9822871 -0.18738197 0
    outer loop
      vertex 1.4528742 -0.37303448 10
      vertex 1.4881716 -0.18799973 0
      vertex 1.4881716 -0.18799973 10
    endloop
  endfacet
  facet normal 0.9822871 -0.18738197 0
    outer loop
      vertex 1.4881716 -0.18799973 0
      vertex 1.4528742 -0.37303448 10
      vertex 1.4528742 -0.37303448 0
    endloop
  endfacet
  facet normal 0.9822871 0.18738197 0
    outer loop
      vertex 1.4881716 0.18799973 10
      vertex 1.4528742 0.37303448 0
      vertex 1.4528742 0.37303448 10
    endloop
  endfacet
  facet normal 0.9822871 0.18738197 0
    outer loop
      vertex 1.4528742 0.37303448 0
      vertex 1.4881716 0.18799973 10
      vertex 1.4881716 0.18799973 0
    endloop
  endfacet
  facet normal 0.90482926 0.4257746 0
    outer loop
      vertex 1.3946638 0.552186 10
      vertex 1.3144598 0.7226305 0
      vertex 1.3144598 0.7226305 10
    endloop
  endfacet
  facet normal 0.90482926 0.4257746 0
    outer loop
      vertex 1.3144598 0.7226305 0
      vertex 1.3946638 0.552186 10
      vertex 1.3946638 0.552186 0
    endloop
  endfacet
  facet normal -0.8443265 0.53582907 0
    outer loop
      vertex -1.3144598 0.7226305 0
      vertex -1.2135248 0.8816776 10
      vertex -1.2135248 0.8816776 0
    endloop
  endfacet
  facet normal -0.8443265 0.53582907 0
    outer loop
      vertex -1.2135248 0.8816776 10
      vertex -1.3144598 0.7226305 0
      vertex -1.3144598 0.7226305 10
    endloop
  endfacet
  facet normal -0.90482926 -0.4257746 0
    outer loop
      vertex -1.3144598 -0.7226305 0
      vertex -1.3946638 -0.552186 10
      vertex -1.3946638 -0.552186 0
    endloop
  endfacet
  facet normal -0.90482926 -0.4257746 0
    outer loop
      vertex -1.3946638 -0.552186 10
      vertex -1.3144598 -0.7226305 0
      vertex -1.3144598 -0.7226305 10
    endloop
  endfacet
  facet normal -0.77051324 0.637424 0
    outer loop
      vertex -1.2135248 0.8816776 0
      vertex -1.0934525 1.0268202 10
      vertex -1.0934525 1.0268202 0
    endloop
  endfacet
  facet normal -0.77051324 0.637424 0
    outer loop
      vertex -1.0934525 1.0268202 10
      vertex -1.2135248 0.8816776 0
      vertex -1.2135248 0.8816776 10
    endloop
  endfacet
  facet normal -0.90482926 0.4257746 0
    outer loop
      vertex -1.3946638 0.552186 0
      vertex -1.3144598 0.7226305 10
      vertex -1.3144598 0.7226305 0
    endloop
  endfacet
  facet normal -0.90482926 0.4257746 0
    outer loop
      vertex -1.3144598 0.7226305 10
      vertex -1.3946638 0.552186 0
      vertex -1.3946638 0.552186 10
    endloop
  endfacet
  facet normal 0.8443265 -0.53582907 0
    outer loop
      vertex 1.2135248 -0.8816776 10
      vertex 1.3144598 -0.7226305 0
      vertex 1.3144598 -0.7226305 10
    endloop
  endfacet
  facet normal 0.8443265 -0.53582907 0
    outer loop
      vertex 1.3144598 -0.7226305 0
      vertex 1.2135248 -0.8816776 10
      vertex 1.2135248 -0.8816776 0
    endloop
  endfacet
  facet normal -0.99802655 0.06279307 0
    outer loop
      vertex -1.5 0 0
      vertex -1.4881716 0.18799973 10
      vertex -1.4881716 0.18799973 0
    endloop
  endfacet
  facet normal -0.99802655 0.06279307 0
    outer loop
      vertex -1.4881716 0.18799973 10
      vertex -1.5 0 0
      vertex -1.5 0 10
    endloop
  endfacet
  facet normal -0.99802655 -0.06279307 0
    outer loop
      vertex -1.4881716 -0.18799973 0
      vertex -1.5 0 10
      vertex -1.5 0 0
    endloop
  endfacet
  facet normal -0.99802655 -0.06279307 0
    outer loop
      vertex -1.5 0 10
      vertex -1.4881716 -0.18799973 0
      vertex -1.4881716 -0.18799973 10
    endloop
  endfacet
  facet normal 0.68454766 0.7289681 0
    outer loop
      vertex 1.0934525 1.0268202 0
      vertex 0.95613575 1.1557693 10
      vertex 1.0934525 1.0268202 10
    endloop
  endfacet
  facet normal 0.68454766 0.7289681 0
    outer loop
      vertex 0.95613575 1.1557693 10
      vertex 1.0934525 1.0268202 0
      vertex 0.95613575 1.1557693 0
    endloop
  endfacet
  facet normal 0.8443265 0.53582907 0
    outer loop
      vertex 1.3144598 0.7226305 10
      vertex 1.2135248 0.8816776 0
      vertex 1.2135248 0.8816776 10
    endloop
  endfacet
  facet normal 0.8443265 0.53582907 0
    outer loop
      vertex 1.2135248 0.8816776 0
      vertex 1.3144598 0.7226305 10
      vertex 1.3144598 0.7226305 0
    endloop
  endfacet
  facet normal 0.12533255 0.9921148 0
    outer loop
      vertex 0.28107166 1.4734306 0
      vertex 0.094184875 1.4970398 10
      vertex 0.28107166 1.4734306 10
    endloop
  endfacet
  facet normal 0.12533255 0.9921148 0
    outer loop
      vertex 0.094184875 1.4970398 10
      vertex 0.28107166 1.4734306 0
      vertex 0.094184875 1.4970398 0
    endloop
  endfacet
  facet normal 0.9510557 0.30901945 0
    outer loop
      vertex 1.4528742 0.37303448 10
      vertex 1.3946638 0.552186 0
      vertex 1.3946638 0.552186 10
    endloop
  endfacet
  facet normal 0.9510557 0.30901945 0
    outer loop
      vertex 1.3946638 0.552186 0
      vertex 1.4528742 0.37303448 10
      vertex 1.4528742 0.37303448 0
    endloop
  endfacet
  facet normal -0.9510557 -0.30901945 0
    outer loop
      vertex -1.3946638 -0.552186 0
      vertex -1.4528742 -0.37303448 10
      vertex -1.4528742 -0.37303448 0
    endloop
  endfacet
  facet normal -0.9510557 -0.30901945 0
    outer loop
      vertex -1.4528742 -0.37303448 10
      vertex -1.3946638 -0.552186 0
      vertex -1.3946638 -0.552186 10
    endloop
  endfacet
  facet normal -0.24869178 -0.9685827 0
    outer loop
      vertex -0.46352482 -1.4265842 0
      vertex -0.28107166 -1.4734306 10
      vertex -0.46352482 -1.4265842 10
    endloop
  endfacet
  facet normal -0.24869178 -0.9685827 0
    outer loop
      vertex -0.28107166 -1.4734306 10
      vertex -0.46352482 -1.4265842 0
      vertex -0.28107166 -1.4734306 0
    endloop
  endfacet
  facet normal 0.36812642 0.9297758 0
    outer loop
      vertex 0.63866806 1.3572397 0
      vertex 0.46352482 1.4265842 10
      vertex 0.63866806 1.3572397 10
    endloop
  endfacet
  facet normal 0.36812642 0.9297758 0
    outer loop
      vertex 0.46352482 1.4265842 10
      vertex 0.63866806 1.3572397 0
      vertex 0.46352482 1.4265842 0
    endloop
  endfacet
  facet normal 0.24869178 -0.9685827 0
    outer loop
      vertex 0.28107166 -1.4734306 0
      vertex 0.46352482 -1.4265842 10
      vertex 0.28107166 -1.4734306 10
    endloop
  endfacet
  facet normal 0.24869178 -0.9685827 0
    outer loop
      vertex 0.46352482 -1.4265842 10
      vertex 0.28107166 -1.4734306 0
      vertex 0.46352482 -1.4265842 0
    endloop
  endfacet
  facet normal 0.5877827 0.80901885 0
    outer loop
      vertex 0.95613575 1.1557693 0
      vertex 0.80373955 1.2664909 10
      vertex 0.95613575 1.1557693 10
    endloop
  endfacet
  facet normal 0.5877827 0.80901885 0
    outer loop
      vertex 0.80373955 1.2664909 10
      vertex 0.95613575 1.1557693 0
      vertex 0.80373955 1.2664909 0
    endloop
  endfacet
  facet normal 0.9510557 -0.30901945 0
    outer loop
      vertex 1.3946638 -0.552186 10
      vertex 1.4528742 -0.37303448 0
      vertex 1.4528742 -0.37303448 10
    endloop
  endfacet
  facet normal 0.9510557 -0.30901945 0
    outer loop
      vertex 1.4528742 -0.37303448 0
      vertex 1.3946638 -0.552186 10
      vertex 1.3946638 -0.552186 0
    endloop
  endfacet
  facet normal -0.77051324 -0.637424 0
    outer loop
      vertex -1.0934525 -1.0268202 0
      vertex -1.2135248 -0.8816776 10
      vertex -1.2135248 -0.8816776 0
    endloop
  endfacet
  facet normal -0.77051324 -0.637424 0
    outer loop
      vertex -1.2135248 -0.8816776 10
      vertex -1.0934525 -1.0268202 0
      vertex -1.0934525 -1.0268202 10
    endloop
  endfacet
  facet normal -0.9822871 -0.18738197 0
    outer loop
      vertex -1.4528742 -0.37303448 0
      vertex -1.4881716 -0.18799973 10
      vertex -1.4881716 -0.18799973 0
    endloop
  endfacet
  facet normal -0.9822871 -0.18738197 0
    outer loop
      vertex -1.4881716 -0.18799973 10
      vertex -1.4528742 -0.37303448 0
      vertex -1.4528742 -0.37303448 10
    endloop
  endfacet
  facet normal -0.9822871 0.18738197 0
    outer loop
      vertex -1.4881716 0.18799973 0
      vertex -1.4528742 0.37303448 10
      vertex -1.4528742 0.37303448 0
    endloop
  endfacet
  facet normal -0.9822871 0.18738197 0
    outer loop
      vertex -1.4528742 0.37303448 10
      vertex -1.4881716 0.18799973 0
      vertex -1.4881716 0.18799973 10
    endloop
  endfacet
  facet normal 0.77051324 -0.637424 0
    outer loop
      vertex 1.0934525 -1.0268202 10
      vertex 1.2135248 -0.8816776 0
      vertex 1.2135248 -0.8816776 10
    endloop
  endfacet
  facet normal 0.77051324 -0.637424 0
    outer loop
      vertex 1.2135248 -0.8816776 0
      vertex 1.0934525 -1.0268202 10
      vertex 1.0934525 -1.0268202 0
    endloop
  endfacet
  facet normal -0.36812642 -0.9297758 0
    outer loop
      vertex -0.63866806 -1.3572397 0
      vertex -0.46352482 -1.4265842 10
      vertex -0.63866806 -1.3572397 10
    endloop
  endfacet
  facet normal -0.36812642 -0.9297758 0
    outer loop
      vertex -0.46352482 -1.4265842 10
      vertex -0.63866806 -1.3572397 0
      vertex -0.46352482 -1.4265842 0
    endloop
  endfacet
  facet normal -0.24869178 0.9685827 0
    outer loop
      vertex -0.28107166 1.4734306 0
      vertex -0.46352482 1.4265842 10
      vertex -0.28107166 1.4734306 10
    endloop
  endfacet
  facet normal -0.24869178 0.9685827 0
    outer loop
      vertex -0.46352482 1.4265842 10
      vertex -0.28107166 1.4734306 0
      vertex -0.46352482 1.4265842 0
    endloop
  endfacet
  facet normal -0.48175356 0.8763068 0
    outer loop
      vertex -0.63866806 1.3572397 0
      vertex -0.80373955 1.2664909 10
      vertex -0.63866806 1.3572397 10
    endloop
  endfacet
  facet normal -0.48175356 0.8763068 0
    outer loop
      vertex -0.80373955 1.2664909 10
      vertex -0.63866806 1.3572397 0
      vertex -0.80373955 1.2664909 0
    endloop
  endfacet
  facet normal 0.5877827 -0.80901885 0
    outer loop
      vertex 0.80373955 -1.2664909 0
      vertex 0.95613575 -1.1557693 10
      vertex 0.80373955 -1.2664909 10
    endloop
  endfacet
  facet normal 0.5877827 -0.80901885 0
    outer loop
      vertex 0.95613575 -1.1557693 10
      vertex 0.80373955 -1.2664909 0
      vertex 0.95613575 -1.1557693 0
    endloop
  endfacet
  facet normal -0.9510557 0.30901945 0
    outer loop
      vertex -1.4528742 0.37303448 0
      vertex -1.3946638 0.552186 10
      vertex -1.3946638 0.552186 0
    endloop
  endfacet
  facet normal -0.9510557 0.30901945 0
    outer loop
      vertex -1.3946638 0.552186 10
      vertex -1.4528742 0.37303448 0
      vertex -1.4528742 0.37303448 10
    endloop
  endfacet
  facet normal -0.5877827 0.80901885 0
    outer loop
      vertex -0.80373955 1.2664909 0
      vertex -0.95613575 1.1557693 10
      vertex -0.80373955 1.2664909 10
    endloop
  endfacet
  facet normal -0.5877827 0.80901885 0
    outer loop
      vertex -0.95613575 1.1557693 10
      vertex -0.80373955 1.2664909 0
      vertex -0.95613575 1.1557693 0
    endloop
  endfacet
  facet normal -0.36812642 0.9297758 0
    outer loop
      vertex -0.46352482 1.4265842 0
      vertex -0.63866806 1.3572397 10
      vertex -0.46352482 1.4265842 10
    endloop
  endfacet
  facet normal -0.36812642 0.9297758 0
    outer loop
      vertex -0.63866806 1.3572397 10
      vertex -0.46352482 1.4265842 0
      vertex -0.63866806 1.3572397 0
    endloop
  endfacet
  facet normal -0.5877827 -0.80901885 0
    outer loop
      vertex -0.95613575 -1.1557693 0
      vertex -0.80373955 -1.2664909 10
      vertex -0.95613575 -1.1557693 10
    endloop
  endfacet
  facet normal -0.5877827 -0.80901885 0
    outer loop
      vertex -0.80373955 -1.2664909 10
      vertex -0.95613575 -1.1557693 0
      vertex -0.80373955 -1.2664909 0
    endloop
  endfacet
  facet normal 0 0 -1
    outer loop
      vertex 1.2999992 0 0
      vertex 1.5 0 0
      vertex 1.4881716 -0.18799973 0
    endloop
  endfacet
  facet normal 0 0 -1
    outer loop
      vertex 1.2897482 -0.1629324 0
      vertex 1.4881716 -0.18799973 0
      vertex 1.4528742 -0.37303448 0
    endloop
  endfacet
  facet normal 0 0 -1
    outer loop
      vertex 1.5 0 0
      vertex 1.2999992 0 0
      vertex 1.4881716 0.18799973 0
    endloop
  endfacet
  facet normal 0 0 -1
    outer loop
      vertex 1.2591572 -0.32329655 0
      vertex 1.4528742 -0.37303448 0
      vertex 1.3946638 -0.552186 0
    endloop
  endfacet
  facet normal 0 0 -1
    outer loop
      vertex 1.2897482 0.1629324 0
      vertex 1.4881716 0.18799973 0
      vertex 1.2999992 0 0
    endloop
  endfacet
  facet normal 0 0 -1
    outer loop
      vertex 1.2087088 -0.4785614 0
      vertex 1.3946638 -0.552186 0
      vertex 1.3144598 -0.7226305 0
    endloop
  endfacet
  facet normal 0 0 -1
    outer loop
      vertex 1.4881716 0.18799973 0
      vertex 1.2897482 0.1629324 0
      vertex 1.4528742 0.37303448 0
    endloop
  endfacet
  facet normal 0 0 -1
    outer loop
      vertex 1.2591572 0.32329655 0
      vertex 1.4528742 0.37303448 0
      vertex 1.2897482 0.1629324 0
    endloop
  endfacet
  facet normal 0 0 -1
    outer loop
      vertex 1.4881716 -0.18799973 0
      vertex 1.2897482 -0.1629324 0
      vertex 1.2999992 0 0
    endloop
  endfacet
  facet normal 0 0 -1
    outer loop
      vertex 1.4528742 -0.37303448 0
      vertex 1.2591572 -0.32329655 0
      vertex 1.2897482 -0.1629324 0
    endloop
  endfacet
  facet normal 0 0 -1
    outer loop
      vertex 1.1391983 -0.6262789 0
      vertex 1.3144598 -0.7226305 0
      vertex 1.2135248 -0.8816776 0
    endloop
  endfacet
  facet normal 0 0 -1
    outer loop
      vertex 1.3946638 -0.552186 0
      vertex 1.2087088 -0.4785614 0
      vertex 1.2591572 -0.32329655 0
    endloop
  endfacet
  facet normal 0 0 -1
    outer loop
      vertex 1.3144598 -0.7226305 0
      vertex 1.1391983 -0.6262789 0
      vertex 1.2087088 -0.4785614 0
    endloop
  endfacet
  facet normal 0 0 -1
    outer loop
      vertex 1.0517216 -0.7641201 0
      vertex 1.2135248 -0.8816776 0
      vertex 1.0934525 -1.0268202 0
    endloop
  endfacet
  facet normal 0 0 -1
    outer loop
      vertex 1.2135248 -0.8816776 0
      vertex 1.0517216 -0.7641201 0
      vertex 1.1391983 -0.6262789 0
    endloop
  endfacet
  facet normal 0 0 -1
    outer loop
      vertex 0.94765854 -0.8899107 0
      vertex 1.0934525 -1.0268202 0
      vertex 0.95613575 -1.1557693 0
    endloop
  endfacet
  facet normal 0 0 -1
    outer loop
      vertex 1.0934525 -1.0268202 0
      vertex 0.94765854 -0.8899107 0
      vertex 1.0517216 -0.7641201 0
    endloop
  endfacet
  facet normal 0 0 -1
    outer loop
      vertex 0.95613575 -1.1557693 0
      vertex 0.8286505 -1.001667 0
      vertex 0.94765854 -0.8899107 0
    endloop
  endfacet
  facet normal 0 0 -1
    outer loop
      vertex 0.80373955 -1.2664909 0
      vertex 0.8286505 -1.001667 0
      vertex 0.95613575 -1.1557693 0
    endloop
  endfacet
  facet normal 0 0 -1
    outer loop
      vertex 0.80373955 -1.2664909 0
      vertex 0.6965742 -1.0976257 0
      vertex 0.8286505 -1.001667 0
    endloop
  endfacet
  facet normal 0 0 -1
    outer loop
      vertex 0.63866806 -1.3572397 0
      vertex 0.6965742 -1.0976257 0
      vertex 0.80373955 -1.2664909 0
    endloop
  endfacet
  facet normal 0 0 -1
    outer loop
      vertex 0.63866806 -1.3572397 0
      vertex 0.5535126 -1.1762743 0
      vertex 0.6965742 -1.0976257 0
    endloop
  endfacet
  facet normal 0 0 -1
    outer loop
      vertex 0.46352482 -1.4265842 0
      vertex 0.5535126 -1.1762743 0
      vertex 0.63866806 -1.3572397 0
    endloop
  endfacet
  facet normal 0 0 -1
    outer loop
      vertex 0.46352482 -1.4265842 0
      vertex 0.40172195 -1.236373 0
      vertex 0.5535126 -1.1762743 0
    endloop
  endfacet
  facet normal 0 0 -1
    outer loop
      vertex 0.28107166 -1.4734306 0
      vertex 0.40172195 -1.236373 0
      vertex 0.46352482 -1.4265842 0
    endloop
  endfacet
  facet normal 0 0 -1
    outer loop
      vertex 0.28107166 -1.4734306 0
      vertex 0.24359512 -1.2769728 0
      vertex 0.40172195 -1.236373 0
    endloop
  endfacet
  facet normal 0 0 -1
    outer loop
      vertex 0.094184875 -1.4970398 0
      vertex 0.24359512 -1.2769728 0
      vertex 0.28107166 -1.4734306 0
    endloop
  endfacet
  facet normal 0 0 -1
    outer loop
      vertex 0.094184875 -1.4970398 0
      vertex 0.08162689 -1.2974339 0
      vertex 0.24359512 -1.2769728 0
    endloop
  endfacet
  facet normal 0 0 -1
    outer loop
      vertex 0.094184875 -1.4970398 0
      vertex -0.08162689 -1.2974339 0
      vertex 0.08162689 -1.2974339 0
    endloop
  endfacet
  facet normal 0 0 -1
    outer loop
      vertex -0.094184875 -1.4970398 0
      vertex -0.08162689 -1.2974339 0
      vertex 0.094184875 -1.4970398 0
    endloop
  endfacet
  facet normal 0 0 -1
    outer loop
      vertex -0.094184875 -1.4970398 0
      vertex -0.24359512 -1.2769728 0
      vertex -0.08162689 -1.2974339 0
    endloop
  endfacet
  facet normal 0 0 -1
    outer loop
      vertex -0.28107166 -1.4734306 0
      vertex -0.24359512 -1.2769728 0
      vertex -0.094184875 -1.4970398 0
    endloop
  endfacet
  facet normal 0 0 -1
    outer loop
      vertex -0.28107166 -1.4734306 0
      vertex -0.40172195 -1.236373 0
      vertex -0.24359512 -1.2769728 0
    endloop
  endfacet
  facet normal 0 0 -1
    outer loop
      vertex -0.46352482 -1.4265842 0
      vertex -0.40172195 -1.236373 0
      vertex -0.28107166 -1.4734306 0
    endloop
  endfacet
  facet normal 0 0 -1
    outer loop
      vertex -0.46352482 -1.4265842 0
      vertex -0.5535126 -1.1762743 0
      vertex -0.40172195 -1.236373 0
    endloop
  endfacet
  facet normal 0 0 -1
    outer loop
      vertex -0.63866806 -1.3572397 0
      vertex -0.5535126 -1.1762743 0
      vertex -0.46352482 -1.4265842 0
    endloop
  endfacet
  facet normal 0 0 -1
    outer loop
      vertex -0.63866806 -1.3572397 0
      vertex -0.6965742 -1.0976257 0
      vertex -0.5535126 -1.1762743 0
    endloop
  endfacet
  facet normal 0 0 -1
    outer loop
      vertex -0.80373955 -1.2664909 0
      vertex -0.6965742 -1.0976257 0
      vertex -0.63866806 -1.3572397 0
    endloop
  endfacet
  facet normal 0 0 -1
    outer loop
      vertex -0.80373955 -1.2664909 0
      vertex -0.8286505 -1.001667 0
      vertex -0.6965742 -1.0976257 0
    endloop
  endfacet
  facet normal 0 0 -1
    outer loop
      vertex -0.95613575 -1.1557693 0
      vertex -0.8286505 -1.001667 0
      vertex -0.80373955 -1.2664909 0
    endloop
  endfacet
  facet normal 0 0 -1
    outer loop
      vertex -0.8286505 -1.001667 0
      vertex -0.95613575 -1.1557693 0
      vertex -0.94765854 -0.8899107 0
    endloop
  endfacet
  facet normal 0 0 -1
    outer loop
      vertex -1.0934525 -1.0268202 0
      vertex -0.94765854 -0.8899107 0
      vertex -0.95613575 -1.1557693 0
    endloop
  endfacet
  facet normal 0 0 -1
    outer loop
      vertex -0.94765854 -0.8899107 0
      vertex -1.0934525 -1.0268202 0
      vertex -1.0517216 -0.7641201 0
    endloop
  endfacet
  facet normal 0 0 -1
    outer loop
      vertex -1.2135248 -0.8816776 0
      vertex -1.0517216 -0.7641201 0
      vertex -1.0934525 -1.0268202 0
    endloop
  endfacet
  facet normal 0 0 -1
    outer loop
      vertex -1.0517216 -0.7641201 0
      vertex -1.2135248 -0.8816776 0
      vertex -1.1391983 -0.6262789 0
    endloop
  endfacet
  facet normal 0 0 -1
    outer loop
      vertex -1.3144598 -0.7226305 0
      vertex -1.1391983 -0.6262789 0
      vertex -1.2135248 -0.8816776 0
    endloop
  endfacet
  facet normal 0 0 -1
    outer loop
      vertex -1.1391983 -0.6262789 0
      vertex -1.3144598 -0.7226305 0
      vertex -1.2087088 -0.4785614 0
    endloop
  endfacet
  facet normal 0 0 -1
    outer loop
      vertex -1.3946638 -0.552186 0
      vertex -1.2087088 -0.4785614 0
      vertex -1.3144598 -0.7226305 0
    endloop
  endfacet
  facet normal 0 0 -1
    outer loop
      vertex -1.4528742 -0.37303448 0
      vertex -1.2591572 -0.32329655 0
      vertex -1.3946638 -0.552186 0
    endloop
  endfacet
  facet normal 0 0 -1
    outer loop
      vertex -1.2087088 -0.4785614 0
      vertex -1.3946638 -0.552186 0
      vertex -1.2591572 -0.32329655 0
    endloop
  endfacet
  facet normal 0 0 -1
    outer loop
      vertex 1.4528742 0.37303448 0
      vertex 1.2591572 0.32329655 0
      vertex 1.3946638 0.552186 0
    endloop
  endfacet
  facet normal 0 0 -1
    outer loop
      vertex 1.2087088 0.4785614 0
      vertex 1.3946638 0.552186 0
      vertex 1.2591572 0.32329655 0
    endloop
  endfacet
  facet normal 0 0 -1
    outer loop
      vertex 1.3946638 0.552186 0
      vertex 1.2087088 0.4785614 0
      vertex 1.3144598 0.7226305 0
    endloop
  endfacet
  facet normal 0 0 -1
    outer loop
      vertex 1.1391983 0.6262789 0
      vertex 1.3144598 0.7226305 0
      vertex 1.2087088 0.4785614 0
    endloop
  endfacet
  facet normal 0 0 -1
    outer loop
      vertex 1.3144598 0.7226305 0
      vertex 1.1391983 0.6262789 0
      vertex 1.2135248 0.8816776 0
    endloop
  endfacet
  facet normal 0 0 -1
    outer loop
      vertex 1.0517216 0.7641201 0
      vertex 1.2135248 0.8816776 0
      vertex 1.1391983 0.6262789 0
    endloop
  endfacet
  facet normal 0 0 -1
    outer loop
      vertex 1.2135248 0.8816776 0
      vertex 1.0517216 0.7641201 0
      vertex 1.0934525 1.0268202 0
    endloop
  endfacet
  facet normal 0 0 -1
    outer loop
      vertex 0.94765854 0.8899107 0
      vertex 1.0934525 1.0268202 0
      vertex 1.0517216 0.7641201 0
    endloop
  endfacet
  facet normal 0 0 -1
    outer loop
      vertex 1.0934525 1.0268202 0
      vertex 0.94765854 0.8899107 0
      vertex 0.95613575 1.1557693 0
    endloop
  endfacet
  facet normal 0 0 -1
    outer loop
      vertex 0.8286505 1.001667 0
      vertex 0.95613575 1.1557693 0
      vertex 0.94765854 0.8899107 0
    endloop
  endfacet
  facet normal 0 0 -1
    outer loop
      vertex 0.8286505 1.001667 0
      vertex 0.80373955 1.2664909 0
      vertex 0.95613575 1.1557693 0
    endloop
  endfacet
  facet normal 0 0 -1
    outer loop
      vertex 0.6965742 1.0976257 0
      vertex 0.80373955 1.2664909 0
      vertex 0.8286505 1.001667 0
    endloop
  endfacet
  facet normal 0 0 -1
    outer loop
      vertex 0.6965742 1.0976257 0
      vertex 0.63866806 1.3572397 0
      vertex 0.80373955 1.2664909 0
    endloop
  endfacet
  facet normal 0 0 -1
    outer loop
      vertex 0.5535126 1.1762743 0
      vertex 0.63866806 1.3572397 0
      vertex 0.6965742 1.0976257 0
    endloop
  endfacet
  facet normal 0 0 -1
    outer loop
      vertex 0.5535126 1.1762743 0
      vertex 0.46352482 1.4265842 0
      vertex 0.63866806 1.3572397 0
    endloop
  endfacet
  facet normal 0 0 -1
    outer loop
      vertex 0.40172195 1.236373 0
      vertex 0.46352482 1.4265842 0
      vertex 0.5535126 1.1762743 0
    endloop
  endfacet
  facet normal 0 0 -1
    outer loop
      vertex 0.40172195 1.236373 0
      vertex 0.28107166 1.4734306 0
      vertex 0.46352482 1.4265842 0
    endloop
  endfacet
  facet normal 0 0 -1
    outer loop
      vertex 0.24359512 1.2769728 0
      vertex 0.28107166 1.4734306 0
      vertex 0.40172195 1.236373 0
    endloop
  endfacet
  facet normal 0 0 -1
    outer loop
      vertex 0.24359512 1.2769728 0
      vertex 0.094184875 1.4970398 0
      vertex 0.28107166 1.4734306 0
    endloop
  endfacet
  facet normal 0 0 -1
    outer loop
      vertex 0.08162689 1.2974339 0
      vertex 0.094184875 1.4970398 0
      vertex 0.24359512 1.2769728 0
    endloop
  endfacet
  facet normal 0 0 -1
    outer loop
      vertex -0.08162689 1.2974339 0
      vertex 0.094184875 1.4970398 0
      vertex 0.08162689 1.2974339 0
    endloop
  endfacet
  facet normal 0 0 -1
    outer loop
      vertex -0.08162689 1.2974339 0
      vertex -0.094184875 1.4970398 0
      vertex 0.094184875 1.4970398 0
    endloop
  endfacet
  facet normal 0 0 -1
    outer loop
      vertex -0.24359512 1.2769728 0
      vertex -0.094184875 1.4970398 0
      vertex -0.08162689 1.2974339 0
    endloop
  endfacet
  facet normal 0 0 -1
    outer loop
      vertex -0.24359512 1.2769728 0
      vertex -0.28107166 1.4734306 0
      vertex -0.094184875 1.4970398 0
    endloop
  endfacet
  facet normal 0 0 -1
    outer loop
      vertex -0.40172195 1.236373 0
      vertex -0.28107166 1.4734306 0
      vertex -0.24359512 1.2769728 0
    endloop
  endfacet
  facet normal 0 0 -1
    outer loop
      vertex -0.40172195 1.236373 0
      vertex -0.46352482 1.4265842 0
      vertex -0.28107166 1.4734306 0
    endloop
  endfacet
  facet normal 0 0 -1
    outer loop
      vertex -0.5535126 1.1762743 0
      vertex -0.46352482 1.4265842 0
      vertex -0.40172195 1.236373 0
    endloop
  endfacet
  facet normal 0 0 -1
    outer loop
      vertex -0.5535126 1.1762743 0
      vertex -0.63866806 1.3572397 0
      vertex -0.46352482 1.4265842 0
    endloop
  endfacet
  facet normal 0 0 -1
    outer loop
      vertex -0.6965742 1.0976257 0
      vertex -0.63866806 1.3572397 0
      vertex -0.5535126 1.1762743 0
    endloop
  endfacet
  facet normal 0 0 -1
    outer loop
      vertex -0.6965742 1.0976257 0
      vertex -0.80373955 1.2664909 0
      vertex -0.63866806 1.3572397 0
    endloop
  endfacet
  facet normal 0 0 -1
    outer loop
      vertex -0.8286505 1.001667 0
      vertex -0.80373955 1.2664909 0
      vertex -0.6965742 1.0976257 0
    endloop
  endfacet
  facet normal 0 0 -1
    outer loop
      vertex -0.95613575 1.1557693 0
      vertex -0.8286505 1.001667 0
      vertex -0.94765854 0.8899107 0
    endloop
  endfacet
  facet normal 0 0 -1
    outer loop
      vertex -0.8286505 1.001667 0
      vertex -0.95613575 1.1557693 0
      vertex -0.80373955 1.2664909 0
    endloop
  endfacet
  facet normal 0 0 -1
    outer loop
      vertex -1.0934525 1.0268202 0
      vertex -0.94765854 0.8899107 0
      vertex -1.0517216 0.7641201 0
    endloop
  endfacet
  facet normal 0 0 -1
    outer loop
      vertex -0.94765854 0.8899107 0
      vertex -1.0934525 1.0268202 0
      vertex -0.95613575 1.1557693 0
    endloop
  endfacet
  facet normal 0 0 -1
    outer loop
      vertex -1.2135248 0.8816776 0
      vertex -1.0517216 0.7641201 0
      vertex -1.1391983 0.6262789 0
    endloop
  endfacet
  facet normal 0 0 -1
    outer loop
      vertex -1.3144598 0.7226305 0
      vertex -1.1391983 0.6262789 0
      vertex -1.2087088 0.4785614 0
    endloop
  endfacet
  facet normal 0 0 -1
    outer loop
      vertex -1.0517216 0.7641201 0
      vertex -1.2135248 0.8816776 0
      vertex -1.0934525 1.0268202 0
    endloop
  endfacet
  facet normal 0 0 -1
    outer loop
      vertex -1.3946638 0.552186 0
      vertex -1.2087088 0.4785614 0
      vertex -1.2591572 0.32329655 0
    endloop
  endfacet
  facet normal 0 0 -1
    outer loop
      vertex -1.4528742 0.37303448 0
      vertex -1.2591572 0.32329655 0
      vertex -1.2897482 0.1629324 0
    endloop
  endfacet
  facet normal 0 0 -1
    outer loop
      vertex -1.1391983 0.6262789 0
      vertex -1.3144598 0.7226305 0
      vertex -1.2135248 0.8816776 0
    endloop
  endfacet
  facet normal 0 0 -1
    outer loop
      vertex -1.4881716 0.18799973 0
      vertex -1.2897482 0.1629324 0
      vertex -1.2999992 0 0
    endloop
  endfacet
  facet normal 0 0 -1
    outer loop
      vertex -1.2591572 -0.32329655 0
      vertex -1.4528742 -0.37303448 0
      vertex -1.2897482 -0.1629324 0
    endloop
  endfacet
  facet normal 0 0 -1
    outer loop
      vertex -1.4881716 -0.18799973 0
      vertex -1.2897482 -0.1629324 0
      vertex -1.4528742 -0.37303448 0
    endloop
  endfacet
  facet normal 0 0 -1
    outer loop
      vertex -1.2087088 0.4785614 0
      vertex -1.3946638 0.552186 0
      vertex -1.3144598 0.7226305 0
    endloop
  endfacet
  facet normal 0 0 -1
    outer loop
      vertex -1.2897482 -0.1629324 0
      vertex -1.4881716 -0.18799973 0
      vertex -1.2999992 0 0
    endloop
  endfacet
  facet normal 0 0 -1
    outer loop
      vertex -1.2591572 0.32329655 0
      vertex -1.4528742 0.37303448 0
      vertex -1.3946638 0.552186 0
    endloop
  endfacet
  facet normal 0 0 -1
    outer loop
      vertex -1.5 0 0
      vertex -1.2999992 0 0
      vertex -1.4881716 -0.18799973 0
    endloop
  endfacet
  facet normal 0 0 -1
    outer loop
      vertex -1.2897482 0.1629324 0
      vertex -1.4881716 0.18799973 0
      vertex -1.4528742 0.37303448 0
    endloop
  endfacet
  facet normal 0 0 -1
    outer loop
      vertex -1.2999992 0 0
      vertex -1.5 0 0
      vertex -1.4881716 0.18799973 0
    endloop
  endfacet
  facet normal -0.99802667 -0.06279179 0
    outer loop
      vertex 1.2999992 0 0
      vertex 1.2897482 0.1629324 10
      vertex 1.2897482 0.1629324 0
    endloop
  endfacet
  facet normal -0.99802667 -0.06279179 0
    outer loop
      vertex 1.2897482 0.1629324 10
      vertex 1.2999992 0 0
      vertex 1.2999992 0 10
    endloop
  endfacet
  facet normal -0.24868847 -0.9685835 0
    outer loop
      vertex 0.24359512 1.2769728 0
      vertex 0.40172195 1.236373 10
      vertex 0.24359512 1.2769728 10
    endloop
  endfacet
  facet normal -0.24868847 -0.9685835 0
    outer loop
      vertex 0.40172195 1.236373 10
      vertex 0.24359512 1.2769728 0
      vertex 0.40172195 1.236373 0
    endloop
  endfacet
  facet normal 0.587784 -0.8090179 0
    outer loop
      vertex -0.8286505 1.001667 0
      vertex -0.6965742 1.0976257 10
      vertex -0.8286505 1.001667 10
    endloop
  endfacet
  facet normal 0.587784 -0.8090179 0
    outer loop
      vertex -0.6965742 1.0976257 10
      vertex -0.8286505 1.001667 0
      vertex -0.6965742 1.0976257 0
    endloop
  endfacet
  facet normal -0.587784 -0.8090179 0
    outer loop
      vertex 0.6965742 1.0976257 0
      vertex 0.8286505 1.001667 10
      vertex 0.6965742 1.0976257 10
    endloop
  endfacet
  facet normal -0.587784 -0.8090179 0
    outer loop
      vertex 0.8286505 1.001667 10
      vertex 0.6965742 1.0976257 0
      vertex 0.8286505 1.001667 0
    endloop
  endfacet
  facet normal 0.95105684 0.30901593 0
    outer loop
      vertex -1.2087088 -0.4785614 10
      vertex -1.2591572 -0.32329655 0
      vertex -1.2591572 -0.32329655 10
    endloop
  endfacet
  facet normal 0.95105684 0.30901593 0
    outer loop
      vertex -1.2591572 -0.32329655 0
      vertex -1.2087088 -0.4785614 10
      vertex -1.2087088 -0.4785614 0
    endloop
  endfacet
  facet normal 0.24868847 -0.9685835 0
    outer loop
      vertex -0.40172195 1.236373 0
      vertex -0.24359512 1.2769728 10
      vertex -0.40172195 1.236373 10
    endloop
  endfacet
  facet normal 0.24868847 -0.9685835 0
    outer loop
      vertex -0.24359512 1.2769728 10
      vertex -0.40172195 1.236373 0
      vertex -0.24359512 1.2769728 0
    endloop
  endfacet
  facet normal -0.9048273 -0.42577875 0
    outer loop
      vertex 1.2087088 0.4785614 0
      vertex 1.1391983 0.6262789 10
      vertex 1.1391983 0.6262789 0
    endloop
  endfacet
  facet normal -0.9048273 -0.42577875 0
    outer loop
      vertex 1.1391983 0.6262789 10
      vertex 1.2087088 0.4785614 0
      vertex 1.2087088 0.4785614 10
    endloop
  endfacet
  facet normal 0.98228735 0.1873808 0
    outer loop
      vertex -1.2591572 -0.32329655 10
      vertex -1.2897482 -0.1629324 0
      vertex -1.2897482 -0.1629324 10
    endloop
  endfacet
  facet normal 0.98228735 0.1873808 0
    outer loop
      vertex -1.2897482 -0.1629324 0
      vertex -1.2591572 -0.32329655 10
      vertex -1.2591572 -0.32329655 0
    endloop
  endfacet
  facet normal -0.99802667 0.06279179 0
    outer loop
      vertex 1.2897482 -0.1629324 0
      vertex 1.2999992 0 10
      vertex 1.2999992 0 0
    endloop
  endfacet
  facet normal -0.99802667 0.06279179 0
    outer loop
      vertex 1.2999992 0 10
      vertex 1.2897482 -0.1629324 0
      vertex 1.2897482 -0.1629324 10
    endloop
  endfacet
  facet normal 0.9048273 -0.42577875 0
    outer loop
      vertex -1.2087088 0.4785614 10
      vertex -1.1391983 0.6262789 0
      vertex -1.1391983 0.6262789 10
    endloop
  endfacet
  facet normal 0.9048273 -0.42577875 0
    outer loop
      vertex -1.1391983 0.6262789 0
      vertex -1.2087088 0.4785614 10
      vertex -1.2087088 0.4785614 0
    endloop
  endfacet
  facet normal 0.36812714 -0.9297755 0
    outer loop
      vertex -0.5535126 1.1762743 0
      vertex -0.40172195 1.236373 10
      vertex -0.5535126 1.1762743 10
    endloop
  endfacet
  facet normal 0.36812714 -0.9297755 0
    outer loop
      vertex -0.40172195 1.236373 10
      vertex -0.5535126 1.1762743 0
      vertex -0.40172195 1.236373 0
    endloop
  endfacet
  facet normal -0.84432787 0.5358269 0
    outer loop
      vertex 1.0517216 -0.7641201 0
      vertex 1.1391983 -0.6262789 10
      vertex 1.1391983 -0.6262789 0
    endloop
  endfacet
  facet normal -0.84432787 0.5358269 0
    outer loop
      vertex 1.1391983 -0.6262789 10
      vertex 1.0517216 -0.7641201 0
      vertex 1.0517216 -0.7641201 10
    endloop
  endfacet
  facet normal 0.36812714 0.9297755 0
    outer loop
      vertex -0.40172195 -1.236373 0
      vertex -0.5535126 -1.1762743 10
      vertex -0.40172195 -1.236373 10
    endloop
  endfacet
  facet normal 0.36812714 0.9297755 0
    outer loop
      vertex -0.5535126 -1.1762743 10
      vertex -0.40172195 -1.236373 0
      vertex -0.5535126 -1.1762743 0
    endloop
  endfacet
  facet normal 0.99802667 0.06279179 0
    outer loop
      vertex -1.2897482 -0.1629324 10
      vertex -1.2999992 0 0
      vertex -1.2999992 0 10
    endloop
  endfacet
  facet normal 0.99802667 0.06279179 0
    outer loop
      vertex -1.2999992 0 0
      vertex -1.2897482 -0.1629324 10
      vertex -1.2897482 -0.1629324 0
    endloop
  endfacet
  facet normal -0.9048273 0.42577875 0
    outer loop
      vertex 1.1391983 -0.6262789 0
      vertex 1.2087088 -0.4785614 10
      vertex 1.2087088 -0.4785614 0
    endloop
  endfacet
  facet normal -0.9048273 0.42577875 0
    outer loop
      vertex 1.2087088 -0.4785614 10
      vertex 1.1391983 -0.6262789 0
      vertex 1.1391983 -0.6262789 10
    endloop
  endfacet
  facet normal -0.98228735 -0.1873808 0
    outer loop
      vertex 1.2897482 0.1629324 0
      vertex 1.2591572 0.32329655 10
      vertex 1.2591572 0.32329655 0
    endloop
  endfacet
  facet normal -0.98228735 -0.1873808 0
    outer loop
      vertex 1.2591572 0.32329655 10
      vertex 1.2897482 0.1629324 0
      vertex 1.2897482 0.1629324 10
    endloop
  endfacet
  facet normal 0.95105684 -0.30901593 0
    outer loop
      vertex -1.2591572 0.32329655 10
      vertex -1.2087088 0.4785614 0
      vertex -1.2087088 0.4785614 10
    endloop
  endfacet
  facet normal 0.95105684 -0.30901593 0
    outer loop
      vertex -1.2087088 0.4785614 0
      vertex -1.2591572 0.32329655 10
      vertex -1.2591572 0.32329655 0
    endloop
  endfacet
  facet normal -0.84432787 -0.5358269 0
    outer loop
      vertex 1.1391983 0.6262789 0
      vertex 1.0517216 0.7641201 10
      vertex 1.0517216 0.7641201 0
    endloop
  endfacet
  facet normal -0.84432787 -0.5358269 0
    outer loop
      vertex 1.0517216 0.7641201 10
      vertex 1.1391983 0.6262789 0
      vertex 1.1391983 0.6262789 10
    endloop
  endfacet
  facet normal 0.99802667 -0.06279179 0
    outer loop
      vertex -1.2999992 0 10
      vertex -1.2897482 0.1629324 0
      vertex -1.2897482 0.1629324 10
    endloop
  endfacet
  facet normal 0.99802667 -0.06279179 0
    outer loop
      vertex -1.2897482 0.1629324 0
      vertex -1.2999992 0 10
      vertex -1.2999992 0 0
    endloop
  endfacet
  facet normal 0.68454814 0.72896767 0
    outer loop
      vertex -0.8286505 -1.001667 0
      vertex -0.94765854 -0.8899107 10
      vertex -0.8286505 -1.001667 10
    endloop
  endfacet
  facet normal 0.68454814 0.72896767 0
    outer loop
      vertex -0.94765854 -0.8899107 10
      vertex -0.8286505 -1.001667 0
      vertex -0.94765854 -0.8899107 0
    endloop
  endfacet
  facet normal 0.12533164 -0.9921149 0
    outer loop
      vertex -0.24359512 1.2769728 0
      vertex -0.08162689 1.2974339 10
      vertex -0.24359512 1.2769728 10
    endloop
  endfacet
  facet normal 0.12533164 -0.9921149 0
    outer loop
      vertex -0.08162689 1.2974339 10
      vertex -0.24359512 1.2769728 0
      vertex -0.08162689 1.2974339 0
    endloop
  endfacet
  facet normal -0.68454814 -0.72896767 0
    outer loop
      vertex 0.8286505 1.001667 0
      vertex 0.94765854 0.8899107 10
      vertex 0.8286505 1.001667 10
    endloop
  endfacet
  facet normal -0.68454814 -0.72896767 0
    outer loop
      vertex 0.94765854 0.8899107 10
      vertex 0.8286505 1.001667 0
      vertex 0.94765854 0.8899107 0
    endloop
  endfacet
  facet normal 0.68454814 -0.72896767 0
    outer loop
      vertex -0.94765854 0.8899107 0
      vertex -0.8286505 1.001667 10
      vertex -0.94765854 0.8899107 10
    endloop
  endfacet
  facet normal 0.68454814 -0.72896767 0
    outer loop
      vertex -0.8286505 1.001667 10
      vertex -0.94765854 0.8899107 0
      vertex -0.8286505 1.001667 0
    endloop
  endfacet
  facet normal 0.84432787 0.5358269 0
    outer loop
      vertex -1.0517216 -0.7641201 10
      vertex -1.1391983 -0.6262789 0
      vertex -1.1391983 -0.6262789 10
    endloop
  endfacet
  facet normal 0.84432787 0.5358269 0
    outer loop
      vertex -1.1391983 -0.6262789 0
      vertex -1.0517216 -0.7641201 10
      vertex -1.0517216 -0.7641201 0
    endloop
  endfacet
  facet normal -0.68454814 0.72896767 0
    outer loop
      vertex 0.94765854 -0.8899107 0
      vertex 0.8286505 -1.001667 10
      vertex 0.94765854 -0.8899107 10
    endloop
  endfacet
  facet normal -0.68454814 0.72896767 0
    outer loop
      vertex 0.8286505 -1.001667 10
      vertex 0.94765854 -0.8899107 0
      vertex 0.8286505 -1.001667 0
    endloop
  endfacet
  facet normal -0.95105684 0.30901593 0
    outer loop
      vertex 1.2087088 -0.4785614 0
      vertex 1.2591572 -0.32329655 10
      vertex 1.2591572 -0.32329655 0
    endloop
  endfacet
  facet normal -0.95105684 0.30901593 0
    outer loop
      vertex 1.2591572 -0.32329655 10
      vertex 1.2087088 -0.4785614 0
      vertex 1.2087088 -0.4785614 10
    endloop
  endfacet
  facet normal -0.77051324 0.637424 0
    outer loop
      vertex 0.94765854 -0.8899107 0
      vertex 1.0517216 -0.7641201 10
      vertex 1.0517216 -0.7641201 0
    endloop
  endfacet
  facet normal -0.77051324 0.637424 0
    outer loop
      vertex 1.0517216 -0.7641201 10
      vertex 0.94765854 -0.8899107 0
      vertex 0.94765854 -0.8899107 10
    endloop
  endfacet
  facet normal 0.77051324 0.637424 0
    outer loop
      vertex -0.94765854 -0.8899107 10
      vertex -1.0517216 -0.7641201 0
      vertex -1.0517216 -0.7641201 10
    endloop
  endfacet
  facet normal 0.77051324 0.637424 0
    outer loop
      vertex -1.0517216 -0.7641201 0
      vertex -0.94765854 -0.8899107 10
      vertex -0.94765854 -0.8899107 0
    endloop
  endfacet
  facet normal -0.48175257 0.8763073 0
    outer loop
      vertex 0.6965742 -1.0976257 0
      vertex 0.5535126 -1.1762743 10
      vertex 0.6965742 -1.0976257 10
    endloop
  endfacet
  facet normal -0.48175257 0.8763073 0
    outer loop
      vertex 0.5535126 -1.1762743 10
      vertex 0.6965742 -1.0976257 0
      vertex 0.5535126 -1.1762743 0
    endloop
  endfacet
  facet normal 0.77051324 -0.637424 0
    outer loop
      vertex -1.0517216 0.7641201 10
      vertex -0.94765854 0.8899107 0
      vertex -0.94765854 0.8899107 10
    endloop
  endfacet
  facet normal 0.77051324 -0.637424 0
    outer loop
      vertex -0.94765854 0.8899107 0
      vertex -1.0517216 0.7641201 10
      vertex -1.0517216 0.7641201 0
    endloop
  endfacet
  facet normal -0.36812714 -0.9297755 0
    outer loop
      vertex 0.40172195 1.236373 0
      vertex 0.5535126 1.1762743 10
      vertex 0.40172195 1.236373 10
    endloop
  endfacet
  facet normal -0.36812714 -0.9297755 0
    outer loop
      vertex 0.5535126 1.1762743 10
      vertex 0.40172195 1.236373 0
      vertex 0.5535126 1.1762743 0
    endloop
  endfacet
  facet normal -0.12533164 -0.9921149 0
    outer loop
      vertex 0.08162689 1.2974339 0
      vertex 0.24359512 1.2769728 10
      vertex 0.08162689 1.2974339 10
    endloop
  endfacet
  facet normal -0.12533164 -0.9921149 0
    outer loop
      vertex 0.24359512 1.2769728 10
      vertex 0.08162689 1.2974339 0
      vertex 0.24359512 1.2769728 0
    endloop
  endfacet
  facet normal 0.24868847 0.9685835 0
    outer loop
      vertex -0.24359512 -1.2769728 0
      vertex -0.40172195 -1.236373 10
      vertex -0.24359512 -1.2769728 10
    endloop
  endfacet
  facet normal 0.24868847 0.9685835 0
    outer loop
      vertex -0.40172195 -1.236373 10
      vertex -0.24359512 -1.2769728 0
      vertex -0.40172195 -1.236373 0
    endloop
  endfacet
  facet normal 0.9048273 0.42577875 0
    outer loop
      vertex -1.1391983 -0.6262789 10
      vertex -1.2087088 -0.4785614 0
      vertex -1.2087088 -0.4785614 10
    endloop
  endfacet
  facet normal 0.9048273 0.42577875 0
    outer loop
      vertex -1.2087088 -0.4785614 0
      vertex -1.1391983 -0.6262789 10
      vertex -1.1391983 -0.6262789 0
    endloop
  endfacet
  facet normal 0 1 0
    outer loop
      vertex 0.08162689 -1.2974339 0
      vertex -0.08162689 -1.2974339 10
      vertex 0.08162689 -1.2974339 10
    endloop
  endfacet
  facet normal 0 1 0
    outer loop
      vertex -0.08162689 -1.2974339 10
      vertex 0.08162689 -1.2974339 0
      vertex -0.08162689 -1.2974339 0
    endloop
  endfacet
  facet normal 0.48175257 -0.8763073 0
    outer loop
      vertex -0.6965742 1.0976257 0
      vertex -0.5535126 1.1762743 10
      vertex -0.6965742 1.0976257 10
    endloop
  endfacet
  facet normal 0.48175257 -0.8763073 0
    outer loop
      vertex -0.5535126 1.1762743 10
      vertex -0.6965742 1.0976257 0
      vertex -0.5535126 1.1762743 0
    endloop
  endfacet
  facet normal 0.12533164 0.9921149 0
    outer loop
      vertex -0.08162689 -1.2974339 0
      vertex -0.24359512 -1.2769728 10
      vertex -0.08162689 -1.2974339 10
    endloop
  endfacet
  facet normal 0.12533164 0.9921149 0
    outer loop
      vertex -0.24359512 -1.2769728 10
      vertex -0.08162689 -1.2974339 0
      vertex -0.24359512 -1.2769728 0
    endloop
  endfacet
  facet normal -0.48175257 -0.8763073 0
    outer loop
      vertex 0.5535126 1.1762743 0
      vertex 0.6965742 1.0976257 10
      vertex 0.5535126 1.1762743 10
    endloop
  endfacet
  facet normal -0.48175257 -0.8763073 0
    outer loop
      vertex 0.6965742 1.0976257 10
      vertex 0.5535126 1.1762743 0
      vertex 0.6965742 1.0976257 0
    endloop
  endfacet
  facet normal 0.587784 0.8090179 0
    outer loop
      vertex -0.6965742 -1.0976257 0
      vertex -0.8286505 -1.001667 10
      vertex -0.6965742 -1.0976257 10
    endloop
  endfacet
  facet normal 0.587784 0.8090179 0
    outer loop
      vertex -0.8286505 -1.001667 10
      vertex -0.6965742 -1.0976257 0
      vertex -0.8286505 -1.001667 0
    endloop
  endfacet
  facet normal -0.77051324 -0.637424 0
    outer loop
      vertex 1.0517216 0.7641201 0
      vertex 0.94765854 0.8899107 10
      vertex 0.94765854 0.8899107 0
    endloop
  endfacet
  facet normal -0.77051324 -0.637424 0
    outer loop
      vertex 0.94765854 0.8899107 10
      vertex 1.0517216 0.7641201 0
      vertex 1.0517216 0.7641201 10
    endloop
  endfacet
  facet normal -0.95105684 -0.30901593 0
    outer loop
      vertex 1.2591572 0.32329655 0
      vertex 1.2087088 0.4785614 10
      vertex 1.2087088 0.4785614 0
    endloop
  endfacet
  facet normal -0.95105684 -0.30901593 0
    outer loop
      vertex 1.2087088 0.4785614 10
      vertex 1.2591572 0.32329655 0
      vertex 1.2591572 0.32329655 10
    endloop
  endfacet
  facet normal -0.36812714 0.9297755 0
    outer loop
      vertex 0.5535126 -1.1762743 0
      vertex 0.40172195 -1.236373 10
      vertex 0.5535126 -1.1762743 10
    endloop
  endfacet
  facet normal -0.36812714 0.9297755 0
    outer loop
      vertex 0.40172195 -1.236373 10
      vertex 0.5535126 -1.1762743 0
      vertex 0.40172195 -1.236373 0
    endloop
  endfacet
  facet normal -0.24868847 0.9685835 0
    outer loop
      vertex 0.40172195 -1.236373 0
      vertex 0.24359512 -1.2769728 10
      vertex 0.40172195 -1.236373 10
    endloop
  endfacet
  facet normal -0.24868847 0.9685835 0
    outer loop
      vertex 0.24359512 -1.2769728 10
      vertex 0.40172195 -1.236373 0
      vertex 0.24359512 -1.2769728 0
    endloop
  endfacet
  facet normal -0.587784 0.8090179 0
    outer loop
      vertex 0.8286505 -1.001667 0
      vertex 0.6965742 -1.0976257 10
      vertex 0.8286505 -1.001667 10
    endloop
  endfacet
  facet normal -0.587784 0.8090179 0
    outer loop
      vertex 0.6965742 -1.0976257 10
      vertex 0.8286505 -1.001667 0
      vertex 0.6965742 -1.0976257 0
    endloop
  endfacet
  facet normal 0.98228735 -0.1873808 0
    outer loop
      vertex -1.2897482 0.1629324 10
      vertex -1.2591572 0.32329655 0
      vertex -1.2591572 0.32329655 10
    endloop
  endfacet
  facet normal 0.98228735 -0.1873808 0
    outer loop
      vertex -1.2591572 0.32329655 0
      vertex -1.2897482 0.1629324 10
      vertex -1.2897482 0.1629324 0
    endloop
  endfacet
  facet normal 0 -1 0
    outer loop
      vertex -0.08162689 1.2974339 0
      vertex 0.08162689 1.2974339 10
      vertex -0.08162689 1.2974339 10
    endloop
  endfacet
  facet normal 0 -1 0
    outer loop
      vertex 0.08162689 1.2974339 10
      vertex -0.08162689 1.2974339 0
      vertex 0.08162689 1.2974339 0
    endloop
  endfacet
  facet normal 0.48175257 0.8763073 0
    outer loop
      vertex -0.5535126 -1.1762743 0
      vertex -0.6965742 -1.0976257 10
      vertex -0.5535126 -1.1762743 10
    endloop
  endfacet
  facet normal 0.48175257 0.8763073 0
    outer loop
      vertex -0.6965742 -1.0976257 10
      vertex -0.5535126 -1.1762743 0
      vertex -0.6965742 -1.0976257 0
    endloop
  endfacet
  facet normal 0.84432787 -0.5358269 0
    outer loop
      vertex -1.1391983 0.6262789 10
      vertex -1.0517216 0.7641201 0
      vertex -1.0517216 0.7641201 10
    endloop
  endfacet
  facet normal 0.84432787 -0.5358269 0
    outer loop
      vertex -1.0517216 0.7641201 0
      vertex -1.1391983 0.6262789 10
      vertex -1.1391983 0.6262789 0
    endloop
  endfacet
  facet normal -0.12533164 0.9921149 0
    outer loop
      vertex 0.24359512 -1.2769728 0
      vertex 0.08162689 -1.2974339 10
      vertex 0.24359512 -1.2769728 10
    endloop
  endfacet
  facet normal -0.12533164 0.9921149 0
    outer loop
      vertex 0.08162689 -1.2974339 10
      vertex 0.24359512 -1.2769728 0
      vertex 0.08162689 -1.2974339 0
    endloop
  endfacet
  facet normal -0.98228735 0.1873808 0
    outer loop
      vertex 1.2591572 -0.32329655 0
      vertex 1.2897482 -0.1629324 10
      vertex 1.2897482 -0.1629324 0
    endloop
  endfacet
  facet normal -0.98228735 0.1873808 0
    outer loop
      vertex 1.2897482 -0.1629324 10
      vertex 1.2591572 -0.32329655 0
      vertex 1.2591572 -0.32329655 10
    endloop
  endfacet
endsolid OpenSCAD_Model
