solid OpenSCAD_Model
  facet normal 0.982288 0.187377 0
    outer loop
      vertex 5.45663 0.689332 10
      vertex 5.32721 1.36779 0
      vertex 5.32721 1.36779 10
    endloop
  endfacet
  facet normal 0.982288 0.187377 0
    outer loop
      vertex 5.32721 1.36779 0
      vertex 5.45663 0.689332 10
      vertex 5.45663 0.689332 0
    endloop
  endfacet
  facet normal 0.998027 0.0627918 0
    outer loop
      vertex 5.5 0 10
      vertex 5.45663 0.689332 0
      vertex 5.45663 0.689332 10
    endloop
  endfacet
  facet normal 0.998027 0.0627918 0
    outer loop
      vertex 5.45663 0.689332 0
      vertex 5.5 0 10
      vertex 5.5 0 0
    endloop
  endfacet
  facet normal 0.951055 0.309022 0
    outer loop
      vertex 5.32721 1.36779 10
      vertex 5.11377 2.02468 0
      vertex 5.11377 2.02468 10
    endloop
  endfacet
  facet normal 0.951055 0.309022 0
    outer loop
      vertex 5.11377 2.02468 0
      vertex 5.32721 1.36779 10
      vertex 5.32721 1.36779 0
    endloop
  endfacet
  facet normal 0.951055 -0.309022 0
    outer loop
      vertex 5.11377 -2.02468 10
      vertex 5.32721 -1.36779 0
      vertex 5.32721 -1.36779 10
    endloop
  endfacet
  facet normal 0.951055 -0.309022 0
    outer loop
      vertex 5.32721 -1.36779 0
      vertex 5.11377 -2.02468 10
      vertex 5.11377 -2.02468 0
    endloop
  endfacet
  facet normal 0.368118 0.929779 -0
    outer loop
      vertex 2.34179 4.97655 0
      vertex 1.69959 5.23081 10
      vertex 2.34179 4.97655 10
    endloop
  endfacet
  facet normal 0.368118 0.929779 0
    outer loop
      vertex 1.69959 5.23081 10
      vertex 2.34179 4.97655 0
      vertex 1.69959 5.23081 0
    endloop
  endfacet
  facet normal -0.587788 -0.809015 0
    outer loop
      vertex -3.50583 -4.23782 0
      vertex -2.94705 -4.6438 10
      vertex -3.50583 -4.23782 10
    endloop
  endfacet
  facet normal -0.587788 -0.809015 -0
    outer loop
      vertex -2.94705 -4.6438 10
      vertex -3.50583 -4.23782 0
      vertex -2.94705 -4.6438 0
    endloop
  endfacet
  facet normal -0.684541 -0.728974 0
    outer loop
      vertex -4.00933 -3.76501 0
      vertex -3.50583 -4.23782 10
      vertex -4.00933 -3.76501 10
    endloop
  endfacet
  facet normal -0.684541 -0.728974 -0
    outer loop
      vertex -3.50583 -4.23782 10
      vertex -4.00933 -3.76501 0
      vertex -3.50583 -4.23782 0
    endloop
  endfacet
  facet normal 0.998027 -0.0627918 0
    outer loop
      vertex 5.45663 -0.689332 10
      vertex 5.5 0 0
      vertex 5.5 0 10
    endloop
  endfacet
  facet normal 0.998027 -0.0627918 0
    outer loop
      vertex 5.5 0 0
      vertex 5.45663 -0.689332 10
      vertex 5.45663 -0.689332 0
    endloop
  endfacet
  facet normal 0.904829 0.425775 0
    outer loop
      vertex 5.11377 2.02468 10
      vertex 4.81969 2.64964 0
      vertex 4.81969 2.64964 10
    endloop
  endfacet
  facet normal 0.904829 0.425775 0
    outer loop
      vertex 4.81969 2.64964 0
      vertex 5.11377 2.02468 10
      vertex 5.11377 2.02468 0
    endloop
  endfacet
  facet normal -0.125337 0.992114 0
    outer loop
      vertex -0.345347 5.48915 0
      vertex -1.0306 5.40258 10
      vertex -0.345347 5.48915 10
    endloop
  endfacet
  facet normal -0.125337 0.992114 0
    outer loop
      vertex -1.0306 5.40258 10
      vertex -0.345347 5.48915 0
      vertex -1.0306 5.40258 0
    endloop
  endfacet
  facet normal 0 1 -0
    outer loop
      vertex 0.345347 5.48915 0
      vertex -0.345347 5.48915 10
      vertex 0.345347 5.48915 10
    endloop
  endfacet
  facet normal 0 1 0
    outer loop
      vertex -0.345347 5.48915 10
      vertex 0.345347 5.48915 0
      vertex -0.345347 5.48915 0
    endloop
  endfacet
  facet normal 0.844326 0.53583 0
    outer loop
      vertex 4.81969 2.64964 10
      vertex 4.44959 3.23282 0
      vertex 4.44959 3.23282 10
    endloop
  endfacet
  facet normal 0.844326 0.53583 0
    outer loop
      vertex 4.44959 3.23282 0
      vertex 4.81969 2.64964 10
      vertex 4.81969 2.64964 0
    endloop
  endfacet
  facet normal -0.368118 -0.929779 0
    outer loop
      vertex -2.34179 -4.97655 0
      vertex -1.69959 -5.23081 10
      vertex -2.34179 -4.97655 10
    endloop
  endfacet
  facet normal -0.368118 -0.929779 -0
    outer loop
      vertex -1.69959 -5.23081 10
      vertex -2.34179 -4.97655 0
      vertex -1.69959 -5.23081 0
    endloop
  endfacet
  facet normal 0.587788 -0.809015 0
    outer loop
      vertex 2.94705 -4.6438 0
      vertex 3.50583 -4.23782 10
      vertex 2.94705 -4.6438 10
    endloop
  endfacet
  facet normal 0.587788 -0.809015 0
    outer loop
      vertex 3.50583 -4.23782 10
      vertex 2.94705 -4.6438 0
      vertex 3.50583 -4.23782 0
    endloop
  endfacet
  facet normal -0.982288 -0.187377 0
    outer loop
      vertex -5.32721 -1.36779 0
      vertex -5.45663 -0.689332 10
      vertex -5.45663 -0.689332 0
    endloop
  endfacet
  facet normal -0.982288 -0.187377 0
    outer loop
      vertex -5.45663 -0.689332 10
      vertex -5.32721 -1.36779 0
      vertex -5.32721 -1.36779 10
    endloop
  endfacet
  facet normal -0.770517 -0.637419 0
    outer loop
      vertex -4.00933 -3.76501 0
      vertex -4.44959 -3.23282 10
      vertex -4.44959 -3.23282 0
    endloop
  endfacet
  facet normal -0.770517 -0.637419 0
    outer loop
      vertex -4.44959 -3.23282 10
      vertex -4.00933 -3.76501 0
      vertex -4.00933 -3.76501 10
    endloop
  endfacet
  facet normal -0.48176 0.876303 0
    outer loop
      vertex -2.34179 4.97655 0
      vertex -2.94705 4.6438 10
      vertex -2.34179 4.97655 10
    endloop
  endfacet
  facet normal -0.48176 0.876303 0
    outer loop
      vertex -2.94705 4.6438 10
      vertex -2.34179 4.97655 0
      vertex -2.94705 4.6438 0
    endloop
  endfacet
  facet normal 0.982288 -0.187377 0
    outer loop
      vertex 5.32721 -1.36779 10
      vertex 5.45663 -0.689332 0
      vertex 5.45663 -0.689332 10
    endloop
  endfacet
  facet normal 0.982288 -0.187377 0
    outer loop
      vertex 5.45663 -0.689332 0
      vertex 5.32721 -1.36779 10
      vertex 5.32721 -1.36779 0
    endloop
  endfacet
  facet normal 0.48176 -0.876303 0
    outer loop
      vertex 2.34179 -4.97655 0
      vertex 2.94705 -4.6438 10
      vertex 2.34179 -4.97655 10
    endloop
  endfacet
  facet normal 0.48176 -0.876303 0
    outer loop
      vertex 2.94705 -4.6438 10
      vertex 2.34179 -4.97655 0
      vertex 2.94705 -4.6438 0
    endloop
  endfacet
  facet normal -0.684541 0.728974 0
    outer loop
      vertex -3.50583 4.23782 0
      vertex -4.00933 3.76501 10
      vertex -3.50583 4.23782 10
    endloop
  endfacet
  facet normal -0.684541 0.728974 0
    outer loop
      vertex -4.00933 3.76501 10
      vertex -3.50583 4.23782 0
      vertex -4.00933 3.76501 0
    endloop
  endfacet
  facet normal 0.368118 -0.929779 0
    outer loop
      vertex 1.69959 -5.23081 0
      vertex 2.34179 -4.97655 10
      vertex 1.69959 -5.23081 10
    endloop
  endfacet
  facet normal 0.368118 -0.929779 0
    outer loop
      vertex 2.34179 -4.97655 10
      vertex 1.69959 -5.23081 0
      vertex 2.34179 -4.97655 0
    endloop
  endfacet
  facet normal 0.248693 -0.968582 0
    outer loop
      vertex 1.0306 -5.40258 0
      vertex 1.69959 -5.23081 10
      vertex 1.0306 -5.40258 10
    endloop
  endfacet
  facet normal 0.248693 -0.968582 0
    outer loop
      vertex 1.69959 -5.23081 10
      vertex 1.0306 -5.40258 0
      vertex 1.69959 -5.23081 0
    endloop
  endfacet
  facet normal 0.48176 0.876303 -0
    outer loop
      vertex 2.94705 4.6438 0
      vertex 2.34179 4.97655 10
      vertex 2.94705 4.6438 10
    endloop
  endfacet
  facet normal 0.48176 0.876303 0
    outer loop
      vertex 2.34179 4.97655 10
      vertex 2.94705 4.6438 0
      vertex 2.34179 4.97655 0
    endloop
  endfacet
  facet normal 0.587788 0.809015 -0
    outer loop
      vertex 3.50583 4.23782 0
      vertex 2.94705 4.6438 10
      vertex 3.50583 4.23782 10
    endloop
  endfacet
  facet normal 0.587788 0.809015 0
    outer loop
      vertex 2.94705 4.6438 10
      vertex 3.50583 4.23782 0
      vertex 2.94705 4.6438 0
    endloop
  endfacet
  facet normal -0.998027 -0.0627918 0
    outer loop
      vertex -5.45663 -0.689332 0
      vertex -5.5 0 10
      vertex -5.5 0 0
    endloop
  endfacet
  facet normal -0.998027 -0.0627918 0
    outer loop
      vertex -5.5 0 10
      vertex -5.45663 -0.689332 0
      vertex -5.45663 -0.689332 10
    endloop
  endfacet
  facet normal -0.844326 -0.53583 0
    outer loop
      vertex -4.44959 -3.23282 0
      vertex -4.81969 -2.64964 10
      vertex -4.81969 -2.64964 0
    endloop
  endfacet
  facet normal -0.844326 -0.53583 0
    outer loop
      vertex -4.81969 -2.64964 10
      vertex -4.44959 -3.23282 0
      vertex -4.44959 -3.23282 10
    endloop
  endfacet
  facet normal 0 0 -1
    outer loop
      vertex 2.5 0 0
      vertex 5.5 0 0
      vertex 5.45663 -0.689332 0
    endloop
  endfacet
  facet normal 0 0 -1
    outer loop
      vertex 2.48029 -0.313333 0
      vertex 5.45663 -0.689332 0
      vertex 5.32721 -1.36779 0
    endloop
  endfacet
  facet normal 0 0 -1
    outer loop
      vertex 5.5 0 0
      vertex 2.5 0 0
      vertex 5.45663 0.689332 0
    endloop
  endfacet
  facet normal 0 0 -1
    outer loop
      vertex 2.42146 -0.621724 0
      vertex 5.32721 -1.36779 0
      vertex 5.11377 -2.02468 0
    endloop
  endfacet
  facet normal 0 0 -1
    outer loop
      vertex 2.48029 0.313333 0
      vertex 5.45663 0.689332 0
      vertex 2.5 0 0
    endloop
  endfacet
  facet normal 0 0 -1
    outer loop
      vertex 2.32444 -0.920311 0
      vertex 5.11377 -2.02468 0
      vertex 4.81969 -2.64964 0
    endloop
  endfacet
  facet normal -0 0 -1
    outer loop
      vertex 5.45663 0.689332 0
      vertex 2.48029 0.313333 0
      vertex 5.32721 1.36779 0
    endloop
  endfacet
  facet normal 0 0 -1
    outer loop
      vertex 2.19077 -1.20438 0
      vertex 4.81969 -2.64964 0
      vertex 4.44959 -3.23282 0
    endloop
  endfacet
  facet normal 0 0 -1
    outer loop
      vertex 2.42146 0.621724 0
      vertex 5.32721 1.36779 0
      vertex 2.48029 0.313333 0
    endloop
  endfacet
  facet normal 0 0 -1
    outer loop
      vertex 2.02254 -1.46946 0
      vertex 4.44959 -3.23282 0
      vertex 4.00933 -3.76501 0
    endloop
  endfacet
  facet normal -0 0 -1
    outer loop
      vertex 5.32721 1.36779 0
      vertex 2.42146 0.621724 0
      vertex 5.11377 2.02468 0
    endloop
  endfacet
  facet normal 0 0 -1
    outer loop
      vertex 1.82242 -1.71137 0
      vertex 4.00933 -3.76501 0
      vertex 3.50583 -4.23782 0
    endloop
  endfacet
  facet normal 0 0 -1
    outer loop
      vertex 2.32444 0.920311 0
      vertex 5.11377 2.02468 0
      vertex 2.42146 0.621724 0
    endloop
  endfacet
  facet normal 0 0 -1
    outer loop
      vertex 1.59356 -1.92628 0
      vertex 3.50583 -4.23782 0
      vertex 2.94705 -4.6438 0
    endloop
  endfacet
  facet normal -0 0 -1
    outer loop
      vertex 5.11377 2.02468 0
      vertex 2.32444 0.920311 0
      vertex 4.81969 2.64964 0
    endloop
  endfacet
  facet normal 0 0 -1
    outer loop
      vertex 2.19077 1.20438 0
      vertex 4.81969 2.64964 0
      vertex 2.32444 0.920311 0
    endloop
  endfacet
  facet normal 0 0 -1
    outer loop
      vertex 5.45663 -0.689332 0
      vertex 2.48029 -0.313333 0
      vertex 2.5 0 0
    endloop
  endfacet
  facet normal 0 0 -1
    outer loop
      vertex 5.32721 -1.36779 0
      vertex 2.42146 -0.621724 0
      vertex 2.48029 -0.313333 0
    endloop
  endfacet
  facet normal 0 0 -1
    outer loop
      vertex 1.33957 -2.11082 0
      vertex 2.94705 -4.6438 0
      vertex 2.34179 -4.97655 0
    endloop
  endfacet
  facet normal 0 0 -1
    outer loop
      vertex 5.11377 -2.02468 0
      vertex 2.32444 -0.920311 0
      vertex 2.42146 -0.621724 0
    endloop
  endfacet
  facet normal 0 0 -1
    outer loop
      vertex 4.81969 -2.64964 0
      vertex 2.19077 -1.20438 0
      vertex 2.32444 -0.920311 0
    endloop
  endfacet
  facet normal 0 0 -1
    outer loop
      vertex 4.44959 -3.23282 0
      vertex 2.02254 -1.46946 0
      vertex 2.19077 -1.20438 0
    endloop
  endfacet
  facet normal 0 0 -1
    outer loop
      vertex 4.00933 -3.76501 0
      vertex 1.82242 -1.71137 0
      vertex 2.02254 -1.46946 0
    endloop
  endfacet
  facet normal 0 0 -1
    outer loop
      vertex 1.06445 -2.26207 0
      vertex 2.34179 -4.97655 0
      vertex 1.69959 -5.23081 0
    endloop
  endfacet
  facet normal 0 0 -1
    outer loop
      vertex 3.50583 -4.23782 0
      vertex 1.59356 -1.92628 0
      vertex 1.82242 -1.71137 0
    endloop
  endfacet
  facet normal 0 0 -1
    outer loop
      vertex 2.94705 -4.6438 0
      vertex 1.33957 -2.11082 0
      vertex 1.59356 -1.92628 0
    endloop
  endfacet
  facet normal 0 0 -1
    outer loop
      vertex 2.34179 -4.97655 0
      vertex 1.06445 -2.26207 0
      vertex 1.33957 -2.11082 0
    endloop
  endfacet
  facet normal 0 0 -1
    outer loop
      vertex 0.772542 -2.37764 0
      vertex 1.69959 -5.23081 0
      vertex 1.0306 -5.40258 0
    endloop
  endfacet
  facet normal 0 0 -1
    outer loop
      vertex 1.69959 -5.23081 0
      vertex 0.772542 -2.37764 0
      vertex 1.06445 -2.26207 0
    endloop
  endfacet
  facet normal 0 0 -1
    outer loop
      vertex 1.0306 -5.40258 0
      vertex 0.468452 -2.45572 0
      vertex 0.772542 -2.37764 0
    endloop
  endfacet
  facet normal 0 0 -1
    outer loop
      vertex 0.345347 -5.48915 0
      vertex 0.468452 -2.45572 0
      vertex 1.0306 -5.40258 0
    endloop
  endfacet
  facet normal 0 0 -1
    outer loop
      vertex 0.345347 -5.48915 0
      vertex 0.156976 -2.49507 0
      vertex 0.468452 -2.45572 0
    endloop
  endfacet
  facet normal 0 0 -1
    outer loop
      vertex 0.345347 -5.48915 0
      vertex -0.156976 -2.49507 0
      vertex 0.156976 -2.49507 0
    endloop
  endfacet
  facet normal 0 0 -1
    outer loop
      vertex -0.345347 -5.48915 0
      vertex -0.156976 -2.49507 0
      vertex 0.345347 -5.48915 0
    endloop
  endfacet
  facet normal 0 0 -1
    outer loop
      vertex -0.345347 -5.48915 0
      vertex -0.468452 -2.45572 0
      vertex -0.156976 -2.49507 0
    endloop
  endfacet
  facet normal 0 0 -1
    outer loop
      vertex -1.0306 -5.40258 0
      vertex -0.468452 -2.45572 0
      vertex -0.345347 -5.48915 0
    endloop
  endfacet
  facet normal -0 0 -1
    outer loop
      vertex -0.468452 -2.45572 0
      vertex -1.0306 -5.40258 0
      vertex -0.772542 -2.37764 0
    endloop
  endfacet
  facet normal 0 0 -1
    outer loop
      vertex -1.69959 -5.23081 0
      vertex -0.772542 -2.37764 0
      vertex -1.0306 -5.40258 0
    endloop
  endfacet
  facet normal -0 0 -1
    outer loop
      vertex -0.772542 -2.37764 0
      vertex -1.69959 -5.23081 0
      vertex -1.06445 -2.26207 0
    endloop
  endfacet
  facet normal 0 0 -1
    outer loop
      vertex -2.34179 -4.97655 0
      vertex -1.06445 -2.26207 0
      vertex -1.69959 -5.23081 0
    endloop
  endfacet
  facet normal -0 0 -1
    outer loop
      vertex -1.06445 -2.26207 0
      vertex -2.34179 -4.97655 0
      vertex -1.33957 -2.11082 0
    endloop
  endfacet
  facet normal 0 0 -1
    outer loop
      vertex -2.94705 -4.6438 0
      vertex -1.33957 -2.11082 0
      vertex -2.34179 -4.97655 0
    endloop
  endfacet
  facet normal -0 0 -1
    outer loop
      vertex -1.33957 -2.11082 0
      vertex -2.94705 -4.6438 0
      vertex -1.59356 -1.92628 0
    endloop
  endfacet
  facet normal 0 0 -1
    outer loop
      vertex -3.50583 -4.23782 0
      vertex -1.59356 -1.92628 0
      vertex -2.94705 -4.6438 0
    endloop
  endfacet
  facet normal -0 0 -1
    outer loop
      vertex -1.59356 -1.92628 0
      vertex -3.50583 -4.23782 0
      vertex -1.82242 -1.71137 0
    endloop
  endfacet
  facet normal 0 0 -1
    outer loop
      vertex -4.00933 -3.76501 0
      vertex -1.82242 -1.71137 0
      vertex -3.50583 -4.23782 0
    endloop
  endfacet
  facet normal -0 0 -1
    outer loop
      vertex -1.82242 -1.71137 0
      vertex -4.00933 -3.76501 0
      vertex -2.02254 -1.46946 0
    endloop
  endfacet
  facet normal 0 0 -1
    outer loop
      vertex -4.44959 -3.23282 0
      vertex -2.02254 -1.46946 0
      vertex -4.00933 -3.76501 0
    endloop
  endfacet
  facet normal -0 0 -1
    outer loop
      vertex -2.02254 -1.46946 0
      vertex -4.44959 -3.23282 0
      vertex -2.19077 -1.20438 0
    endloop
  endfacet
  facet normal 0 0 -1
    outer loop
      vertex -4.81969 -2.64964 0
      vertex -2.19077 -1.20438 0
      vertex -4.44959 -3.23282 0
    endloop
  endfacet
  facet normal -0 0 -1
    outer loop
      vertex 4.81969 2.64964 0
      vertex 2.19077 1.20438 0
      vertex 4.44959 3.23282 0
    endloop
  endfacet
  facet normal 0 0 -1
    outer loop
      vertex 2.02254 1.46946 0
      vertex 4.44959 3.23282 0
      vertex 2.19077 1.20438 0
    endloop
  endfacet
  facet normal -0 0 -1
    outer loop
      vertex 4.44959 3.23282 0
      vertex 2.02254 1.46946 0
      vertex 4.00933 3.76501 0
    endloop
  endfacet
  facet normal 0 0 -1
    outer loop
      vertex 1.82242 1.71137 0
      vertex 4.00933 3.76501 0
      vertex 2.02254 1.46946 0
    endloop
  endfacet
  facet normal -0 0 -1
    outer loop
      vertex 4.00933 3.76501 0
      vertex 1.82242 1.71137 0
      vertex 3.50583 4.23782 0
    endloop
  endfacet
  facet normal 0 0 -1
    outer loop
      vertex 1.59356 1.92628 0
      vertex 3.50583 4.23782 0
      vertex 1.82242 1.71137 0
    endloop
  endfacet
  facet normal -0 0 -1
    outer loop
      vertex 3.50583 4.23782 0
      vertex 1.59356 1.92628 0
      vertex 2.94705 4.6438 0
    endloop
  endfacet
  facet normal 0 0 -1
    outer loop
      vertex 1.33957 2.11082 0
      vertex 2.94705 4.6438 0
      vertex 1.59356 1.92628 0
    endloop
  endfacet
  facet normal -0 0 -1
    outer loop
      vertex 2.94705 4.6438 0
      vertex 1.33957 2.11082 0
      vertex 2.34179 4.97655 0
    endloop
  endfacet
  facet normal 0 0 -1
    outer loop
      vertex 1.06445 2.26207 0
      vertex 2.34179 4.97655 0
      vertex 1.33957 2.11082 0
    endloop
  endfacet
  facet normal -0 0 -1
    outer loop
      vertex 2.34179 4.97655 0
      vertex 1.06445 2.26207 0
      vertex 1.69959 5.23081 0
    endloop
  endfacet
  facet normal 0 0 -1
    outer loop
      vertex 0.772542 2.37764 0
      vertex 1.69959 5.23081 0
      vertex 1.06445 2.26207 0
    endloop
  endfacet
  facet normal -0 0 -1
    outer loop
      vertex 1.69959 5.23081 0
      vertex 0.772542 2.37764 0
      vertex 1.0306 5.40258 0
    endloop
  endfacet
  facet normal 0 0 -1
    outer loop
      vertex 0.468452 2.45572 0
      vertex 1.0306 5.40258 0
      vertex 0.772542 2.37764 0
    endloop
  endfacet
  facet normal 0 0 -1
    outer loop
      vertex 0.468452 2.45572 0
      vertex 0.345347 5.48915 0
      vertex 1.0306 5.40258 0
    endloop
  endfacet
  facet normal 0 0 -1
    outer loop
      vertex 0.156976 2.49507 0
      vertex 0.345347 5.48915 0
      vertex 0.468452 2.45572 0
    endloop
  endfacet
  facet normal 0 0 -1
    outer loop
      vertex -0.156976 2.49507 0
      vertex 0.345347 5.48915 0
      vertex 0.156976 2.49507 0
    endloop
  endfacet
  facet normal 0 0 -1
    outer loop
      vertex -0.156976 2.49507 0
      vertex -0.345347 5.48915 0
      vertex 0.345347 5.48915 0
    endloop
  endfacet
  facet normal 0 0 -1
    outer loop
      vertex -0.468452 2.45572 0
      vertex -0.345347 5.48915 0
      vertex -0.156976 2.49507 0
    endloop
  endfacet
  facet normal 0 0 -1
    outer loop
      vertex -1.0306 5.40258 0
      vertex -0.468452 2.45572 0
      vertex -0.772542 2.37764 0
    endloop
  endfacet
  facet normal 0 0 -1
    outer loop
      vertex -0.468452 2.45572 0
      vertex -1.0306 5.40258 0
      vertex -0.345347 5.48915 0
    endloop
  endfacet
  facet normal 0 0 -1
    outer loop
      vertex -1.69959 5.23081 0
      vertex -0.772542 2.37764 0
      vertex -1.06445 2.26207 0
    endloop
  endfacet
  facet normal 0 0 -1
    outer loop
      vertex -2.34179 4.97655 0
      vertex -1.06445 2.26207 0
      vertex -1.33957 2.11082 0
    endloop
  endfacet
  facet normal 0 0 -1
    outer loop
      vertex -2.94705 4.6438 0
      vertex -1.33957 2.11082 0
      vertex -1.59356 1.92628 0
    endloop
  endfacet
  facet normal 0 0 -1
    outer loop
      vertex -0.772542 2.37764 0
      vertex -1.69959 5.23081 0
      vertex -1.0306 5.40258 0
    endloop
  endfacet
  facet normal 0 0 -1
    outer loop
      vertex -3.50583 4.23782 0
      vertex -1.59356 1.92628 0
      vertex -1.82242 1.71137 0
    endloop
  endfacet
  facet normal 0 0 -1
    outer loop
      vertex -4.00933 3.76501 0
      vertex -1.82242 1.71137 0
      vertex -2.02254 1.46946 0
    endloop
  endfacet
  facet normal 0 0 -1
    outer loop
      vertex -4.44959 3.23282 0
      vertex -2.02254 1.46946 0
      vertex -2.19077 1.20438 0
    endloop
  endfacet
  facet normal 0 0 -1
    outer loop
      vertex -4.81969 2.64964 0
      vertex -2.19077 1.20438 0
      vertex -2.32444 0.920311 0
    endloop
  endfacet
  facet normal 0 0 -1
    outer loop
      vertex -1.06445 2.26207 0
      vertex -2.34179 4.97655 0
      vertex -1.69959 5.23081 0
    endloop
  endfacet
  facet normal 0 0 -1
    outer loop
      vertex -5.11377 2.02468 0
      vertex -2.32444 0.920311 0
      vertex -2.42146 0.621724 0
    endloop
  endfacet
  facet normal 0 0 -1
    outer loop
      vertex -5.32721 1.36779 0
      vertex -2.42146 0.621724 0
      vertex -2.48029 0.313333 0
    endloop
  endfacet
  facet normal 0 0 -1
    outer loop
      vertex -5.45663 0.689332 0
      vertex -2.48029 0.313333 0
      vertex -2.5 0 0
    endloop
  endfacet
  facet normal -0 0 -1
    outer loop
      vertex -2.19077 -1.20438 0
      vertex -4.81969 -2.64964 0
      vertex -2.32444 -0.920311 0
    endloop
  endfacet
  facet normal 0 0 -1
    outer loop
      vertex -1.33957 2.11082 0
      vertex -2.94705 4.6438 0
      vertex -2.34179 4.97655 0
    endloop
  endfacet
  facet normal 0 0 -1
    outer loop
      vertex -5.11377 -2.02468 0
      vertex -2.32444 -0.920311 0
      vertex -4.81969 -2.64964 0
    endloop
  endfacet
  facet normal 0 0 -1
    outer loop
      vertex -1.59356 1.92628 0
      vertex -3.50583 4.23782 0
      vertex -2.94705 4.6438 0
    endloop
  endfacet
  facet normal -0 0 -1
    outer loop
      vertex -2.32444 -0.920311 0
      vertex -5.11377 -2.02468 0
      vertex -2.42146 -0.621724 0
    endloop
  endfacet
  facet normal 0 0 -1
    outer loop
      vertex -1.82242 1.71137 0
      vertex -4.00933 3.76501 0
      vertex -3.50583 4.23782 0
    endloop
  endfacet
  facet normal 0 0 -1
    outer loop
      vertex -5.32721 -1.36779 0
      vertex -2.42146 -0.621724 0
      vertex -5.11377 -2.02468 0
    endloop
  endfacet
  facet normal 0 0 -1
    outer loop
      vertex -2.02254 1.46946 0
      vertex -4.44959 3.23282 0
      vertex -4.00933 3.76501 0
    endloop
  endfacet
  facet normal -0 0 -1
    outer loop
      vertex -2.42146 -0.621724 0
      vertex -5.32721 -1.36779 0
      vertex -2.48029 -0.313333 0
    endloop
  endfacet
  facet normal 0 0 -1
    outer loop
      vertex -2.19077 1.20438 0
      vertex -4.81969 2.64964 0
      vertex -4.44959 3.23282 0
    endloop
  endfacet
  facet normal 0 0 -1
    outer loop
      vertex -5.45663 -0.689332 0
      vertex -2.48029 -0.313333 0
      vertex -5.32721 -1.36779 0
    endloop
  endfacet
  facet normal 0 0 -1
    outer loop
      vertex -2.32444 0.920311 0
      vertex -5.11377 2.02468 0
      vertex -4.81969 2.64964 0
    endloop
  endfacet
  facet normal -0 0 -1
    outer loop
      vertex -2.48029 -0.313333 0
      vertex -5.45663 -0.689332 0
      vertex -2.5 0 0
    endloop
  endfacet
  facet normal 0 0 -1
    outer loop
      vertex -2.42146 0.621724 0
      vertex -5.32721 1.36779 0
      vertex -5.11377 2.02468 0
    endloop
  endfacet
  facet normal 0 0 -1
    outer loop
      vertex -5.5 0 0
      vertex -2.5 0 0
      vertex -5.45663 -0.689332 0
    endloop
  endfacet
  facet normal 0 0 -1
    outer loop
      vertex -2.48029 0.313333 0
      vertex -5.45663 0.689332 0
      vertex -5.32721 1.36779 0
    endloop
  endfacet
  facet normal 0 0 -1
    outer loop
      vertex -2.5 0 0
      vertex -5.5 0 0
      vertex -5.45663 0.689332 0
    endloop
  endfacet
  facet normal 0.904829 -0.425775 0
    outer loop
      vertex 4.81969 -2.64964 10
      vertex 5.11377 -2.02468 0
      vertex 5.11377 -2.02468 10
    endloop
  endfacet
  facet normal 0.904829 -0.425775 0
    outer loop
      vertex 5.11377 -2.02468 0
      vertex 4.81969 -2.64964 10
      vertex 4.81969 -2.64964 0
    endloop
  endfacet
  facet normal -0.951055 0.309022 0
    outer loop
      vertex -5.32721 1.36779 0
      vertex -5.11377 2.02468 10
      vertex -5.11377 2.02468 0
    endloop
  endfacet
  facet normal -0.951055 0.309022 0
    outer loop
      vertex -5.11377 2.02468 10
      vertex -5.32721 1.36779 0
      vertex -5.32721 1.36779 10
    endloop
  endfacet
  facet normal -0.951055 -0.309022 0
    outer loop
      vertex -5.11377 -2.02468 0
      vertex -5.32721 -1.36779 10
      vertex -5.32721 -1.36779 0
    endloop
  endfacet
  facet normal -0.951055 -0.309022 0
    outer loop
      vertex -5.32721 -1.36779 10
      vertex -5.11377 -2.02468 0
      vertex -5.11377 -2.02468 10
    endloop
  endfacet
  facet normal 0.684541 0.728974 -0
    outer loop
      vertex 4.00933 3.76501 0
      vertex 3.50583 4.23782 10
      vertex 4.00933 3.76501 10
    endloop
  endfacet
  facet normal 0.684541 0.728974 0
    outer loop
      vertex 3.50583 4.23782 10
      vertex 4.00933 3.76501 0
      vertex 3.50583 4.23782 0
    endloop
  endfacet
  facet normal 0 -1 0
    outer loop
      vertex -0.345347 -5.48915 0
      vertex 0.345347 -5.48915 10
      vertex -0.345347 -5.48915 10
    endloop
  endfacet
  facet normal 0 -1 -0
    outer loop
      vertex 0.345347 -5.48915 10
      vertex -0.345347 -5.48915 0
      vertex 0.345347 -5.48915 0
    endloop
  endfacet
  facet normal 0.844326 -0.53583 0
    outer loop
      vertex 4.44959 -3.23282 10
      vertex 4.81969 -2.64964 0
      vertex 4.81969 -2.64964 10
    endloop
  endfacet
  facet normal 0.844326 -0.53583 0
    outer loop
      vertex 4.81969 -2.64964 0
      vertex 4.44959 -3.23282 10
      vertex 4.44959 -3.23282 0
    endloop
  endfacet
  facet normal 0.125337 -0.992114 0
    outer loop
      vertex 0.345347 -5.48915 0
      vertex 1.0306 -5.40258 10
      vertex 0.345347 -5.48915 10
    endloop
  endfacet
  facet normal 0.125337 -0.992114 0
    outer loop
      vertex 1.0306 -5.40258 10
      vertex 0.345347 -5.48915 0
      vertex 1.0306 -5.40258 0
    endloop
  endfacet
  facet normal -0.368118 0.929779 0
    outer loop
      vertex -1.69959 5.23081 0
      vertex -2.34179 4.97655 10
      vertex -1.69959 5.23081 10
    endloop
  endfacet
  facet normal -0.368118 0.929779 0
    outer loop
      vertex -2.34179 4.97655 10
      vertex -1.69959 5.23081 0
      vertex -2.34179 4.97655 0
    endloop
  endfacet
  facet normal -0.982288 0.187377 0
    outer loop
      vertex -5.45663 0.689332 0
      vertex -5.32721 1.36779 10
      vertex -5.32721 1.36779 0
    endloop
  endfacet
  facet normal -0.982288 0.187377 0
    outer loop
      vertex -5.32721 1.36779 10
      vertex -5.45663 0.689332 0
      vertex -5.45663 0.689332 10
    endloop
  endfacet
  facet normal 0.684541 -0.728974 0
    outer loop
      vertex 3.50583 -4.23782 0
      vertex 4.00933 -3.76501 10
      vertex 3.50583 -4.23782 10
    endloop
  endfacet
  facet normal 0.684541 -0.728974 0
    outer loop
      vertex 4.00933 -3.76501 10
      vertex 3.50583 -4.23782 0
      vertex 4.00933 -3.76501 0
    endloop
  endfacet
  facet normal -0.587788 0.809015 0
    outer loop
      vertex -2.94705 4.6438 0
      vertex -3.50583 4.23782 10
      vertex -2.94705 4.6438 10
    endloop
  endfacet
  facet normal -0.587788 0.809015 0
    outer loop
      vertex -3.50583 4.23782 10
      vertex -2.94705 4.6438 0
      vertex -3.50583 4.23782 0
    endloop
  endfacet
  facet normal -0.248693 -0.968582 0
    outer loop
      vertex -1.69959 -5.23081 0
      vertex -1.0306 -5.40258 10
      vertex -1.69959 -5.23081 10
    endloop
  endfacet
  facet normal -0.248693 -0.968582 -0
    outer loop
      vertex -1.0306 -5.40258 10
      vertex -1.69959 -5.23081 0
      vertex -1.0306 -5.40258 0
    endloop
  endfacet
  facet normal -0.125337 -0.992114 0
    outer loop
      vertex -1.0306 -5.40258 0
      vertex -0.345347 -5.48915 10
      vertex -1.0306 -5.40258 10
    endloop
  endfacet
  facet normal -0.125337 -0.992114 -0
    outer loop
      vertex -0.345347 -5.48915 10
      vertex -1.0306 -5.40258 0
      vertex -0.345347 -5.48915 0
    endloop
  endfacet
  facet normal 0.770517 0.637419 0
    outer loop
      vertex 4.44959 3.23282 10
      vertex 4.00933 3.76501 0
      vertex 4.00933 3.76501 10
    endloop
  endfacet
  facet normal 0.770517 0.637419 0
    outer loop
      vertex 4.00933 3.76501 0
      vertex 4.44959 3.23282 10
      vertex 4.44959 3.23282 0
    endloop
  endfacet
  facet normal 0.248693 0.968582 -0
    outer loop
      vertex 1.69959 5.23081 0
      vertex 1.0306 5.40258 10
      vertex 1.69959 5.23081 10
    endloop
  endfacet
  facet normal 0.248693 0.968582 0
    outer loop
      vertex 1.0306 5.40258 10
      vertex 1.69959 5.23081 0
      vertex 1.0306 5.40258 0
    endloop
  endfacet
  facet normal 0.125337 0.992114 -0
    outer loop
      vertex 1.0306 5.40258 0
      vertex 0.345347 5.48915 10
      vertex 1.0306 5.40258 10
    endloop
  endfacet
  facet normal 0.125337 0.992114 0
    outer loop
      vertex 0.345347 5.48915 10
      vertex 1.0306 5.40258 0
      vertex 0.345347 5.48915 0
    endloop
  endfacet
  facet normal -0.248693 0.968582 0
    outer loop
      vertex -1.0306 5.40258 0
      vertex -1.69959 5.23081 10
      vertex -1.0306 5.40258 10
    endloop
  endfacet
  facet normal -0.248693 0.968582 0
    outer loop
      vertex -1.69959 5.23081 10
      vertex -1.0306 5.40258 0
      vertex -1.69959 5.23081 0
    endloop
  endfacet
  facet normal -0.998027 0.0627918 0
    outer loop
      vertex -5.5 0 0
      vertex -5.45663 0.689332 10
      vertex -5.45663 0.689332 0
    endloop
  endfacet
  facet normal -0.998027 0.0627918 0
    outer loop
      vertex -5.45663 0.689332 10
      vertex -5.5 0 0
      vertex -5.5 0 10
    endloop
  endfacet
  facet normal 0.770517 -0.637419 0
    outer loop
      vertex 4.00933 -3.76501 10
      vertex 4.44959 -3.23282 0
      vertex 4.44959 -3.23282 10
    endloop
  endfacet
  facet normal 0.770517 -0.637419 0
    outer loop
      vertex 4.44959 -3.23282 0
      vertex 4.00933 -3.76501 10
      vertex 4.00933 -3.76501 0
    endloop
  endfacet
  facet normal -0.770517 0.637419 0
    outer loop
      vertex -4.44959 3.23282 0
      vertex -4.00933 3.76501 10
      vertex -4.00933 3.76501 0
    endloop
  endfacet
  facet normal -0.770517 0.637419 0
    outer loop
      vertex -4.00933 3.76501 10
      vertex -4.44959 3.23282 0
      vertex -4.44959 3.23282 10
    endloop
  endfacet
  facet normal -0.904829 -0.425775 0
    outer loop
      vertex -4.81969 -2.64964 0
      vertex -5.11377 -2.02468 10
      vertex -5.11377 -2.02468 0
    endloop
  endfacet
  facet normal -0.904829 -0.425775 0
    outer loop
      vertex -5.11377 -2.02468 10
      vertex -4.81969 -2.64964 0
      vertex -4.81969 -2.64964 10
    endloop
  endfacet
  facet normal -0.48176 -0.876303 0
    outer loop
      vertex -2.94705 -4.6438 0
      vertex -2.34179 -4.97655 10
      vertex -2.94705 -4.6438 10
    endloop
  endfacet
  facet normal -0.48176 -0.876303 -0
    outer loop
      vertex -2.34179 -4.97655 10
      vertex -2.94705 -4.6438 0
      vertex -2.34179 -4.97655 0
    endloop
  endfacet
  facet normal -0.844326 0.53583 0
    outer loop
      vertex -4.81969 2.64964 0
      vertex -4.44959 3.23282 10
      vertex -4.44959 3.23282 0
    endloop
  endfacet
  facet normal -0.844326 0.53583 0
    outer loop
      vertex -4.44959 3.23282 10
      vertex -4.81969 2.64964 0
      vertex -4.81969 2.64964 10
    endloop
  endfacet
  facet normal -0.904829 0.425775 0
    outer loop
      vertex -5.11377 2.02468 0
      vertex -4.81969 2.64964 10
      vertex -4.81969 2.64964 0
    endloop
  endfacet
  facet normal -0.904829 0.425775 0
    outer loop
      vertex -4.81969 2.64964 10
      vertex -5.11377 2.02468 0
      vertex -5.11377 2.02468 10
    endloop
  endfacet
  facet normal 0 0 1
    outer loop
      vertex 2.5 0 10
      vertex 5.5 0 10
      vertex 5.45663 0.689332 10
    endloop
  endfacet
  facet normal 0 0 1
    outer loop
      vertex 2.48029 0.313333 10
      vertex 5.45663 0.689332 10
      vertex 5.32721 1.36779 10
    endloop
  endfacet
  facet normal 0 0 1
    outer loop
      vertex 5.5 0 10
      vertex 2.5 0 10
      vertex 5.45663 -0.689332 10
    endloop
  endfacet
  facet normal 0 0 1
    outer loop
      vertex 2.42146 0.621724 10
      vertex 5.32721 1.36779 10
      vertex 5.11377 2.02468 10
    endloop
  endfacet
  facet normal -0 0 1
    outer loop
      vertex 2.48029 -0.313333 10
      vertex 5.45663 -0.689332 10
      vertex 2.5 0 10
    endloop
  endfacet
  facet normal 0 0 1
    outer loop
      vertex 2.32444 0.920311 10
      vertex 5.11377 2.02468 10
      vertex 4.81969 2.64964 10
    endloop
  endfacet
  facet normal 0 0 1
    outer loop
      vertex 5.45663 -0.689332 10
      vertex 2.48029 -0.313333 10
      vertex 5.32721 -1.36779 10
    endloop
  endfacet
  facet normal 0 0 1
    outer loop
      vertex 2.19077 1.20438 10
      vertex 4.81969 2.64964 10
      vertex 4.44959 3.23282 10
    endloop
  endfacet
  facet normal -0 0 1
    outer loop
      vertex 2.42146 -0.621724 10
      vertex 5.32721 -1.36779 10
      vertex 2.48029 -0.313333 10
    endloop
  endfacet
  facet normal 0 0 1
    outer loop
      vertex 2.02254 1.46946 10
      vertex 4.44959 3.23282 10
      vertex 4.00933 3.76501 10
    endloop
  endfacet
  facet normal 0 0 1
    outer loop
      vertex 5.32721 -1.36779 10
      vertex 2.42146 -0.621724 10
      vertex 5.11377 -2.02468 10
    endloop
  endfacet
  facet normal 0 0 1
    outer loop
      vertex 1.82242 1.71137 10
      vertex 4.00933 3.76501 10
      vertex 3.50583 4.23782 10
    endloop
  endfacet
  facet normal -0 0 1
    outer loop
      vertex 2.32444 -0.920311 10
      vertex 5.11377 -2.02468 10
      vertex 2.42146 -0.621724 10
    endloop
  endfacet
  facet normal 0 0 1
    outer loop
      vertex 1.59356 1.92628 10
      vertex 3.50583 4.23782 10
      vertex 2.94705 4.6438 10
    endloop
  endfacet
  facet normal 0 0 1
    outer loop
      vertex 5.11377 -2.02468 10
      vertex 2.32444 -0.920311 10
      vertex 4.81969 -2.64964 10
    endloop
  endfacet
  facet normal -0 0 1
    outer loop
      vertex 2.19077 -1.20438 10
      vertex 4.81969 -2.64964 10
      vertex 2.32444 -0.920311 10
    endloop
  endfacet
  facet normal 0 0 1
    outer loop
      vertex 5.45663 0.689332 10
      vertex 2.48029 0.313333 10
      vertex 2.5 0 10
    endloop
  endfacet
  facet normal 0 0 1
    outer loop
      vertex 5.32721 1.36779 10
      vertex 2.42146 0.621724 10
      vertex 2.48029 0.313333 10
    endloop
  endfacet
  facet normal 0 0 1
    outer loop
      vertex 1.33957 2.11082 10
      vertex 2.94705 4.6438 10
      vertex 2.34179 4.97655 10
    endloop
  endfacet
  facet normal 0 0 1
    outer loop
      vertex 5.11377 2.02468 10
      vertex 2.32444 0.920311 10
      vertex 2.42146 0.621724 10
    endloop
  endfacet
  facet normal 0 0 1
    outer loop
      vertex 4.81969 2.64964 10
      vertex 2.19077 1.20438 10
      vertex 2.32444 0.920311 10
    endloop
  endfacet
  facet normal 0 0 1
    outer loop
      vertex 4.44959 3.23282 10
      vertex 2.02254 1.46946 10
      vertex 2.19077 1.20438 10
    endloop
  endfacet
  facet normal 0 0 1
    outer loop
      vertex 4.00933 3.76501 10
      vertex 1.82242 1.71137 10
      vertex 2.02254 1.46946 10
    endloop
  endfacet
  facet normal 0 0 1
    outer loop
      vertex 1.06445 2.26207 10
      vertex 2.34179 4.97655 10
      vertex 1.69959 5.23081 10
    endloop
  endfacet
  facet normal 0 0 1
    outer loop
      vertex 3.50583 4.23782 10
      vertex 1.59356 1.92628 10
      vertex 1.82242 1.71137 10
    endloop
  endfacet
  facet normal 0 0 1
    outer loop
      vertex 2.94705 4.6438 10
      vertex 1.33957 2.11082 10
      vertex 1.59356 1.92628 10
    endloop
  endfacet
  facet normal 0 0 1
    outer loop
      vertex 2.34179 4.97655 10
      vertex 1.06445 2.26207 10
      vertex 1.33957 2.11082 10
    endloop
  endfacet
  facet normal 0 0 1
    outer loop
      vertex 0.772542 2.37764 10
      vertex 1.69959 5.23081 10
      vertex 1.0306 5.40258 10
    endloop
  endfacet
  facet normal 0 0 1
    outer loop
      vertex 1.69959 5.23081 10
      vertex 0.772542 2.37764 10
      vertex 1.06445 2.26207 10
    endloop
  endfacet
  facet normal 0 0 1
    outer loop
      vertex 1.0306 5.40258 10
      vertex 0.468452 2.45572 10
      vertex 0.772542 2.37764 10
    endloop
  endfacet
  facet normal 0 0 1
    outer loop
      vertex 0.345347 5.48915 10
      vertex 0.468452 2.45572 10
      vertex 1.0306 5.40258 10
    endloop
  endfacet
  facet normal 0 0 1
    outer loop
      vertex 0.345347 5.48915 10
      vertex 0.156976 2.49507 10
      vertex 0.468452 2.45572 10
    endloop
  endfacet
  facet normal 0 0 1
    outer loop
      vertex 0.345347 5.48915 10
      vertex -0.156976 2.49507 10
      vertex 0.156976 2.49507 10
    endloop
  endfacet
  facet normal -0 0 1
    outer loop
      vertex -0.345347 5.48915 10
      vertex -0.156976 2.49507 10
      vertex 0.345347 5.48915 10
    endloop
  endfacet
  facet normal 0 0 1
    outer loop
      vertex -0.345347 5.48915 10
      vertex -0.468452 2.45572 10
      vertex -0.156976 2.49507 10
    endloop
  endfacet
  facet normal -0 0 1
    outer loop
      vertex -1.0306 5.40258 10
      vertex -0.468452 2.45572 10
      vertex -0.345347 5.48915 10
    endloop
  endfacet
  facet normal 0 0 1
    outer loop
      vertex -0.468452 2.45572 10
      vertex -1.0306 5.40258 10
      vertex -0.772542 2.37764 10
    endloop
  endfacet
  facet normal -0 0 1
    outer loop
      vertex -1.69959 5.23081 10
      vertex -0.772542 2.37764 10
      vertex -1.0306 5.40258 10
    endloop
  endfacet
  facet normal 0 0 1
    outer loop
      vertex -0.772542 2.37764 10
      vertex -1.69959 5.23081 10
      vertex -1.06445 2.26207 10
    endloop
  endfacet
  facet normal -0 0 1
    outer loop
      vertex -2.34179 4.97655 10
      vertex -1.06445 2.26207 10
      vertex -1.69959 5.23081 10
    endloop
  endfacet
  facet normal 0 0 1
    outer loop
      vertex -1.06445 2.26207 10
      vertex -2.34179 4.97655 10
      vertex -1.33957 2.11082 10
    endloop
  endfacet
  facet normal -0 0 1
    outer loop
      vertex -2.94705 4.6438 10
      vertex -1.33957 2.11082 10
      vertex -2.34179 4.97655 10
    endloop
  endfacet
  facet normal 0 0 1
    outer loop
      vertex -1.33957 2.11082 10
      vertex -2.94705 4.6438 10
      vertex -1.59356 1.92628 10
    endloop
  endfacet
  facet normal -0 0 1
    outer loop
      vertex -3.50583 4.23782 10
      vertex -1.59356 1.92628 10
      vertex -2.94705 4.6438 10
    endloop
  endfacet
  facet normal 0 0 1
    outer loop
      vertex -1.59356 1.92628 10
      vertex -3.50583 4.23782 10
      vertex -1.82242 1.71137 10
    endloop
  endfacet
  facet normal -0 0 1
    outer loop
      vertex -4.00933 3.76501 10
      vertex -1.82242 1.71137 10
      vertex -3.50583 4.23782 10
    endloop
  endfacet
  facet normal 0 0 1
    outer loop
      vertex -1.82242 1.71137 10
      vertex -4.00933 3.76501 10
      vertex -2.02254 1.46946 10
    endloop
  endfacet
  facet normal -0 0 1
    outer loop
      vertex -4.44959 3.23282 10
      vertex -2.02254 1.46946 10
      vertex -4.00933 3.76501 10
    endloop
  endfacet
  facet normal 0 0 1
    outer loop
      vertex -2.02254 1.46946 10
      vertex -4.44959 3.23282 10
      vertex -2.19077 1.20438 10
    endloop
  endfacet
  facet normal -0 0 1
    outer loop
      vertex -4.81969 2.64964 10
      vertex -2.19077 1.20438 10
      vertex -4.44959 3.23282 10
    endloop
  endfacet
  facet normal 0 0 1
    outer loop
      vertex 4.81969 -2.64964 10
      vertex 2.19077 -1.20438 10
      vertex 4.44959 -3.23282 10
    endloop
  endfacet
  facet normal -0 0 1
    outer loop
      vertex 2.02254 -1.46946 10
      vertex 4.44959 -3.23282 10
      vertex 2.19077 -1.20438 10
    endloop
  endfacet
  facet normal 0 0 1
    outer loop
      vertex 4.44959 -3.23282 10
      vertex 2.02254 -1.46946 10
      vertex 4.00933 -3.76501 10
    endloop
  endfacet
  facet normal -0 0 1
    outer loop
      vertex 1.82242 -1.71137 10
      vertex 4.00933 -3.76501 10
      vertex 2.02254 -1.46946 10
    endloop
  endfacet
  facet normal 0 0 1
    outer loop
      vertex 4.00933 -3.76501 10
      vertex 1.82242 -1.71137 10
      vertex 3.50583 -4.23782 10
    endloop
  endfacet
  facet normal -0 0 1
    outer loop
      vertex 1.59356 -1.92628 10
      vertex 3.50583 -4.23782 10
      vertex 1.82242 -1.71137 10
    endloop
  endfacet
  facet normal 0 0 1
    outer loop
      vertex 3.50583 -4.23782 10
      vertex 1.59356 -1.92628 10
      vertex 2.94705 -4.6438 10
    endloop
  endfacet
  facet normal -0 0 1
    outer loop
      vertex 1.33957 -2.11082 10
      vertex 2.94705 -4.6438 10
      vertex 1.59356 -1.92628 10
    endloop
  endfacet
  facet normal 0 0 1
    outer loop
      vertex 2.94705 -4.6438 10
      vertex 1.33957 -2.11082 10
      vertex 2.34179 -4.97655 10
    endloop
  endfacet
  facet normal -0 0 1
    outer loop
      vertex 1.06445 -2.26207 10
      vertex 2.34179 -4.97655 10
      vertex 1.33957 -2.11082 10
    endloop
  endfacet
  facet normal 0 0 1
    outer loop
      vertex 2.34179 -4.97655 10
      vertex 1.06445 -2.26207 10
      vertex 1.69959 -5.23081 10
    endloop
  endfacet
  facet normal -0 0 1
    outer loop
      vertex 0.772542 -2.37764 10
      vertex 1.69959 -5.23081 10
      vertex 1.06445 -2.26207 10
    endloop
  endfacet
  facet normal 0 0 1
    outer loop
      vertex 1.69959 -5.23081 10
      vertex 0.772542 -2.37764 10
      vertex 1.0306 -5.40258 10
    endloop
  endfacet
  facet normal -0 0 1
    outer loop
      vertex 0.468452 -2.45572 10
      vertex 1.0306 -5.40258 10
      vertex 0.772542 -2.37764 10
    endloop
  endfacet
  facet normal 0 0 1
    outer loop
      vertex 0.468452 -2.45572 10
      vertex 0.345347 -5.48915 10
      vertex 1.0306 -5.40258 10
    endloop
  endfacet
  facet normal -0 0 1
    outer loop
      vertex 0.156976 -2.49507 10
      vertex 0.345347 -5.48915 10
      vertex 0.468452 -2.45572 10
    endloop
  endfacet
  facet normal -0 0 1
    outer loop
      vertex -0.156976 -2.49507 10
      vertex 0.345347 -5.48915 10
      vertex 0.156976 -2.49507 10
    endloop
  endfacet
  facet normal 0 0 1
    outer loop
      vertex -0.156976 -2.49507 10
      vertex -0.345347 -5.48915 10
      vertex 0.345347 -5.48915 10
    endloop
  endfacet
  facet normal 0 0 1
    outer loop
      vertex -0.468452 -2.45572 10
      vertex -0.345347 -5.48915 10
      vertex -0.156976 -2.49507 10
    endloop
  endfacet
  facet normal 0 0 1
    outer loop
      vertex -1.0306 -5.40258 10
      vertex -0.468452 -2.45572 10
      vertex -0.772542 -2.37764 10
    endloop
  endfacet
  facet normal 0 0 1
    outer loop
      vertex -0.468452 -2.45572 10
      vertex -1.0306 -5.40258 10
      vertex -0.345347 -5.48915 10
    endloop
  endfacet
  facet normal 0 0 1
    outer loop
      vertex -1.69959 -5.23081 10
      vertex -0.772542 -2.37764 10
      vertex -1.06445 -2.26207 10
    endloop
  endfacet
  facet normal 0 0 1
    outer loop
      vertex -2.34179 -4.97655 10
      vertex -1.06445 -2.26207 10
      vertex -1.33957 -2.11082 10
    endloop
  endfacet
  facet normal 0 0 1
    outer loop
      vertex -2.94705 -4.6438 10
      vertex -1.33957 -2.11082 10
      vertex -1.59356 -1.92628 10
    endloop
  endfacet
  facet normal 0 0 1
    outer loop
      vertex -0.772542 -2.37764 10
      vertex -1.69959 -5.23081 10
      vertex -1.0306 -5.40258 10
    endloop
  endfacet
  facet normal 0 0 1
    outer loop
      vertex -3.50583 -4.23782 10
      vertex -1.59356 -1.92628 10
      vertex -1.82242 -1.71137 10
    endloop
  endfacet
  facet normal 0 0 1
    outer loop
      vertex -4.00933 -3.76501 10
      vertex -1.82242 -1.71137 10
      vertex -2.02254 -1.46946 10
    endloop
  endfacet
  facet normal 0 0 1
    outer loop
      vertex -4.44959 -3.23282 10
      vertex -2.02254 -1.46946 10
      vertex -2.19077 -1.20438 10
    endloop
  endfacet
  facet normal 0 0 1
    outer loop
      vertex -4.81969 -2.64964 10
      vertex -2.19077 -1.20438 10
      vertex -2.32444 -0.920311 10
    endloop
  endfacet
  facet normal 0 0 1
    outer loop
      vertex -1.06445 -2.26207 10
      vertex -2.34179 -4.97655 10
      vertex -1.69959 -5.23081 10
    endloop
  endfacet
  facet normal 0 0 1
    outer loop
      vertex -5.11377 -2.02468 10
      vertex -2.32444 -0.920311 10
      vertex -2.42146 -0.621724 10
    endloop
  endfacet
  facet normal 0 0 1
    outer loop
      vertex -5.32721 -1.36779 10
      vertex -2.42146 -0.621724 10
      vertex -2.48029 -0.313333 10
    endloop
  endfacet
  facet normal 0 0 1
    outer loop
      vertex -5.45663 -0.689332 10
      vertex -2.48029 -0.313333 10
      vertex -2.5 0 10
    endloop
  endfacet
  facet normal 0 0 1
    outer loop
      vertex -2.19077 1.20438 10
      vertex -4.81969 2.64964 10
      vertex -2.32444 0.920311 10
    endloop
  endfacet
  facet normal 0 0 1
    outer loop
      vertex -1.33957 -2.11082 10
      vertex -2.94705 -4.6438 10
      vertex -2.34179 -4.97655 10
    endloop
  endfacet
  facet normal -0 0 1
    outer loop
      vertex -5.11377 2.02468 10
      vertex -2.32444 0.920311 10
      vertex -4.81969 2.64964 10
    endloop
  endfacet
  facet normal 0 0 1
    outer loop
      vertex -1.59356 -1.92628 10
      vertex -3.50583 -4.23782 10
      vertex -2.94705 -4.6438 10
    endloop
  endfacet
  facet normal 0 0 1
    outer loop
      vertex -2.32444 0.920311 10
      vertex -5.11377 2.02468 10
      vertex -2.42146 0.621724 10
    endloop
  endfacet
  facet normal 0 0 1
    outer loop
      vertex -1.82242 -1.71137 10
      vertex -4.00933 -3.76501 10
      vertex -3.50583 -4.23782 10
    endloop
  endfacet
  facet normal -0 0 1
    outer loop
      vertex -5.32721 1.36779 10
      vertex -2.42146 0.621724 10
      vertex -5.11377 2.02468 10
    endloop
  endfacet
  facet normal 0 0 1
    outer loop
      vertex -2.02254 -1.46946 10
      vertex -4.44959 -3.23282 10
      vertex -4.00933 -3.76501 10
    endloop
  endfacet
  facet normal 0 0 1
    outer loop
      vertex -2.42146 0.621724 10
      vertex -5.32721 1.36779 10
      vertex -2.48029 0.313333 10
    endloop
  endfacet
  facet normal 0 0 1
    outer loop
      vertex -2.19077 -1.20438 10
      vertex -4.81969 -2.64964 10
      vertex -4.44959 -3.23282 10
    endloop
  endfacet
  facet normal -0 0 1
    outer loop
      vertex -5.45663 0.689332 10
      vertex -2.48029 0.313333 10
      vertex -5.32721 1.36779 10
    endloop
  endfacet
  facet normal 0 0 1
    outer loop
      vertex -2.32444 -0.920311 10
      vertex -5.11377 -2.02468 10
      vertex -4.81969 -2.64964 10
    endloop
  endfacet
  facet normal 0 0 1
    outer loop
      vertex -2.48029 0.313333 10
      vertex -5.45663 0.689332 10
      vertex -2.5 0 10
    endloop
  endfacet
  facet normal 0 0 1
    outer loop
      vertex -2.42146 -0.621724 10
      vertex -5.32721 -1.36779 10
      vertex -5.11377 -2.02468 10
    endloop
  endfacet
  facet normal 0 0 1
    outer loop
      vertex -5.5 0 10
      vertex -2.5 0 10
      vertex -5.45663 0.689332 10
    endloop
  endfacet
  facet normal 0 0 1
    outer loop
      vertex -2.48029 -0.313333 10
      vertex -5.45663 -0.689332 10
      vertex -5.32721 -1.36779 10
    endloop
  endfacet
  facet normal 0 0 1
    outer loop
      vertex -2.5 0 10
      vertex -5.5 0 10
      vertex -5.45663 -0.689332 10
    endloop
  endfacet
  facet normal -0.248699 0.968581 0
    outer loop
      vertex 0.772542 -2.37764 0
      vertex 0.468452 -2.45572 10
      vertex 0.772542 -2.37764 10
    endloop
  endfacet
  facet normal -0.248699 0.968581 0
    outer loop
      vertex 0.468452 -2.45572 10
      vertex 0.772542 -2.37764 0
      vertex 0.468452 -2.45572 0
    endloop
  endfacet
  facet normal -0.982287 -0.187385 0
    outer loop
      vertex 2.48029 0.313333 0
      vertex 2.42146 0.621724 10
      vertex 2.42146 0.621724 0
    endloop
  endfacet
  facet normal -0.982287 -0.187385 0
    outer loop
      vertex 2.42146 0.621724 10
      vertex 2.48029 0.313333 0
      vertex 2.48029 0.313333 10
    endloop
  endfacet
  facet normal -0.998027 -0.0627802 0
    outer loop
      vertex 2.5 0 0
      vertex 2.48029 0.313333 10
      vertex 2.48029 0.313333 0
    endloop
  endfacet
  facet normal -0.998027 -0.0627802 0
    outer loop
      vertex 2.48029 0.313333 10
      vertex 2.5 0 0
      vertex 2.5 0 10
    endloop
  endfacet
  facet normal -0.951054 -0.309026 0
    outer loop
      vertex 2.42146 0.621724 0
      vertex 2.32444 0.920311 10
      vertex 2.32444 0.920311 0
    endloop
  endfacet
  facet normal -0.951054 -0.309026 0
    outer loop
      vertex 2.32444 0.920311 10
      vertex 2.42146 0.621724 0
      vertex 2.42146 0.621724 10
    endloop
  endfacet
  facet normal -0.368112 -0.929781 0
    outer loop
      vertex 0.772542 2.37764 0
      vertex 1.06445 2.26207 10
      vertex 0.772542 2.37764 10
    endloop
  endfacet
  facet normal -0.368112 -0.929781 -0
    outer loop
      vertex 1.06445 2.26207 10
      vertex 0.772542 2.37764 0
      vertex 1.06445 2.26207 0
    endloop
  endfacet
  facet normal 0.951054 -0.309026 0
    outer loop
      vertex -2.42146 0.621724 10
      vertex -2.32444 0.920311 0
      vertex -2.32444 0.920311 10
    endloop
  endfacet
  facet normal 0.951054 -0.309026 0
    outer loop
      vertex -2.32444 0.920311 0
      vertex -2.42146 0.621724 10
      vertex -2.42146 0.621724 0
    endloop
  endfacet
  facet normal 0.770522 0.637414 0
    outer loop
      vertex -1.82242 -1.71137 10
      vertex -2.02254 -1.46946 0
      vertex -2.02254 -1.46946 10
    endloop
  endfacet
  facet normal 0.770522 0.637414 0
    outer loop
      vertex -2.02254 -1.46946 0
      vertex -1.82242 -1.71137 10
      vertex -1.82242 -1.71137 0
    endloop
  endfacet
  facet normal -0.998027 0.0627802 0
    outer loop
      vertex 2.48029 -0.313333 0
      vertex 2.5 0 10
      vertex 2.5 0 0
    endloop
  endfacet
  facet normal -0.998027 0.0627802 0
    outer loop
      vertex 2.5 0 10
      vertex 2.48029 -0.313333 0
      vertex 2.48029 -0.313333 10
    endloop
  endfacet
  facet normal -0.90483 -0.425772 0
    outer loop
      vertex 2.32444 0.920311 0
      vertex 2.19077 1.20438 10
      vertex 2.19077 1.20438 0
    endloop
  endfacet
  facet normal -0.90483 -0.425772 0
    outer loop
      vertex 2.19077 1.20438 10
      vertex 2.32444 0.920311 0
      vertex 2.32444 0.920311 10
    endloop
  endfacet
  facet normal 0.125338 -0.992114 0
    outer loop
      vertex -0.468452 2.45572 0
      vertex -0.156976 2.49507 10
      vertex -0.468452 2.45572 10
    endloop
  endfacet
  facet normal 0.125338 -0.992114 0
    outer loop
      vertex -0.156976 2.49507 10
      vertex -0.468452 2.45572 0
      vertex -0.156976 2.49507 0
    endloop
  endfacet
  facet normal -0.125338 -0.992114 0
    outer loop
      vertex 0.156976 2.49507 0
      vertex 0.468452 2.45572 10
      vertex 0.156976 2.49507 10
    endloop
  endfacet
  facet normal -0.125338 -0.992114 -0
    outer loop
      vertex 0.468452 2.45572 10
      vertex 0.156976 2.49507 0
      vertex 0.468452 2.45572 0
    endloop
  endfacet
  facet normal -0.587797 0.809009 0
    outer loop
      vertex 1.59356 -1.92628 0
      vertex 1.33957 -2.11082 10
      vertex 1.59356 -1.92628 10
    endloop
  endfacet
  facet normal -0.587797 0.809009 0
    outer loop
      vertex 1.33957 -2.11082 10
      vertex 1.59356 -1.92628 0
      vertex 1.33957 -2.11082 0
    endloop
  endfacet
  facet normal 0.587797 0.809009 -0
    outer loop
      vertex -1.33957 -2.11082 0
      vertex -1.59356 -1.92628 10
      vertex -1.33957 -2.11082 10
    endloop
  endfacet
  facet normal 0.587797 0.809009 0
    outer loop
      vertex -1.59356 -1.92628 10
      vertex -1.33957 -2.11082 0
      vertex -1.59356 -1.92628 0
    endloop
  endfacet
  facet normal 0.684541 -0.728975 0
    outer loop
      vertex -1.82242 1.71137 0
      vertex -1.59356 1.92628 10
      vertex -1.82242 1.71137 10
    endloop
  endfacet
  facet normal 0.684541 -0.728975 0
    outer loop
      vertex -1.59356 1.92628 10
      vertex -1.82242 1.71137 0
      vertex -1.59356 1.92628 0
    endloop
  endfacet
  facet normal -0.982287 0.187385 0
    outer loop
      vertex 2.42146 -0.621724 0
      vertex 2.48029 -0.313333 10
      vertex 2.48029 -0.313333 0
    endloop
  endfacet
  facet normal -0.982287 0.187385 0
    outer loop
      vertex 2.48029 -0.313333 10
      vertex 2.42146 -0.621724 0
      vertex 2.42146 -0.621724 10
    endloop
  endfacet
  facet normal -0.368112 0.929781 0
    outer loop
      vertex 1.06445 -2.26207 0
      vertex 0.772542 -2.37764 10
      vertex 1.06445 -2.26207 10
    endloop
  endfacet
  facet normal -0.368112 0.929781 0
    outer loop
      vertex 0.772542 -2.37764 10
      vertex 1.06445 -2.26207 0
      vertex 0.772542 -2.37764 0
    endloop
  endfacet
  facet normal -0.684541 0.728975 0
    outer loop
      vertex 1.82242 -1.71137 0
      vertex 1.59356 -1.92628 10
      vertex 1.82242 -1.71137 10
    endloop
  endfacet
  facet normal -0.684541 0.728975 0
    outer loop
      vertex 1.59356 -1.92628 10
      vertex 1.82242 -1.71137 0
      vertex 1.59356 -1.92628 0
    endloop
  endfacet
  facet normal -0.587797 -0.809009 0
    outer loop
      vertex 1.33957 2.11082 0
      vertex 1.59356 1.92628 10
      vertex 1.33957 2.11082 10
    endloop
  endfacet
  facet normal -0.587797 -0.809009 -0
    outer loop
      vertex 1.59356 1.92628 10
      vertex 1.33957 2.11082 0
      vertex 1.59356 1.92628 0
    endloop
  endfacet
  facet normal 0.368112 -0.929781 0
    outer loop
      vertex -1.06445 2.26207 0
      vertex -0.772542 2.37764 10
      vertex -1.06445 2.26207 10
    endloop
  endfacet
  facet normal 0.368112 -0.929781 0
    outer loop
      vertex -0.772542 2.37764 10
      vertex -1.06445 2.26207 0
      vertex -0.772542 2.37764 0
    endloop
  endfacet
  facet normal -0.844321 -0.535838 0
    outer loop
      vertex 2.19077 1.20438 0
      vertex 2.02254 1.46946 10
      vertex 2.02254 1.46946 0
    endloop
  endfacet
  facet normal -0.844321 -0.535838 0
    outer loop
      vertex 2.02254 1.46946 10
      vertex 2.19077 1.20438 0
      vertex 2.19077 1.20438 10
    endloop
  endfacet
  facet normal 0.248699 -0.968581 0
    outer loop
      vertex -0.772542 2.37764 0
      vertex -0.468452 2.45572 10
      vertex -0.772542 2.37764 10
    endloop
  endfacet
  facet normal 0.248699 -0.968581 0
    outer loop
      vertex -0.468452 2.45572 10
      vertex -0.772542 2.37764 0
      vertex -0.468452 2.45572 0
    endloop
  endfacet
  facet normal -0.481757 -0.876305 0
    outer loop
      vertex 1.06445 2.26207 0
      vertex 1.33957 2.11082 10
      vertex 1.06445 2.26207 10
    endloop
  endfacet
  facet normal -0.481757 -0.876305 -0
    outer loop
      vertex 1.33957 2.11082 10
      vertex 1.06445 2.26207 0
      vertex 1.33957 2.11082 0
    endloop
  endfacet
  facet normal 0.248699 0.968581 -0
    outer loop
      vertex -0.468452 -2.45572 0
      vertex -0.772542 -2.37764 10
      vertex -0.468452 -2.45572 10
    endloop
  endfacet
  facet normal 0.248699 0.968581 0
    outer loop
      vertex -0.772542 -2.37764 10
      vertex -0.468452 -2.45572 0
      vertex -0.772542 -2.37764 0
    endloop
  endfacet
  facet normal 0.587797 -0.809009 0
    outer loop
      vertex -1.59356 1.92628 0
      vertex -1.33957 2.11082 10
      vertex -1.59356 1.92628 10
    endloop
  endfacet
  facet normal 0.587797 -0.809009 0
    outer loop
      vertex -1.33957 2.11082 10
      vertex -1.59356 1.92628 0
      vertex -1.33957 2.11082 0
    endloop
  endfacet
  facet normal -0.125338 0.992114 0
    outer loop
      vertex 0.468452 -2.45572 0
      vertex 0.156976 -2.49507 10
      vertex 0.468452 -2.45572 10
    endloop
  endfacet
  facet normal -0.125338 0.992114 0
    outer loop
      vertex 0.156976 -2.49507 10
      vertex 0.468452 -2.45572 0
      vertex 0.156976 -2.49507 0
    endloop
  endfacet
  facet normal -0.684541 -0.728975 0
    outer loop
      vertex 1.59356 1.92628 0
      vertex 1.82242 1.71137 10
      vertex 1.59356 1.92628 10
    endloop
  endfacet
  facet normal -0.684541 -0.728975 -0
    outer loop
      vertex 1.82242 1.71137 10
      vertex 1.59356 1.92628 0
      vertex 1.82242 1.71137 0
    endloop
  endfacet
  facet normal -0.770522 0.637414 0
    outer loop
      vertex 1.82242 -1.71137 0
      vertex 2.02254 -1.46946 10
      vertex 2.02254 -1.46946 0
    endloop
  endfacet
  facet normal -0.770522 0.637414 0
    outer loop
      vertex 2.02254 -1.46946 10
      vertex 1.82242 -1.71137 0
      vertex 1.82242 -1.71137 10
    endloop
  endfacet
  facet normal 0.951054 0.309026 0
    outer loop
      vertex -2.32444 -0.920311 10
      vertex -2.42146 -0.621724 0
      vertex -2.42146 -0.621724 10
    endloop
  endfacet
  facet normal 0.951054 0.309026 0
    outer loop
      vertex -2.42146 -0.621724 0
      vertex -2.32444 -0.920311 10
      vertex -2.32444 -0.920311 0
    endloop
  endfacet
  facet normal -0.770522 -0.637414 0
    outer loop
      vertex 2.02254 1.46946 0
      vertex 1.82242 1.71137 10
      vertex 1.82242 1.71137 0
    endloop
  endfacet
  facet normal -0.770522 -0.637414 0
    outer loop
      vertex 1.82242 1.71137 10
      vertex 2.02254 1.46946 0
      vertex 2.02254 1.46946 10
    endloop
  endfacet
  facet normal -0.951054 0.309026 0
    outer loop
      vertex 2.32444 -0.920311 0
      vertex 2.42146 -0.621724 10
      vertex 2.42146 -0.621724 0
    endloop
  endfacet
  facet normal -0.951054 0.309026 0
    outer loop
      vertex 2.42146 -0.621724 10
      vertex 2.32444 -0.920311 0
      vertex 2.32444 -0.920311 10
    endloop
  endfacet
  facet normal -0.844321 0.535838 0
    outer loop
      vertex 2.02254 -1.46946 0
      vertex 2.19077 -1.20438 10
      vertex 2.19077 -1.20438 0
    endloop
  endfacet
  facet normal -0.844321 0.535838 0
    outer loop
      vertex 2.19077 -1.20438 10
      vertex 2.02254 -1.46946 0
      vertex 2.02254 -1.46946 10
    endloop
  endfacet
  facet normal 0.481757 0.876305 -0
    outer loop
      vertex -1.06445 -2.26207 0
      vertex -1.33957 -2.11082 10
      vertex -1.06445 -2.26207 10
    endloop
  endfacet
  facet normal 0.481757 0.876305 0
    outer loop
      vertex -1.33957 -2.11082 10
      vertex -1.06445 -2.26207 0
      vertex -1.33957 -2.11082 0
    endloop
  endfacet
  facet normal -0.90483 0.425772 0
    outer loop
      vertex 2.19077 -1.20438 0
      vertex 2.32444 -0.920311 10
      vertex 2.32444 -0.920311 0
    endloop
  endfacet
  facet normal -0.90483 0.425772 0
    outer loop
      vertex 2.32444 -0.920311 10
      vertex 2.19077 -1.20438 0
      vertex 2.19077 -1.20438 10
    endloop
  endfacet
  facet normal 0.684541 0.728975 -0
    outer loop
      vertex -1.59356 -1.92628 0
      vertex -1.82242 -1.71137 10
      vertex -1.59356 -1.92628 10
    endloop
  endfacet
  facet normal 0.684541 0.728975 0
    outer loop
      vertex -1.82242 -1.71137 10
      vertex -1.59356 -1.92628 0
      vertex -1.82242 -1.71137 0
    endloop
  endfacet
  facet normal 0.998027 0.0627802 0
    outer loop
      vertex -2.48029 -0.313333 10
      vertex -2.5 0 0
      vertex -2.5 0 10
    endloop
  endfacet
  facet normal 0.998027 0.0627802 0
    outer loop
      vertex -2.5 0 0
      vertex -2.48029 -0.313333 10
      vertex -2.48029 -0.313333 0
    endloop
  endfacet
  facet normal 0.125338 0.992114 -0
    outer loop
      vertex -0.156976 -2.49507 0
      vertex -0.468452 -2.45572 10
      vertex -0.156976 -2.49507 10
    endloop
  endfacet
  facet normal 0.125338 0.992114 0
    outer loop
      vertex -0.468452 -2.45572 10
      vertex -0.156976 -2.49507 0
      vertex -0.468452 -2.45572 0
    endloop
  endfacet
  facet normal 0.90483 0.425772 0
    outer loop
      vertex -2.19077 -1.20438 10
      vertex -2.32444 -0.920311 0
      vertex -2.32444 -0.920311 10
    endloop
  endfacet
  facet normal 0.90483 0.425772 0
    outer loop
      vertex -2.32444 -0.920311 0
      vertex -2.19077 -1.20438 10
      vertex -2.19077 -1.20438 0
    endloop
  endfacet
  facet normal 0.982287 0.187385 0
    outer loop
      vertex -2.42146 -0.621724 10
      vertex -2.48029 -0.313333 0
      vertex -2.48029 -0.313333 10
    endloop
  endfacet
  facet normal 0.982287 0.187385 0
    outer loop
      vertex -2.48029 -0.313333 0
      vertex -2.42146 -0.621724 10
      vertex -2.42146 -0.621724 0
    endloop
  endfacet
  facet normal -0.248699 -0.968581 0
    outer loop
      vertex 0.468452 2.45572 0
      vertex 0.772542 2.37764 10
      vertex 0.468452 2.45572 10
    endloop
  endfacet
  facet normal -0.248699 -0.968581 -0
    outer loop
      vertex 0.772542 2.37764 10
      vertex 0.468452 2.45572 0
      vertex 0.772542 2.37764 0
    endloop
  endfacet
  facet normal 0.844321 0.535838 0
    outer loop
      vertex -2.02254 -1.46946 10
      vertex -2.19077 -1.20438 0
      vertex -2.19077 -1.20438 10
    endloop
  endfacet
  facet normal 0.844321 0.535838 0
    outer loop
      vertex -2.19077 -1.20438 0
      vertex -2.02254 -1.46946 10
      vertex -2.02254 -1.46946 0
    endloop
  endfacet
  facet normal 0.998027 -0.0627802 0
    outer loop
      vertex -2.5 0 10
      vertex -2.48029 0.313333 0
      vertex -2.48029 0.313333 10
    endloop
  endfacet
  facet normal 0.998027 -0.0627802 0
    outer loop
      vertex -2.48029 0.313333 0
      vertex -2.5 0 10
      vertex -2.5 0 0
    endloop
  endfacet
  facet normal 0.481757 -0.876305 0
    outer loop
      vertex -1.33957 2.11082 0
      vertex -1.06445 2.26207 10
      vertex -1.33957 2.11082 10
    endloop
  endfacet
  facet normal 0.481757 -0.876305 0
    outer loop
      vertex -1.06445 2.26207 10
      vertex -1.33957 2.11082 0
      vertex -1.06445 2.26207 0
    endloop
  endfacet
  facet normal 0 1 -0
    outer loop
      vertex 0.156976 -2.49507 0
      vertex -0.156976 -2.49507 10
      vertex 0.156976 -2.49507 10
    endloop
  endfacet
  facet normal 0 1 0
    outer loop
      vertex -0.156976 -2.49507 10
      vertex 0.156976 -2.49507 0
      vertex -0.156976 -2.49507 0
    endloop
  endfacet
  facet normal 0.844321 -0.535838 0
    outer loop
      vertex -2.19077 1.20438 10
      vertex -2.02254 1.46946 0
      vertex -2.02254 1.46946 10
    endloop
  endfacet
  facet normal 0.844321 -0.535838 0
    outer loop
      vertex -2.02254 1.46946 0
      vertex -2.19077 1.20438 10
      vertex -2.19077 1.20438 0
    endloop
  endfacet
  facet normal 0.368112 0.929781 -0
    outer loop
      vertex -0.772542 -2.37764 0
      vertex -1.06445 -2.26207 10
      vertex -0.772542 -2.37764 10
    endloop
  endfacet
  facet normal 0.368112 0.929781 0
    outer loop
      vertex -1.06445 -2.26207 10
      vertex -0.772542 -2.37764 0
      vertex -1.06445 -2.26207 0
    endloop
  endfacet
  facet normal 0.982287 -0.187385 0
    outer loop
      vertex -2.48029 0.313333 10
      vertex -2.42146 0.621724 0
      vertex -2.42146 0.621724 10
    endloop
  endfacet
  facet normal 0.982287 -0.187385 0
    outer loop
      vertex -2.42146 0.621724 0
      vertex -2.48029 0.313333 10
      vertex -2.48029 0.313333 0
    endloop
  endfacet
  facet normal 0 -1 0
    outer loop
      vertex -0.156976 2.49507 0
      vertex 0.156976 2.49507 10
      vertex -0.156976 2.49507 10
    endloop
  endfacet
  facet normal 0 -1 -0
    outer loop
      vertex 0.156976 2.49507 10
      vertex -0.156976 2.49507 0
      vertex 0.156976 2.49507 0
    endloop
  endfacet
  facet normal -0.481757 0.876305 0
    outer loop
      vertex 1.33957 -2.11082 0
      vertex 1.06445 -2.26207 10
      vertex 1.33957 -2.11082 10
    endloop
  endfacet
  facet normal -0.481757 0.876305 0
    outer loop
      vertex 1.06445 -2.26207 10
      vertex 1.33957 -2.11082 0
      vertex 1.06445 -2.26207 0
    endloop
  endfacet
  facet normal 0.90483 -0.425772 0
    outer loop
      vertex -2.32444 0.920311 10
      vertex -2.19077 1.20438 0
      vertex -2.19077 1.20438 10
    endloop
  endfacet
  facet normal 0.90483 -0.425772 0
    outer loop
      vertex -2.19077 1.20438 0
      vertex -2.32444 0.920311 10
      vertex -2.32444 0.920311 0
    endloop
  endfacet
  facet normal 0.770522 -0.637414 0
    outer loop
      vertex -2.02254 1.46946 10
      vertex -1.82242 1.71137 0
      vertex -1.82242 1.71137 10
    endloop
  endfacet
  facet normal 0.770522 -0.637414 0
    outer loop
      vertex -1.82242 1.71137 0
      vertex -2.02254 1.46946 10
      vertex -2.02254 1.46946 0
    endloop
  endfacet
endsolid OpenSCAD_Model
