solid OpenSCAD_Model
  facet normal 0.866026 0.5 0
    outer loop
      vertex 2.325 0 2.6
      vertex 1.1625 2.01351 0
      vertex 1.1625 2.01351 2.6
    endloop
  endfacet
  facet normal 0.866026 0.5 0
    outer loop
      vertex 1.1625 2.01351 0
      vertex 2.325 0 2.6
      vertex 2.325 0 0
    endloop
  endfacet
  facet normal 0 1 -0
    outer loop
      vertex 1.1625 2.01351 0
      vertex -1.1625 2.01351 2.6
      vertex 1.1625 2.01351 2.6
    endloop
  endfacet
  facet normal 0 1 0
    outer loop
      vertex -1.1625 2.01351 2.6
      vertex 1.1625 2.01351 0
      vertex -1.1625 2.01351 0
    endloop
  endfacet
  facet normal -0.866026 0.5 0
    outer loop
      vertex -2.325 -0 0
      vertex -1.1625 2.01351 2.6
      vertex -1.1625 2.01351 0
    endloop
  endfacet
  facet normal -0.866026 0.5 0
    outer loop
      vertex -1.1625 2.01351 2.6
      vertex -2.325 -0 0
      vertex -2.325 -0 2.6
    endloop
  endfacet
  facet normal -0.866026 -0.5 0
    outer loop
      vertex -1.1625 -2.01351 0
      vertex -2.325 -0 2.6
      vertex -2.325 -0 0
    endloop
  endfacet
  facet normal -0.866026 -0.5 0
    outer loop
      vertex -2.325 -0 2.6
      vertex -1.1625 -2.01351 0
      vertex -1.1625 -2.01351 2.6
    endloop
  endfacet
  facet normal 0 -1 0
    outer loop
      vertex -1.1625 -2.01351 0
      vertex 1.1625 -2.01351 2.6
      vertex -1.1625 -2.01351 2.6
    endloop
  endfacet
  facet normal 0 -1 -0
    outer loop
      vertex 1.1625 -2.01351 2.6
      vertex -1.1625 -2.01351 0
      vertex 1.1625 -2.01351 0
    endloop
  endfacet
  facet normal 0.866026 -0.5 0
    outer loop
      vertex 1.1625 -2.01351 2.6
      vertex 2.325 0 0
      vertex 2.325 0 2.6
    endloop
  endfacet
  facet normal 0.866026 -0.5 0
    outer loop
      vertex 2.325 0 0
      vertex 1.1625 -2.01351 2.6
      vertex 1.1625 -2.01351 0
    endloop
  endfacet
  facet normal 0 0 -1
    outer loop
      vertex 1.1625 -2.01351 0
      vertex 1.1625 2.01351 0
      vertex 2.325 0 0
    endloop
  endfacet
  facet normal 0 0 -1
    outer loop
      vertex -1.1625 -2.01351 0
      vertex 1.1625 2.01351 0
      vertex 1.1625 -2.01351 0
    endloop
  endfacet
  facet normal 0 0 -1
    outer loop
      vertex -1.1625 -2.01351 0
      vertex -1.1625 2.01351 0
      vertex 1.1625 2.01351 0
    endloop
  endfacet
  facet normal 0 -0 -1
    outer loop
      vertex -1.1625 2.01351 0
      vertex -1.1625 -2.01351 0
      vertex -2.325 -0 0
    endloop
  endfacet
  facet normal 0 0 1
    outer loop
      vertex 1.1625 2.01351 2.6
      vertex 1.1625 -2.01351 2.6
      vertex 2.325 0 2.6
    endloop
  endfacet
  facet normal -0 0 1
    outer loop
      vertex -1.1625 2.01351 2.6
      vertex 1.1625 -2.01351 2.6
      vertex 1.1625 2.01351 2.6
    endloop
  endfacet
  facet normal 0 0 1
    outer loop
      vertex -1.1625 2.01351 2.6
      vertex -1.1625 -2.01351 2.6
      vertex 1.1625 -2.01351 2.6
    endloop
  endfacet
  facet normal 0 -0 1
    outer loop
      vertex -1.1625 -2.01351 2.6
      vertex -1.1625 2.01351 2.6
      vertex -2.325 -0 2.6
    endloop
  endfacet
endsolid OpenSCAD_Model
