solid OpenSCAD_Model
  facet normal 0.99802667 0.06279102 0
    outer loop
      vertex 10 0 5
      vertex 9.921146 1.2533321 0
      vertex 9.921146 1.2533321 5
    endloop
  endfacet
  facet normal 0.99802667 0.06279102 0
    outer loop
      vertex 9.921146 1.2533321 0
      vertex 10 0 5
      vertex 10 0 0
    endloop
  endfacet
  facet normal 0.99802667 -0.06279102 0
    outer loop
      vertex 9.921146 -1.2533321 5
      vertex 10 0 0
      vertex 10 0 5
    endloop
  endfacet
  facet normal 0.99802667 -0.06279102 0
    outer loop
      vertex 10 0 0
      vertex 9.921146 -1.2533321 5
      vertex 9.921146 -1.2533321 0
    endloop
  endfacet
  facet normal 0.90482736 0.42577863 0
    outer loop
      vertex 9.297765 3.6812449 5
      vertex 9.230812 3.8235269 0
      vertex 9.230812 3.8235269 5
    endloop
  endfacet
  facet normal 0.90482736 0.42577863 0
    outer loop
      vertex 9.230812 3.8235269 0
      vertex 9.297765 3.6812449 5
      vertex 9.297765 3.6812449 0
    endloop
  endfacet
  facet normal 0.90482736 -0.42577863 0
    outer loop
      vertex 9.230812 -3.8235269 5
      vertex 9.297765 -3.6812449 0
      vertex 9.297765 -3.6812449 5
    endloop
  endfacet
  facet normal 0.90482736 -0.42577863 0
    outer loop
      vertex 9.297765 -3.6812449 0
      vertex 9.230812 -3.8235269 5
      vertex 9.230812 -3.8235269 0
    endloop
  endfacet
  facet normal 0.9822872 0.1873813 0
    outer loop
      vertex 9.921146 1.2533321 5
      vertex 9.685831 2.4868984 0
      vertex 9.685831 2.4868984 5
    endloop
  endfacet
  facet normal 0.9822872 0.1873813 0
    outer loop
      vertex 9.685831 2.4868984 0
      vertex 9.921146 1.2533321 5
      vertex 9.921146 1.2533321 0
    endloop
  endfacet
  facet normal 0.9510566 0.3090167 0
    outer loop
      vertex 9.685831 2.4868984 5
      vertex 9.297765 3.6812449 0
      vertex 9.297765 3.6812449 5
    endloop
  endfacet
  facet normal 0.9510566 0.3090167 0
    outer loop
      vertex 9.297765 3.6812449 0
      vertex 9.685831 2.4868984 5
      vertex 9.685831 2.4868984 0
    endloop
  endfacet
  facet normal 0.9510566 -0.3090167 0
    outer loop
      vertex 9.297765 -3.6812449 5
      vertex 9.685831 -2.4868984 0
      vertex 9.685831 -2.4868984 5
    endloop
  endfacet
  facet normal 0.9510566 -0.3090167 0
    outer loop
      vertex 9.685831 -2.4868984 0
      vertex 9.297765 -3.6812449 5
      vertex 9.297765 -3.6812449 0
    endloop
  endfacet
  facet normal 0 0 -1
    outer loop
      vertex 0 0 0
      vertex 10 0 0
      vertex 9.921146 -1.2533321 0
    endloop
  endfacet
  facet normal 0 0 -1
    outer loop
      vertex 0 0 0
      vertex 9.921146 -1.2533321 0
      vertex 9.685831 -2.4868984 0
    endloop
  endfacet
  facet normal 0 0 -1
    outer loop
      vertex 10 0 0
      vertex 0 0 0
      vertex 9.921146 1.2533321 0
    endloop
  endfacet
  facet normal 0 0 -1
    outer loop
      vertex 0 0 0
      vertex 9.685831 -2.4868984 0
      vertex 9.297765 -3.6812449 0
    endloop
  endfacet
  facet normal 0 0 -1
    outer loop
      vertex 9.921146 1.2533321 0
      vertex 0 0 0
      vertex 9.685831 2.4868984 0
    endloop
  endfacet
  facet normal 0 0 -1
    outer loop
      vertex 0 0 0
      vertex 9.297765 -3.6812449 0
      vertex 9.230812 -3.8235269 0
    endloop
  endfacet
  facet normal 0 0 -1
    outer loop
      vertex 9.685831 2.4868984 0
      vertex 0 0 0
      vertex 9.297765 3.6812449 0
    endloop
  endfacet
  facet normal 0 0 -1
    outer loop
      vertex 9.297765 3.6812449 0
      vertex 0 0 0
      vertex 9.230812 3.8235269 0
    endloop
  endfacet
  facet normal 0 0 1
    outer loop
      vertex 0 0 5
      vertex 10 0 5
      vertex 9.921146 1.2533321 5
    endloop
  endfacet
  facet normal 0 0 1
    outer loop
      vertex 0 0 5
      vertex 9.921146 1.2533321 5
      vertex 9.685831 2.4868984 5
    endloop
  endfacet
  facet normal 0 0 1
    outer loop
      vertex 10 0 5
      vertex 0 0 5
      vertex 9.921146 -1.2533321 5
    endloop
  endfacet
  facet normal 0 0 1
    outer loop
      vertex 0 0 5
      vertex 9.685831 2.4868984 5
      vertex 9.297765 3.6812449 5
    endloop
  endfacet
  facet normal 0 0 1
    outer loop
      vertex 9.921146 -1.2533321 5
      vertex 0 0 5
      vertex 9.685831 -2.4868984 5
    endloop
  endfacet
  facet normal 0 0 1
    outer loop
      vertex 0 0 5
      vertex 9.297765 3.6812449 5
      vertex 9.230812 3.8235269 5
    endloop
  endfacet
  facet normal 0 0 1
    outer loop
      vertex 9.685831 -2.4868984 5
      vertex 0 0 5
      vertex 9.297765 -3.6812449 5
    endloop
  endfacet
  facet normal 0 0 1
    outer loop
      vertex 9.297765 -3.6812449 5
      vertex 0 0 5
      vertex 9.230812 -3.8235269 5
    endloop
  endfacet
  facet normal 0.9822872 -0.1873813 0
    outer loop
      vertex 9.685831 -2.4868984 5
      vertex 9.921146 -1.2533321 0
      vertex 9.921146 -1.2533321 5
    endloop
  endfacet
  facet normal 0.9822872 -0.1873813 0
    outer loop
      vertex 9.921146 -1.2533321 0
      vertex 9.685831 -2.4868984 5
      vertex 9.685831 -2.4868984 0
    endloop
  endfacet
  facet normal -0.38268337 0.92387956 0
    outer loop
      vertex 9.230812 3.8235269 0
      vertex 0 0 5
      vertex 9.230812 3.8235269 5
    endloop
  endfacet
  facet normal -0.38268337 0.92387956 0
    outer loop
      vertex 0 0 5
      vertex 9.230812 3.8235269 0
      vertex 0 0 0
    endloop
  endfacet
  facet normal -0.38268337 -0.92387956 0
    outer loop
      vertex 0 0 0
      vertex 9.230812 -3.8235269 5
      vertex 0 0 5
    endloop
  endfacet
  facet normal -0.38268337 -0.92387956 0
    outer loop
      vertex 9.230812 -3.8235269 5
      vertex 0 0 0
      vertex 9.230812 -3.8235269 0
    endloop
  endfacet
endsolid OpenSCAD_Model
